  0
SECTION
  2
HEADER
  9
$ACADVER
  1
AC1014
  9
$HANDSEED
  5
FFFF
  9
$MEASUREMENT
 70
     1
  0
ENDSEC
  0
SECTION
  2
TABLES
  0
TABLE
  2
VPORT
  5
8
330
0
100
AcDbSymbolTable
 70
     4
  0
VPORT
  5
2E
330
8
100
AcDbSymbolTableRecord
100
AcDbViewportTableRecord
  2
*ACTIVE
 70
     0
 10
0.0
 20
0.0
 11
1.0
 21
1.0
 12
210.0
 22
148.5
 13
0.0
 23
0.0
 14
10.0
 24
10.0
 15
10.0
 25
10.0
 16
0.0
 26
0.0
 36
1.0
 17
0.0
 27
0.0
 37
0.0
 40
341.0
 41
1.24
 42
50.0
 43
0.0
 44
0.0
 50
0.0
 51
0.0
 71
     0
 72
   100
 73
     1
 74
     3
 75
     0
 76
     0
 77
     0
 78
     0
  0
ENDTAB
  0
TABLE
  2
LTYPE
  5
5
330
0
100
AcDbSymbolTable
 70
     1
  0
LTYPE
  5
14
330
5
100
AcDbSymbolTableRecord
100
AcDbLinetypeTableRecord
  2
BYBLOCK
 70
     0
  3

 72
    65
 73
     0
 40
0.0
  0
LTYPE
  5
15
330
5
100
AcDbSymbolTableRecord
100
AcDbLinetypeTableRecord
  2
BYLAYER
 70
     0
  3

 72
    65
 73
     0
 40
0.0
  0
LTYPE
  5
16
330
5
100
AcDbSymbolTableRecord
100
AcDbLinetypeTableRecord
  2
CONTINUOUS
 70
     0
  3
Solid line
 72
    65
 73
     0
 40
0.0
  0
ENDTAB
  0
TABLE
  2
LAYER
  5
2
100
AcDbSymbolTable
 70
1
  0
LAYER
  5
50
100
AcDbSymbolTableRecord
100
AcDbLayerTableRecord
  2
0
 70
0
  6
CONTINUOUS
  0
ENDTAB
  0
TABLE
  2
STYLE
  5
3
330
0
100
AcDbSymbolTable
 70
     1
  0
STYLE
  5
11
330
3
100
AcDbSymbolTableRecord
100
AcDbTextStyleTableRecord
  2
STANDARD
 70
     0
 40
0.0
 41
1.0
 50
0.0
 71
     0
 42
2.5
  3
txt
  4

  0
ENDTAB
  0
TABLE
  2
VIEW
  5
6
330
0
100
AcDbSymbolTable
 70
     0
  0
ENDTAB
  0
TABLE
  2
UCS
  5
7
330
0
100
AcDbSymbolTable
 70
     0
  0
ENDTAB
  0
TABLE
  2
APPID
  5
9
330
0
100
AcDbSymbolTable
 70
     2
  0
APPID
  5
12
330
9
100
AcDbSymbolTableRecord
100
AcDbRegAppTableRecord
  2
ACAD
 70
     0
  0
ENDTAB
  0
TABLE
  2
DIMSTYLE
  5
A
330
0
100
AcDbSymbolTable
 70
     1
  0
DIMSTYLE
105
27
330
A
100
AcDbSymbolTableRecord
100
AcDbDimStyleTableRecord
  2
ISO-25
 70
     0
  3

  4

  5

  6

  7

 40
1.0
 41
2.5
 42
0.625
 43
3.75
 44
1.25
 45
0.0
 46
0.0
 47
0.0
 48
0.0
140
2.5
141
2.5
142
0.0
143
0.03937007874016
144
1.0
145
0.0
146
1.0
147
0.625
 71
     0
 72
     0
 73
     0
 74
     0
 75
     0
 76
     0
 77
     1
 78
     8
170
     0
171
     3
172
     1
173
     0
174
     0
175
     0
176
     0
177
     0
178
     0
270
     2
271
     2
272
     2
273
     2
274
     3
340
11
275
     0
280
     0
281
     0
282
     0
283
     0
284
     8
285
     0
286
     0
287
     3
288
     0
  0
ENDTAB
  0
TABLE
  2
BLOCK_RECORD
  5
1
330
0
100
AcDbSymbolTable
 70
     1
  0
BLOCK_RECORD
  5
1F
330
1
100
AcDbSymbolTableRecord
100
AcDbBlockTableRecord
  2
*MODEL_SPACE
  0
BLOCK_RECORD
  5
1B
330
1
100
AcDbSymbolTableRecord
100
AcDbBlockTableRecord
  2
*PAPER_SPACE
  0
ENDTAB
  0
ENDSEC
  0
SECTION
  2
BLOCKS
  0
BLOCK
  5
20
330
1F
100
AcDbEntity
  8
0
100
AcDbBlockBegin
  2
*MODEL_SPACE
 70
     0
 10
0.0
 20
0.0
 30
0.0
  3
*MODEL_SPACE
  1

  0
ENDBLK
  5
21
330
1F
100
AcDbEntity
  8
0
100
AcDbBlockEnd
  0
BLOCK
  5
1C
330
1B
100
AcDbEntity
 67
     1
  8
0
100
AcDbBlockBegin
  2
*PAPER_SPACE
  1

  0
ENDBLK
  5
1D
330
1B
100
AcDbEntity
 67
     1
  8
0
100
AcDbBlockEnd
  0
ENDSEC
  0
SECTION
  2
ENTITIES
  0
SPLINE
  5
100
100
AcDbEntity
  8
0
 62
7
100
AcDbSpline
 70
8
 71
3
 72
8
 73
4
 74
0
 40
0
 40
0
 40
0
 40
0
 40
1
 40
1
 40
1
 40
1
 10
80.026958
 20
100.252470
 30
0.0
 10
80.339029
 20
100.252470
 30
0.0
 10
80.638318
 20
100.128501
 30
0.0
 10
80.858985
 20
99.907833
 30
0.0
  0
SPLINE
  5
101
100
AcDbEntity
  8
0
 62
7
100
AcDbSpline
 70
8
 71
3
 72
8
 73
4
 74
0
 40
0
 40
0
 40
0
 40
0
 40
1
 40
1
 40
1
 40
1
 10
80.858985
 20
99.907833
 30
0.0
 10
81.079653
 20
99.687166
 30
0.0
 10
81.203622
 20
99.387877
 30
0.0
 10
81.203622
 20
99.075806
 30
0.0
  0
LWPOLYLINE
  5
102
100
AcDbEntity
  8
0
 62
7
100
AcDbPolyline
 90
2
 70
0
 10
6.177695
 20
100.252470
 30
0.0
 10
80.026958
 20
100.252470
 30
0.0
  0
SPLINE
  5
103
100
AcDbEntity
  8
0
 62
7
100
AcDbSpline
 70
8
 71
3
 72
8
 73
4
 74
0
 40
0
 40
0
 40
0
 40
0
 40
1
 40
1
 40
1
 40
1
 10
81.203622
 20
6.175190
 30
0.0
 10
81.203622
 20
5.863120
 30
0.0
 10
81.079653
 20
5.563830
 30
0.0
 10
80.858985
 20
5.343163
 30
0.0
  0
SPLINE
  5
104
100
AcDbEntity
  8
0
 62
7
100
AcDbSpline
 70
8
 71
3
 72
8
 73
4
 74
0
 40
0
 40
0
 40
0
 40
0
 40
1
 40
1
 40
1
 40
1
 10
80.858985
 20
5.343163
 30
0.0
 10
80.638318
 20
5.122496
 30
0.0
 10
80.339029
 20
4.998526
 30
0.0
 10
80.026958
 20
4.998526
 30
0.0
  0
LWPOLYLINE
  5
105
100
AcDbEntity
  8
0
 62
7
100
AcDbPolyline
 90
2
 70
0
 10
81.203622
 20
99.075806
 30
0.0
 10
81.203622
 20
6.175190
 30
0.0
  0
SPLINE
  5
106
100
AcDbEntity
  8
0
 62
7
100
AcDbSpline
 70
8
 71
3
 72
8
 73
4
 74
0
 40
0
 40
0
 40
0
 40
0
 40
1
 40
1
 40
1
 40
1
 10
6.177695
 20
4.998526
 30
0.0
 10
5.865625
 20
4.998526
 30
0.0
 10
5.566336
 20
5.122496
 30
0.0
 10
5.345668
 20
5.343163
 30
0.0
  0
SPLINE
  5
107
100
AcDbEntity
  8
0
 62
7
100
AcDbSpline
 70
8
 71
3
 72
8
 73
4
 74
0
 40
0
 40
0
 40
0
 40
0
 40
1
 40
1
 40
1
 40
1
 10
5.345668
 20
5.343163
 30
0.0
 10
5.125001
 20
5.563830
 30
0.0
 10
5.001031
 20
5.863120
 30
0.0
 10
5.001031
 20
6.175190
 30
0.0
  0
LWPOLYLINE
  5
108
100
AcDbEntity
  8
0
 62
7
100
AcDbPolyline
 90
2
 70
0
 10
80.026958
 20
4.998526
 30
0.0
 10
6.177695
 20
4.998526
 30
0.0
  0
SPLINE
  5
109
100
AcDbEntity
  8
0
 62
7
100
AcDbSpline
 70
8
 71
3
 72
8
 73
4
 74
0
 40
0
 40
0
 40
0
 40
0
 40
1
 40
1
 40
1
 40
1
 10
5.001031
 20
99.075806
 30
0.0
 10
5.001031
 20
99.387877
 30
0.0
 10
5.125001
 20
99.687166
 30
0.0
 10
5.345668
 20
99.907833
 30
0.0
  0
SPLINE
  5
10a
100
AcDbEntity
  8
0
 62
7
100
AcDbSpline
 70
8
 71
3
 72
8
 73
4
 74
0
 40
0
 40
0
 40
0
 40
0
 40
1
 40
1
 40
1
 40
1
 10
5.345668
 20
99.907833
 30
0.0
 10
5.566336
 20
100.128501
 30
0.0
 10
5.865625
 20
100.252470
 30
0.0
 10
6.177695
 20
100.252470
 30
0.0
  0
LWPOLYLINE
  5
10b
100
AcDbEntity
  8
0
 62
7
100
AcDbPolyline
 90
2
 70
0
 10
5.001031
 20
6.175190
 30
0.0
 10
5.001031
 20
99.075806
 30
0.0
  0
SPLINE
  5
10c
100
AcDbEntity
  8
0
 62
7
100
AcDbSpline
 70
8
 71
3
 72
8
 73
4
 74
0
 40
0
 40
0
 40
0
 40
0
 40
1
 40
1
 40
1
 40
1
 10
24.032339
 20
82.657008
 30
0.0
 10
23.428375
 20
82.657008
 30
0.0
 10
22.883880
 20
82.293189
 30
0.0
 10
22.652753
 20
81.735198
 30
0.0
  0
SPLINE
  5
10d
100
AcDbEntity
  8
0
 62
7
100
AcDbSpline
 70
8
 71
3
 72
8
 73
4
 74
0
 40
0
 40
0
 40
0
 40
0
 40
1
 40
1
 40
1
 40
1
 10
22.652753
 20
81.735198
 30
0.0
 10
22.421626
 20
81.177208
 30
0.0
 10
22.549382
 20
80.534933
 30
0.0
 10
22.976450
 20
80.107866
 30
0.0
  0
SPLINE
  5
10e
100
AcDbEntity
  8
0
 62
7
100
AcDbSpline
 70
8
 71
3
 72
8
 73
4
 74
0
 40
0
 40
0
 40
0
 40
0
 40
1
 40
1
 40
1
 40
1
 10
22.976450
 20
80.107866
 30
0.0
 10
23.403517
 20
79.680798
 30
0.0
 10
24.045792
 20
79.553042
 30
0.0
 10
24.603782
 20
79.784169
 30
0.0
  0
SPLINE
  5
10f
100
AcDbEntity
  8
0
 62
7
100
AcDbSpline
 70
8
 71
3
 72
8
 73
4
 74
0
 40
0
 40
0
 40
0
 40
0
 40
1
 40
1
 40
1
 40
1
 10
24.603782
 20
79.784169
 30
0.0
 10
25.161773
 20
80.015296
 30
0.0
 10
25.525592
 20
80.559790
 30
0.0
 10
25.525592
 20
81.163755
 30
0.0
  0
SPLINE
  5
110
100
AcDbEntity
  8
0
 62
7
100
AcDbSpline
 70
8
 71
3
 72
8
 73
4
 74
0
 40
0
 40
0
 40
0
 40
0
 40
1
 40
1
 40
1
 40
1
 10
25.525592
 20
81.163755
 30
0.0
 10
25.525592
 20
81.988456
 30
0.0
 10
24.857040
 20
82.657008
 30
0.0
 10
24.032339
 20
82.657008
 30
0.0
  0
LWPOLYLINE
  5
111
100
AcDbEntity
  8
0
 62
7
100
AcDbPolyline
 90
1
 70
1
 10
6.177695
 20
100.252470
 30
0.0
  0
SPLINE
  5
112
100
AcDbEntity
  8
0
 62
7
100
AcDbSpline
 70
8
 71
3
 72
8
 73
4
 74
0
 40
0
 40
0
 40
0
 40
0
 40
1
 40
1
 40
1
 40
1
 10
62.132343
 20
82.657008
 30
0.0
 10
61.528379
 20
82.657008
 30
0.0
 10
60.983884
 20
82.293189
 30
0.0
 10
60.752757
 20
81.735198
 30
0.0
  0
SPLINE
  5
113
100
AcDbEntity
  8
0
 62
7
100
AcDbSpline
 70
8
 71
3
 72
8
 73
4
 74
0
 40
0
 40
0
 40
0
 40
0
 40
1
 40
1
 40
1
 40
1
 10
60.752757
 20
81.735198
 30
0.0
 10
60.521630
 20
81.177208
 30
0.0
 10
60.649386
 20
80.534933
 30
0.0
 10
61.076454
 20
80.107866
 30
0.0
  0
SPLINE
  5
114
100
AcDbEntity
  8
0
 62
7
100
AcDbSpline
 70
8
 71
3
 72
8
 73
4
 74
0
 40
0
 40
0
 40
0
 40
0
 40
1
 40
1
 40
1
 40
1
 10
61.076454
 20
80.107866
 30
0.0
 10
61.503521
 20
79.680798
 30
0.0
 10
62.145796
 20
79.553042
 30
0.0
 10
62.703786
 20
79.784169
 30
0.0
  0
SPLINE
  5
115
100
AcDbEntity
  8
0
 62
7
100
AcDbSpline
 70
8
 71
3
 72
8
 73
4
 74
0
 40
0
 40
0
 40
0
 40
0
 40
1
 40
1
 40
1
 40
1
 10
62.703786
 20
79.784169
 30
0.0
 10
63.261777
 20
80.015296
 30
0.0
 10
63.625596
 20
80.559790
 30
0.0
 10
63.625596
 20
81.163755
 30
0.0
  0
SPLINE
  5
116
100
AcDbEntity
  8
0
 62
7
100
AcDbSpline
 70
8
 71
3
 72
8
 73
4
 74
0
 40
0
 40
0
 40
0
 40
0
 40
1
 40
1
 40
1
 40
1
 10
63.625596
 20
81.163755
 30
0.0
 10
63.625596
 20
81.559790
 30
0.0
 10
63.468272
 20
81.939605
 30
0.0
 10
63.188232
 20
82.219644
 30
0.0
  0
SPLINE
  5
117
100
AcDbEntity
  8
0
 62
7
100
AcDbSpline
 70
8
 71
3
 72
8
 73
4
 74
0
 40
0
 40
0
 40
0
 40
0
 40
1
 40
1
 40
1
 40
1
 10
63.188232
 20
82.219644
 30
0.0
 10
62.908193
 20
82.499684
 30
0.0
 10
62.528378
 20
82.657008
 30
0.0
 10
62.132343
 20
82.657008
 30
0.0
  0
LWPOLYLINE
  5
118
100
AcDbEntity
  8
0
 62
7
100
AcDbPolyline
 90
1
 70
1
 10
24.032339
 20
82.657008
 30
0.0
  0
SPLINE
  5
119
100
AcDbEntity
  8
0
 62
7
100
AcDbSpline
 70
8
 71
3
 72
8
 73
4
 74
0
 40
0
 40
0
 40
0
 40
0
 40
1
 40
1
 40
1
 40
1
 10
24.032339
 20
25.541541
 30
0.0
 10
23.428375
 20
25.541541
 30
0.0
 10
22.883880
 20
25.177722
 30
0.0
 10
22.652753
 20
24.619731
 30
0.0
  0
SPLINE
  5
11a
100
AcDbEntity
  8
0
 62
7
100
AcDbSpline
 70
8
 71
3
 72
8
 73
4
 74
0
 40
0
 40
0
 40
0
 40
0
 40
1
 40
1
 40
1
 40
1
 10
22.652753
 20
24.619731
 30
0.0
 10
22.421626
 20
24.061741
 30
0.0
 10
22.549382
 20
23.419466
 30
0.0
 10
22.976450
 20
22.992399
 30
0.0
  0
SPLINE
  5
11b
100
AcDbEntity
  8
0
 62
7
100
AcDbSpline
 70
8
 71
3
 72
8
 73
4
 74
0
 40
0
 40
0
 40
0
 40
0
 40
1
 40
1
 40
1
 40
1
 10
22.976450
 20
22.992399
 30
0.0
 10
23.403517
 20
22.565331
 30
0.0
 10
24.045792
 20
22.437575
 30
0.0
 10
24.603782
 20
22.668702
 30
0.0
  0
SPLINE
  5
11c
100
AcDbEntity
  8
0
 62
7
100
AcDbSpline
 70
8
 71
3
 72
8
 73
4
 74
0
 40
0
 40
0
 40
0
 40
0
 40
1
 40
1
 40
1
 40
1
 10
24.603782
 20
22.668702
 30
0.0
 10
25.161773
 20
22.899829
 30
0.0
 10
25.525592
 20
23.444323
 30
0.0
 10
25.525592
 20
24.048288
 30
0.0
  0
SPLINE
  5
11d
100
AcDbEntity
  8
0
 62
7
100
AcDbSpline
 70
8
 71
3
 72
8
 73
4
 74
0
 40
0
 40
0
 40
0
 40
0
 40
1
 40
1
 40
1
 40
1
 10
25.525592
 20
24.048288
 30
0.0
 10
25.525592
 20
24.872989
 30
0.0
 10
24.857040
 20
25.541541
 30
0.0
 10
24.032339
 20
25.541541
 30
0.0
  0
LWPOLYLINE
  5
11e
100
AcDbEntity
  8
0
 62
7
100
AcDbPolyline
 90
1
 70
1
 10
62.132343
 20
82.657008
 30
0.0
  0
SPLINE
  5
11f
100
AcDbEntity
  8
0
 62
7
100
AcDbSpline
 70
8
 71
3
 72
8
 73
4
 74
0
 40
0
 40
0
 40
0
 40
0
 40
1
 40
1
 40
1
 40
1
 10
62.132343
 20
25.541541
 30
0.0
 10
61.528379
 20
25.541541
 30
0.0
 10
60.983884
 20
25.177722
 30
0.0
 10
60.752757
 20
24.619731
 30
0.0
  0
SPLINE
  5
120
100
AcDbEntity
  8
0
 62
7
100
AcDbSpline
 70
8
 71
3
 72
8
 73
4
 74
0
 40
0
 40
0
 40
0
 40
0
 40
1
 40
1
 40
1
 40
1
 10
60.752757
 20
24.619731
 30
0.0
 10
60.521630
 20
24.061741
 30
0.0
 10
60.649386
 20
23.419466
 30
0.0
 10
61.076454
 20
22.992399
 30
0.0
  0
SPLINE
  5
121
100
AcDbEntity
  8
0
 62
7
100
AcDbSpline
 70
8
 71
3
 72
8
 73
4
 74
0
 40
0
 40
0
 40
0
 40
0
 40
1
 40
1
 40
1
 40
1
 10
61.076454
 20
22.992399
 30
0.0
 10
61.503521
 20
22.565331
 30
0.0
 10
62.145796
 20
22.437575
 30
0.0
 10
62.703786
 20
22.668702
 30
0.0
  0
SPLINE
  5
122
100
AcDbEntity
  8
0
 62
7
100
AcDbSpline
 70
8
 71
3
 72
8
 73
4
 74
0
 40
0
 40
0
 40
0
 40
0
 40
1
 40
1
 40
1
 40
1
 10
62.703786
 20
22.668702
 30
0.0
 10
63.261777
 20
22.899829
 30
0.0
 10
63.625596
 20
23.444323
 30
0.0
 10
63.625596
 20
24.048288
 30
0.0
  0
SPLINE
  5
123
100
AcDbEntity
  8
0
 62
7
100
AcDbSpline
 70
8
 71
3
 72
8
 73
4
 74
0
 40
0
 40
0
 40
0
 40
0
 40
1
 40
1
 40
1
 40
1
 10
63.625596
 20
24.048288
 30
0.0
 10
63.625596
 20
24.444323
 30
0.0
 10
63.468272
 20
24.824138
 30
0.0
 10
63.188232
 20
25.104177
 30
0.0
  0
SPLINE
  5
124
100
AcDbEntity
  8
0
 62
7
100
AcDbSpline
 70
8
 71
3
 72
8
 73
4
 74
0
 40
0
 40
0
 40
0
 40
0
 40
1
 40
1
 40
1
 40
1
 10
63.188232
 20
25.104177
 30
0.0
 10
62.908193
 20
25.384217
 30
0.0
 10
62.528378
 20
25.541541
 30
0.0
 10
62.132343
 20
25.541541
 30
0.0
  0
LWPOLYLINE
  5
125
100
AcDbEntity
  8
0
 62
7
100
AcDbPolyline
 90
1
 70
1
 10
24.032339
 20
25.541541
 30
0.0
  0
LWPOLYLINE
  5
126
100
AcDbEntity
  8
0
 62
7
100
AcDbPolyline
 90
1
 70
1
 10
62.132343
 20
25.541541
 30
0.0
  0
SPLINE
  5
127
100
AcDbEntity
  8
0
 62
7
100
AcDbSpline
 70
8
 71
3
 72
8
 73
4
 74
0
 40
0
 40
0
 40
0
 40
0
 40
1
 40
1
 40
1
 40
1
 10
164.693621
 20
100.252470
 30
0.0
 10
165.005692
 20
100.252470
 30
0.0
 10
165.304981
 20
100.128501
 30
0.0
 10
165.525648
 20
99.907833
 30
0.0
  0
SPLINE
  5
128
100
AcDbEntity
  8
0
 62
7
100
AcDbSpline
 70
8
 71
3
 72
8
 73
4
 74
0
 40
0
 40
0
 40
0
 40
0
 40
1
 40
1
 40
1
 40
1
 10
165.525648
 20
99.907833
 30
0.0
 10
165.746315
 20
99.687166
 30
0.0
 10
165.870285
 20
99.387877
 30
0.0
 10
165.870285
 20
99.075806
 30
0.0
  0
LWPOLYLINE
  5
129
100
AcDbEntity
  8
0
 62
7
100
AcDbPolyline
 90
2
 70
0
 10
90.844358
 20
100.252470
 30
0.0
 10
164.693621
 20
100.252470
 30
0.0
  0
SPLINE
  5
12a
100
AcDbEntity
  8
0
 62
7
100
AcDbSpline
 70
8
 71
3
 72
8
 73
4
 74
0
 40
0
 40
0
 40
0
 40
0
 40
1
 40
1
 40
1
 40
1
 10
165.870285
 20
6.175190
 30
0.0
 10
165.870285
 20
5.863120
 30
0.0
 10
165.746315
 20
5.563830
 30
0.0
 10
165.525648
 20
5.343163
 30
0.0
  0
SPLINE
  5
12b
100
AcDbEntity
  8
0
 62
7
100
AcDbSpline
 70
8
 71
3
 72
8
 73
4
 74
0
 40
0
 40
0
 40
0
 40
0
 40
1
 40
1
 40
1
 40
1
 10
165.525648
 20
5.343163
 30
0.0
 10
165.304981
 20
5.122496
 30
0.0
 10
165.005692
 20
4.998526
 30
0.0
 10
164.693621
 20
4.998526
 30
0.0
  0
LWPOLYLINE
  5
12c
100
AcDbEntity
  8
0
 62
7
100
AcDbPolyline
 90
2
 70
0
 10
165.870285
 20
99.075806
 30
0.0
 10
165.870285
 20
6.175190
 30
0.0
  0
SPLINE
  5
12d
100
AcDbEntity
  8
0
 62
7
100
AcDbSpline
 70
8
 71
3
 72
8
 73
4
 74
0
 40
0
 40
0
 40
0
 40
0
 40
1
 40
1
 40
1
 40
1
 10
90.844358
 20
4.998526
 30
0.0
 10
90.532287
 20
4.998526
 30
0.0
 10
90.232998
 20
5.122496
 30
0.0
 10
90.012331
 20
5.343163
 30
0.0
  0
SPLINE
  5
12e
100
AcDbEntity
  8
0
 62
7
100
AcDbSpline
 70
8
 71
3
 72
8
 73
4
 74
0
 40
0
 40
0
 40
0
 40
0
 40
1
 40
1
 40
1
 40
1
 10
90.012331
 20
5.343163
 30
0.0
 10
89.791664
 20
5.563830
 30
0.0
 10
89.667694
 20
5.863120
 30
0.0
 10
89.667694
 20
6.175190
 30
0.0
  0
LWPOLYLINE
  5
12f
100
AcDbEntity
  8
0
 62
7
100
AcDbPolyline
 90
2
 70
0
 10
164.693621
 20
4.998526
 30
0.0
 10
90.844358
 20
4.998526
 30
0.0
  0
SPLINE
  5
130
100
AcDbEntity
  8
0
 62
7
100
AcDbSpline
 70
8
 71
3
 72
8
 73
4
 74
0
 40
0
 40
0
 40
0
 40
0
 40
1
 40
1
 40
1
 40
1
 10
89.667694
 20
99.075806
 30
0.0
 10
89.667694
 20
99.387877
 30
0.0
 10
89.791664
 20
99.687166
 30
0.0
 10
90.012331
 20
99.907833
 30
0.0
  0
SPLINE
  5
131
100
AcDbEntity
  8
0
 62
7
100
AcDbSpline
 70
8
 71
3
 72
8
 73
4
 74
0
 40
0
 40
0
 40
0
 40
0
 40
1
 40
1
 40
1
 40
1
 10
90.012331
 20
99.907833
 30
0.0
 10
90.232998
 20
100.128501
 30
0.0
 10
90.532287
 20
100.252470
 30
0.0
 10
90.844358
 20
100.252470
 30
0.0
  0
LWPOLYLINE
  5
132
100
AcDbEntity
  8
0
 62
7
100
AcDbPolyline
 90
2
 70
0
 10
89.667694
 20
6.175190
 30
0.0
 10
89.667694
 20
99.075806
 30
0.0
  0
SPLINE
  5
133
100
AcDbEntity
  8
0
 62
7
100
AcDbSpline
 70
8
 71
3
 72
8
 73
4
 74
0
 40
0
 40
0
 40
0
 40
0
 40
1
 40
1
 40
1
 40
1
 10
108.699000
 20
82.657008
 30
0.0
 10
108.095036
 20
82.657008
 30
0.0
 10
107.550541
 20
82.293189
 30
0.0
 10
107.319414
 20
81.735198
 30
0.0
  0
SPLINE
  5
134
100
AcDbEntity
  8
0
 62
7
100
AcDbSpline
 70
8
 71
3
 72
8
 73
4
 74
0
 40
0
 40
0
 40
0
 40
0
 40
1
 40
1
 40
1
 40
1
 10
107.319414
 20
81.735198
 30
0.0
 10
107.088287
 20
81.177208
 30
0.0
 10
107.216043
 20
80.534933
 30
0.0
 10
107.643111
 20
80.107866
 30
0.0
  0
SPLINE
  5
135
100
AcDbEntity
  8
0
 62
7
100
AcDbSpline
 70
8
 71
3
 72
8
 73
4
 74
0
 40
0
 40
0
 40
0
 40
0
 40
1
 40
1
 40
1
 40
1
 10
107.643111
 20
80.107866
 30
0.0
 10
108.070178
 20
79.680798
 30
0.0
 10
108.712453
 20
79.553042
 30
0.0
 10
109.270443
 20
79.784169
 30
0.0
  0
SPLINE
  5
136
100
AcDbEntity
  8
0
 62
7
100
AcDbSpline
 70
8
 71
3
 72
8
 73
4
 74
0
 40
0
 40
0
 40
0
 40
0
 40
1
 40
1
 40
1
 40
1
 10
109.270443
 20
79.784169
 30
0.0
 10
109.828434
 20
80.015296
 30
0.0
 10
110.192253
 20
80.559790
 30
0.0
 10
110.192253
 20
81.163755
 30
0.0
  0
SPLINE
  5
137
100
AcDbEntity
  8
0
 62
7
100
AcDbSpline
 70
8
 71
3
 72
8
 73
4
 74
0
 40
0
 40
0
 40
0
 40
0
 40
1
 40
1
 40
1
 40
1
 10
110.192253
 20
81.163755
 30
0.0
 10
110.192253
 20
81.988456
 30
0.0
 10
109.523701
 20
82.657008
 30
0.0
 10
108.699000
 20
82.657008
 30
0.0
  0
LWPOLYLINE
  5
138
100
AcDbEntity
  8
0
 62
7
100
AcDbPolyline
 90
1
 70
1
 10
90.844358
 20
100.252470
 30
0.0
  0
SPLINE
  5
139
100
AcDbEntity
  8
0
 62
7
100
AcDbSpline
 70
8
 71
3
 72
8
 73
4
 74
0
 40
0
 40
0
 40
0
 40
0
 40
1
 40
1
 40
1
 40
1
 10
146.798980
 20
82.657008
 30
0.0
 10
146.195016
 20
82.657008
 30
0.0
 10
145.650521
 20
82.293189
 30
0.0
 10
145.419394
 20
81.735198
 30
0.0
  0
SPLINE
  5
13a
100
AcDbEntity
  8
0
 62
7
100
AcDbSpline
 70
8
 71
3
 72
8
 73
4
 74
0
 40
0
 40
0
 40
0
 40
0
 40
1
 40
1
 40
1
 40
1
 10
145.419394
 20
81.735198
 30
0.0
 10
145.188267
 20
81.177208
 30
0.0
 10
145.316023
 20
80.534933
 30
0.0
 10
145.743091
 20
80.107866
 30
0.0
  0
SPLINE
  5
13b
100
AcDbEntity
  8
0
 62
7
100
AcDbSpline
 70
8
 71
3
 72
8
 73
4
 74
0
 40
0
 40
0
 40
0
 40
0
 40
1
 40
1
 40
1
 40
1
 10
145.743091
 20
80.107866
 30
0.0
 10
146.170158
 20
79.680798
 30
0.0
 10
146.812433
 20
79.553042
 30
0.0
 10
147.370423
 20
79.784169
 30
0.0
  0
SPLINE
  5
13c
100
AcDbEntity
  8
0
 62
7
100
AcDbSpline
 70
8
 71
3
 72
8
 73
4
 74
0
 40
0
 40
0
 40
0
 40
0
 40
1
 40
1
 40
1
 40
1
 10
147.370423
 20
79.784169
 30
0.0
 10
147.928414
 20
80.015296
 30
0.0
 10
148.292233
 20
80.559790
 30
0.0
 10
148.292233
 20
81.163755
 30
0.0
  0
SPLINE
  5
13d
100
AcDbEntity
  8
0
 62
7
100
AcDbSpline
 70
8
 71
3
 72
8
 73
4
 74
0
 40
0
 40
0
 40
0
 40
0
 40
1
 40
1
 40
1
 40
1
 10
148.292233
 20
81.163755
 30
0.0
 10
148.292233
 20
81.559790
 30
0.0
 10
148.134909
 20
81.939605
 30
0.0
 10
147.854869
 20
82.219644
 30
0.0
  0
SPLINE
  5
13e
100
AcDbEntity
  8
0
 62
7
100
AcDbSpline
 70
8
 71
3
 72
8
 73
4
 74
0
 40
0
 40
0
 40
0
 40
0
 40
1
 40
1
 40
1
 40
1
 10
147.854869
 20
82.219644
 30
0.0
 10
147.574830
 20
82.499684
 30
0.0
 10
147.195015
 20
82.657008
 30
0.0
 10
146.798980
 20
82.657008
 30
0.0
  0
LWPOLYLINE
  5
13f
100
AcDbEntity
  8
0
 62
7
100
AcDbPolyline
 90
1
 70
1
 10
108.699000
 20
82.657008
 30
0.0
  0
SPLINE
  5
140
100
AcDbEntity
  8
0
 62
7
100
AcDbSpline
 70
8
 71
3
 72
8
 73
4
 74
0
 40
0
 40
0
 40
0
 40
0
 40
1
 40
1
 40
1
 40
1
 10
108.699000
 20
25.541541
 30
0.0
 10
108.095036
 20
25.541541
 30
0.0
 10
107.550541
 20
25.177722
 30
0.0
 10
107.319414
 20
24.619731
 30
0.0
  0
SPLINE
  5
141
100
AcDbEntity
  8
0
 62
7
100
AcDbSpline
 70
8
 71
3
 72
8
 73
4
 74
0
 40
0
 40
0
 40
0
 40
0
 40
1
 40
1
 40
1
 40
1
 10
107.319414
 20
24.619731
 30
0.0
 10
107.088287
 20
24.061741
 30
0.0
 10
107.216043
 20
23.419466
 30
0.0
 10
107.643111
 20
22.992399
 30
0.0
  0
SPLINE
  5
142
100
AcDbEntity
  8
0
 62
7
100
AcDbSpline
 70
8
 71
3
 72
8
 73
4
 74
0
 40
0
 40
0
 40
0
 40
0
 40
1
 40
1
 40
1
 40
1
 10
107.643111
 20
22.992399
 30
0.0
 10
108.070178
 20
22.565331
 30
0.0
 10
108.712453
 20
22.437575
 30
0.0
 10
109.270443
 20
22.668702
 30
0.0
  0
SPLINE
  5
143
100
AcDbEntity
  8
0
 62
7
100
AcDbSpline
 70
8
 71
3
 72
8
 73
4
 74
0
 40
0
 40
0
 40
0
 40
0
 40
1
 40
1
 40
1
 40
1
 10
109.270443
 20
22.668702
 30
0.0
 10
109.828434
 20
22.899829
 30
0.0
 10
110.192253
 20
23.444323
 30
0.0
 10
110.192253
 20
24.048288
 30
0.0
  0
SPLINE
  5
144
100
AcDbEntity
  8
0
 62
7
100
AcDbSpline
 70
8
 71
3
 72
8
 73
4
 74
0
 40
0
 40
0
 40
0
 40
0
 40
1
 40
1
 40
1
 40
1
 10
110.192253
 20
24.048288
 30
0.0
 10
110.192253
 20
24.872989
 30
0.0
 10
109.523701
 20
25.541541
 30
0.0
 10
108.699000
 20
25.541541
 30
0.0
  0
LWPOLYLINE
  5
145
100
AcDbEntity
  8
0
 62
7
100
AcDbPolyline
 90
1
 70
1
 10
146.798980
 20
82.657008
 30
0.0
  0
SPLINE
  5
146
100
AcDbEntity
  8
0
 62
7
100
AcDbSpline
 70
8
 71
3
 72
8
 73
4
 74
0
 40
0
 40
0
 40
0
 40
0
 40
1
 40
1
 40
1
 40
1
 10
146.798980
 20
25.541541
 30
0.0
 10
146.195016
 20
25.541541
 30
0.0
 10
145.650521
 20
25.177722
 30
0.0
 10
145.419394
 20
24.619731
 30
0.0
  0
SPLINE
  5
147
100
AcDbEntity
  8
0
 62
7
100
AcDbSpline
 70
8
 71
3
 72
8
 73
4
 74
0
 40
0
 40
0
 40
0
 40
0
 40
1
 40
1
 40
1
 40
1
 10
145.419394
 20
24.619731
 30
0.0
 10
145.188267
 20
24.061741
 30
0.0
 10
145.316023
 20
23.419466
 30
0.0
 10
145.743091
 20
22.992399
 30
0.0
  0
SPLINE
  5
148
100
AcDbEntity
  8
0
 62
7
100
AcDbSpline
 70
8
 71
3
 72
8
 73
4
 74
0
 40
0
 40
0
 40
0
 40
0
 40
1
 40
1
 40
1
 40
1
 10
145.743091
 20
22.992399
 30
0.0
 10
146.170158
 20
22.565331
 30
0.0
 10
146.812433
 20
22.437575
 30
0.0
 10
147.370423
 20
22.668702
 30
0.0
  0
SPLINE
  5
149
100
AcDbEntity
  8
0
 62
7
100
AcDbSpline
 70
8
 71
3
 72
8
 73
4
 74
0
 40
0
 40
0
 40
0
 40
0
 40
1
 40
1
 40
1
 40
1
 10
147.370423
 20
22.668702
 30
0.0
 10
147.928414
 20
22.899829
 30
0.0
 10
148.292233
 20
23.444323
 30
0.0
 10
148.292233
 20
24.048288
 30
0.0
  0
SPLINE
  5
14a
100
AcDbEntity
  8
0
 62
7
100
AcDbSpline
 70
8
 71
3
 72
8
 73
4
 74
0
 40
0
 40
0
 40
0
 40
0
 40
1
 40
1
 40
1
 40
1
 10
148.292233
 20
24.048288
 30
0.0
 10
148.292233
 20
24.444323
 30
0.0
 10
148.134909
 20
24.824138
 30
0.0
 10
147.854869
 20
25.104177
 30
0.0
  0
SPLINE
  5
14b
100
AcDbEntity
  8
0
 62
7
100
AcDbSpline
 70
8
 71
3
 72
8
 73
4
 74
0
 40
0
 40
0
 40
0
 40
0
 40
1
 40
1
 40
1
 40
1
 10
147.854869
 20
25.104177
 30
0.0
 10
147.574830
 20
25.384217
 30
0.0
 10
147.195015
 20
25.541541
 30
0.0
 10
146.798980
 20
25.541541
 30
0.0
  0
LWPOLYLINE
  5
14c
100
AcDbEntity
  8
0
 62
7
100
AcDbPolyline
 90
1
 70
1
 10
108.699000
 20
25.541541
 30
0.0
  0
LWPOLYLINE
  5
14d
100
AcDbEntity
  8
0
 62
7
100
AcDbPolyline
 90
1
 70
1
 10
146.798980
 20
25.541541
 30
0.0
  0
SPLINE
  5
14e
100
AcDbEntity
  8
0
 62
7
100
AcDbSpline
 70
8
 71
3
 72
8
 73
4
 74
0
 40
0
 40
0
 40
0
 40
0
 40
1
 40
1
 40
1
 40
1
 10
123.784305
 20
58.182370
 30
0.0
 10
123.806930
 20
58.103827
 30
0.0
 10
123.818242
 20
58.024095
 30
0.0
 10
123.818242
 20
57.943172
 30
0.0
  0
LWPOLYLINE
  5
14f
100
AcDbEntity
  8
0
 62
7
100
AcDbPolyline
 90
2
 70
0
 10
123.612941
 20
58.182370
 30
0.0
 10
123.784305
 20
58.182370
 30
0.0
  0
SPLINE
  5
150
100
AcDbEntity
  8
0
 62
7
100
AcDbSpline
 70
8
 71
3
 72
8
 73
4
 74
0
 40
0
 40
0
 40
0
 40
0
 40
1
 40
1
 40
1
 40
1
 10
123.818242
 20
57.682554
 30
0.0
 10
123.875365
 20
57.822979
 30
0.0
 10
123.957478
 20
57.946147
 30
0.0
 10
124.064581
 20
58.052061
 30
0.0
  0
SPLINE
  5
151
100
AcDbEntity
  8
0
 62
7
100
AcDbSpline
 70
8
 71
3
 72
8
 73
4
 74
0
 40
0
 40
0
 40
0
 40
0
 40
1
 40
1
 40
1
 40
1
 10
124.064581
 20
58.052061
 30
0.0
 10
124.171684
 20
58.157974
 30
0.0
 10
124.272837
 20
58.210931
 30
0.0
 10
124.368041
 20
58.210931
 30
0.0
  0
SPLINE
  5
152
100
AcDbEntity
  8
0
 62
7
100
AcDbSpline
 70
8
 71
3
 72
8
 73
4
 74
0
 40
0
 40
0
 40
0
 40
0
 40
1
 40
1
 40
1
 40
1
 10
124.368041
 20
58.210931
 30
0.0
 10
124.509654
 20
58.210931
 30
0.0
 10
124.623302
 20
58.161544
 30
0.0
 10
124.708987
 20
58.062771
 30
0.0
  0
SPLINE
  5
153
100
AcDbEntity
  8
0
 62
7
100
AcDbSpline
 70
8
 71
3
 72
8
 73
4
 74
0
 40
0
 40
0
 40
0
 40
0
 40
1
 40
1
 40
1
 40
1
 10
124.708987
 20
58.062771
 30
0.0
 10
124.794668
 20
57.965188
 30
0.0
 10
124.848814
 20
57.838449
 30
0.0
 10
124.871424
 20
57.682554
 30
0.0
  0
SPLINE
  5
154
100
AcDbEntity
  8
0
 62
7
100
AcDbSpline
 70
8
 71
3
 72
8
 73
4
 74
0
 40
0
 40
0
 40
0
 40
0
 40
1
 40
1
 40
1
 40
1
 10
124.871424
 20
57.682554
 30
0.0
 10
124.930927
 20
57.827739
 30
0.0
 10
125.010660
 20
57.950907
 30
0.0
 10
125.110623
 20
58.052061
 30
0.0
  0
SPLINE
  5
155
100
AcDbEntity
  8
0
 62
7
100
AcDbSpline
 70
8
 71
3
 72
8
 73
4
 74
0
 40
0
 40
0
 40
0
 40
0
 40
1
 40
1
 40
1
 40
1
 10
125.110623
 20
58.052061
 30
0.0
 10
125.211775
 20
58.154404
 30
0.0
 10
125.311143
 20
58.205576
 30
0.0
 10
125.408727
 20
58.205576
 30
0.0
  0
SPLINE
  5
156
100
AcDbEntity
  8
0
 62
7
100
AcDbSpline
 70
8
 71
3
 72
8
 73
4
 74
0
 40
0
 40
0
 40
0
 40
0
 40
1
 40
1
 40
1
 40
1
 10
125.408727
 20
58.205576
 30
0.0
 10
125.520590
 20
58.205576
 30
0.0
 10
125.615198
 20
58.170470
 30
0.0
 10
125.692551
 20
58.100257
 30
0.0
  0
SPLINE
  5
157
100
AcDbEntity
  8
0
 62
7
100
AcDbSpline
 70
8
 71
3
 72
8
 73
4
 74
0
 40
0
 40
0
 40
0
 40
0
 40
1
 40
1
 40
1
 40
1
 10
125.692551
 20
58.100257
 30
0.0
 10
125.771093
 20
58.031235
 30
0.0
 10
125.827024
 20
57.943767
 30
0.0
 10
125.860345
 20
57.837854
 30
0.0
  0
SPLINE
  5
158
100
AcDbEntity
  8
0
 62
7
100
AcDbSpline
 70
8
 71
3
 72
8
 73
4
 74
0
 40
0
 40
0
 40
0
 40
0
 40
1
 40
1
 40
1
 40
1
 10
125.860345
 20
57.837854
 30
0.0
 10
125.894858
 20
57.733131
 30
0.0
 10
125.912114
 20
57.615912
 30
0.0
 10
125.912114
 20
57.486198
 30
0.0
  0
LWPOLYLINE
  5
159
100
AcDbEntity
  8
0
 62
7
100
AcDbPolyline
 90
2
 70
0
 10
123.818242
 20
57.943172
 30
0.0
 10
123.818242
 20
57.682554
 30
0.0
  0
SPLINE
  5
15a
100
AcDbEntity
  8
0
 62
7
100
AcDbSpline
 70
8
 71
3
 72
8
 73
4
 74
0
 40
0
 40
0
 40
0
 40
0
 40
1
 40
1
 40
1
 40
1
 10
125.751459
 20
57.486198
 30
0.0
 10
125.751459
 20
57.550460
 30
0.0
 10
125.746104
 20
57.612937
 30
0.0
 10
125.735393
 20
57.673629
 30
0.0
  0
SPLINE
  5
15b
100
AcDbEntity
  8
0
 62
7
100
AcDbSpline
 70
8
 71
3
 72
8
 73
4
 74
0
 40
0
 40
0
 40
0
 40
0
 40
1
 40
1
 40
1
 40
1
 10
125.735393
 20
57.673629
 30
0.0
 10
125.724682
 20
57.734321
 30
0.0
 10
125.706832
 20
57.793822
 30
0.0
 10
125.681842
 20
57.852134
 30
0.0
  0
SPLINE
  5
15c
100
AcDbEntity
  8
0
 62
7
100
AcDbSpline
 70
8
 71
3
 72
8
 73
4
 74
0
 40
0
 40
0
 40
0
 40
0
 40
1
 40
1
 40
1
 40
1
 10
125.681842
 20
57.852134
 30
0.0
 10
125.658043
 20
57.910446
 30
0.0
 10
125.622342
 20
57.957453
 30
0.0
 10
125.574738
 20
57.993154
 30
0.0
  0
SPLINE
  5
15d
100
AcDbEntity
  8
0
 62
7
100
AcDbSpline
 70
8
 71
3
 72
8
 73
4
 74
0
 40
0
 40
0
 40
0
 40
0
 40
1
 40
1
 40
1
 40
1
 10
125.574738
 20
57.993154
 30
0.0
 10
125.527138
 20
58.028855
 30
0.0
 10
125.470611
 20
58.046705
 30
0.0
 10
125.405157
 20
58.046705
 30
0.0
  0
SPLINE
  5
15e
100
AcDbEntity
  8
0
 62
7
100
AcDbSpline
 70
8
 71
3
 72
8
 73
4
 74
0
 40
0
 40
0
 40
0
 40
0
 40
1
 40
1
 40
1
 40
1
 10
125.405157
 20
58.046705
 30
0.0
 10
125.325424
 20
58.046705
 30
0.0
 10
125.242121
 20
58.001484
 30
0.0
 10
125.155248
 20
57.911041
 30
0.0
  0
SPLINE
  5
15f
100
AcDbEntity
  8
0
 62
7
100
AcDbSpline
 70
8
 71
3
 72
8
 73
4
 74
0
 40
0
 40
0
 40
0
 40
0
 40
1
 40
1
 40
1
 40
1
 10
125.155248
 20
57.911041
 30
0.0
 10
125.068376
 20
57.821789
 30
0.0
 10
124.997569
 20
57.716470
 30
0.0
 10
124.942829
 20
57.595086
 30
0.0
  0
SPLINE
  5
160
100
AcDbEntity
  8
0
 62
7
100
AcDbSpline
 70
8
 71
3
 72
8
 73
4
 74
0
 40
0
 40
0
 40
0
 40
0
 40
1
 40
1
 40
1
 40
1
 10
124.942829
 20
57.595086
 30
0.0
 10
124.888086
 20
57.473703
 30
0.0
 10
124.860715
 20
57.366004
 30
0.0
 10
124.860715
 20
57.271991
 30
0.0
  0
LWPOLYLINE
  5
161
100
AcDbEntity
  8
0
 62
7
100
AcDbPolyline
 90
4
 70
0
 10
125.912114
 20
57.486198
 30
0.0
 10
125.912114
 20
56.372323
 30
0.0
 10
125.751459
 20
56.372323
 30
0.0
 10
125.751459
 20
57.486198
 30
0.0
  0
SPLINE
  5
162
100
AcDbEntity
  8
0
 62
7
100
AcDbSpline
 70
8
 71
3
 72
8
 73
4
 74
0
 40
0
 40
0
 40
0
 40
0
 40
1
 40
1
 40
1
 40
1
 10
124.700060
 20
57.489768
 30
0.0
 10
124.700060
 20
57.555220
 30
0.0
 10
124.694705
 20
57.618292
 30
0.0
 10
124.683994
 20
57.678984
 30
0.0
  0
SPLINE
  5
163
100
AcDbEntity
  8
0
 62
7
100
AcDbSpline
 70
8
 71
3
 72
8
 73
4
 74
0
 40
0
 40
0
 40
0
 40
0
 40
1
 40
1
 40
1
 40
1
 10
124.683994
 20
57.678984
 30
0.0
 10
124.673283
 20
57.739676
 30
0.0
 10
124.656028
 20
57.799178
 30
0.0
 10
124.632229
 20
57.857490
 30
0.0
  0
SPLINE
  5
164
100
AcDbEntity
  8
0
 62
7
100
AcDbSpline
 70
8
 71
3
 72
8
 73
4
 74
0
 40
0
 40
0
 40
0
 40
0
 40
1
 40
1
 40
1
 40
1
 10
124.632229
 20
57.857490
 30
0.0
 10
124.608430
 20
57.915801
 30
0.0
 10
124.572134
 20
57.962213
 30
0.0
 10
124.523339
 20
57.996724
 30
0.0
  0
SPLINE
  5
165
100
AcDbEntity
  8
0
 62
7
100
AcDbSpline
 70
8
 71
3
 72
8
 73
4
 74
0
 40
0
 40
0
 40
0
 40
0
 40
1
 40
1
 40
1
 40
1
 10
124.523339
 20
57.996724
 30
0.0
 10
124.475738
 20
58.032425
 30
0.0
 10
124.418617
 20
58.050276
 30
0.0
 10
124.351975
 20
58.050276
 30
0.0
  0
SPLINE
  5
166
100
AcDbEntity
  8
0
 62
7
100
AcDbSpline
 70
8
 71
3
 72
8
 73
4
 74
0
 40
0
 40
0
 40
0
 40
0
 40
1
 40
1
 40
1
 40
1
 10
124.351975
 20
58.050276
 30
0.0
 10
124.278193
 20
58.050276
 30
0.0
 10
124.198460
 20
58.007434
 30
0.0
 10
124.112775
 20
57.921752
 30
0.0
  0
SPLINE
  5
167
100
AcDbEntity
  8
0
 62
7
100
AcDbSpline
 70
8
 71
3
 72
8
 73
4
 74
0
 40
0
 40
0
 40
0
 40
0
 40
1
 40
1
 40
1
 40
1
 10
124.112775
 20
57.921752
 30
0.0
 10
124.028285
 20
57.836069
 30
0.0
 10
123.958073
 20
57.732536
 30
0.0
 10
123.902139
 20
57.611152
 30
0.0
  0
SPLINE
  5
168
100
AcDbEntity
  8
0
 62
7
100
AcDbSpline
 70
8
 71
3
 72
8
 73
4
 74
0
 40
0
 40
0
 40
0
 40
0
 40
1
 40
1
 40
1
 40
1
 10
123.902139
 20
57.611152
 30
0.0
 10
123.846208
 20
57.489768
 30
0.0
 10
123.818242
 20
57.379095
 30
0.0
 10
123.818242
 20
57.279131
 30
0.0
  0
LWPOLYLINE
  5
169
100
AcDbEntity
  8
0
 62
7
100
AcDbPolyline
 90
4
 70
0
 10
124.860715
 20
57.271991
 30
0.0
 10
124.860715
 20
56.372323
 30
0.0
 10
124.700060
 20
56.372323
 30
0.0
 10
124.700060
 20
57.489768
 30
0.0
  0
SPLINE
  5
16a
100
AcDbEntity
  8
0
 62
7
100
AcDbSpline
 70
8
 71
3
 72
8
 73
4
 74
0
 40
0
 40
0
 40
0
 40
0
 40
1
 40
1
 40
1
 40
1
 10
123.657587
 20
57.943172
 30
0.0
 10
123.657587
 20
58.045516
 30
0.0
 10
123.642712
 20
58.125248
 30
0.0
 10
123.612962
 20
58.182370
 30
0.0
  0
LWPOLYLINE
  5
16b
100
AcDbEntity
  8
0
 62
7
100
AcDbPolyline
 90
4
 70
0
 10
123.818242
 20
57.279131
 30
0.0
 10
123.818242
 20
56.372323
 30
0.0
 10
123.657587
 20
56.372323
 30
0.0
 10
123.657587
 20
57.943172
 30
0.0
  0
LWPOLYLINE
  5
16c
100
AcDbEntity
  8
0
 62
7
100
AcDbPolyline
 90
1
 70
1
 10
123.612962
 20
58.182370
 30
0.0
  0
SPLINE
  5
16d
100
AcDbEntity
  8
0
 62
7
100
AcDbSpline
 70
8
 71
3
 72
8
 73
4
 74
0
 40
0
 40
0
 40
0
 40
0
 40
1
 40
1
 40
1
 40
1
 10
127.677512
 20
56.372323
 30
0.0
 10
127.656090
 20
56.440155
 30
0.0
 10
127.645379
 20
56.519888
 30
0.0
 10
127.645379
 20
56.611521
 30
0.0
  0
LWPOLYLINE
  5
16e
100
AcDbEntity
  8
0
 62
7
100
AcDbPolyline
 90
2
 70
0
 10
127.848880
 20
56.372323
 30
0.0
 10
127.677512
 20
56.372323
 30
0.0
  0
SPLINE
  5
16f
100
AcDbEntity
  8
0
 62
7
100
AcDbSpline
 70
8
 71
3
 72
8
 73
4
 74
0
 40
0
 40
0
 40
0
 40
0
 40
1
 40
1
 40
1
 40
1
 10
127.645379
 20
56.752540
 30
0.0
 10
127.559695
 20
56.633536
 30
0.0
 10
127.456756
 20
56.535358
 30
0.0
 10
127.336562
 20
56.458006
 30
0.0
  0
SPLINE
  5
170
100
AcDbEntity
  8
0
 62
7
100
AcDbSpline
 70
8
 71
3
 72
8
 73
4
 74
0
 40
0
 40
0
 40
0
 40
0
 40
1
 40
1
 40
1
 40
1
 10
127.336562
 20
56.458006
 30
0.0
 10
127.217559
 20
56.380653
 30
0.0
 10
127.091416
 20
56.341977
 30
0.0
 10
126.958131
 20
56.341977
 30
0.0
  0
SPLINE
  5
171
100
AcDbEntity
  8
0
 62
7
100
AcDbSpline
 70
8
 71
3
 72
8
 73
4
 74
0
 40
0
 40
0
 40
0
 40
0
 40
1
 40
1
 40
1
 40
1
 10
126.958131
 20
56.341977
 30
0.0
 10
126.861739
 20
56.341977
 30
0.0
 10
126.775462
 20
56.356853
 30
0.0
 10
126.699300
 20
56.386603
 30
0.0
  0
SPLINE
  5
172
100
AcDbEntity
  8
0
 62
7
100
AcDbSpline
 70
8
 71
3
 72
8
 73
4
 74
0
 40
0
 40
0
 40
0
 40
0
 40
1
 40
1
 40
1
 40
1
 10
126.699300
 20
56.386603
 30
0.0
 10
126.624327
 20
56.417544
 30
0.0
 10
126.564824
 20
56.458006
 30
0.0
 10
126.520792
 20
56.507987
 30
0.0
  0
SPLINE
  5
173
100
AcDbEntity
  8
0
 62
7
100
AcDbSpline
 70
8
 71
3
 72
8
 73
4
 74
0
 40
0
 40
0
 40
0
 40
0
 40
1
 40
1
 40
1
 40
1
 10
126.520792
 20
56.507987
 30
0.0
 10
126.476760
 20
56.557969
 30
0.0
 10
126.443439
 20
56.610926
 30
0.0
 10
126.420828
 20
56.666857
 30
0.0
  0
SPLINE
  5
174
100
AcDbEntity
  8
0
 62
7
100
AcDbSpline
 70
8
 71
3
 72
8
 73
4
 74
0
 40
0
 40
0
 40
0
 40
0
 40
1
 40
1
 40
1
 40
1
 10
126.420828
 20
56.666857
 30
0.0
 10
126.398232
 20
56.723979
 30
0.0
 10
126.386934
 20
56.781696
 30
0.0
 10
126.386934
 20
56.840008
 30
0.0
  0
SPLINE
  5
175
100
AcDbEntity
  8
0
 62
7
100
AcDbSpline
 70
8
 71
3
 72
8
 73
4
 74
0
 40
0
 40
0
 40
0
 40
0
 40
1
 40
1
 40
1
 40
1
 10
126.386934
 20
56.840008
 30
0.0
 10
126.386934
 20
56.900700
 30
0.0
 10
126.395855
 20
56.956631
 30
0.0
 10
126.413697
 20
57.007803
 30
0.0
  0
SPLINE
  5
176
100
AcDbEntity
  8
0
 62
7
100
AcDbSpline
 70
8
 71
3
 72
8
 73
4
 74
0
 40
0
 40
0
 40
0
 40
0
 40
1
 40
1
 40
1
 40
1
 10
126.413697
 20
57.007803
 30
0.0
 10
126.432742
 20
57.058975
 30
0.0
 10
126.456542
 20
57.102411
 30
0.0
 10
126.485098
 20
57.138112
 30
0.0
  0
SPLINE
  5
177
100
AcDbEntity
  8
0
 62
7
100
AcDbSpline
 70
8
 71
3
 72
8
 73
4
 74
0
 40
0
 40
0
 40
0
 40
0
 40
1
 40
1
 40
1
 40
1
 10
126.485098
 20
57.138112
 30
0.0
 10
126.514851
 20
57.175003
 30
0.0
 10
126.553527
 20
57.207729
 30
0.0
 10
126.601128
 20
57.236290
 30
0.0
  0
SPLINE
  5
178
100
AcDbEntity
  8
0
 62
7
100
AcDbSpline
 70
8
 71
3
 72
8
 73
4
 74
0
 40
0
 40
0
 40
0
 40
0
 40
1
 40
1
 40
1
 40
1
 10
126.601128
 20
57.236290
 30
0.0
 10
126.649920
 20
57.266041
 30
0.0
 10
126.696331
 20
57.289842
 30
0.0
 10
126.740364
 20
57.307692
 30
0.0
  0
SPLINE
  5
179
100
AcDbEntity
  8
0
 62
7
100
AcDbSpline
 70
8
 71
3
 72
8
 73
4
 74
0
 40
0
 40
0
 40
0
 40
0
 40
1
 40
1
 40
1
 40
1
 10
126.740364
 20
57.307692
 30
0.0
 10
126.785584
 20
57.326734
 30
0.0
 10
126.841516
 20
57.342800
 30
0.0
 10
126.908158
 20
57.355889
 30
0.0
  0
SPLINE
  5
17a
100
AcDbEntity
  8
0
 62
7
100
AcDbSpline
 70
8
 71
3
 72
8
 73
4
 74
0
 40
0
 40
0
 40
0
 40
0
 40
1
 40
1
 40
1
 40
1
 10
126.908158
 20
57.355889
 30
0.0
 10
126.974800
 20
57.370168
 30
0.0
 10
127.032517
 20
57.380283
 30
0.0
 10
127.081309
 20
57.386234
 30
0.0
  0
SPLINE
  5
17b
100
AcDbEntity
  8
0
 62
7
100
AcDbSpline
 70
8
 71
3
 72
8
 73
4
 74
0
 40
0
 40
0
 40
0
 40
0
 40
1
 40
1
 40
1
 40
1
 10
127.081309
 20
57.386234
 30
0.0
 10
127.130101
 20
57.393374
 30
0.0
 10
127.190792
 20
57.398730
 30
0.0
 10
127.263383
 20
57.402301
 30
0.0
  0
SPLINE
  5
17c
100
AcDbEntity
  8
0
 62
7
100
AcDbSpline
 70
8
 71
3
 72
8
 73
4
 74
0
 40
0
 40
0
 40
0
 40
0
 40
1
 40
1
 40
1
 40
1
 10
127.263383
 20
57.402301
 30
0.0
 10
127.335976
 20
57.405872
 30
0.0
 10
127.393099
 20
57.407658
 30
0.0
 10
127.434751
 20
57.407658
 30
0.0
  0
SPLINE
  5
17d
100
AcDbEntity
  8
0
 62
7
100
AcDbSpline
 70
8
 71
3
 72
8
 73
4
 74
0
 40
0
 40
0
 40
0
 40
0
 40
1
 40
1
 40
1
 40
1
 10
127.434751
 20
57.407658
 30
0.0
 10
127.477592
 20
57.408861
 30
0.0
 10
127.531738
 20
57.409462
 30
0.0
 10
127.597189
 20
57.409462
 30
0.0
  0
LWPOLYLINE
  5
17e
100
AcDbEntity
  8
0
 62
7
100
AcDbPolyline
 90
2
 70
0
 10
127.645379
 20
56.611521
 30
0.0
 10
127.645379
 20
56.752540
 30
0.0
  0
SPLINE
  5
17f
100
AcDbEntity
  8
0
 62
7
100
AcDbSpline
 70
8
 71
3
 72
8
 73
4
 74
0
 40
0
 40
0
 40
0
 40
0
 40
1
 40
1
 40
1
 40
1
 10
127.645388
 20
57.409462
 30
0.0
 10
127.639431
 20
57.605818
 30
0.0
 10
127.581118
 20
57.762308
 30
0.0
 10
127.470449
 20
57.878932
 30
0.0
  0
SPLINE
  5
180
100
AcDbEntity
  8
0
 62
7
100
AcDbSpline
 70
8
 71
3
 72
8
 73
4
 74
0
 40
0
 40
0
 40
0
 40
0
 40
1
 40
1
 40
1
 40
1
 10
127.470449
 20
57.878932
 30
0.0
 10
127.360966
 20
57.995555
 30
0.0
 10
127.234228
 20
58.053867
 30
0.0
 10
127.090236
 20
58.053867
 30
0.0
  0
SPLINE
  5
181
100
AcDbEntity
  8
0
 62
7
100
AcDbSpline
 70
8
 71
3
 72
8
 73
4
 74
0
 40
0
 40
0
 40
0
 40
0
 40
1
 40
1
 40
1
 40
1
 10
127.090236
 20
58.053867
 30
0.0
 10
127.005743
 20
58.053867
 30
0.0
 10
126.923034
 20
58.031852
 30
0.0
 10
126.842110
 20
57.987820
 30
0.0
  0
SPLINE
  5
182
100
AcDbEntity
  8
0
 62
7
100
AcDbSpline
 70
8
 71
3
 72
8
 73
4
 74
0
 40
0
 40
0
 40
0
 40
0
 40
1
 40
1
 40
1
 40
1
 10
126.842110
 20
57.987820
 30
0.0
 10
126.762377
 20
57.943789
 30
0.0
 10
126.692760
 20
57.879527
 30
0.0
 10
126.633260
 20
57.795034
 30
0.0
  0
LWPOLYLINE
  5
183
100
AcDbEntity
  8
0
 62
7
100
AcDbPolyline
 90
2
 70
0
 10
127.597189
 20
57.409462
 30
0.0
 10
127.645388
 20
57.409462
 30
0.0
  0
SPLINE
  5
184
100
AcDbEntity
  8
0
 62
7
100
AcDbSpline
 70
8
 71
3
 72
8
 73
4
 74
0
 40
0
 40
0
 40
0
 40
0
 40
1
 40
1
 40
1
 40
1
 10
126.506521
 20
57.878932
 30
0.0
 10
126.579112
 20
57.990795
 30
0.0
 10
126.666579
 20
58.074693
 30
0.0
 10
126.768922
 20
58.130625
 30
0.0
  0
SPLINE
  5
185
100
AcDbEntity
  8
0
 62
7
100
AcDbSpline
 70
8
 71
3
 72
8
 73
4
 74
0
 40
0
 40
0
 40
0
 40
0
 40
1
 40
1
 40
1
 40
1
 10
126.768922
 20
58.130625
 30
0.0
 10
126.871265
 20
58.186557
 30
0.0
 10
126.978370
 20
58.214522
 30
0.0
 10
127.090236
 20
58.214522
 30
0.0
  0
SPLINE
  5
186
100
AcDbEntity
  8
0
 62
7
100
AcDbSpline
 70
8
 71
3
 72
8
 73
4
 74
0
 40
0
 40
0
 40
0
 40
0
 40
1
 40
1
 40
1
 40
1
 10
127.090236
 20
58.214522
 30
0.0
 10
127.180677
 20
58.214522
 30
0.0
 10
127.267550
 20
58.196077
 30
0.0
 10
127.350854
 20
58.159186
 30
0.0
  0
SPLINE
  5
187
100
AcDbEntity
  8
0
 62
7
100
AcDbSpline
 70
8
 71
3
 72
8
 73
4
 74
0
 40
0
 40
0
 40
0
 40
0
 40
1
 40
1
 40
1
 40
1
 10
127.350854
 20
58.159186
 30
0.0
 10
127.435344
 20
58.123485
 30
0.0
 10
127.510910
 20
58.072313
 30
0.0
 10
127.577552
 20
58.005671
 30
0.0
  0
SPLINE
  5
188
100
AcDbEntity
  8
0
 62
7
100
AcDbSpline
 70
8
 71
3
 72
8
 73
4
 74
0
 40
0
 40
0
 40
0
 40
0
 40
1
 40
1
 40
1
 40
1
 10
127.577552
 20
58.005671
 30
0.0
 10
127.644195
 20
57.940219
 30
0.0
 10
127.697746
 20
57.855726
 30
0.0
 10
127.738207
 20
57.752193
 30
0.0
  0
SPLINE
  5
189
100
AcDbEntity
  8
0
 62
7
100
AcDbSpline
 70
8
 71
3
 72
8
 73
4
 74
0
 40
0
 40
0
 40
0
 40
0
 40
1
 40
1
 40
1
 40
1
 10
127.738207
 20
57.752193
 30
0.0
 10
127.779859
 20
57.648659
 30
0.0
 10
127.801875
 20
57.534416
 30
0.0
 10
127.804255
 20
57.409462
 30
0.0
  0
LWPOLYLINE
  5
18a
100
AcDbEntity
  8
0
 62
7
100
AcDbPolyline
 90
2
 70
0
 10
126.633260
 20
57.795034
 30
0.0
 10
126.506521
 20
57.878932
 30
0.0
  0
SPLINE
  5
18b
100
AcDbEntity
  8
0
 62
7
100
AcDbSpline
 70
8
 71
3
 72
8
 73
4
 74
0
 40
0
 40
0
 40
0
 40
0
 40
1
 40
1
 40
1
 40
1
 10
127.804255
 20
56.611542
 30
0.0
 10
127.804255
 20
56.508009
 30
0.0
 10
127.819132
 20
56.428276
 30
0.0
 10
127.848884
 20
56.372345
 30
0.0
  0
LWPOLYLINE
  5
18c
100
AcDbEntity
  8
0
 62
7
100
AcDbPolyline
 90
2
 70
0
 10
127.804255
 20
57.409462
 30
0.0
 10
127.804255
 20
56.611542
 30
0.0
  0
SPLINE
  5
18d
100
AcDbEntity
  8
0
 62
7
100
AcDbSpline
 70
8
 71
3
 72
8
 73
4
 74
0
 40
0
 40
0
 40
0
 40
0
 40
1
 40
1
 40
1
 40
1
 10
126.958135
 20
56.500847
 30
0.0
 10
127.094988
 20
56.500847
 30
0.0
 10
127.227677
 20
56.546664
 30
0.0
 10
127.356202
 20
56.638297
 30
0.0
  0
SPLINE
  5
18e
100
AcDbEntity
  8
0
 62
7
100
AcDbSpline
 70
8
 71
3
 72
8
 73
4
 74
0
 40
0
 40
0
 40
0
 40
0
 40
1
 40
1
 40
1
 40
1
 10
127.356202
 20
56.638297
 30
0.0
 10
127.484727
 20
56.729929
 30
0.0
 10
127.581121
 20
56.834653
 30
0.0
 10
127.645383
 20
56.952466
 30
0.0
  0
LWPOLYLINE
  5
18f
100
AcDbEntity
  8
0
 62
7
100
AcDbPolyline
 90
1
 70
1
 10
127.848884
 20
56.372345
 30
0.0
  0
SPLINE
  5
190
100
AcDbEntity
  8
0
 62
7
100
AcDbSpline
 70
8
 71
3
 72
8
 73
4
 74
0
 40
0
 40
0
 40
0
 40
0
 40
1
 40
1
 40
1
 40
1
 10
127.645383
 20
57.295197
 30
0.0
 10
127.589452
 20
57.293994
 30
0.0
 10
127.542444
 20
57.292805
 30
0.0
 10
127.504360
 20
57.291631
 30
0.0
  0
SPLINE
  5
191
100
AcDbEntity
  8
0
 62
7
100
AcDbSpline
 70
8
 71
3
 72
8
 73
4
 74
0
 40
0
 40
0
 40
0
 40
0
 40
1
 40
1
 40
1
 40
1
 10
127.504360
 20
57.291631
 30
0.0
 10
127.467471
 20
57.290428
 30
0.0
 10
127.416301
 20
57.287453
 30
0.0
 10
127.350850
 20
57.282705
 30
0.0
  0
SPLINE
  5
192
100
AcDbEntity
  8
0
 62
7
100
AcDbSpline
 70
8
 71
3
 72
8
 73
4
 74
0
 40
0
 40
0
 40
0
 40
0
 40
1
 40
1
 40
1
 40
1
 10
127.350850
 20
57.282705
 30
0.0
 10
127.286587
 20
57.279133
 30
0.0
 10
127.231844
 20
57.274374
 30
0.0
 10
127.186621
 20
57.268425
 30
0.0
  0
SPLINE
  5
193
100
AcDbEntity
  8
0
 62
7
100
AcDbSpline
 70
8
 71
3
 72
8
 73
4
 74
0
 40
0
 40
0
 40
0
 40
0
 40
1
 40
1
 40
1
 40
1
 10
127.186621
 20
57.268425
 30
0.0
 10
127.141400
 20
57.263666
 30
0.0
 10
127.088444
 20
57.255336
 30
0.0
 10
127.027753
 20
57.243437
 30
0.0
  0
SPLINE
  5
194
100
AcDbEntity
  8
0
 62
7
100
AcDbSpline
 70
8
 71
3
 72
8
 73
4
 74
0
 40
0
 40
0
 40
0
 40
0
 40
1
 40
1
 40
1
 40
1
 10
127.027753
 20
57.243437
 30
0.0
 10
126.968250
 20
57.231537
 30
0.0
 10
126.917673
 20
57.217852
 30
0.0
 10
126.876021
 20
57.202382
 30
0.0
  0
SPLINE
  5
195
100
AcDbEntity
  8
0
 62
7
100
AcDbSpline
 70
8
 71
3
 72
8
 73
4
 74
0
 40
0
 40
0
 40
0
 40
0
 40
1
 40
1
 40
1
 40
1
 10
126.876021
 20
57.202382
 30
0.0
 10
126.834372
 20
57.188102
 30
0.0
 10
126.790935
 20
57.169062
 30
0.0
 10
126.745712
 20
57.145260
 30
0.0
  0
SPLINE
  5
196
100
AcDbEntity
  8
0
 62
7
100
AcDbSpline
 70
8
 71
3
 72
8
 73
4
 74
0
 40
0
 40
0
 40
0
 40
0
 40
1
 40
1
 40
1
 40
1
 10
126.745712
 20
57.145260
 30
0.0
 10
126.701683
 20
57.122649
 30
0.0
 10
126.665982
 20
57.097064
 30
0.0
 10
126.638609
 20
57.068502
 30
0.0
  0
SPLINE
  5
197
100
AcDbEntity
  8
0
 62
7
100
AcDbSpline
 70
8
 71
3
 72
8
 73
4
 74
0
 40
0
 40
0
 40
0
 40
0
 40
1
 40
1
 40
1
 40
1
 10
126.638609
 20
57.068502
 30
0.0
 10
126.611230
 20
57.041132
 30
0.0
 10
126.588620
 20
57.007811
 30
0.0
 10
126.570778
 20
56.968539
 30
0.0
  0
SPLINE
  5
198
100
AcDbEntity
  8
0
 62
7
100
AcDbSpline
 70
8
 71
3
 72
8
 73
4
 74
0
 40
0
 40
0
 40
0
 40
0
 40
1
 40
1
 40
1
 40
1
 10
126.570778
 20
56.968539
 30
0.0
 10
126.554110
 20
56.929268
 30
0.0
 10
126.545776
 20
56.886427
 30
0.0
 10
126.545776
 20
56.840015
 30
0.0
  0
SPLINE
  5
199
100
AcDbEntity
  8
0
 62
7
100
AcDbSpline
 70
8
 71
3
 72
8
 73
4
 74
0
 40
0
 40
0
 40
0
 40
0
 40
1
 40
1
 40
1
 40
1
 10
126.545776
 20
56.840015
 30
0.0
 10
126.545776
 20
56.754332
 30
0.0
 10
126.581477
 20
56.676385
 30
0.0
 10
126.652879
 20
56.606173
 30
0.0
  0
SPLINE
  5
19a
100
AcDbEntity
  8
0
 62
7
100
AcDbSpline
 70
8
 71
3
 72
8
 73
4
 74
0
 40
0
 40
0
 40
0
 40
0
 40
1
 40
1
 40
1
 40
1
 10
126.652879
 20
56.606173
 30
0.0
 10
126.724281
 20
56.535960
 30
0.0
 10
126.826029
 20
56.500854
 30
0.0
 10
126.958122
 20
56.500854
 30
0.0
  0
LWPOLYLINE
  5
19b
100
AcDbEntity
  8
0
 62
7
100
AcDbPolyline
 90
2
 70
0
 10
127.645383
 20
56.952466
 30
0.0
 10
127.645383
 20
57.295197
 30
0.0
  0
LWPOLYLINE
  5
19c
100
AcDbEntity
  8
0
 62
7
100
AcDbPolyline
 90
1
 70
1
 10
126.958122
 20
56.500854
 30
0.0
  0
SPLINE
  5
19d
100
AcDbEntity
  8
0
 62
7
100
AcDbSpline
 70
8
 71
3
 72
8
 73
4
 74
0
 40
0
 40
0
 40
0
 40
0
 40
1
 40
1
 40
1
 40
1
 10
129.844572
 20
56.372323
 30
0.0
 10
129.824353
 20
56.442535
 30
0.0
 10
129.814243
 20
56.522268
 30
0.0
 10
129.814243
 20
56.611521
 30
0.0
  0
LWPOLYLINE
  5
19e
100
AcDbEntity
  8
0
 62
7
100
AcDbPolyline
 90
2
 70
0
 10
130.015936
 20
56.372323
 30
0.0
 10
129.844572
 20
56.372323
 30
0.0
  0
SPLINE
  5
19f
100
AcDbEntity
  8
0
 62
7
100
AcDbSpline
 70
8
 71
3
 72
8
 73
4
 74
0
 40
0
 40
0
 40
0
 40
0
 40
1
 40
1
 40
1
 40
1
 10
129.814243
 20
56.836438
 30
0.0
 10
129.769020
 20
56.712674
 30
0.0
 10
129.679172
 20
56.599620
 30
0.0
 10
129.544698
 20
56.497277
 30
0.0
  0
SPLINE
  5
1a0
100
AcDbEntity
  8
0
 62
7
100
AcDbSpline
 70
8
 71
3
 72
8
 73
4
 74
0
 40
0
 40
0
 40
0
 40
0
 40
1
 40
1
 40
1
 40
1
 10
129.544698
 20
56.497277
 30
0.0
 10
129.411414
 20
56.396124
 30
0.0
 10
129.277535
 20
56.345547
 30
0.0
 10
129.143062
 20
56.345547
 30
0.0
  0
SPLINE
  5
1a1
100
AcDbEntity
  8
0
 62
7
100
AcDbSpline
 70
8
 71
3
 72
8
 73
4
 74
0
 40
0
 40
0
 40
0
 40
0
 40
1
 40
1
 40
1
 40
1
 10
129.143062
 20
56.345547
 30
0.0
 10
128.991926
 20
56.345547
 30
0.0
 10
128.852692
 20
56.387794
 30
0.0
 10
128.725358
 20
56.472286
 30
0.0
  0
SPLINE
  5
1a2
100
AcDbEntity
  8
0
 62
7
100
AcDbSpline
 70
8
 71
3
 72
8
 73
4
 74
0
 40
0
 40
0
 40
0
 40
0
 40
1
 40
1
 40
1
 40
1
 10
128.725358
 20
56.472286
 30
0.0
 10
128.599213
 20
56.556779
 30
0.0
 10
128.499846
 20
56.670427
 30
0.0
 10
128.427255
 20
56.813232
 30
0.0
  0
SPLINE
  5
1a3
100
AcDbEntity
  8
0
 62
7
100
AcDbSpline
 70
8
 71
3
 72
8
 73
4
 74
0
 40
0
 40
0
 40
0
 40
0
 40
1
 40
1
 40
1
 40
1
 10
128.427255
 20
56.813232
 30
0.0
 10
128.355853
 20
56.957227
 30
0.0
 10
128.320152
 20
57.112526
 30
0.0
 10
128.320152
 20
57.279131
 30
0.0
  0
SPLINE
  5
1a4
100
AcDbEntity
  8
0
 62
7
100
AcDbSpline
 70
8
 71
3
 72
8
 73
4
 74
0
 40
0
 40
0
 40
0
 40
0
 40
1
 40
1
 40
1
 40
1
 10
128.320152
 20
57.279131
 30
0.0
 10
128.320152
 20
57.445737
 30
0.0
 10
128.355853
 20
57.599846
 30
0.0
 10
128.427255
 20
57.741461
 30
0.0
  0
SPLINE
  5
1a5
100
AcDbEntity
  8
0
 62
7
100
AcDbSpline
 70
8
 71
3
 72
8
 73
4
 74
0
 40
0
 40
0
 40
0
 40
0
 40
1
 40
1
 40
1
 40
1
 10
128.427255
 20
57.741461
 30
0.0
 10
128.499846
 20
57.884265
 30
0.0
 10
128.599213
 20
57.997914
 30
0.0
 10
128.725358
 20
58.082407
 30
0.0
  0
SPLINE
  5
1a6
100
AcDbEntity
  8
0
 62
7
100
AcDbSpline
 70
8
 71
3
 72
8
 73
4
 74
0
 40
0
 40
0
 40
0
 40
0
 40
1
 40
1
 40
1
 40
1
 10
128.725358
 20
58.082407
 30
0.0
 10
128.852692
 20
58.168089
 30
0.0
 10
128.991926
 20
58.210931
 30
0.0
 10
129.143062
 20
58.210931
 30
0.0
  0
SPLINE
  5
1a7
100
AcDbEntity
  8
0
 62
7
100
AcDbSpline
 70
8
 71
3
 72
8
 73
4
 74
0
 40
0
 40
0
 40
0
 40
0
 40
1
 40
1
 40
1
 40
1
 10
129.143062
 20
58.210931
 30
0.0
 10
129.279915
 20
58.210931
 30
0.0
 10
129.414983
 20
58.160949
 30
0.0
 10
129.548268
 20
58.060986
 30
0.0
  0
SPLINE
  5
1a8
100
AcDbEntity
  8
0
 62
7
100
AcDbSpline
 70
8
 71
3
 72
8
 73
4
 74
0
 40
0
 40
0
 40
0
 40
0
 40
1
 40
1
 40
1
 40
1
 10
129.548268
 20
58.060986
 30
0.0
 10
129.681553
 20
57.962213
 30
0.0
 10
129.770211
 20
57.847969
 30
0.0
 10
129.814243
 20
57.718255
 30
0.0
  0
LWPOLYLINE
  5
1a9
100
AcDbEntity
  8
0
 62
7
100
AcDbPolyline
 90
2
 70
0
 10
129.814243
 20
56.611521
 30
0.0
 10
129.814243
 20
56.836438
 30
0.0
  0
SPLINE
  5
1aa
100
AcDbEntity
  8
0
 62
7
100
AcDbSpline
 70
8
 71
3
 72
8
 73
4
 74
0
 40
0
 40
0
 40
0
 40
0
 40
1
 40
1
 40
1
 40
1
 10
129.973111
 20
56.611521
 30
0.0
 10
129.973111
 20
56.509177
 30
0.0
 10
129.987387
 20
56.429445
 30
0.0
 10
130.015940
 20
56.372323
 30
0.0
  0
LWPOLYLINE
  5
1ab
100
AcDbEntity
  8
0
 62
7
100
AcDbPolyline
 90
4
 70
0
 10
129.814243
 20
57.718255
 30
0.0
 10
129.814243
 20
59.037412
 30
0.0
 10
129.973111
 20
59.037412
 30
0.0
 10
129.973111
 20
56.611521
 30
0.0
  0
SPLINE
  5
1ac
100
AcDbEntity
  8
0
 62
7
100
AcDbSpline
 70
8
 71
3
 72
8
 73
4
 74
0
 40
0
 40
0
 40
0
 40
0
 40
1
 40
1
 40
1
 40
1
 10
129.614299
 20
56.731119
 30
0.0
 10
129.747584
 20
56.882254
 30
0.0
 10
129.814226
 20
57.064925
 30
0.0
 10
129.814226
 20
57.279131
 30
0.0
  0
SPLINE
  5
1ad
100
AcDbEntity
  8
0
 62
7
100
AcDbSpline
 70
8
 71
3
 72
8
 73
4
 74
0
 40
0
 40
0
 40
0
 40
0
 40
1
 40
1
 40
1
 40
1
 10
129.814226
 20
57.279131
 30
0.0
 10
129.814226
 20
57.493338
 30
0.0
 10
129.748178
 20
57.675414
 30
0.0
 10
129.616082
 20
57.825359
 30
0.0
  0
SPLINE
  5
1ae
100
AcDbEntity
  8
0
 62
7
100
AcDbSpline
 70
8
 71
3
 72
8
 73
4
 74
0
 40
0
 40
0
 40
0
 40
0
 40
1
 40
1
 40
1
 40
1
 10
129.616082
 20
57.825359
 30
0.0
 10
129.483989
 20
57.975303
 30
0.0
 10
129.326309
 20
58.050276
 30
0.0
 10
129.143044
 20
58.050276
 30
0.0
  0
SPLINE
  5
1af
100
AcDbEntity
  8
0
 62
7
100
AcDbSpline
 70
8
 71
3
 72
8
 73
4
 74
0
 40
0
 40
0
 40
0
 40
0
 40
1
 40
1
 40
1
 40
1
 10
129.143044
 20
58.050276
 30
0.0
 10
128.960968
 20
58.050276
 30
0.0
 10
128.803287
 20
57.975303
 30
0.0
 10
128.670003
 20
57.825359
 30
0.0
  0
SPLINE
  5
1b0
100
AcDbEntity
  8
0
 62
7
100
AcDbSpline
 70
8
 71
3
 72
8
 73
4
 74
0
 40
0
 40
0
 40
0
 40
0
 40
1
 40
1
 40
1
 40
1
 10
128.670003
 20
57.825359
 30
0.0
 10
128.536718
 20
57.675414
 30
0.0
 10
128.470076
 20
57.493338
 30
0.0
 10
128.470076
 20
57.279131
 30
0.0
  0
SPLINE
  5
1b1
100
AcDbEntity
  8
0
 62
7
100
AcDbSpline
 70
8
 71
3
 72
8
 73
4
 74
0
 40
0
 40
0
 40
0
 40
0
 40
1
 40
1
 40
1
 40
1
 10
128.470076
 20
57.279131
 30
0.0
 10
128.470076
 20
57.066115
 30
0.0
 10
128.536718
 20
56.883444
 30
0.0
 10
128.670003
 20
56.731119
 30
0.0
  0
SPLINE
  5
1b2
100
AcDbEntity
  8
0
 62
7
100
AcDbSpline
 70
8
 71
3
 72
8
 73
4
 74
0
 40
0
 40
0
 40
0
 40
0
 40
1
 40
1
 40
1
 40
1
 10
128.670003
 20
56.731119
 30
0.0
 10
128.803287
 20
56.579985
 30
0.0
 10
128.960968
 20
56.504417
 30
0.0
 10
129.143044
 20
56.504417
 30
0.0
  0
SPLINE
  5
1b3
100
AcDbEntity
  8
0
 62
7
100
AcDbSpline
 70
8
 71
3
 72
8
 73
4
 74
0
 40
0
 40
0
 40
0
 40
0
 40
1
 40
1
 40
1
 40
1
 10
129.143044
 20
56.504417
 30
0.0
 10
129.325121
 20
56.504417
 30
0.0
 10
129.482206
 20
56.579985
 30
0.0
 10
129.614299
 20
56.731119
 30
0.0
  0
LWPOLYLINE
  5
1b4
100
AcDbEntity
  8
0
 62
7
100
AcDbPolyline
 90
1
 70
1
 10
130.015940
 20
56.372323
 30
0.0
  0
LWPOLYLINE
  5
1b5
100
AcDbEntity
  8
0
 62
7
100
AcDbPolyline
 90
1
 70
1
 10
129.614299
 20
56.731119
 30
0.0
  0
SPLINE
  5
1b6
100
AcDbEntity
  8
0
 62
7
100
AcDbSpline
 70
8
 71
3
 72
8
 73
4
 74
0
 40
0
 40
0
 40
0
 40
0
 40
1
 40
1
 40
1
 40
1
 10
131.981282
 20
57.430861
 30
0.0
 10
131.947961
 20
57.610557
 30
0.0
 10
131.869419
 20
57.758717
 30
0.0
 10
131.745657
 20
57.875340
 30
0.0
  0
SPLINE
  5
1b7
100
AcDbEntity
  8
0
 62
7
100
AcDbSpline
 70
8
 71
3
 72
8
 73
4
 74
0
 40
0
 40
0
 40
0
 40
0
 40
1
 40
1
 40
1
 40
1
 10
131.745657
 20
57.875340
 30
0.0
 10
131.621891
 20
57.991964
 30
0.0
 10
131.480277
 20
58.050276
 30
0.0
 10
131.320814
 20
58.050276
 30
0.0
  0
SPLINE
  5
1b8
100
AcDbEntity
  8
0
 62
7
100
AcDbSpline
 70
8
 71
3
 72
8
 73
4
 74
0
 40
0
 40
0
 40
0
 40
0
 40
1
 40
1
 40
1
 40
1
 10
131.320814
 20
58.050276
 30
0.0
 10
131.162539
 20
58.050276
 30
0.0
 10
131.021519
 20
57.991964
 30
0.0
 10
130.897754
 20
57.875340
 30
0.0
  0
SPLINE
  5
1b9
100
AcDbEntity
  8
0
 62
7
100
AcDbSpline
 70
8
 71
3
 72
8
 73
4
 74
0
 40
0
 40
0
 40
0
 40
0
 40
1
 40
1
 40
1
 40
1
 10
130.897754
 20
57.875340
 30
0.0
 10
130.775180
 20
57.758717
 30
0.0
 10
130.697828
 20
57.610557
 30
0.0
 10
130.665699
 20
57.430861
 30
0.0
  0
LWPOLYLINE
  5
1ba
100
AcDbEntity
  8
0
 62
7
100
AcDbPolyline
 90
2
 70
0
 10
130.665699
 20
57.430861
 30
0.0
 10
131.981282
 20
57.430861
 30
0.0
  0
LWPOLYLINE
  5
1bb
100
AcDbEntity
  8
0
 62
7
100
AcDbPolyline
 90
1
 70
1
 10
130.665699
 20
57.430861
 30
0.0
  0
SPLINE
  5
1bc
100
AcDbEntity
  8
0
 62
7
100
AcDbSpline
 70
8
 71
3
 72
8
 73
4
 74
0
 40
0
 40
0
 40
0
 40
0
 40
1
 40
1
 40
1
 40
1
 10
130.640706
 20
57.279131
 30
0.0
 10
130.640706
 20
57.066115
 30
0.0
 10
130.707348
 20
56.885229
 30
0.0
 10
130.840633
 20
56.736474
 30
0.0
  0
SPLINE
  5
1bd
100
AcDbEntity
  8
0
 62
7
100
AcDbSpline
 70
8
 71
3
 72
8
 73
4
 74
0
 40
0
 40
0
 40
0
 40
0
 40
1
 40
1
 40
1
 40
1
 10
130.840633
 20
56.736474
 30
0.0
 10
130.973917
 20
56.587720
 30
0.0
 10
131.131598
 20
56.513343
 30
0.0
 10
131.313674
 20
56.513343
 30
0.0
  0
SPLINE
  5
1be
100
AcDbEntity
  8
0
 62
7
100
AcDbSpline
 70
8
 71
3
 72
8
 73
4
 74
0
 40
0
 40
0
 40
0
 40
0
 40
1
 40
1
 40
1
 40
1
 10
131.313674
 20
56.513343
 30
0.0
 10
131.433865
 20
56.513343
 30
0.0
 10
131.551678
 20
56.545474
 30
0.0
 10
131.667112
 20
56.609735
 30
0.0
  0
SPLINE
  5
1bf
100
AcDbEntity
  8
0
 62
7
100
AcDbSpline
 70
8
 71
3
 72
8
 73
4
 74
0
 40
0
 40
0
 40
0
 40
0
 40
1
 40
1
 40
1
 40
1
 10
131.667112
 20
56.609735
 30
0.0
 10
131.782546
 20
56.673998
 30
0.0
 10
131.870609
 20
56.760275
 30
0.0
 10
131.931300
 20
56.868569
 30
0.0
  0
LWPOLYLINE
  5
1c0
100
AcDbEntity
  8
0
 62
7
100
AcDbPolyline
 90
2
 70
0
 10
132.156220
 20
57.279131
 30
0.0
 10
130.640706
 20
57.279131
 30
0.0
  0
SPLINE
  5
1c1
100
AcDbEntity
  8
0
 62
7
100
AcDbSpline
 70
8
 71
3
 72
8
 73
4
 74
0
 40
0
 40
0
 40
0
 40
0
 40
1
 40
1
 40
1
 40
1
 10
132.072323
 20
56.788241
 30
0.0
 10
131.999729
 20
56.658527
 30
0.0
 10
131.892625
 20
56.552019
 30
0.0
 10
131.751009
 20
56.468716
 30
0.0
  0
SPLINE
  5
1c2
100
AcDbEntity
  8
0
 62
7
100
AcDbSpline
 70
8
 71
3
 72
8
 73
4
 74
0
 40
0
 40
0
 40
0
 40
0
 40
1
 40
1
 40
1
 40
1
 10
131.751009
 20
56.468716
 30
0.0
 10
131.609396
 20
56.386604
 30
0.0
 10
131.463618
 20
56.345547
 30
0.0
 10
131.313674
 20
56.345547
 30
0.0
  0
SPLINE
  5
1c3
100
AcDbEntity
  8
0
 62
7
100
AcDbSpline
 70
8
 71
3
 72
8
 73
4
 74
0
 40
0
 40
0
 40
0
 40
0
 40
1
 40
1
 40
1
 40
1
 10
131.313674
 20
56.345547
 30
0.0
 10
131.162539
 20
56.345547
 30
0.0
 10
131.023303
 20
56.387794
 30
0.0
 10
130.895967
 20
56.472286
 30
0.0
  0
SPLINE
  5
1c4
100
AcDbEntity
  8
0
 62
7
100
AcDbSpline
 70
8
 71
3
 72
8
 73
4
 74
0
 40
0
 40
0
 40
0
 40
0
 40
1
 40
1
 40
1
 40
1
 10
130.895967
 20
56.472286
 30
0.0
 10
130.769825
 20
56.556779
 30
0.0
 10
130.670457
 20
56.670427
 30
0.0
 10
130.597863
 20
56.813232
 30
0.0
  0
SPLINE
  5
1c5
100
AcDbEntity
  8
0
 62
7
100
AcDbSpline
 70
8
 71
3
 72
8
 73
4
 74
0
 40
0
 40
0
 40
0
 40
0
 40
1
 40
1
 40
1
 40
1
 10
130.597863
 20
56.813232
 30
0.0
 10
130.526461
 20
56.957227
 30
0.0
 10
130.490760
 20
57.112526
 30
0.0
 10
130.490760
 20
57.279131
 30
0.0
  0
SPLINE
  5
1c6
100
AcDbEntity
  8
0
 62
7
100
AcDbSpline
 70
8
 71
3
 72
8
 73
4
 74
0
 40
0
 40
0
 40
0
 40
0
 40
1
 40
1
 40
1
 40
1
 10
130.490760
 20
57.279131
 30
0.0
 10
130.490760
 20
57.444547
 30
0.0
 10
130.527057
 20
57.598657
 30
0.0
 10
130.599650
 20
57.741461
 30
0.0
  0
SPLINE
  5
1c7
100
AcDbEntity
  8
0
 62
7
100
AcDbSpline
 70
8
 71
3
 72
8
 73
4
 74
0
 40
0
 40
0
 40
0
 40
0
 40
1
 40
1
 40
1
 40
1
 10
130.599650
 20
57.741461
 30
0.0
 10
130.673432
 20
57.884265
 30
0.0
 10
130.773990
 20
57.997914
 30
0.0
 10
130.901324
 20
58.082407
 30
0.0
  0
SPLINE
  5
1c8
100
AcDbEntity
  8
0
 62
7
100
AcDbSpline
 70
8
 71
3
 72
8
 73
4
 74
0
 40
0
 40
0
 40
0
 40
0
 40
1
 40
1
 40
1
 40
1
 10
130.901324
 20
58.082407
 30
0.0
 10
131.029849
 20
58.168089
 30
0.0
 10
131.169679
 20
58.210931
 30
0.0
 10
131.320814
 20
58.210931
 30
0.0
  0
SPLINE
  5
1c9
100
AcDbEntity
  8
0
 62
7
100
AcDbSpline
 70
8
 71
3
 72
8
 73
4
 74
0
 40
0
 40
0
 40
0
 40
0
 40
1
 40
1
 40
1
 40
1
 10
131.320814
 20
58.210931
 30
0.0
 10
131.463618
 20
58.210931
 30
0.0
 10
131.596307
 20
58.172255
 30
0.0
 10
131.718881
 20
58.094902
 30
0.0
  0
SPLINE
  5
1ca
100
AcDbEntity
  8
0
 62
7
100
AcDbSpline
 70
8
 71
3
 72
8
 73
4
 74
0
 40
0
 40
0
 40
0
 40
0
 40
1
 40
1
 40
1
 40
1
 10
131.718881
 20
58.094902
 30
0.0
 10
131.842643
 20
58.018740
 30
0.0
 10
131.942607
 20
57.915802
 30
0.0
 10
132.018771
 20
57.786088
 30
0.0
  0
SPLINE
  5
1cb
100
AcDbEntity
  8
0
 62
7
100
AcDbSpline
 70
8
 71
3
 72
8
 73
4
 74
0
 40
0
 40
0
 40
0
 40
0
 40
1
 40
1
 40
1
 40
1
 10
132.018771
 20
57.786088
 30
0.0
 10
132.094933
 20
57.656373
 30
0.0
 10
132.139559
 20
57.514164
 30
0.0
 10
132.152650
 20
57.359459
 30
0.0
  0
LWPOLYLINE
  5
1cc
100
AcDbEntity
  8
0
 62
7
100
AcDbPolyline
 90
2
 70
0
 10
131.931300
 20
56.868569
 30
0.0
 10
132.072323
 20
56.788241
 30
0.0
  0
LWPOLYLINE
  5
1cd
100
AcDbEntity
  8
0
 62
7
100
AcDbPolyline
 90
2
 70
0
 10
132.152650
 20
57.359459
 30
0.0
 10
132.156220
 20
57.279131
 30
0.0
  0
SPLINE
  5
1ce
100
AcDbEntity
  8
0
 62
7
100
AcDbSpline
 70
8
 71
3
 72
8
 73
4
 74
0
 40
0
 40
0
 40
0
 40
0
 40
1
 40
1
 40
1
 40
1
 10
122.500850
 20
54.005339
 30
0.0
 10
122.500850
 20
54.044610
 30
0.0
 10
122.514539
 20
54.078526
 30
0.0
 10
122.541918
 20
54.107087
 30
0.0
  0
SPLINE
  5
1cf
100
AcDbEntity
  8
0
 62
7
100
AcDbSpline
 70
8
 71
3
 72
8
 73
4
 74
0
 40
0
 40
0
 40
0
 40
0
 40
1
 40
1
 40
1
 40
1
 10
122.541918
 20
54.107087
 30
0.0
 10
122.570471
 20
54.135649
 30
0.0
 10
122.604982
 20
54.149929
 30
0.0
 10
122.645451
 20
54.149929
 30
0.0
  0
SPLINE
  5
1d0
100
AcDbEntity
  8
0
 62
7
100
AcDbSpline
 70
8
 71
3
 72
8
 73
4
 74
0
 40
0
 40
0
 40
0
 40
0
 40
1
 40
1
 40
1
 40
1
 10
122.645451
 20
54.149929
 30
0.0
 10
122.684724
 20
54.149929
 30
0.0
 10
122.718045
 20
54.135649
 30
0.0
 10
122.745415
 20
54.107087
 30
0.0
  0
SPLINE
  5
1d1
100
AcDbEntity
  8
0
 62
7
100
AcDbSpline
 70
8
 71
3
 72
8
 73
4
 74
0
 40
0
 40
0
 40
0
 40
0
 40
1
 40
1
 40
1
 40
1
 10
122.745415
 20
54.107087
 30
0.0
 10
122.773968
 20
54.078526
 30
0.0
 10
122.788244
 20
54.044610
 30
0.0
 10
122.788244
 20
54.005339
 30
0.0
  0
SPLINE
  5
1d2
100
AcDbEntity
  8
0
 62
7
100
AcDbSpline
 70
8
 71
3
 72
8
 73
4
 74
0
 40
0
 40
0
 40
0
 40
0
 40
1
 40
1
 40
1
 40
1
 10
122.788244
 20
54.005339
 30
0.0
 10
122.788244
 20
53.964878
 30
0.0
 10
122.774555
 20
53.930367
 30
0.0
 10
122.747176
 20
53.901805
 30
0.0
  0
SPLINE
  5
1d3
100
AcDbEntity
  8
0
 62
7
100
AcDbSpline
 70
8
 71
3
 72
8
 73
4
 74
0
 40
0
 40
0
 40
0
 40
0
 40
1
 40
1
 40
1
 40
1
 10
122.747176
 20
53.901805
 30
0.0
 10
122.719798
 20
53.874435
 30
0.0
 10
122.685881
 20
53.860750
 30
0.0
 10
122.645426
 20
53.860750
 30
0.0
  0
SPLINE
  5
1d4
100
AcDbEntity
  8
0
 62
7
100
AcDbSpline
 70
8
 71
3
 72
8
 73
4
 74
0
 40
0
 40
0
 40
0
 40
0
 40
1
 40
1
 40
1
 40
1
 10
122.645426
 20
53.860750
 30
0.0
 10
122.604965
 20
53.860750
 30
0.0
 10
122.570454
 20
53.874435
 30
0.0
 10
122.541892
 20
53.901805
 30
0.0
  0
SPLINE
  5
1d5
100
AcDbEntity
  8
0
 62
7
100
AcDbSpline
 70
8
 71
3
 72
8
 73
4
 74
0
 40
0
 40
0
 40
0
 40
0
 40
1
 40
1
 40
1
 40
1
 10
122.541892
 20
53.901805
 30
0.0
 10
122.514514
 20
53.930367
 30
0.0
 10
122.500824
 20
53.964878
 30
0.0
 10
122.500824
 20
54.005339
 30
0.0
  0
LWPOLYLINE
  5
1d6
100
AcDbEntity
  8
0
 62
7
100
AcDbPolyline
 90
10
 70
1
 10
119.473395
 20
53.576925
 30
0.0
 10
119.648329
 20
53.576925
 30
0.0
 10
120.240971
 20
52.161376
 30
0.0
 10
120.847887
 20
53.609056
 30
0.0
 10
121.456595
 20
52.161376
 30
0.0
 10
122.034952
 20
53.576925
 30
0.0
 10
122.206316
 20
53.576925
 30
0.0
 10
121.456595
 20
51.736533
 30
0.0
 10
120.842534
 20
53.182428
 30
0.0
 10
120.235614
 20
51.736533
 30
0.0
  0
LWPOLYLINE
  5
1d7
100
AcDbEntity
  8
0
 62
7
100
AcDbPolyline
 90
1
 70
1
 10
122.500824
 20
54.005339
 30
0.0
  0
LWPOLYLINE
  5
1d8
100
AcDbEntity
  8
0
 62
7
100
AcDbPolyline
 90
4
 70
1
 10
122.725766
 20
51.766879
 30
0.0
 10
122.565111
 20
51.766879
 30
0.0
 10
122.565111
 20
53.576925
 30
0.0
 10
122.725766
 20
53.576925
 30
0.0
  0
LWPOLYLINE
  5
1d9
100
AcDbEntity
  8
0
 62
7
100
AcDbPolyline
 90
12
 70
1
 10
123.482632
 20
51.766879
 30
0.0
 10
123.321977
 20
51.766879
 30
0.0
 10
123.321977
 20
53.418056
 30
0.0
 10
123.163105
 20
53.418056
 30
0.0
 10
123.163105
 20
53.576925
 30
0.0
 10
123.321977
 20
53.576925
 30
0.0
 10
123.321977
 20
54.005339
 30
0.0
 10
123.482632
 20
54.005339
 30
0.0
 10
123.482632
 20
53.576925
 30
0.0
 10
123.982445
 20
53.576925
 30
0.0
 10
123.928893
 20
53.418056
 30
0.0
 10
123.482632
 20
53.418056
 30
0.0
  0
SPLINE
  5
1da
100
AcDbEntity
  8
0
 62
7
100
AcDbSpline
 70
8
 71
3
 72
8
 73
4
 74
0
 40
0
 40
0
 40
0
 40
0
 40
1
 40
1
 40
1
 40
1
 10
124.467983
 20
53.062829
 30
0.0
 10
124.529863
 20
53.208014
 30
0.0
 10
124.619710
 20
53.334753
 30
0.0
 10
124.737524
 20
53.443046
 30
0.0
  0
SPLINE
  5
1db
100
AcDbEntity
  8
0
 62
7
100
AcDbSpline
 70
8
 71
3
 72
8
 73
4
 74
0
 40
0
 40
0
 40
0
 40
0
 40
1
 40
1
 40
1
 40
1
 10
124.737524
 20
53.443046
 30
0.0
 10
124.855338
 20
53.551340
 30
0.0
 10
124.968986
 20
53.605487
 30
0.0
 10
125.078469
 20
53.605487
 30
0.0
  0
SPLINE
  5
1dc
100
AcDbEntity
  8
0
 62
7
100
AcDbSpline
 70
8
 71
3
 72
8
 73
4
 74
0
 40
0
 40
0
 40
0
 40
0
 40
1
 40
1
 40
1
 40
1
 10
125.078469
 20
53.605487
 30
0.0
 10
125.199855
 20
53.605487
 30
0.0
 10
125.302198
 20
53.571570
 30
0.0
 10
125.385499
 20
53.503738
 30
0.0
  0
SPLINE
  5
1dd
100
AcDbEntity
  8
0
 62
7
100
AcDbSpline
 70
8
 71
3
 72
8
 73
4
 74
0
 40
0
 40
0
 40
0
 40
0
 40
1
 40
1
 40
1
 40
1
 10
125.385499
 20
53.503738
 30
0.0
 10
125.469992
 20
53.435906
 30
0.0
 10
125.530685
 20
53.349033
 30
0.0
 10
125.567577
 20
53.243120
 30
0.0
  0
SPLINE
  5
1de
100
AcDbEntity
  8
0
 62
7
100
AcDbSpline
 70
8
 71
3
 72
8
 73
4
 74
0
 40
0
 40
0
 40
0
 40
0
 40
1
 40
1
 40
1
 40
1
 10
125.567577
 20
53.243120
 30
0.0
 10
125.605658
 20
53.137207
 30
0.0
 10
125.624699
 20
53.017608
 30
0.0
 10
125.624699
 20
52.884324
 30
0.0
  0
LWPOLYLINE
  5
1df
100
AcDbEntity
  8
0
 62
7
100
AcDbPolyline
 90
4
 70
0
 10
124.307328
 20
51.766879
 30
0.0
 10
124.307328
 20
54.431967
 30
0.0
 10
124.467983
 20
54.431967
 30
0.0
 10
124.467983
 20
53.062829
 30
0.0
  0
SPLINE
  5
1e0
100
AcDbEntity
  8
0
 62
7
100
AcDbSpline
 70
8
 71
3
 72
8
 73
4
 74
0
 40
0
 40
0
 40
0
 40
0
 40
1
 40
1
 40
1
 40
1
 10
125.467614
 20
52.884324
 30
0.0
 10
125.467614
 20
52.949776
 30
0.0
 10
125.461070
 20
53.012848
 30
0.0
 10
125.447982
 20
53.073540
 30
0.0
  0
SPLINE
  5
1e1
100
AcDbEntity
  8
0
 62
7
100
AcDbSpline
 70
8
 71
3
 72
8
 73
4
 74
0
 40
0
 40
0
 40
0
 40
0
 40
1
 40
1
 40
1
 40
1
 10
125.447982
 20
53.073540
 30
0.0
 10
125.436068
 20
53.134232
 30
0.0
 10
125.416432
 20
53.193733
 30
0.0
 10
125.389074
 20
53.252045
 30
0.0
  0
SPLINE
  5
1e2
100
AcDbEntity
  8
0
 62
7
100
AcDbSpline
 70
8
 71
3
 72
8
 73
4
 74
0
 40
0
 40
0
 40
0
 40
0
 40
1
 40
1
 40
1
 40
1
 10
125.389074
 20
53.252045
 30
0.0
 10
125.361695
 20
53.310357
 30
0.0
 10
125.320640
 20
53.356769
 30
0.0
 10
125.265908
 20
53.391280
 30
0.0
  0
SPLINE
  5
1e3
100
AcDbEntity
  8
0
 62
7
100
AcDbSpline
 70
8
 71
3
 72
8
 73
4
 74
0
 40
0
 40
0
 40
0
 40
0
 40
1
 40
1
 40
1
 40
1
 10
125.265908
 20
53.391280
 30
0.0
 10
125.212354
 20
53.426981
 30
0.0
 10
125.148686
 20
53.444831
 30
0.0
 10
125.074904
 20
53.444831
 30
0.0
  0
SPLINE
  5
1e4
100
AcDbEntity
  8
0
 62
7
100
AcDbSpline
 70
8
 71
3
 72
8
 73
4
 74
0
 40
0
 40
0
 40
0
 40
0
 40
1
 40
1
 40
1
 40
1
 10
125.074904
 20
53.444831
 30
0.0
 10
125.004693
 20
53.444831
 30
0.0
 10
124.931507
 20
53.417460
 30
0.0
 10
124.855345
 20
53.362719
 30
0.0
  0
SPLINE
  5
1e5
100
AcDbEntity
  8
0
 62
7
100
AcDbSpline
 70
8
 71
3
 72
8
 73
4
 74
0
 40
0
 40
0
 40
0
 40
0
 40
1
 40
1
 40
1
 40
1
 10
124.855345
 20
53.362719
 30
0.0
 10
124.780372
 20
53.307977
 30
0.0
 10
124.714919
 20
53.240740
 30
0.0
 10
124.658988
 20
53.161007
 30
0.0
  0
SPLINE
  5
1e6
100
AcDbEntity
  8
0
 62
7
100
AcDbSpline
 70
8
 71
3
 72
8
 73
4
 74
0
 40
0
 40
0
 40
0
 40
0
 40
1
 40
1
 40
1
 40
1
 10
124.658988
 20
53.161007
 30
0.0
 10
124.604245
 20
53.082465
 30
0.0
 10
124.558429
 20
52.998567
 30
0.0
 10
124.521539
 20
52.909314
 30
0.0
  0
SPLINE
  5
1e7
100
AcDbEntity
  8
0
 62
7
100
AcDbSpline
 70
8
 71
3
 72
8
 73
4
 74
0
 40
0
 40
0
 40
0
 40
0
 40
1
 40
1
 40
1
 40
1
 10
124.521539
 20
52.909314
 30
0.0
 10
124.485838
 20
52.820062
 30
0.0
 10
124.467987
 20
52.741519
 30
0.0
 10
124.467987
 20
52.673687
 30
0.0
  0
LWPOLYLINE
  5
1e8
100
AcDbEntity
  8
0
 62
7
100
AcDbPolyline
 90
4
 70
0
 10
125.624699
 20
52.884324
 30
0.0
 10
125.624699
 20
51.766879
 30
0.0
 10
125.467614
 20
51.766879
 30
0.0
 10
125.467614
 20
52.884324
 30
0.0
  0
LWPOLYLINE
  5
1e9
100
AcDbEntity
  8
0
 62
7
100
AcDbPolyline
 90
3
 70
0
 10
124.467987
 20
52.673687
 30
0.0
 10
124.467987
 20
51.766879
 30
0.0
 10
124.307328
 20
51.766879
 30
0.0
  0
SPLINE
  5
1ea
100
AcDbEntity
  8
0
 62
7
100
AcDbSpline
 70
8
 71
3
 72
8
 73
4
 74
0
 40
0
 40
0
 40
0
 40
0
 40
1
 40
1
 40
1
 40
1
 10
132.709585
 20
51.766879
 30
0.0
 10
132.739335
 20
51.826380
 30
0.0
 10
132.754210
 20
51.906113
 30
0.0
 10
132.754210
 20
52.006076
 30
0.0
  0
LWPOLYLINE
  5
1eb
100
AcDbEntity
  8
0
 62
7
100
AcDbPolyline
 90
2
 70
0
 10
132.880949
 20
51.766879
 30
0.0
 10
132.709585
 20
51.766879
 30
0.0
  0
SPLINE
  5
1ec
100
AcDbEntity
  8
0
 62
7
100
AcDbSpline
 70
8
 71
3
 72
8
 73
4
 74
0
 40
0
 40
0
 40
0
 40
0
 40
1
 40
1
 40
1
 40
1
 10
132.914869
 20
53.112811
 30
0.0
 10
132.958898
 20
53.242525
 30
0.0
 10
133.046961
 20
53.356768
 30
0.0
 10
133.179057
 20
53.455542
 30
0.0
  0
SPLINE
  5
1ed
100
AcDbEntity
  8
0
 62
7
100
AcDbSpline
 70
8
 71
3
 72
8
 73
4
 74
0
 40
0
 40
0
 40
0
 40
0
 40
1
 40
1
 40
1
 40
1
 10
133.179057
 20
53.455542
 30
0.0
 10
133.312339
 20
53.555505
 30
0.0
 10
133.448002
 20
53.605487
 30
0.0
 10
133.586046
 20
53.605487
 30
0.0
  0
SPLINE
  5
1ee
100
AcDbEntity
  8
0
 62
7
100
AcDbSpline
 70
8
 71
3
 72
8
 73
4
 74
0
 40
0
 40
0
 40
0
 40
0
 40
1
 40
1
 40
1
 40
1
 10
133.586046
 20
53.605487
 30
0.0
 10
133.737181
 20
53.605487
 30
0.0
 10
133.875821
 20
53.562645
 30
0.0
 10
134.001966
 20
53.476962
 30
0.0
  0
SPLINE
  5
1ef
100
AcDbEntity
  8
0
 62
7
100
AcDbSpline
 70
8
 71
3
 72
8
 73
4
 74
0
 40
0
 40
0
 40
0
 40
0
 40
1
 40
1
 40
1
 40
1
 10
134.001966
 20
53.476962
 30
0.0
 10
134.128111
 20
53.392470
 30
0.0
 10
134.226885
 20
53.278821
 30
0.0
 10
134.298287
 20
53.136017
 30
0.0
  0
SPLINE
  5
1f0
100
AcDbEntity
  8
0
 62
7
100
AcDbSpline
 70
8
 71
3
 72
8
 73
4
 74
0
 40
0
 40
0
 40
0
 40
0
 40
1
 40
1
 40
1
 40
1
 10
134.298287
 20
53.136017
 30
0.0
 10
134.370878
 20
52.993212
 30
0.0
 10
134.407173
 20
52.839102
 30
0.0
 10
134.407173
 20
52.673687
 30
0.0
  0
SPLINE
  5
1f1
100
AcDbEntity
  8
0
 62
7
100
AcDbSpline
 70
8
 71
3
 72
8
 73
4
 74
0
 40
0
 40
0
 40
0
 40
0
 40
1
 40
1
 40
1
 40
1
 10
134.407173
 20
52.673687
 30
0.0
 10
134.407173
 20
52.507082
 30
0.0
 10
134.370878
 20
52.351782
 30
0.0
 10
134.298287
 20
52.207788
 30
0.0
  0
SPLINE
  5
1f2
100
AcDbEntity
  8
0
 62
7
100
AcDbSpline
 70
8
 71
3
 72
8
 73
4
 74
0
 40
0
 40
0
 40
0
 40
0
 40
1
 40
1
 40
1
 40
1
 10
134.298287
 20
52.207788
 30
0.0
 10
134.226885
 20
52.064983
 30
0.0
 10
134.128111
 20
51.951334
 30
0.0
 10
134.001966
 20
51.866842
 30
0.0
  0
SPLINE
  5
1f3
100
AcDbEntity
  8
0
 62
7
100
AcDbSpline
 70
8
 71
3
 72
8
 73
4
 74
0
 40
0
 40
0
 40
0
 40
0
 40
1
 40
1
 40
1
 40
1
 10
134.001966
 20
51.866842
 30
0.0
 10
133.875821
 20
51.782349
 30
0.0
 10
133.737181
 20
51.740103
 30
0.0
 10
133.586046
 20
51.740103
 30
0.0
  0
SPLINE
  5
1f4
100
AcDbEntity
  8
0
 62
7
100
AcDbSpline
 70
8
 71
3
 72
8
 73
4
 74
0
 40
0
 40
0
 40
0
 40
0
 40
1
 40
1
 40
1
 40
1
 10
133.586046
 20
51.740103
 30
0.0
 10
133.450384
 20
51.740103
 30
0.0
 10
133.315911
 20
51.790679
 30
0.0
 10
133.182627
 20
51.891832
 30
0.0
  0
SPLINE
  5
1f5
100
AcDbEntity
  8
0
 62
7
100
AcDbSpline
 70
8
 71
3
 72
8
 73
4
 74
0
 40
0
 40
0
 40
0
 40
0
 40
1
 40
1
 40
1
 40
1
 10
133.182627
 20
51.891832
 30
0.0
 10
133.049342
 20
51.994176
 30
0.0
 10
132.960089
 20
52.107229
 30
0.0
 10
132.914869
 20
52.230993
 30
0.0
  0
LWPOLYLINE
  5
1f6
100
AcDbEntity
  8
0
 62
7
100
AcDbPolyline
 90
4
 70
0
 10
132.754210
 20
52.006076
 30
0.0
 10
132.754210
 20
54.431967
 30
0.0
 10
132.914869
 20
54.431967
 30
0.0
 10
132.914869
 20
53.112811
 30
0.0
  0
SPLINE
  5
1f7
100
AcDbEntity
  8
0
 62
7
100
AcDbSpline
 70
8
 71
3
 72
8
 73
4
 74
0
 40
0
 40
0
 40
0
 40
0
 40
1
 40
1
 40
1
 40
1
 10
132.914869
 20
52.006076
 30
0.0
 10
132.914869
 20
51.925154
 30
0.0
 10
132.903556
 20
51.845421
 30
0.0
 10
132.880932
 20
51.766879
 30
0.0
  0
LWPOLYLINE
  5
1f8
100
AcDbEntity
  8
0
 62
7
100
AcDbPolyline
 90
2
 70
0
 10
132.914869
 20
52.230993
 30
0.0
 10
132.914869
 20
52.006076
 30
0.0
  0
SPLINE
  5
1f9
100
AcDbEntity
  8
0
 62
7
100
AcDbSpline
 70
8
 71
3
 72
8
 73
4
 74
0
 40
0
 40
0
 40
0
 40
0
 40
1
 40
1
 40
1
 40
1
 10
133.113009
 20
53.219914
 30
0.0
 10
132.980915
 20
53.069970
 30
0.0
 10
132.914869
 20
52.887894
 30
0.0
 10
132.914869
 20
52.673687
 30
0.0
  0
SPLINE
  5
1fa
100
AcDbEntity
  8
0
 62
7
100
AcDbSpline
 70
8
 71
3
 72
8
 73
4
 74
0
 40
0
 40
0
 40
0
 40
0
 40
1
 40
1
 40
1
 40
1
 10
132.914869
 20
52.673687
 30
0.0
 10
132.914869
 20
52.459480
 30
0.0
 10
132.980915
 20
52.276810
 30
0.0
 10
133.113009
 20
52.125675
 30
0.0
  0
SPLINE
  5
1fb
100
AcDbEntity
  8
0
 62
7
100
AcDbSpline
 70
8
 71
3
 72
8
 73
4
 74
0
 40
0
 40
0
 40
0
 40
0
 40
1
 40
1
 40
1
 40
1
 10
133.113009
 20
52.125675
 30
0.0
 10
133.245102
 20
51.974540
 30
0.0
 10
133.402781
 20
51.898973
 30
0.0
 10
133.586046
 20
51.898973
 30
0.0
  0
SPLINE
  5
1fc
100
AcDbEntity
  8
0
 62
7
100
AcDbSpline
 70
8
 71
3
 72
8
 73
4
 74
0
 40
0
 40
0
 40
0
 40
0
 40
1
 40
1
 40
1
 40
1
 10
133.586046
 20
51.898973
 30
0.0
 10
133.766934
 20
51.898973
 30
0.0
 10
133.924019
 20
51.974540
 30
0.0
 10
134.057301
 20
52.125675
 30
0.0
  0
SPLINE
  5
1fd
100
AcDbEntity
  8
0
 62
7
100
AcDbSpline
 70
8
 71
3
 72
8
 73
4
 74
0
 40
0
 40
0
 40
0
 40
0
 40
1
 40
1
 40
1
 40
1
 10
134.057301
 20
52.125675
 30
0.0
 10
134.190585
 20
52.278000
 30
0.0
 10
134.257228
 20
52.460670
 30
0.0
 10
134.257228
 20
52.673687
 30
0.0
  0
SPLINE
  5
1fe
100
AcDbEntity
  8
0
 62
7
100
AcDbSpline
 70
8
 71
3
 72
8
 73
4
 74
0
 40
0
 40
0
 40
0
 40
0
 40
1
 40
1
 40
1
 40
1
 10
134.257228
 20
52.673687
 30
0.0
 10
134.257228
 20
52.887894
 30
0.0
 10
134.190585
 20
53.069970
 30
0.0
 10
134.057301
 20
53.219914
 30
0.0
  0
SPLINE
  5
1ff
100
AcDbEntity
  8
0
 62
7
100
AcDbSpline
 70
8
 71
3
 72
8
 73
4
 74
0
 40
0
 40
0
 40
0
 40
0
 40
1
 40
1
 40
1
 40
1
 10
134.057301
 20
53.219914
 30
0.0
 10
133.924019
 20
53.369859
 30
0.0
 10
133.766934
 20
53.444831
 30
0.0
 10
133.586046
 20
53.444831
 30
0.0
  0
SPLINE
  5
200
100
AcDbEntity
  8
0
 62
7
100
AcDbSpline
 70
8
 71
3
 72
8
 73
4
 74
0
 40
0
 40
0
 40
0
 40
0
 40
1
 40
1
 40
1
 40
1
 10
133.586046
 20
53.444831
 30
0.0
 10
133.402781
 20
53.444831
 30
0.0
 10
133.245102
 20
53.369859
 30
0.0
 10
133.113009
 20
53.219914
 30
0.0
  0
LWPOLYLINE
  5
201
100
AcDbEntity
  8
0
 62
7
100
AcDbPolyline
 90
1
 70
1
 10
132.880932
 20
51.766879
 30
0.0
  0
LWPOLYLINE
  5
202
100
AcDbEntity
  8
0
 62
7
100
AcDbPolyline
 90
1
 70
1
 10
133.113009
 20
53.219914
 30
0.0
  0
LWPOLYLINE
  5
203
100
AcDbEntity
  8
0
 62
7
100
AcDbPolyline
 90
8
 70
1
 10
134.689214
 20
53.576925
 30
0.0
 10
134.853439
 20
53.576925
 30
0.0
 10
135.476422
 20
51.979300
 30
0.0
 10
136.085125
 20
53.576925
 30
0.0
 10
136.256493
 20
53.576925
 30
0.0
 10
135.215803
 20
50.836864
 30
0.0
 10
135.044439
 20
50.836864
 30
0.0
 10
135.396094
 20
51.763309
 30
0.0
  0
SPLINE
  5
204
100
AcDbEntity
  8
0
 62
7
100
AcDbSpline
 70
8
 71
3
 72
8
 73
4
 74
0
 40
0
 40
0
 40
0
 40
0
 40
1
 40
1
 40
1
 40
1
 10
120.639037
 20
49.000042
 30
0.0
 10
120.763991
 20
49.000042
 30
0.0
 10
120.883589
 20
48.975646
 30
0.0
 10
120.997832
 20
48.926855
 30
0.0
  0
SPLINE
  5
205
100
AcDbEntity
  8
0
 62
7
100
AcDbSpline
 70
8
 71
3
 72
8
 73
4
 74
0
 40
0
 40
0
 40
0
 40
0
 40
1
 40
1
 40
1
 40
1
 10
120.997832
 20
48.926855
 30
0.0
 10
121.112078
 20
48.878063
 30
0.0
 10
121.210851
 20
48.812016
 30
0.0
 10
121.294153
 20
48.728713
 30
0.0
  0
SPLINE
  5
206
100
AcDbEntity
  8
0
 62
7
100
AcDbSpline
 70
8
 71
3
 72
8
 73
4
 74
0
 40
0
 40
0
 40
0
 40
0
 40
1
 40
1
 40
1
 40
1
 10
121.294153
 20
48.728713
 30
0.0
 10
121.377454
 20
48.645411
 30
0.0
 10
121.443501
 20
48.546043
 30
0.0
 10
121.492293
 20
48.430609
 30
0.0
  0
SPLINE
  5
207
100
AcDbEntity
  8
0
 62
7
100
AcDbSpline
 70
8
 71
3
 72
8
 73
4
 74
0
 40
0
 40
0
 40
0
 40
0
 40
1
 40
1
 40
1
 40
1
 10
121.492293
 20
48.430609
 30
0.0
 10
121.541085
 20
48.315175
 30
0.0
 10
121.565480
 20
48.194387
 30
0.0
 10
121.565480
 20
48.068243
 30
0.0
  0
SPLINE
  5
208
100
AcDbEntity
  8
0
 62
7
100
AcDbSpline
 70
8
 71
3
 72
8
 73
4
 74
0
 40
0
 40
0
 40
0
 40
0
 40
1
 40
1
 40
1
 40
1
 10
121.565480
 20
48.068243
 30
0.0
 10
121.565480
 20
47.940909
 30
0.0
 10
121.541085
 20
47.819525
 30
0.0
 10
121.492293
 20
47.704091
 30
0.0
  0
SPLINE
  5
209
100
AcDbEntity
  8
0
 62
7
100
AcDbSpline
 70
8
 71
3
 72
8
 73
4
 74
0
 40
0
 40
0
 40
0
 40
0
 40
1
 40
1
 40
1
 40
1
 10
121.492293
 20
47.704091
 30
0.0
 10
121.443501
 20
47.588658
 30
0.0
 10
121.377454
 20
47.489290
 30
0.0
 10
121.294153
 20
47.405987
 30
0.0
  0
SPLINE
  5
20a
100
AcDbEntity
  8
0
 62
7
100
AcDbSpline
 70
8
 71
3
 72
8
 73
4
 74
0
 40
0
 40
0
 40
0
 40
0
 40
1
 40
1
 40
1
 40
1
 10
121.294153
 20
47.405987
 30
0.0
 10
121.210851
 20
47.323874
 30
0.0
 10
121.112078
 20
47.257827
 30
0.0
 10
120.997832
 20
47.207846
 30
0.0
  0
SPLINE
  5
20b
100
AcDbEntity
  8
0
 62
7
100
AcDbSpline
 70
8
 71
3
 72
8
 73
4
 74
0
 40
0
 40
0
 40
0
 40
0
 40
1
 40
1
 40
1
 40
1
 10
120.997832
 20
47.207846
 30
0.0
 10
120.883589
 20
47.159054
 30
0.0
 10
120.763991
 20
47.134659
 30
0.0
 10
120.639037
 20
47.134659
 30
0.0
  0
SPLINE
  5
20c
100
AcDbEntity
  8
0
 62
7
100
AcDbSpline
 70
8
 71
3
 72
8
 73
4
 74
0
 40
0
 40
0
 40
0
 40
0
 40
1
 40
1
 40
1
 40
1
 10
120.639037
 20
47.134659
 30
0.0
 10
120.383179
 20
47.134659
 30
0.0
 10
120.164807
 20
47.225696
 30
0.0
 10
119.983922
 20
47.407772
 30
0.0
  0
SPLINE
  5
20d
100
AcDbEntity
  8
0
 62
7
100
AcDbSpline
 70
8
 71
3
 72
8
 73
4
 74
0
 40
0
 40
0
 40
0
 40
0
 40
1
 40
1
 40
1
 40
1
 10
119.983922
 20
47.407772
 30
0.0
 10
119.803037
 20
47.589848
 30
0.0
 10
119.712594
 20
47.810005
 30
0.0
 10
119.712594
 20
48.068243
 30
0.0
  0
SPLINE
  5
20e
100
AcDbEntity
  8
0
 62
7
100
AcDbSpline
 70
8
 71
3
 72
8
 73
4
 74
0
 40
0
 40
0
 40
0
 40
0
 40
1
 40
1
 40
1
 40
1
 10
119.712594
 20
48.068243
 30
0.0
 10
119.712594
 20
48.237228
 30
0.0
 10
119.753651
 20
48.393123
 30
0.0
 10
119.835764
 20
48.535927
 30
0.0
  0
SPLINE
  5
20f
100
AcDbEntity
  8
0
 62
7
100
AcDbSpline
 70
8
 71
3
 72
8
 73
4
 74
0
 40
0
 40
0
 40
0
 40
0
 40
1
 40
1
 40
1
 40
1
 10
119.835764
 20
48.535927
 30
0.0
 10
119.919065
 20
48.679922
 30
0.0
 10
120.031523
 20
48.792975
 30
0.0
 10
120.173135
 20
48.875088
 30
0.0
  0
SPLINE
  5
210
100
AcDbEntity
  8
0
 62
7
100
AcDbSpline
 70
8
 71
3
 72
8
 73
4
 74
0
 40
0
 40
0
 40
0
 40
0
 40
1
 40
1
 40
1
 40
1
 10
120.173135
 20
48.875088
 30
0.0
 10
120.315942
 20
48.958391
 30
0.0
 10
120.471243
 20
49.000042
 30
0.0
 10
120.639037
 20
49.000042
 30
0.0
  0
LWPOLYLINE
  5
211
100
AcDbEntity
  8
0
 62
7
100
AcDbPolyline
 90
8
 70
1
 10
117.863274
 20
48.971481
 30
0.0
 10
118.027499
 20
48.971481
 30
0.0
 10
118.650486
 20
47.373856
 30
0.0
 10
119.259189
 20
48.971481
 30
0.0
 10
119.430553
 20
48.971481
 30
0.0
 10
118.389867
 20
46.231420
 30
0.0
 10
118.218503
 20
46.231420
 30
0.0
 10
118.570158
 20
47.157864
 30
0.0
  0
SPLINE
  5
212
100
AcDbEntity
  8
0
 62
7
100
AcDbSpline
 70
8
 71
3
 72
8
 73
4
 74
0
 40
0
 40
0
 40
0
 40
0
 40
1
 40
1
 40
1
 40
1
 10
119.871462
 20
48.068243
 30
0.0
 10
119.871462
 20
47.855226
 30
0.0
 10
119.946435
 20
47.672555
 30
0.0
 10
120.096382
 20
47.520231
 30
0.0
  0
SPLINE
  5
213
100
AcDbEntity
  8
0
 62
7
100
AcDbSpline
 70
8
 71
3
 72
8
 73
4
 74
0
 40
0
 40
0
 40
0
 40
0
 40
1
 40
1
 40
1
 40
1
 10
120.096382
 20
47.520231
 30
0.0
 10
120.247514
 20
47.369096
 30
0.0
 10
120.429590
 20
47.293528
 30
0.0
 10
120.642607
 20
47.293528
 30
0.0
  0
SPLINE
  5
214
100
AcDbEntity
  8
0
 62
7
100
AcDbSpline
 70
8
 71
3
 72
8
 73
4
 74
0
 40
0
 40
0
 40
0
 40
0
 40
1
 40
1
 40
1
 40
1
 10
120.642607
 20
47.293528
 30
0.0
 10
120.855625
 20
47.293528
 30
0.0
 10
121.037106
 20
47.369096
 30
0.0
 10
121.187050
 20
47.520231
 30
0.0
  0
SPLINE
  5
215
100
AcDbEntity
  8
0
 62
7
100
AcDbSpline
 70
8
 71
3
 72
8
 73
4
 74
0
 40
0
 40
0
 40
0
 40
0
 40
1
 40
1
 40
1
 40
1
 10
121.187050
 20
47.520231
 30
0.0
 10
121.338185
 20
47.672555
 30
0.0
 10
121.413752
 20
47.855226
 30
0.0
 10
121.413752
 20
48.068243
 30
0.0
  0
SPLINE
  5
216
100
AcDbEntity
  8
0
 62
7
100
AcDbSpline
 70
8
 71
3
 72
8
 73
4
 74
0
 40
0
 40
0
 40
0
 40
0
 40
1
 40
1
 40
1
 40
1
 10
121.413752
 20
48.068243
 30
0.0
 10
121.413752
 20
48.280070
 30
0.0
 10
121.338185
 20
48.461550
 30
0.0
 10
121.187050
 20
48.612685
 30
0.0
  0
SPLINE
  5
217
100
AcDbEntity
  8
0
 62
7
100
AcDbSpline
 70
8
 71
3
 72
8
 73
4
 74
0
 40
0
 40
0
 40
0
 40
0
 40
1
 40
1
 40
1
 40
1
 10
121.187050
 20
48.612685
 30
0.0
 10
121.037106
 20
48.763819
 30
0.0
 10
120.855625
 20
48.839387
 30
0.0
 10
120.642607
 20
48.839387
 30
0.0
  0
SPLINE
  5
218
100
AcDbEntity
  8
0
 62
7
100
AcDbSpline
 70
8
 71
3
 72
8
 73
4
 74
0
 40
0
 40
0
 40
0
 40
0
 40
1
 40
1
 40
1
 40
1
 10
120.642607
 20
48.839387
 30
0.0
 10
120.429590
 20
48.839387
 30
0.0
 10
120.247514
 20
48.763819
 30
0.0
 10
120.096382
 20
48.612685
 30
0.0
  0
SPLINE
  5
219
100
AcDbEntity
  8
0
 62
7
100
AcDbSpline
 70
8
 71
3
 72
8
 73
4
 74
0
 40
0
 40
0
 40
0
 40
0
 40
1
 40
1
 40
1
 40
1
 10
120.096382
 20
48.612685
 30
0.0
 10
119.946435
 20
48.461550
 30
0.0
 10
119.871462
 20
48.280070
 30
0.0
 10
119.871462
 20
48.068243
 30
0.0
  0
LWPOLYLINE
  5
21a
100
AcDbEntity
  8
0
 62
7
100
AcDbPolyline
 90
1
 70
1
 10
120.639037
 20
49.000042
 30
0.0
  0
LWPOLYLINE
  5
21b
100
AcDbEntity
  8
0
 62
7
100
AcDbPolyline
 90
1
 70
1
 10
119.871462
 20
48.068243
 30
0.0
  0
SPLINE
  5
21c
100
AcDbEntity
  8
0
 62
7
100
AcDbSpline
 70
8
 71
3
 72
8
 73
4
 74
0
 40
0
 40
0
 40
0
 40
0
 40
1
 40
1
 40
1
 40
1
 10
122.243802
 20
47.852251
 30
0.0
 10
122.243802
 20
47.696356
 30
0.0
 10
122.290808
 20
47.564262
 30
0.0
 10
122.384820
 20
47.455968
 30
0.0
  0
SPLINE
  5
21d
100
AcDbEntity
  8
0
 62
7
100
AcDbSpline
 70
8
 71
3
 72
8
 73
4
 74
0
 40
0
 40
0
 40
0
 40
0
 40
1
 40
1
 40
1
 40
1
 10
122.384820
 20
47.455968
 30
0.0
 10
122.478835
 20
47.347675
 30
0.0
 10
122.593674
 20
47.293528
 30
0.0
 10
122.729336
 20
47.293528
 30
0.0
  0
SPLINE
  5
21e
100
AcDbEntity
  8
0
 62
7
100
AcDbSpline
 70
8
 71
3
 72
8
 73
4
 74
0
 40
0
 40
0
 40
0
 40
0
 40
1
 40
1
 40
1
 40
1
 10
122.729336
 20
47.293528
 30
0.0
 10
122.866192
 20
47.293528
 30
0.0
 10
122.984006
 20
47.347675
 30
0.0
 10
123.082778
 20
47.455968
 30
0.0
  0
SPLINE
  5
21f
100
AcDbEntity
  8
0
 62
7
100
AcDbSpline
 70
8
 71
3
 72
8
 73
4
 74
0
 40
0
 40
0
 40
0
 40
0
 40
1
 40
1
 40
1
 40
1
 10
123.082778
 20
47.455968
 30
0.0
 10
123.182741
 20
47.565452
 30
0.0
 10
123.232723
 20
47.697546
 30
0.0
 10
123.232723
 20
47.852251
 30
0.0
  0
LWPOLYLINE
  5
220
100
AcDbEntity
  8
0
 62
7
100
AcDbPolyline
 90
3
 70
0
 10
122.083147
 20
48.971481
 30
0.0
 10
122.243802
 20
48.971481
 30
0.0
 10
122.243802
 20
47.852251
 30
0.0
  0
SPLINE
  5
221
100
AcDbEntity
  8
0
 62
7
100
AcDbSpline
 70
8
 71
3
 72
8
 73
4
 74
0
 40
0
 40
0
 40
0
 40
0
 40
1
 40
1
 40
1
 40
1
 10
123.393378
 20
47.852251
 30
0.0
 10
123.393378
 20
47.655895
 30
0.0
 10
123.329711
 20
47.486909
 30
0.0
 10
123.202377
 20
47.345295
 30
0.0
  0
SPLINE
  5
222
100
AcDbEntity
  8
0
 62
7
100
AcDbSpline
 70
8
 71
3
 72
8
 73
4
 74
0
 40
0
 40
0
 40
0
 40
0
 40
1
 40
1
 40
1
 40
1
 10
123.202377
 20
47.345295
 30
0.0
 10
123.075044
 20
47.204871
 30
0.0
 10
122.919745
 20
47.134659
 30
0.0
 10
122.736480
 20
47.134659
 30
0.0
  0
SPLINE
  5
223
100
AcDbEntity
  8
0
 62
7
100
AcDbSpline
 70
8
 71
3
 72
8
 73
4
 74
0
 40
0
 40
0
 40
0
 40
0
 40
1
 40
1
 40
1
 40
1
 10
122.736480
 20
47.134659
 30
0.0
 10
122.554403
 20
47.134659
 30
0.0
 10
122.399698
 20
47.204871
 30
0.0
 10
122.272365
 20
47.345295
 30
0.0
  0
SPLINE
  5
224
100
AcDbEntity
  8
0
 62
7
100
AcDbSpline
 70
8
 71
3
 72
8
 73
4
 74
0
 40
0
 40
0
 40
0
 40
0
 40
1
 40
1
 40
1
 40
1
 10
122.272365
 20
47.345295
 30
0.0
 10
122.146220
 20
47.486909
 30
0.0
 10
122.083147
 20
47.655895
 30
0.0
 10
122.083147
 20
47.852251
 30
0.0
  0
LWPOLYLINE
  5
225
100
AcDbEntity
  8
0
 62
7
100
AcDbPolyline
 90
4
 70
0
 10
123.232723
 20
47.852251
 30
0.0
 10
123.232723
 20
48.971481
 30
0.0
 10
123.393378
 20
48.971481
 30
0.0
 10
123.393378
 20
47.852251
 30
0.0
  0
LWPOLYLINE
  5
226
100
AcDbEntity
  8
0
 62
7
100
AcDbPolyline
 90
2
 70
0
 10
122.083147
 20
47.852251
 30
0.0
 10
122.083147
 20
48.971481
 30
0.0
  0
SPLINE
  5
227
100
AcDbEntity
  8
0
 62
7
100
AcDbSpline
 70
8
 71
3
 72
8
 73
4
 74
0
 40
0
 40
0
 40
0
 40
0
 40
1
 40
1
 40
1
 40
1
 10
124.116328
 20
48.971481
 30
0.0
 10
124.138924
 20
48.892939
 30
0.0
 10
124.150222
 20
48.813206
 30
0.0
 10
124.150222
 20
48.732284
 30
0.0
  0
LWPOLYLINE
  5
228
100
AcDbEntity
  8
0
 62
7
100
AcDbPolyline
 90
2
 70
0
 10
123.944960
 20
48.971481
 30
0.0
 10
124.116328
 20
48.971481
 30
0.0
  0
SPLINE
  5
229
100
AcDbEntity
  8
0
 62
7
100
AcDbSpline
 70
8
 71
3
 72
8
 73
4
 74
0
 40
0
 40
0
 40
0
 40
0
 40
1
 40
1
 40
1
 40
1
 10
124.150222
 20
48.507367
 30
0.0
 10
124.177601
 20
48.598999
 30
0.0
 10
124.241267
 20
48.694202
 30
0.0
 10
124.341222
 20
48.792976
 30
0.0
  0
SPLINE
  5
22a
100
AcDbEntity
  8
0
 62
7
100
AcDbSpline
 70
8
 71
3
 72
8
 73
4
 74
0
 40
0
 40
0
 40
0
 40
0
 40
1
 40
1
 40
1
 40
1
 10
124.341222
 20
48.792976
 30
0.0
 10
124.441186
 20
48.891749
 30
0.0
 10
124.541744
 20
48.960771
 30
0.0
 10
124.642896
 20
49.000042
 30
0.0
  0
LWPOLYLINE
  5
22b
100
AcDbEntity
  8
0
 62
7
100
AcDbPolyline
 90
2
 70
0
 10
124.150222
 20
48.732284
 30
0.0
 10
124.150222
 20
48.507367
 30
0.0
  0
SPLINE
  5
22c
100
AcDbEntity
  8
0
 62
7
100
AcDbSpline
 70
8
 71
3
 72
8
 73
4
 74
0
 40
0
 40
0
 40
0
 40
0
 40
1
 40
1
 40
1
 40
1
 10
124.821404
 20
48.873303
 30
0.0
 10
124.716680
 20
48.873303
 30
0.0
 10
124.611957
 20
48.836412
 30
0.0
 10
124.507234
 20
48.762630
 30
0.0
  0
SPLINE
  5
22d
100
AcDbEntity
  8
0
 62
7
100
AcDbSpline
 70
8
 71
3
 72
8
 73
4
 74
0
 40
0
 40
0
 40
0
 40
0
 40
1
 40
1
 40
1
 40
1
 10
124.507234
 20
48.762630
 30
0.0
 10
124.403699
 20
48.688847
 30
0.0
 10
124.318016
 20
48.590669
 30
0.0
 10
124.250186
 20
48.468095
 30
0.0
  0
SPLINE
  5
22e
100
AcDbEntity
  8
0
 62
7
100
AcDbSpline
 70
8
 71
3
 72
8
 73
4
 74
0
 40
0
 40
0
 40
0
 40
0
 40
1
 40
1
 40
1
 40
1
 10
124.250186
 20
48.468095
 30
0.0
 10
124.183543
 20
48.346711
 30
0.0
 10
124.150222
 20
48.221162
 30
0.0
 10
124.150222
 20
48.091448
 30
0.0
  0
LWPOLYLINE
  5
22f
100
AcDbEntity
  8
0
 62
7
100
AcDbPolyline
 90
2
 70
0
 10
124.642896
 20
49.000042
 30
0.0
 10
124.821404
 20
48.873303
 30
0.0
  0
SPLINE
  5
230
100
AcDbEntity
  8
0
 62
7
100
AcDbSpline
 70
8
 71
3
 72
8
 73
4
 74
0
 40
0
 40
0
 40
0
 40
0
 40
1
 40
1
 40
1
 40
1
 10
123.989567
 20
48.732284
 30
0.0
 10
123.989567
 20
48.834627
 30
0.0
 10
123.974691
 20
48.914359
 30
0.0
 10
123.944938
 20
48.971481
 30
0.0
  0
LWPOLYLINE
  5
231
100
AcDbEntity
  8
0
 62
7
100
AcDbPolyline
 90
4
 70
0
 10
124.150222
 20
48.091448
 30
0.0
 10
124.150222
 20
47.161434
 30
0.0
 10
123.989567
 20
47.161434
 30
0.0
 10
123.989567
 20
48.732284
 30
0.0
  0
LWPOLYLINE
  5
232
100
AcDbEntity
  8
0
 62
7
100
AcDbPolyline
 90
1
 70
1
 10
123.944938
 20
48.971481
 30
0.0
  0
SPLINE
  5
233
100
AcDbEntity
  8
0
 62
7
100
AcDbSpline
 70
8
 71
3
 72
8
 73
4
 74
0
 40
0
 40
0
 40
0
 40
0
 40
1
 40
1
 40
1
 40
1
 10
126.408336
 20
47.161434
 30
0.0
 10
126.438089
 20
47.220936
 30
0.0
 10
126.452965
 20
47.300669
 30
0.0
 10
126.452965
 20
47.400632
 30
0.0
  0
LWPOLYLINE
  5
234
100
AcDbEntity
  8
0
 62
7
100
AcDbPolyline
 90
2
 70
0
 10
126.579705
 20
47.161434
 30
0.0
 10
126.408336
 20
47.161434
 30
0.0
  0
SPLINE
  5
235
100
AcDbEntity
  8
0
 62
7
100
AcDbSpline
 70
8
 71
3
 72
8
 73
4
 74
0
 40
0
 40
0
 40
0
 40
0
 40
1
 40
1
 40
1
 40
1
 10
126.613620
 20
48.507367
 30
0.0
 10
126.657652
 20
48.637081
 30
0.0
 10
126.745715
 20
48.751324
 30
0.0
 10
126.877808
 20
48.850097
 30
0.0
  0
SPLINE
  5
236
100
AcDbEntity
  8
0
 62
7
100
AcDbSpline
 70
8
 71
3
 72
8
 73
4
 74
0
 40
0
 40
0
 40
0
 40
0
 40
1
 40
1
 40
1
 40
1
 10
126.877808
 20
48.850097
 30
0.0
 10
127.011093
 20
48.950060
 30
0.0
 10
127.146757
 20
49.000042
 30
0.0
 10
127.284802
 20
49.000042
 30
0.0
  0
SPLINE
  5
237
100
AcDbEntity
  8
0
 62
7
100
AcDbSpline
 70
8
 71
3
 72
8
 73
4
 74
0
 40
0
 40
0
 40
0
 40
0
 40
1
 40
1
 40
1
 40
1
 10
127.284802
 20
49.000042
 30
0.0
 10
127.435937
 20
49.000042
 30
0.0
 10
127.574575
 20
48.957201
 30
0.0
 10
127.700718
 20
48.871518
 30
0.0
  0
SPLINE
  5
238
100
AcDbEntity
  8
0
 62
7
100
AcDbSpline
 70
8
 71
3
 72
8
 73
4
 74
0
 40
0
 40
0
 40
0
 40
0
 40
1
 40
1
 40
1
 40
1
 10
127.700718
 20
48.871518
 30
0.0
 10
127.826863
 20
48.787025
 30
0.0
 10
127.925636
 20
48.673377
 30
0.0
 10
127.997038
 20
48.530572
 30
0.0
  0
SPLINE
  5
239
100
AcDbEntity
  8
0
 62
7
100
AcDbSpline
 70
8
 71
3
 72
8
 73
4
 74
0
 40
0
 40
0
 40
0
 40
0
 40
1
 40
1
 40
1
 40
1
 10
127.997038
 20
48.530572
 30
0.0
 10
128.069629
 20
48.387768
 30
0.0
 10
128.105924
 20
48.233658
 30
0.0
 10
128.105924
 20
48.068243
 30
0.0
  0
SPLINE
  5
23a
100
AcDbEntity
  8
0
 62
7
100
AcDbSpline
 70
8
 71
3
 72
8
 73
4
 74
0
 40
0
 40
0
 40
0
 40
0
 40
1
 40
1
 40
1
 40
1
 10
128.105924
 20
48.068243
 30
0.0
 10
128.105924
 20
47.901638
 30
0.0
 10
128.069629
 20
47.746338
 30
0.0
 10
127.997038
 20
47.602343
 30
0.0
  0
SPLINE
  5
23b
100
AcDbEntity
  8
0
 62
7
100
AcDbSpline
 70
8
 71
3
 72
8
 73
4
 74
0
 40
0
 40
0
 40
0
 40
0
 40
1
 40
1
 40
1
 40
1
 10
127.997038
 20
47.602343
 30
0.0
 10
127.925636
 20
47.459538
 30
0.0
 10
127.826863
 20
47.345890
 30
0.0
 10
127.700718
 20
47.261397
 30
0.0
  0
SPLINE
  5
23c
100
AcDbEntity
  8
0
 62
7
100
AcDbSpline
 70
8
 71
3
 72
8
 73
4
 74
0
 40
0
 40
0
 40
0
 40
0
 40
1
 40
1
 40
1
 40
1
 10
127.700718
 20
47.261397
 30
0.0
 10
127.574575
 20
47.176905
 30
0.0
 10
127.435937
 20
47.134659
 30
0.0
 10
127.284802
 20
47.134659
 30
0.0
  0
SPLINE
  5
23d
100
AcDbEntity
  8
0
 62
7
100
AcDbSpline
 70
8
 71
3
 72
8
 73
4
 74
0
 40
0
 40
0
 40
0
 40
0
 40
1
 40
1
 40
1
 40
1
 10
127.284802
 20
47.134659
 30
0.0
 10
127.149137
 20
47.134659
 30
0.0
 10
127.014662
 20
47.185235
 30
0.0
 10
126.881378
 20
47.286388
 30
0.0
  0
SPLINE
  5
23e
100
AcDbEntity
  8
0
 62
7
100
AcDbSpline
 70
8
 71
3
 72
8
 73
4
 74
0
 40
0
 40
0
 40
0
 40
0
 40
1
 40
1
 40
1
 40
1
 10
126.881378
 20
47.286388
 30
0.0
 10
126.748093
 20
47.388731
 30
0.0
 10
126.658840
 20
47.501785
 30
0.0
 10
126.613620
 20
47.625549
 30
0.0
  0
LWPOLYLINE
  5
23f
100
AcDbEntity
  8
0
 62
7
100
AcDbPolyline
 90
4
 70
0
 10
126.452965
 20
47.400632
 30
0.0
 10
126.452965
 20
49.826523
 30
0.0
 10
126.613620
 20
49.826523
 30
0.0
 10
126.613620
 20
48.507367
 30
0.0
  0
SPLINE
  5
240
100
AcDbEntity
  8
0
 62
7
100
AcDbSpline
 70
8
 71
3
 72
8
 73
4
 74
0
 40
0
 40
0
 40
0
 40
0
 40
1
 40
1
 40
1
 40
1
 10
126.613620
 20
47.400632
 30
0.0
 10
126.613620
 20
47.319709
 30
0.0
 10
126.602322
 20
47.239977
 30
0.0
 10
126.579726
 20
47.161434
 30
0.0
  0
LWPOLYLINE
  5
241
100
AcDbEntity
  8
0
 62
7
100
AcDbPolyline
 90
2
 70
0
 10
126.613620
 20
47.625549
 30
0.0
 10
126.613620
 20
47.400632
 30
0.0
  0
SPLINE
  5
242
100
AcDbEntity
  8
0
 62
7
100
AcDbSpline
 70
8
 71
3
 72
8
 73
4
 74
0
 40
0
 40
0
 40
0
 40
0
 40
1
 40
1
 40
1
 40
1
 10
126.811760
 20
48.614470
 30
0.0
 10
126.679667
 20
48.464525
 30
0.0
 10
126.613620
 20
48.282449
 30
0.0
 10
126.613620
 20
48.068243
 30
0.0
  0
SPLINE
  5
243
100
AcDbEntity
  8
0
 62
7
100
AcDbSpline
 70
8
 71
3
 72
8
 73
4
 74
0
 40
0
 40
0
 40
0
 40
0
 40
1
 40
1
 40
1
 40
1
 10
126.613620
 20
48.068243
 30
0.0
 10
126.613620
 20
47.854036
 30
0.0
 10
126.679667
 20
47.671365
 30
0.0
 10
126.811760
 20
47.520231
 30
0.0
  0
SPLINE
  5
244
100
AcDbEntity
  8
0
 62
7
100
AcDbSpline
 70
8
 71
3
 72
8
 73
4
 74
0
 40
0
 40
0
 40
0
 40
0
 40
1
 40
1
 40
1
 40
1
 10
126.811760
 20
47.520231
 30
0.0
 10
126.943853
 20
47.369096
 30
0.0
 10
127.101534
 20
47.293528
 30
0.0
 10
127.284802
 20
47.293528
 30
0.0
  0
SPLINE
  5
245
100
AcDbEntity
  8
0
 62
7
100
AcDbSpline
 70
8
 71
3
 72
8
 73
4
 74
0
 40
0
 40
0
 40
0
 40
0
 40
1
 40
1
 40
1
 40
1
 10
127.284802
 20
47.293528
 30
0.0
 10
127.465687
 20
47.293528
 30
0.0
 10
127.622772
 20
47.369096
 30
0.0
 10
127.756056
 20
47.520231
 30
0.0
  0
SPLINE
  5
246
100
AcDbEntity
  8
0
 62
7
100
AcDbSpline
 70
8
 71
3
 72
8
 73
4
 74
0
 40
0
 40
0
 40
0
 40
0
 40
1
 40
1
 40
1
 40
1
 10
127.756056
 20
47.520231
 30
0.0
 10
127.889341
 20
47.672555
 30
0.0
 10
127.955983
 20
47.855226
 30
0.0
 10
127.955983
 20
48.068243
 30
0.0
  0
SPLINE
  5
247
100
AcDbEntity
  8
0
 62
7
100
AcDbSpline
 70
8
 71
3
 72
8
 73
4
 74
0
 40
0
 40
0
 40
0
 40
0
 40
1
 40
1
 40
1
 40
1
 10
127.955983
 20
48.068243
 30
0.0
 10
127.955983
 20
48.282449
 30
0.0
 10
127.889341
 20
48.464525
 30
0.0
 10
127.756056
 20
48.614470
 30
0.0
  0
SPLINE
  5
248
100
AcDbEntity
  8
0
 62
7
100
AcDbSpline
 70
8
 71
3
 72
8
 73
4
 74
0
 40
0
 40
0
 40
0
 40
0
 40
1
 40
1
 40
1
 40
1
 10
127.756056
 20
48.614470
 30
0.0
 10
127.622772
 20
48.764414
 30
0.0
 10
127.465687
 20
48.839387
 30
0.0
 10
127.284802
 20
48.839387
 30
0.0
  0
SPLINE
  5
249
100
AcDbEntity
  8
0
 62
7
100
AcDbSpline
 70
8
 71
3
 72
8
 73
4
 74
0
 40
0
 40
0
 40
0
 40
0
 40
1
 40
1
 40
1
 40
1
 10
127.284802
 20
48.839387
 30
0.0
 10
127.101534
 20
48.839387
 30
0.0
 10
126.943853
 20
48.764414
 30
0.0
 10
126.811760
 20
48.614470
 30
0.0
  0
LWPOLYLINE
  5
24a
100
AcDbEntity
  8
0
 62
7
100
AcDbPolyline
 90
1
 70
1
 10
126.579726
 20
47.161434
 30
0.0
  0
LWPOLYLINE
  5
24b
100
AcDbEntity
  8
0
 62
7
100
AcDbPolyline
 90
1
 70
1
 10
126.811760
 20
48.614470
 30
0.0
  0
SPLINE
  5
24c
100
AcDbEntity
  8
0
 62
7
100
AcDbSpline
 70
8
 71
3
 72
8
 73
4
 74
0
 40
0
 40
0
 40
0
 40
0
 40
1
 40
1
 40
1
 40
1
 10
128.750330
 20
48.971481
 30
0.0
 10
128.772955
 20
48.892939
 30
0.0
 10
128.784267
 20
48.813206
 30
0.0
 10
128.784267
 20
48.732284
 30
0.0
  0
LWPOLYLINE
  5
24d
100
AcDbEntity
  8
0
 62
7
100
AcDbPolyline
 90
2
 70
0
 10
128.578966
 20
48.971481
 30
0.0
 10
128.750330
 20
48.971481
 30
0.0
  0
SPLINE
  5
24e
100
AcDbEntity
  8
0
 62
7
100
AcDbSpline
 70
8
 71
3
 72
8
 73
4
 74
0
 40
0
 40
0
 40
0
 40
0
 40
1
 40
1
 40
1
 40
1
 10
128.784267
 20
48.507367
 30
0.0
 10
128.811646
 20
48.598999
 30
0.0
 10
128.875312
 20
48.694202
 30
0.0
 10
128.975267
 20
48.792976
 30
0.0
  0
SPLINE
  5
24f
100
AcDbEntity
  8
0
 62
7
100
AcDbSpline
 70
8
 71
3
 72
8
 73
4
 74
0
 40
0
 40
0
 40
0
 40
0
 40
1
 40
1
 40
1
 40
1
 10
128.975267
 20
48.792976
 30
0.0
 10
129.075231
 20
48.891749
 30
0.0
 10
129.175788
 20
48.960771
 30
0.0
 10
129.276941
 20
49.000042
 30
0.0
  0
LWPOLYLINE
  5
250
100
AcDbEntity
  8
0
 62
7
100
AcDbPolyline
 90
2
 70
0
 10
128.784267
 20
48.732284
 30
0.0
 10
128.784267
 20
48.507367
 30
0.0
  0
SPLINE
  5
251
100
AcDbEntity
  8
0
 62
7
100
AcDbSpline
 70
8
 71
3
 72
8
 73
4
 74
0
 40
0
 40
0
 40
0
 40
0
 40
1
 40
1
 40
1
 40
1
 10
129.455444
 20
48.873303
 30
0.0
 10
129.350721
 20
48.873303
 30
0.0
 10
129.245998
 20
48.836412
 30
0.0
 10
129.141275
 20
48.762630
 30
0.0
  0
SPLINE
  5
252
100
AcDbEntity
  8
0
 62
7
100
AcDbSpline
 70
8
 71
3
 72
8
 73
4
 74
0
 40
0
 40
0
 40
0
 40
0
 40
1
 40
1
 40
1
 40
1
 10
129.141275
 20
48.762630
 30
0.0
 10
129.037743
 20
48.688847
 30
0.0
 10
128.952060
 20
48.590669
 30
0.0
 10
128.884226
 20
48.468095
 30
0.0
  0
SPLINE
  5
253
100
AcDbEntity
  8
0
 62
7
100
AcDbSpline
 70
8
 71
3
 72
8
 73
4
 74
0
 40
0
 40
0
 40
0
 40
0
 40
1
 40
1
 40
1
 40
1
 10
128.884226
 20
48.468095
 30
0.0
 10
128.817587
 20
48.346711
 30
0.0
 10
128.784267
 20
48.221162
 30
0.0
 10
128.784267
 20
48.091448
 30
0.0
  0
LWPOLYLINE
  5
254
100
AcDbEntity
  8
0
 62
7
100
AcDbPolyline
 90
2
 70
0
 10
129.276941
 20
49.000042
 30
0.0
 10
129.455444
 20
48.873303
 30
0.0
  0
SPLINE
  5
255
100
AcDbEntity
  8
0
 62
7
100
AcDbSpline
 70
8
 71
3
 72
8
 73
4
 74
0
 40
0
 40
0
 40
0
 40
0
 40
1
 40
1
 40
1
 40
1
 10
128.623608
 20
48.732284
 30
0.0
 10
128.623608
 20
48.834627
 30
0.0
 10
128.608733
 20
48.914359
 30
0.0
 10
128.578983
 20
48.971481
 30
0.0
  0
LWPOLYLINE
  5
256
100
AcDbEntity
  8
0
 62
7
100
AcDbPolyline
 90
4
 70
0
 10
128.784267
 20
48.091448
 30
0.0
 10
128.784267
 20
47.161434
 30
0.0
 10
128.623608
 20
47.161434
 30
0.0
 10
128.623608
 20
48.732284
 30
0.0
  0
SPLINE
  5
257
100
AcDbEntity
  8
0
 62
7
100
AcDbSpline
 70
8
 71
3
 72
8
 73
4
 74
0
 40
0
 40
0
 40
0
 40
0
 40
1
 40
1
 40
1
 40
1
 10
130.628209
 20
49.000042
 30
0.0
 10
130.753163
 20
49.000042
 30
0.0
 10
130.872762
 20
48.975646
 30
0.0
 10
130.987008
 20
48.926855
 30
0.0
  0
SPLINE
  5
258
100
AcDbEntity
  8
0
 62
7
100
AcDbSpline
 70
8
 71
3
 72
8
 73
4
 74
0
 40
0
 40
0
 40
0
 40
0
 40
1
 40
1
 40
1
 40
1
 10
130.987008
 20
48.926855
 30
0.0
 10
131.101251
 20
48.878063
 30
0.0
 10
131.200023
 20
48.812016
 30
0.0
 10
131.283324
 20
48.728713
 30
0.0
  0
SPLINE
  5
259
100
AcDbEntity
  8
0
 62
7
100
AcDbSpline
 70
8
 71
3
 72
8
 73
4
 74
0
 40
0
 40
0
 40
0
 40
0
 40
1
 40
1
 40
1
 40
1
 10
131.283324
 20
48.728713
 30
0.0
 10
131.366629
 20
48.645411
 30
0.0
 10
131.432677
 20
48.546043
 30
0.0
 10
131.481469
 20
48.430609
 30
0.0
  0
SPLINE
  5
25a
100
AcDbEntity
  8
0
 62
7
100
AcDbSpline
 70
8
 71
3
 72
8
 73
4
 74
0
 40
0
 40
0
 40
0
 40
0
 40
1
 40
1
 40
1
 40
1
 10
131.481469
 20
48.430609
 30
0.0
 10
131.530260
 20
48.315175
 30
0.0
 10
131.554656
 20
48.194387
 30
0.0
 10
131.554656
 20
48.068243
 30
0.0
  0
SPLINE
  5
25b
100
AcDbEntity
  8
0
 62
7
100
AcDbSpline
 70
8
 71
3
 72
8
 73
4
 74
0
 40
0
 40
0
 40
0
 40
0
 40
1
 40
1
 40
1
 40
1
 10
131.554656
 20
48.068243
 30
0.0
 10
131.554656
 20
47.940909
 30
0.0
 10
131.530260
 20
47.819525
 30
0.0
 10
131.481469
 20
47.704091
 30
0.0
  0
SPLINE
  5
25c
100
AcDbEntity
  8
0
 62
7
100
AcDbSpline
 70
8
 71
3
 72
8
 73
4
 74
0
 40
0
 40
0
 40
0
 40
0
 40
1
 40
1
 40
1
 40
1
 10
131.481469
 20
47.704091
 30
0.0
 10
131.432677
 20
47.588658
 30
0.0
 10
131.366629
 20
47.489290
 30
0.0
 10
131.283324
 20
47.405987
 30
0.0
  0
SPLINE
  5
25d
100
AcDbEntity
  8
0
 62
7
100
AcDbSpline
 70
8
 71
3
 72
8
 73
4
 74
0
 40
0
 40
0
 40
0
 40
0
 40
1
 40
1
 40
1
 40
1
 10
131.283324
 20
47.405987
 30
0.0
 10
131.200023
 20
47.323874
 30
0.0
 10
131.101251
 20
47.257827
 30
0.0
 10
130.987008
 20
47.207846
 30
0.0
  0
SPLINE
  5
25e
100
AcDbEntity
  8
0
 62
7
100
AcDbSpline
 70
8
 71
3
 72
8
 73
4
 74
0
 40
0
 40
0
 40
0
 40
0
 40
1
 40
1
 40
1
 40
1
 10
130.987008
 20
47.207846
 30
0.0
 10
130.872762
 20
47.159054
 30
0.0
 10
130.753163
 20
47.134659
 30
0.0
 10
130.628209
 20
47.134659
 30
0.0
  0
SPLINE
  5
25f
100
AcDbEntity
  8
0
 62
7
100
AcDbSpline
 70
8
 71
3
 72
8
 73
4
 74
0
 40
0
 40
0
 40
0
 40
0
 40
1
 40
1
 40
1
 40
1
 10
130.628209
 20
47.134659
 30
0.0
 10
130.372351
 20
47.134659
 30
0.0
 10
130.153979
 20
47.225696
 30
0.0
 10
129.973094
 20
47.407772
 30
0.0
  0
SPLINE
  5
260
100
AcDbEntity
  8
0
 62
7
100
AcDbSpline
 70
8
 71
3
 72
8
 73
4
 74
0
 40
0
 40
0
 40
0
 40
0
 40
1
 40
1
 40
1
 40
1
 10
129.973094
 20
47.407772
 30
0.0
 10
129.792209
 20
47.589848
 30
0.0
 10
129.701766
 20
47.810005
 30
0.0
 10
129.701766
 20
48.068243
 30
0.0
  0
SPLINE
  5
261
100
AcDbEntity
  8
0
 62
7
100
AcDbSpline
 70
8
 71
3
 72
8
 73
4
 74
0
 40
0
 40
0
 40
0
 40
0
 40
1
 40
1
 40
1
 40
1
 10
129.701766
 20
48.068243
 30
0.0
 10
129.701766
 20
48.237228
 30
0.0
 10
129.742823
 20
48.393123
 30
0.0
 10
129.824936
 20
48.535927
 30
0.0
  0
SPLINE
  5
262
100
AcDbEntity
  8
0
 62
7
100
AcDbSpline
 70
8
 71
3
 72
8
 73
4
 74
0
 40
0
 40
0
 40
0
 40
0
 40
1
 40
1
 40
1
 40
1
 10
129.824936
 20
48.535927
 30
0.0
 10
129.908237
 20
48.679922
 30
0.0
 10
130.020696
 20
48.792975
 30
0.0
 10
130.162311
 20
48.875088
 30
0.0
  0
SPLINE
  5
263
100
AcDbEntity
  8
0
 62
7
100
AcDbSpline
 70
8
 71
3
 72
8
 73
4
 74
0
 40
0
 40
0
 40
0
 40
0
 40
1
 40
1
 40
1
 40
1
 10
130.162311
 20
48.875088
 30
0.0
 10
130.305115
 20
48.958391
 30
0.0
 10
130.460415
 20
49.000042
 30
0.0
 10
130.628209
 20
49.000042
 30
0.0
  0
LWPOLYLINE
  5
264
100
AcDbEntity
  8
0
 62
7
100
AcDbPolyline
 90
1
 70
1
 10
128.578983
 20
48.971481
 30
0.0
  0
SPLINE
  5
265
100
AcDbEntity
  8
0
 62
7
100
AcDbSpline
 70
8
 71
3
 72
8
 73
4
 74
0
 40
0
 40
0
 40
0
 40
0
 40
1
 40
1
 40
1
 40
1
 10
129.860638
 20
48.068243
 30
0.0
 10
129.860638
 20
47.855226
 30
0.0
 10
129.935610
 20
47.672555
 30
0.0
 10
130.085554
 20
47.520231
 30
0.0
  0
SPLINE
  5
266
100
AcDbEntity
  8
0
 62
7
100
AcDbSpline
 70
8
 71
3
 72
8
 73
4
 74
0
 40
0
 40
0
 40
0
 40
0
 40
1
 40
1
 40
1
 40
1
 10
130.085554
 20
47.520231
 30
0.0
 10
130.236689
 20
47.369096
 30
0.0
 10
130.418764
 20
47.293528
 30
0.0
 10
130.631779
 20
47.293528
 30
0.0
  0
SPLINE
  5
267
100
AcDbEntity
  8
0
 62
7
100
AcDbSpline
 70
8
 71
3
 72
8
 73
4
 74
0
 40
0
 40
0
 40
0
 40
0
 40
1
 40
1
 40
1
 40
1
 10
130.631779
 20
47.293528
 30
0.0
 10
130.844797
 20
47.293528
 30
0.0
 10
131.026277
 20
47.369096
 30
0.0
 10
131.176221
 20
47.520231
 30
0.0
  0
SPLINE
  5
268
100
AcDbEntity
  8
0
 62
7
100
AcDbSpline
 70
8
 71
3
 72
8
 73
4
 74
0
 40
0
 40
0
 40
0
 40
0
 40
1
 40
1
 40
1
 40
1
 10
131.176221
 20
47.520231
 30
0.0
 10
131.327356
 20
47.672555
 30
0.0
 10
131.402924
 20
47.855226
 30
0.0
 10
131.402924
 20
48.068243
 30
0.0
  0
SPLINE
  5
269
100
AcDbEntity
  8
0
 62
7
100
AcDbSpline
 70
8
 71
3
 72
8
 73
4
 74
0
 40
0
 40
0
 40
0
 40
0
 40
1
 40
1
 40
1
 40
1
 10
131.402924
 20
48.068243
 30
0.0
 10
131.402924
 20
48.280070
 30
0.0
 10
131.327356
 20
48.461550
 30
0.0
 10
131.176221
 20
48.612685
 30
0.0
  0
SPLINE
  5
26a
100
AcDbEntity
  8
0
 62
7
100
AcDbSpline
 70
8
 71
3
 72
8
 73
4
 74
0
 40
0
 40
0
 40
0
 40
0
 40
1
 40
1
 40
1
 40
1
 10
131.176221
 20
48.612685
 30
0.0
 10
131.026277
 20
48.763819
 30
0.0
 10
130.844797
 20
48.839387
 30
0.0
 10
130.631779
 20
48.839387
 30
0.0
  0
SPLINE
  5
26b
100
AcDbEntity
  8
0
 62
7
100
AcDbSpline
 70
8
 71
3
 72
8
 73
4
 74
0
 40
0
 40
0
 40
0
 40
0
 40
1
 40
1
 40
1
 40
1
 10
130.631779
 20
48.839387
 30
0.0
 10
130.418764
 20
48.839387
 30
0.0
 10
130.236689
 20
48.763819
 30
0.0
 10
130.085554
 20
48.612685
 30
0.0
  0
SPLINE
  5
26c
100
AcDbEntity
  8
0
 62
7
100
AcDbSpline
 70
8
 71
3
 72
8
 73
4
 74
0
 40
0
 40
0
 40
0
 40
0
 40
1
 40
1
 40
1
 40
1
 10
130.085554
 20
48.612685
 30
0.0
 10
129.935610
 20
48.461550
 30
0.0
 10
129.860638
 20
48.280070
 30
0.0
 10
129.860638
 20
48.068243
 30
0.0
  0
LWPOLYLINE
  5
26d
100
AcDbEntity
  8
0
 62
7
100
AcDbPolyline
 90
1
 70
1
 10
130.628209
 20
49.000042
 30
0.0
  0
LWPOLYLINE
  5
26e
100
AcDbEntity
  8
0
 62
7
100
AcDbPolyline
 90
1
 70
1
 10
129.860638
 20
48.068243
 30
0.0
  0
LWPOLYLINE
  5
26f
100
AcDbEntity
  8
0
 62
7
100
AcDbPolyline
 90
12
 70
1
 10
132.232978
 20
47.161434
 30
0.0
 10
132.072323
 20
47.161434
 30
0.0
 10
132.072323
 20
48.812611
 30
0.0
 10
131.913451
 20
48.812611
 30
0.0
 10
131.913451
 20
48.971481
 30
0.0
 10
132.072323
 20
48.971481
 30
0.0
 10
132.072323
 20
49.399895
 30
0.0
 10
132.232978
 20
49.399895
 30
0.0
 10
132.232978
 20
48.971481
 30
0.0
 10
132.732791
 20
48.971481
 30
0.0
 10
132.679239
 20
48.812611
 30
0.0
 10
132.232978
 20
48.812611
 30
0.0
  0
SPLINE
  5
270
100
AcDbEntity
  8
0
 62
7
100
AcDbSpline
 70
8
 71
3
 72
8
 73
4
 74
0
 40
0
 40
0
 40
0
 40
0
 40
1
 40
1
 40
1
 40
1
 10
133.218325
 20
48.457385
 30
0.0
 10
133.280207
 20
48.602569
 30
0.0
 10
133.370056
 20
48.729308
 30
0.0
 10
133.487870
 20
48.837602
 30
0.0
  0
SPLINE
  5
271
100
AcDbEntity
  8
0
 62
7
100
AcDbSpline
 70
8
 71
3
 72
8
 73
4
 74
0
 40
0
 40
0
 40
0
 40
0
 40
1
 40
1
 40
1
 40
1
 10
133.487870
 20
48.837602
 30
0.0
 10
133.605684
 20
48.945895
 30
0.0
 10
133.719332
 20
49.000042
 30
0.0
 10
133.828815
 20
49.000042
 30
0.0
  0
SPLINE
  5
272
100
AcDbEntity
  8
0
 62
7
100
AcDbSpline
 70
8
 71
3
 72
8
 73
4
 74
0
 40
0
 40
0
 40
0
 40
0
 40
1
 40
1
 40
1
 40
1
 10
133.828815
 20
49.000042
 30
0.0
 10
133.950200
 20
49.000042
 30
0.0
 10
134.052544
 20
48.966126
 30
0.0
 10
134.135845
 20
48.898294
 30
0.0
  0
SPLINE
  5
273
100
AcDbEntity
  8
0
 62
7
100
AcDbSpline
 70
8
 71
3
 72
8
 73
4
 74
0
 40
0
 40
0
 40
0
 40
0
 40
1
 40
1
 40
1
 40
1
 10
134.135845
 20
48.898294
 30
0.0
 10
134.220338
 20
48.830462
 30
0.0
 10
134.281029
 20
48.743589
 30
0.0
 10
134.317919
 20
48.637676
 30
0.0
  0
SPLINE
  5
274
100
AcDbEntity
  8
0
 62
7
100
AcDbSpline
 70
8
 71
3
 72
8
 73
4
 74
0
 40
0
 40
0
 40
0
 40
0
 40
1
 40
1
 40
1
 40
1
 10
134.317919
 20
48.637676
 30
0.0
 10
134.356003
 20
48.531762
 30
0.0
 10
134.375045
 20
48.412163
 30
0.0
 10
134.375045
 20
48.278879
 30
0.0
  0
LWPOLYLINE
  5
275
100
AcDbEntity
  8
0
 62
7
100
AcDbPolyline
 90
4
 70
0
 10
133.057670
 20
47.161434
 30
0.0
 10
133.057670
 20
49.826523
 30
0.0
 10
133.218325
 20
49.826523
 30
0.0
 10
133.218325
 20
48.457385
 30
0.0
  0
SPLINE
  5
276
100
AcDbEntity
  8
0
 62
7
100
AcDbSpline
 70
8
 71
3
 72
8
 73
4
 74
0
 40
0
 40
0
 40
0
 40
0
 40
1
 40
1
 40
1
 40
1
 10
134.217960
 20
48.278879
 30
0.0
 10
134.217960
 20
48.344331
 30
0.0
 10
134.211416
 20
48.407403
 30
0.0
 10
134.198328
 20
48.468095
 30
0.0
  0
SPLINE
  5
277
100
AcDbEntity
  8
0
 62
7
100
AcDbSpline
 70
8
 71
3
 72
8
 73
4
 74
0
 40
0
 40
0
 40
0
 40
0
 40
1
 40
1
 40
1
 40
1
 10
134.198328
 20
48.468095
 30
0.0
 10
134.186414
 20
48.528787
 30
0.0
 10
134.166778
 20
48.588289
 30
0.0
 10
134.139419
 20
48.646601
 30
0.0
  0
SPLINE
  5
278
100
AcDbEntity
  8
0
 62
7
100
AcDbSpline
 70
8
 71
3
 72
8
 73
4
 74
0
 40
0
 40
0
 40
0
 40
0
 40
1
 40
1
 40
1
 40
1
 10
134.139419
 20
48.646601
 30
0.0
 10
134.112041
 20
48.704913
 30
0.0
 10
134.070984
 20
48.751324
 30
0.0
 10
134.016250
 20
48.785835
 30
0.0
  0
SPLINE
  5
279
100
AcDbEntity
  8
0
 62
7
100
AcDbSpline
 70
8
 71
3
 72
8
 73
4
 74
0
 40
0
 40
0
 40
0
 40
0
 40
1
 40
1
 40
1
 40
1
 10
134.016250
 20
48.785835
 30
0.0
 10
133.962698
 20
48.821536
 30
0.0
 10
133.899032
 20
48.839387
 30
0.0
 10
133.825250
 20
48.839387
 30
0.0
  0
SPLINE
  5
27a
100
AcDbEntity
  8
0
 62
7
100
AcDbSpline
 70
8
 71
3
 72
8
 73
4
 74
0
 40
0
 40
0
 40
0
 40
0
 40
1
 40
1
 40
1
 40
1
 10
133.825250
 20
48.839387
 30
0.0
 10
133.755039
 20
48.839387
 30
0.0
 10
133.681851
 20
48.812016
 30
0.0
 10
133.605686
 20
48.757274
 30
0.0
  0
SPLINE
  5
27b
100
AcDbEntity
  8
0
 62
7
100
AcDbSpline
 70
8
 71
3
 72
8
 73
4
 74
0
 40
0
 40
0
 40
0
 40
0
 40
1
 40
1
 40
1
 40
1
 10
133.605686
 20
48.757274
 30
0.0
 10
133.530716
 20
48.702533
 30
0.0
 10
133.465265
 20
48.635295
 30
0.0
 10
133.409334
 20
48.555563
 30
0.0
  0
SPLINE
  5
27c
100
AcDbEntity
  8
0
 62
7
100
AcDbSpline
 70
8
 71
3
 72
8
 73
4
 74
0
 40
0
 40
0
 40
0
 40
0
 40
1
 40
1
 40
1
 40
1
 10
133.409334
 20
48.555563
 30
0.0
 10
133.354591
 20
48.477020
 30
0.0
 10
133.308773
 20
48.393123
 30
0.0
 10
133.271881
 20
48.303870
 30
0.0
  0
SPLINE
  5
27d
100
AcDbEntity
  8
0
 62
7
100
AcDbSpline
 70
8
 71
3
 72
8
 73
4
 74
0
 40
0
 40
0
 40
0
 40
0
 40
1
 40
1
 40
1
 40
1
 10
133.271881
 20
48.303870
 30
0.0
 10
133.236180
 20
48.214617
 30
0.0
 10
133.218329
 20
48.136075
 30
0.0
 10
133.218329
 20
48.068243
 30
0.0
  0
LWPOLYLINE
  5
27e
100
AcDbEntity
  8
0
 62
7
100
AcDbPolyline
 90
4
 70
0
 10
134.375045
 20
48.278879
 30
0.0
 10
134.375045
 20
47.161434
 30
0.0
 10
134.217960
 20
47.161434
 30
0.0
 10
134.217960
 20
48.278879
 30
0.0
  0
LWPOLYLINE
  5
27f
100
AcDbEntity
  8
0
 62
7
100
AcDbPolyline
 90
3
 70
0
 10
133.218329
 20
48.068243
 30
0.0
 10
133.218329
 20
47.161434
 30
0.0
 10
133.057670
 20
47.161434
 30
0.0
  0
SPLINE
  5
280
100
AcDbEntity
  8
0
 62
7
100
AcDbSpline
 70
8
 71
3
 72
8
 73
4
 74
0
 40
0
 40
0
 40
0
 40
0
 40
1
 40
1
 40
1
 40
1
 10
136.383228
 20
48.219973
 30
0.0
 10
136.349907
 20
48.399668
 30
0.0
 10
136.271365
 20
48.547828
 30
0.0
 10
136.147603
 20
48.664451
 30
0.0
  0
SPLINE
  5
281
100
AcDbEntity
  8
0
 62
7
100
AcDbSpline
 70
8
 71
3
 72
8
 73
4
 74
0
 40
0
 40
0
 40
0
 40
0
 40
1
 40
1
 40
1
 40
1
 10
136.147603
 20
48.664451
 30
0.0
 10
136.023838
 20
48.781075
 30
0.0
 10
135.882224
 20
48.839387
 30
0.0
 10
135.722760
 20
48.839387
 30
0.0
  0
SPLINE
  5
282
100
AcDbEntity
  8
0
 62
7
100
AcDbSpline
 70
8
 71
3
 72
8
 73
4
 74
0
 40
0
 40
0
 40
0
 40
0
 40
1
 40
1
 40
1
 40
1
 10
135.722760
 20
48.839387
 30
0.0
 10
135.564486
 20
48.839387
 30
0.0
 10
135.423466
 20
48.781075
 30
0.0
 10
135.299700
 20
48.664451
 30
0.0
  0
SPLINE
  5
283
100
AcDbEntity
  8
0
 62
7
100
AcDbSpline
 70
8
 71
3
 72
8
 73
4
 74
0
 40
0
 40
0
 40
0
 40
0
 40
1
 40
1
 40
1
 40
1
 10
135.299700
 20
48.664451
 30
0.0
 10
135.177127
 20
48.547828
 30
0.0
 10
135.099775
 20
48.399668
 30
0.0
 10
135.067645
 20
48.219973
 30
0.0
  0
LWPOLYLINE
  5
284
100
AcDbEntity
  8
0
 62
7
100
AcDbPolyline
 90
2
 70
0
 10
135.067645
 20
48.219973
 30
0.0
 10
136.383228
 20
48.219973
 30
0.0
  0
LWPOLYLINE
  5
285
100
AcDbEntity
  8
0
 62
7
100
AcDbPolyline
 90
1
 70
1
 10
135.067645
 20
48.219973
 30
0.0
  0
SPLINE
  5
286
100
AcDbEntity
  8
0
 62
7
100
AcDbSpline
 70
8
 71
3
 72
8
 73
4
 74
0
 40
0
 40
0
 40
0
 40
0
 40
1
 40
1
 40
1
 40
1
 10
135.042652
 20
48.068243
 30
0.0
 10
135.042652
 20
47.855226
 30
0.0
 10
135.109294
 20
47.674340
 30
0.0
 10
135.242579
 20
47.525586
 30
0.0
  0
SPLINE
  5
287
100
AcDbEntity
  8
0
 62
7
100
AcDbSpline
 70
8
 71
3
 72
8
 73
4
 74
0
 40
0
 40
0
 40
0
 40
0
 40
1
 40
1
 40
1
 40
1
 10
135.242579
 20
47.525586
 30
0.0
 10
135.375864
 20
47.376831
 30
0.0
 10
135.533544
 20
47.302454
 30
0.0
 10
135.715621
 20
47.302454
 30
0.0
  0
SPLINE
  5
288
100
AcDbEntity
  8
0
 62
7
100
AcDbSpline
 70
8
 71
3
 72
8
 73
4
 74
0
 40
0
 40
0
 40
0
 40
0
 40
1
 40
1
 40
1
 40
1
 10
135.715621
 20
47.302454
 30
0.0
 10
135.835815
 20
47.302454
 30
0.0
 10
135.953627
 20
47.334585
 30
0.0
 10
136.069059
 20
47.398847
 30
0.0
  0
SPLINE
  5
289
100
AcDbEntity
  8
0
 62
7
100
AcDbSpline
 70
8
 71
3
 72
8
 73
4
 74
0
 40
0
 40
0
 40
0
 40
0
 40
1
 40
1
 40
1
 40
1
 10
136.069059
 20
47.398847
 30
0.0
 10
136.184493
 20
47.463109
 30
0.0
 10
136.272555
 20
47.549386
 30
0.0
 10
136.333247
 20
47.657680
 30
0.0
  0
LWPOLYLINE
  5
28a
100
AcDbEntity
  8
0
 62
7
100
AcDbPolyline
 90
2
 70
0
 10
136.558167
 20
48.068243
 30
0.0
 10
135.042652
 20
48.068243
 30
0.0
  0
SPLINE
  5
28b
100
AcDbEntity
  8
0
 62
7
100
AcDbSpline
 70
8
 71
3
 72
8
 73
4
 74
0
 40
0
 40
0
 40
0
 40
0
 40
1
 40
1
 40
1
 40
1
 10
136.474269
 20
47.577352
 30
0.0
 10
136.401676
 20
47.447638
 30
0.0
 10
136.294571
 20
47.341130
 30
0.0
 10
136.152956
 20
47.257827
 30
0.0
  0
SPLINE
  5
28c
100
AcDbEntity
  8
0
 62
7
100
AcDbSpline
 70
8
 71
3
 72
8
 73
4
 74
0
 40
0
 40
0
 40
0
 40
0
 40
1
 40
1
 40
1
 40
1
 10
136.152956
 20
47.257827
 30
0.0
 10
136.011343
 20
47.175715
 30
0.0
 10
135.865565
 20
47.134659
 30
0.0
 10
135.715621
 20
47.134659
 30
0.0
  0
SPLINE
  5
28d
100
AcDbEntity
  8
0
 62
7
100
AcDbSpline
 70
8
 71
3
 72
8
 73
4
 74
0
 40
0
 40
0
 40
0
 40
0
 40
1
 40
1
 40
1
 40
1
 10
135.715621
 20
47.134659
 30
0.0
 10
135.564486
 20
47.134659
 30
0.0
 10
135.425251
 20
47.176905
 30
0.0
 10
135.297918
 20
47.261397
 30
0.0
  0
SPLINE
  5
28e
100
AcDbEntity
  8
0
 62
7
100
AcDbSpline
 70
8
 71
3
 72
8
 73
4
 74
0
 40
0
 40
0
 40
0
 40
0
 40
1
 40
1
 40
1
 40
1
 10
135.297918
 20
47.261397
 30
0.0
 10
135.171773
 20
47.345890
 30
0.0
 10
135.072403
 20
47.459538
 30
0.0
 10
134.999810
 20
47.602343
 30
0.0
  0
SPLINE
  5
28f
100
AcDbEntity
  8
0
 62
7
100
AcDbSpline
 70
8
 71
3
 72
8
 73
4
 74
0
 40
0
 40
0
 40
0
 40
0
 40
1
 40
1
 40
1
 40
1
 10
134.999810
 20
47.602343
 30
0.0
 10
134.928408
 20
47.746338
 30
0.0
 10
134.892707
 20
47.901638
 30
0.0
 10
134.892707
 20
48.068243
 30
0.0
  0
SPLINE
  5
290
100
AcDbEntity
  8
0
 62
7
100
AcDbSpline
 70
8
 71
3
 72
8
 73
4
 74
0
 40
0
 40
0
 40
0
 40
0
 40
1
 40
1
 40
1
 40
1
 10
134.892707
 20
48.068243
 30
0.0
 10
134.892707
 20
48.233658
 30
0.0
 10
134.929004
 20
48.387768
 30
0.0
 10
135.001597
 20
48.530572
 30
0.0
  0
SPLINE
  5
291
100
AcDbEntity
  8
0
 62
7
100
AcDbSpline
 70
8
 71
3
 72
8
 73
4
 74
0
 40
0
 40
0
 40
0
 40
0
 40
1
 40
1
 40
1
 40
1
 10
135.001597
 20
48.530572
 30
0.0
 10
135.075379
 20
48.673377
 30
0.0
 10
135.175937
 20
48.787025
 30
0.0
 10
135.303270
 20
48.871518
 30
0.0
  0
SPLINE
  5
292
100
AcDbEntity
  8
0
 62
7
100
AcDbSpline
 70
8
 71
3
 72
8
 73
4
 74
0
 40
0
 40
0
 40
0
 40
0
 40
1
 40
1
 40
1
 40
1
 10
135.303270
 20
48.871518
 30
0.0
 10
135.431795
 20
48.957201
 30
0.0
 10
135.571625
 20
49.000042
 30
0.0
 10
135.722760
 20
49.000042
 30
0.0
  0
SPLINE
  5
293
100
AcDbEntity
  8
0
 62
7
100
AcDbSpline
 70
8
 71
3
 72
8
 73
4
 74
0
 40
0
 40
0
 40
0
 40
0
 40
1
 40
1
 40
1
 40
1
 10
135.722760
 20
49.000042
 30
0.0
 10
135.865565
 20
49.000042
 30
0.0
 10
135.998254
 20
48.961366
 30
0.0
 10
136.120827
 20
48.884013
 30
0.0
  0
SPLINE
  5
294
100
AcDbEntity
  8
0
 62
7
100
AcDbSpline
 70
8
 71
3
 72
8
 73
4
 74
0
 40
0
 40
0
 40
0
 40
0
 40
1
 40
1
 40
1
 40
1
 10
136.120827
 20
48.884013
 30
0.0
 10
136.244590
 20
48.807851
 30
0.0
 10
136.344553
 20
48.704913
 30
0.0
 10
136.420718
 20
48.575199
 30
0.0
  0
SPLINE
  5
295
100
AcDbEntity
  8
0
 62
7
100
AcDbSpline
 70
8
 71
3
 72
8
 73
4
 74
0
 40
0
 40
0
 40
0
 40
0
 40
1
 40
1
 40
1
 40
1
 10
136.420718
 20
48.575199
 30
0.0
 10
136.496880
 20
48.445485
 30
0.0
 10
136.541506
 20
48.303275
 30
0.0
 10
136.554597
 20
48.148570
 30
0.0
  0
LWPOLYLINE
  5
296
100
AcDbEntity
  8
0
 62
7
100
AcDbPolyline
 90
2
 70
0
 10
136.333247
 20
47.657680
 30
0.0
 10
136.474269
 20
47.577352
 30
0.0
  0
LWPOLYLINE
  5
297
100
AcDbEntity
  8
0
 62
7
100
AcDbPolyline
 90
2
 70
0
 10
136.554597
 20
48.148570
 30
0.0
 10
136.558167
 20
48.068243
 30
0.0
  0
SPLINE
  5
298
100
AcDbEntity
  8
0
 62
7
100
AcDbSpline
 70
8
 71
3
 72
8
 73
4
 74
0
 40
0
 40
0
 40
0
 40
0
 40
1
 40
1
 40
1
 40
1
 10
137.197216
 20
48.971481
 30
0.0
 10
137.219812
 20
48.892939
 30
0.0
 10
137.231110
 20
48.813206
 30
0.0
 10
137.231110
 20
48.732284
 30
0.0
  0
LWPOLYLINE
  5
299
100
AcDbEntity
  8
0
 62
7
100
AcDbPolyline
 90
2
 70
0
 10
137.025851
 20
48.971481
 30
0.0
 10
137.197216
 20
48.971481
 30
0.0
  0
SPLINE
  5
29a
100
AcDbEntity
  8
0
 62
7
100
AcDbSpline
 70
8
 71
3
 72
8
 73
4
 74
0
 40
0
 40
0
 40
0
 40
0
 40
1
 40
1
 40
1
 40
1
 10
137.231110
 20
48.507367
 30
0.0
 10
137.258488
 20
48.598999
 30
0.0
 10
137.322155
 20
48.694202
 30
0.0
 10
137.422110
 20
48.792976
 30
0.0
  0
SPLINE
  5
29b
100
AcDbEntity
  8
0
 62
7
100
AcDbSpline
 70
8
 71
3
 72
8
 73
4
 74
0
 40
0
 40
0
 40
0
 40
0
 40
1
 40
1
 40
1
 40
1
 10
137.422110
 20
48.792976
 30
0.0
 10
137.522073
 20
48.891749
 30
0.0
 10
137.622633
 20
48.960771
 30
0.0
 10
137.723787
 20
49.000042
 30
0.0
  0
LWPOLYLINE
  5
29c
100
AcDbEntity
  8
0
 62
7
100
AcDbPolyline
 90
2
 70
0
 10
137.231110
 20
48.732284
 30
0.0
 10
137.231110
 20
48.507367
 30
0.0
  0
SPLINE
  5
29d
100
AcDbEntity
  8
0
 62
7
100
AcDbSpline
 70
8
 71
3
 72
8
 73
4
 74
0
 40
0
 40
0
 40
0
 40
0
 40
1
 40
1
 40
1
 40
1
 10
137.902291
 20
48.873303
 30
0.0
 10
137.797568
 20
48.873303
 30
0.0
 10
137.692845
 20
48.836412
 30
0.0
 10
137.588121
 20
48.762630
 30
0.0
  0
SPLINE
  5
29e
100
AcDbEntity
  8
0
 62
7
100
AcDbSpline
 70
8
 71
3
 72
8
 73
4
 74
0
 40
0
 40
0
 40
0
 40
0
 40
1
 40
1
 40
1
 40
1
 10
137.588121
 20
48.762630
 30
0.0
 10
137.484590
 20
48.688847
 30
0.0
 10
137.398907
 20
48.590669
 30
0.0
 10
137.331073
 20
48.468095
 30
0.0
  0
SPLINE
  5
29f
100
AcDbEntity
  8
0
 62
7
100
AcDbSpline
 70
8
 71
3
 72
8
 73
4
 74
0
 40
0
 40
0
 40
0
 40
0
 40
1
 40
1
 40
1
 40
1
 10
137.331073
 20
48.468095
 30
0.0
 10
137.264431
 20
48.346711
 30
0.0
 10
137.231110
 20
48.221162
 30
0.0
 10
137.231110
 20
48.091448
 30
0.0
  0
LWPOLYLINE
  5
2a0
100
AcDbEntity
  8
0
 62
7
100
AcDbPolyline
 90
2
 70
0
 10
137.723787
 20
49.000042
 30
0.0
 10
137.902291
 20
48.873303
 30
0.0
  0
SPLINE
  5
2a1
100
AcDbEntity
  8
0
 62
7
100
AcDbSpline
 70
8
 71
3
 72
8
 73
4
 74
0
 40
0
 40
0
 40
0
 40
0
 40
1
 40
1
 40
1
 40
1
 10
137.070455
 20
48.732284
 30
0.0
 10
137.070455
 20
48.834627
 30
0.0
 10
137.055580
 20
48.914359
 30
0.0
 10
137.025830
 20
48.971481
 30
0.0
  0
LWPOLYLINE
  5
2a2
100
AcDbEntity
  8
0
 62
7
100
AcDbPolyline
 90
4
 70
0
 10
137.231110
 20
48.091448
 30
0.0
 10
137.231110
 20
47.161434
 30
0.0
 10
137.070455
 20
47.161434
 30
0.0
 10
137.070455
 20
48.732284
 30
0.0
  0
SPLINE
  5
2a3
100
AcDbEntity
  8
0
 62
7
100
AcDbSpline
 70
8
 71
3
 72
8
 73
4
 74
0
 40
0
 40
0
 40
0
 40
0
 40
1
 40
1
 40
1
 40
1
 10
129.199307
 20
50.967659
 30
0.0
 10
129.166616
 20
50.977226
 30
0.0
 10
128.892118
 20
51.182415
 30
0.0
 10
128.681021
 20
51.355148
 30
0.0
  0
SPLINE
  5
2a4
100
AcDbEntity
  8
0
 62
7
100
AcDbSpline
 70
8
 71
3
 72
8
 73
4
 74
0
 40
0
 40
0
 40
0
 40
0
 40
1
 40
1
 40
1
 40
1
 10
128.681021
 20
51.355148
 30
0.0
 10
128.004483
 20
51.908758
 30
0.0
 10
127.540991
 20
52.430698
 30
0.0
 10
127.354755
 20
52.848687
 30
0.0
  0
SPLINE
  5
2a5
100
AcDbEntity
  8
0
 62
7
100
AcDbSpline
 70
8
 71
3
 72
8
 73
4
 74
0
 40
0
 40
0
 40
0
 40
0
 40
1
 40
1
 40
1
 40
1
 10
127.354755
 20
52.848687
 30
0.0
 10
127.293892
 20
52.985234
 30
0.0
 10
127.248334
 20
53.151186
 30
0.0
 10
127.228213
 20
53.309394
 30
0.0
  0
SPLINE
  5
2a6
100
AcDbEntity
  8
0
 62
7
100
AcDbSpline
 70
8
 71
3
 72
8
 73
4
 74
0
 40
0
 40
0
 40
0
 40
0
 40
1
 40
1
 40
1
 40
1
 10
127.228213
 20
53.309394
 30
0.0
 10
127.223230
 20
53.345947
 30
0.0
 10
127.219750
 20
53.434158
 30
0.0
 10
127.219750
 20
53.505428
 30
0.0
  0
SPLINE
  5
2a7
100
AcDbEntity
  8
0
 62
7
100
AcDbSpline
 70
8
 71
3
 72
8
 73
4
 74
0
 40
0
 40
0
 40
0
 40
0
 40
1
 40
1
 40
1
 40
1
 10
127.219750
 20
53.505428
 30
0.0
 10
127.219750
 20
53.768986
 30
0.0
 10
127.267786
 20
53.980981
 30
0.0
 10
127.376315
 20
54.196443
 30
0.0
  0
SPLINE
  5
2a8
100
AcDbEntity
  8
0
 62
7
100
AcDbSpline
 70
8
 71
3
 72
8
 73
4
 74
0
 40
0
 40
0
 40
0
 40
0
 40
1
 40
1
 40
1
 40
1
 10
127.376315
 20
54.196443
 30
0.0
 10
127.437178
 20
54.317286
 30
0.0
 10
127.495081
 20
54.400989
 30
0.0
 10
127.577857
 20
54.487834
 30
0.0
  0
SPLINE
  5
2a9
100
AcDbEntity
  8
0
 62
7
100
AcDbSpline
 70
8
 71
3
 72
8
 73
4
 74
0
 40
0
 40
0
 40
0
 40
0
 40
1
 40
1
 40
1
 40
1
 10
127.577857
 20
54.487834
 30
0.0
 10
127.780989
 20
54.700954
 30
0.0
 10
128.032431
 20
54.808003
 30
0.0
 10
128.332086
 20
54.808940
 30
0.0
  0
SPLINE
  5
2aa
100
AcDbEntity
  8
0
 62
7
100
AcDbSpline
 70
8
 71
3
 72
8
 73
4
 74
0
 40
0
 40
0
 40
0
 40
0
 40
1
 40
1
 40
1
 40
1
 10
128.332086
 20
54.808940
 30
0.0
 10
128.452381
 20
54.809327
 30
0.0
 10
128.535406
 20
54.797173
 30
0.0
 10
128.634902
 20
54.764647
 30
0.0
  0
SPLINE
  5
2ab
100
AcDbEntity
  8
0
 62
7
100
AcDbSpline
 70
8
 71
3
 72
8
 73
4
 74
0
 40
0
 40
0
 40
0
 40
0
 40
1
 40
1
 40
1
 40
1
 10
128.634902
 20
54.764647
 30
0.0
 10
128.858121
 20
54.691682
 30
0.0
 10
129.060036
 20
54.528259
 30
0.0
 10
129.199289
 20
54.307845
 30
0.0
  0
SPLINE
  5
2ac
100
AcDbEntity
  8
0
 62
7
100
AcDbSpline
 70
8
 71
3
 72
8
 73
4
 74
0
 40
0
 40
0
 40
0
 40
0
 40
1
 40
1
 40
1
 40
1
 10
129.199289
 20
54.307845
 30
0.0
 10
129.210287
 20
54.290494
 30
0.0
 10
129.220768
 20
54.276292
 30
0.0
 10
129.222530
 20
54.276292
 30
0.0
  0
SPLINE
  5
2ad
100
AcDbEntity
  8
0
 62
7
100
AcDbSpline
 70
8
 71
3
 72
8
 73
4
 74
0
 40
0
 40
0
 40
0
 40
0
 40
1
 40
1
 40
1
 40
1
 10
129.222530
 20
54.276292
 30
0.0
 10
129.224678
 20
54.276292
 30
0.0
 10
129.234773
 20
54.290499
 30
0.0
 10
129.245770
 20
54.307845
 30
0.0
  0
SPLINE
  5
2ae
100
AcDbEntity
  8
0
 62
7
100
AcDbSpline
 70
8
 71
3
 72
8
 73
4
 74
0
 40
0
 40
0
 40
0
 40
0
 40
1
 40
1
 40
1
 40
1
 10
129.245770
 20
54.307845
 30
0.0
 10
129.414196
 20
54.574437
 30
0.0
 10
129.661325
 20
54.747441
 30
0.0
 10
129.946747
 20
54.798563
 30
0.0
  0
SPLINE
  5
2af
100
AcDbEntity
  8
0
 62
7
100
AcDbSpline
 70
8
 71
3
 72
8
 73
4
 74
0
 40
0
 40
0
 40
0
 40
0
 40
1
 40
1
 40
1
 40
1
 10
129.946747
 20
54.798563
 30
0.0
 10
130.023174
 20
54.812254
 30
0.0
 10
130.189925
 20
54.812116
 30
0.0
 10
130.275776
 20
54.798313
 30
0.0
  0
SPLINE
  5
2b0
100
AcDbEntity
  8
0
 62
7
100
AcDbSpline
 70
8
 71
3
 72
8
 73
4
 74
0
 40
0
 40
0
 40
0
 40
0
 40
1
 40
1
 40
1
 40
1
 10
130.275776
 20
54.798313
 30
0.0
 10
130.510650
 20
54.760523
 30
0.0
 10
130.704090
 20
54.658971
 30
0.0
 10
130.867206
 20
54.487836
 30
0.0
  0
SPLINE
  5
2b1
100
AcDbEntity
  8
0
 62
7
100
AcDbSpline
 70
8
 71
3
 72
8
 73
4
 74
0
 40
0
 40
0
 40
0
 40
0
 40
1
 40
1
 40
1
 40
1
 10
130.867206
 20
54.487836
 30
0.0
 10
130.949974
 20
54.400991
 30
0.0
 10
131.007873
 20
54.317288
 30
0.0
 10
131.068740
 20
54.196446
 30
0.0
  0
SPLINE
  5
2b2
100
AcDbEntity
  8
0
 62
7
100
AcDbSpline
 70
8
 71
3
 72
8
 73
4
 74
0
 40
0
 40
0
 40
0
 40
0
 40
1
 40
1
 40
1
 40
1
 10
131.068740
 20
54.196446
 30
0.0
 10
131.145102
 20
54.044856
 30
0.0
 10
131.191914
 20
53.889353
 30
0.0
 10
131.216774
 20
53.704787
 30
0.0
  0
SPLINE
  5
2b3
100
AcDbEntity
  8
0
 62
7
100
AcDbSpline
 70
8
 71
3
 72
8
 73
4
 74
0
 40
0
 40
0
 40
0
 40
0
 40
1
 40
1
 40
1
 40
1
 10
131.216774
 20
53.704787
 30
0.0
 10
131.227771
 20
53.623327
 30
0.0
 10
131.227814
 20
53.394858
 30
0.0
 10
131.216894
 20
53.309396
 30
0.0
  0
SPLINE
  5
2b4
100
AcDbEntity
  8
0
 62
7
100
AcDbSpline
 70
8
 71
3
 72
8
 73
4
 74
0
 40
0
 40
0
 40
0
 40
0
 40
1
 40
1
 40
1
 40
1
 10
131.216894
 20
53.309396
 30
0.0
 10
131.182055
 20
53.036616
 30
0.0
 10
131.090842
 20
52.801581
 30
0.0
 10
130.921613
 20
52.548520
 30
0.0
  0
SPLINE
  5
2b5
100
AcDbEntity
  8
0
 62
7
100
AcDbSpline
 70
8
 71
3
 72
8
 73
4
 74
0
 40
0
 40
0
 40
0
 40
0
 40
1
 40
1
 40
1
 40
1
 10
130.921613
 20
52.548520
 30
0.0
 10
130.630825
 20
52.113701
 30
0.0
 10
130.080704
 20
51.578333
 30
0.0
 10
129.420842
 20
51.088018
 30
0.0
  0
SPLINE
  5
2b6
100
AcDbEntity
  8
0
 62
7
100
AcDbSpline
 70
8
 71
3
 72
8
 73
4
 74
0
 40
0
 40
0
 40
0
 40
0
 40
1
 40
1
 40
1
 40
1
 10
129.420842
 20
51.088018
 30
0.0
 10
129.250427
 20
50.961388
 30
0.0
 10
129.240048
 20
50.955751
 30
0.0
 10
129.199255
 20
50.967662
 30
0.0
  0
LWPOLYLINE
  5
2b7
100
AcDbEntity
  8
0
 62
7
100
AcDbPolyline
 90
1
 70
1
 10
137.025830
 20
48.971481
 30
0.0
  0
SPLINE
  5
2b8
100
AcDbEntity
  8
0
 62
7
100
AcDbSpline
 70
8
 71
3
 72
8
 73
4
 74
0
 40
0
 40
0
 40
0
 40
0
 40
1
 40
1
 40
1
 40
1
 10
129.363450
 20
51.214501
 30
0.0
 10
129.896555
 20
51.615059
 30
0.0
 10
130.352749
 20
52.038560
 30
0.0
 10
130.647622
 20
52.406664
 30
0.0
  0
SPLINE
  5
2b9
100
AcDbEntity
  8
0
 62
7
100
AcDbSpline
 70
8
 71
3
 72
8
 73
4
 74
0
 40
0
 40
0
 40
0
 40
0
 40
1
 40
1
 40
1
 40
1
 10
130.647622
 20
52.406664
 30
0.0
 10
130.777510
 20
52.568809
 30
0.0
 10
130.890094
 20
52.741430
 30
0.0
 10
130.953793
 20
52.876089
 30
0.0
  0
SPLINE
  5
2ba
100
AcDbEntity
  8
0
 62
7
100
AcDbSpline
 70
8
 71
3
 72
8
 73
4
 74
0
 40
0
 40
0
 40
0
 40
0
 40
1
 40
1
 40
1
 40
1
 10
130.953793
 20
52.876089
 30
0.0
 10
131.142173
 20
53.274341
 30
0.0
 10
131.138208
 20
53.764643
 30
0.0
 10
130.943440
 20
54.150392
 30
0.0
  0
SPLINE
  5
2bb
100
AcDbEntity
  8
0
 62
7
100
AcDbSpline
 70
8
 71
3
 72
8
 73
4
 74
0
 40
0
 40
0
 40
0
 40
0
 40
1
 40
1
 40
1
 40
1
 10
130.943440
 20
54.150392
 30
0.0
 10
130.907742
 20
54.221138
 30
0.0
 10
130.829399
 20
54.330261
 30
0.0
 10
130.768880
 20
54.393562
 30
0.0
  0
SPLINE
  5
2bc
100
AcDbEntity
  8
0
 62
7
100
AcDbSpline
 70
8
 71
3
 72
8
 73
4
 74
0
 40
0
 40
0
 40
0
 40
0
 40
1
 40
1
 40
1
 40
1
 10
130.768880
 20
54.393562
 30
0.0
 10
130.688737
 20
54.477399
 30
0.0
 10
130.611898
 20
54.534470
 30
0.0
 10
130.515023
 20
54.582144
 30
0.0
  0
SPLINE
  5
2bd
100
AcDbEntity
  8
0
 62
7
100
AcDbSpline
 70
8
 71
3
 72
8
 73
4
 74
0
 40
0
 40
0
 40
0
 40
0
 40
1
 40
1
 40
1
 40
1
 10
130.515023
 20
54.582144
 30
0.0
 10
130.371513
 20
54.652762
 30
0.0
 10
130.248365
 20
54.678431
 30
0.0
 10
130.079754
 20
54.672883
 30
0.0
  0
SPLINE
  5
2be
100
AcDbEntity
  8
0
 62
7
100
AcDbSpline
 70
8
 71
3
 72
8
 73
4
 74
0
 40
0
 40
0
 40
0
 40
0
 40
1
 40
1
 40
1
 40
1
 10
130.079754
 20
54.672883
 30
0.0
 10
129.968523
 20
54.669231
 30
0.0
 10
129.894846
 20
54.654608
 30
0.0
 10
129.803594
 20
54.618100
 30
0.0
  0
SPLINE
  5
2bf
100
AcDbEntity
  8
0
 62
7
100
AcDbSpline
 70
8
 71
3
 72
8
 73
4
 74
0
 40
0
 40
0
 40
0
 40
0
 40
1
 40
1
 40
1
 40
1
 10
129.803594
 20
54.618100
 30
0.0
 10
129.603078
 20
54.537881
 30
0.0
 10
129.426014
 20
54.367401
 30
0.0
 10
129.305289
 20
54.138343
 30
0.0
  0
SPLINE
  5
2c0
100
AcDbEntity
  8
0
 62
7
100
AcDbSpline
 70
8
 71
3
 72
8
 73
4
 74
0
 40
0
 40
0
 40
0
 40
0
 40
1
 40
1
 40
1
 40
1
 10
129.305289
 20
54.138343
 30
0.0
 10
129.276807
 20
54.084301
 30
0.0
 10
129.258035
 20
54.068459
 30
0.0
 10
129.222525
 20
54.068459
 30
0.0
  0
SPLINE
  5
2c1
100
AcDbEntity
  8
0
 62
7
100
AcDbSpline
 70
8
 71
3
 72
8
 73
4
 74
0
 40
0
 40
0
 40
0
 40
0
 40
1
 40
1
 40
1
 40
1
 10
129.222525
 20
54.068459
 30
0.0
 10
129.187042
 20
54.068459
 30
0.0
 10
129.168218
 20
54.084310
 30
0.0
 10
129.139758
 20
54.138343
 30
0.0
  0
SPLINE
  5
2c2
100
AcDbEntity
  8
0
 62
7
100
AcDbSpline
 70
8
 71
3
 72
8
 73
4
 74
0
 40
0
 40
0
 40
0
 40
0
 40
1
 40
1
 40
1
 40
1
 10
129.139758
 20
54.138343
 30
0.0
 10
129.019037
 20
54.367401
 30
0.0
 10
128.841968
 20
54.537881
 30
0.0
 10
128.641453
 20
54.618100
 30
0.0
  0
SPLINE
  5
2c3
100
AcDbEntity
  8
0
 62
7
100
AcDbSpline
 70
8
 71
3
 72
8
 73
4
 74
0
 40
0
 40
0
 40
0
 40
0
 40
1
 40
1
 40
1
 40
1
 10
128.641453
 20
54.618100
 30
0.0
 10
128.550205
 20
54.654601
 30
0.0
 10
128.476532
 20
54.669220
 30
0.0
 10
128.365288
 20
54.672883
 30
0.0
  0
SPLINE
  5
2c4
100
AcDbEntity
  8
0
 62
7
100
AcDbSpline
 70
8
 71
3
 72
8
 73
4
 74
0
 40
0
 40
0
 40
0
 40
0
 40
1
 40
1
 40
1
 40
1
 10
128.365288
 20
54.672883
 30
0.0
 10
128.196682
 20
54.678442
 30
0.0
 10
128.073538
 20
54.652757
 30
0.0
 10
127.930032
 20
54.582144
 30
0.0
  0
SPLINE
  5
2c5
100
AcDbEntity
  8
0
 62
7
100
AcDbSpline
 70
8
 71
3
 72
8
 73
4
 74
0
 40
0
 40
0
 40
0
 40
0
 40
1
 40
1
 40
1
 40
1
 10
127.930032
 20
54.582144
 30
0.0
 10
127.833145
 20
54.534467
 30
0.0
 10
127.756318
 20
54.477399
 30
0.0
 10
127.676176
 20
54.393562
 30
0.0
  0
SPLINE
  5
2c6
100
AcDbEntity
  8
0
 62
7
100
AcDbSpline
 70
8
 71
3
 72
8
 73
4
 74
0
 40
0
 40
0
 40
0
 40
0
 40
1
 40
1
 40
1
 40
1
 10
127.676176
 20
54.393562
 30
0.0
 10
127.615665
 20
54.330264
 30
0.0
 10
127.537318
 20
54.221138
 30
0.0
 10
127.501603
 20
54.150392
 30
0.0
  0
SPLINE
  5
2c7
100
AcDbEntity
  8
0
 62
7
100
AcDbSpline
 70
8
 71
3
 72
8
 73
4
 74
0
 40
0
 40
0
 40
0
 40
0
 40
1
 40
1
 40
1
 40
1
 10
127.501603
 20
54.150392
 30
0.0
 10
127.308029
 20
53.766920
 30
0.0
 10
127.302827
 20
53.277694
 30
0.0
 10
127.488114
 20
52.883079
 30
0.0
  0
SPLINE
  5
2c8
100
AcDbEntity
  8
0
 62
7
100
AcDbSpline
 70
8
 71
3
 72
8
 73
4
 74
0
 40
0
 40
0
 40
0
 40
0
 40
1
 40
1
 40
1
 40
1
 10
127.488114
 20
52.883079
 30
0.0
 10
127.681614
 20
52.471005
 30
0.0
 10
128.168402
 20
51.938253
 30
0.0
 10
128.847497
 20
51.395322
 30
0.0
  0
SPLINE
  5
2c9
100
AcDbEntity
  8
0
 62
7
100
AcDbSpline
 70
8
 71
3
 72
8
 73
4
 74
0
 40
0
 40
0
 40
0
 40
0
 40
1
 40
1
 40
1
 40
1
 10
128.847497
 20
51.395322
 30
0.0
 10
128.972866
 20
51.295092
 30
0.0
 10
129.214613
 20
51.113151
 30
0.0
 10
129.222427
 20
51.113151
 30
0.0
  0
SPLINE
  5
2ca
100
AcDbEntity
  8
0
 62
7
100
AcDbSpline
 70
8
 71
3
 72
8
 73
4
 74
0
 40
0
 40
0
 40
0
 40
0
 40
1
 40
1
 40
1
 40
1
 10
129.222427
 20
51.113151
 30
0.0
 10
129.226293
 20
51.113151
 30
0.0
 10
129.289201
 20
51.158763
 30
0.0
 10
129.363385
 20
51.214501
 30
0.0
  0
LWPOLYLINE
  5
2cb
100
AcDbEntity
  8
0
 62
7
100
AcDbPolyline
 90
1
 70
1
 10
129.199255
 20
50.967662
 30
0.0
  0
LWPOLYLINE
  5
2cc
100
AcDbEntity
  8
0
 62
7
100
AcDbPolyline
 90
1
 70
1
 10
129.363385
 20
51.214501
 30
0.0
  0
ENDSEC
  0
SECTION
  2
OBJECTS
  0
DICTIONARY
  5
C
330
0
100
AcDbDictionary
  3
ACAD_GROUP
350
D
  3
ACAD_MLINESTYLE
350
17
  0
DICTIONARY
  5
D
330
C
100
AcDbDictionary
  0
DICTIONARY
  5
1A
330
C
100
AcDbDictionary
  0
DICTIONARY
  5
17
330
C
100
AcDbDictionary
  3
STANDARD
350
18
  0
DICTIONARY
  5
19
330
C
100
AcDbDictionary
  0
ENDSEC
  0
EOF
