<?xml version="1.0" encoding="UTF-8" standalone="no"?>
<svg
   xmlns:dc="http://purl.org/dc/elements/1.1/"
   xmlns:cc="http://creativecommons.org/ns#"
   xmlns:rdf="http://www.w3.org/1999/02/22-rdf-syntax-ns#"
   xmlns:svg="http://www.w3.org/2000/svg"
   xmlns="http://www.w3.org/2000/svg"
   xmlns:sodipodi="http://sodipodi.sourceforge.net/DTD/sodipodi-0.dtd"
   xmlns:inkscape="http://www.inkscape.org/namespaces/inkscape"
   sodipodi:docname="unk-plate-layout.rev2.svg"
   inkscape:version="0.92.3 (2405546, 2018-03-11)"
   id="svg5110"
   version="1.1"
   viewBox="0 0 350.0 130.0"
   height="130.0mm"
   width="350.0mm">
  <defs
     id="defs5104" />
  <sodipodi:namedview
     inkscape:lockguides="true"
     inkscape:window-maximized="1"
     inkscape:window-y="27"
     inkscape:window-x="39"
     inkscape:window-height="1025"
     inkscape:window-width="1881"
     showgrid="false"
     inkscape:document-rotation="0"
     inkscape:current-layer="layer2"
     inkscape:document-units="mm"
     inkscape:cy="361.2255"
     inkscape:cx="408.64214"
     inkscape:zoom="0.8788616"
     inkscape:pageshadow="2"
     inkscape:pageopacity="0.0"
     borderopacity="1.0"
     bordercolor="#666666"
     pagecolor="#ffffff"
     id="base"
     showguides="true"
     inkscape:guide-bbox="true"
     borderlayer="true">
    <inkscape:grid
       id="grid156"
       units="mm"
       type="xygrid"
       empspacing="1"
       spacingy="2.54"
       spacingx="2.54" />
    <sodipodi:guide
       id="guide1958"
       orientation="1,0"
       position="197.88353,25.237493"
       inkscape:locked="true" />
  </sodipodi:namedview>
  <metadata
     id="metadata5107">
    <rdf:RDF>
      <cc:Work
         rdf:about="">
        <dc:format>image/svg+xml</dc:format>
        <dc:type
           rdf:resource="http://purl.org/dc/dcmitype/StillImage" />
        <dc:title></dc:title>
      </cc:Work>
    </rdf:RDF>
  </metadata>
  <g
     sodipodi:insensitive="true"
     inkscape:groupmode="layer"
     id="layer2"
     inkscape:label="BottomPlate"
     style="display:inline">
    <g
       id="g6642">
      <g
         id="g6630">
        <path
           d="m 191.70429,102.97317 -0.029,0.294 -0.085,0.28 -0.138,0.259 -0.187,0.228 -0.229,0.187 -0.258,0.138 -0.28,0.085 -0.294,0.029 -0.294,-0.029 -0.28,-0.085 -0.258,-0.138 -0.229,-0.187 -0.187,-0.228 -0.138,-0.259 -0.085,-0.28 -0.029,-0.294 0.029,-0.294 0.085,-0.28 0.138,-0.258 0.187,-0.228 0.229,-0.188 0.258,-0.137 0.28,-0.086 0.294,-0.029 0.294,0.029 0.28,0.086 0.258,0.137 0.229,0.188 0.187,0.228 0.138,0.258 0.085,0.28 0.029,0.294"
           style="display:inline;fill:none;stroke:#000000;stroke-width:0.05;stroke-miterlimit:4;stroke-dasharray:none;stroke-opacity:1"
           id="path2387"
           inkscape:connector-curvature="0" />
        <path
           d="m 238.93134,8.1261232 -0.008,0.15337 -0.023,0.1489397 -0.087,0.28156 -0.138,0.2548007 -0.183,0.22199 -0.222,0.18317 -0.255,0.1382797 -0.282,0.0874 -0.149,0.0227 -0.153,0.0078 -0.153,-0.0078 -0.149,-0.0227 -0.282,-0.0874 -0.255,-0.1382797 -0.222,-0.18317 -0.183,-0.22199 -0.138,-0.2548007 -0.088,-0.28156 -0.022,-0.1489397 -0.008,-0.15337 0.029,-0.2939999 0.085,-0.28002 0.138,-0.25818 0.187,-0.22846 0.229,-0.18732 0.258,-0.13784 0.28,-0.08509 0.294,-0.02909 0.294,0.02909 0.28,0.08509 0.258,0.13784 0.229,0.18732 0.187,0.22846 0.138,0.25818 0.085,0.28002 0.029,0.2939999"
           style="display:inline;fill:none;stroke:#000000;stroke-width:0.05;stroke-miterlimit:4;stroke-dasharray:none;stroke-opacity:1"
           id="path2389"
           inkscape:connector-curvature="0" />
        <path
           d="m 316.45449,8.1261232 -0.008,0.15337 -0.023,0.1489397 -0.087,0.28156 -0.139,0.2548007 -0.183,0.22199 -0.222,0.18317 -0.255,0.1382797 -0.281,0.0874 -0.149,0.0227 -0.153,0.0078 -0.154,-0.0078 -0.149,-0.0227 -0.281,-0.0874 -0.255,-0.1382797 -0.222,-0.18317 -0.183,-0.22199 -0.139,-0.2548007 -0.087,-0.28156 -0.023,-0.1489397 -0.007,-0.15337 0.029,-0.2939999 0.085,-0.28002 0.138,-0.25818 0.187,-0.22846 0.228,-0.18732 0.259,-0.13784 0.28,-0.08509 0.294,-0.02909 0.294,0.02909 0.28,0.08509 0.258,0.13784 0.228,0.18732 0.188,0.22846 0.137,0.25818 0.085,0.28002 0.03,0.2939999"
           style="display:inline;fill:none;stroke:#000000;stroke-width:0.05;stroke-miterlimit:4;stroke-dasharray:none;stroke-opacity:1"
           id="path2391"
           inkscape:connector-curvature="0" />
        <path
           id="path2395"
           style="display:inline;fill:none;stroke:#000000;stroke-width:0.05;stroke-miterlimit:4;stroke-dasharray:none;stroke-opacity:1"
           d="m 244.2753,104.28546 -0.029,0.294 -0.085,0.28 -0.138,0.259 -0.187,0.228 -0.229,0.187 -0.258,0.138 -0.28,0.085 -0.294,0.029 -0.294,-0.029 -0.28,-0.085 -0.258,-0.138 -0.229,-0.187 -0.187,-0.228 -0.138,-0.259 -0.085,-0.28 -0.029,-0.294 0.029,-0.294 0.085,-0.28 0.138,-0.258 0.187,-0.228 0.229,-0.188 0.258,-0.137 0.28,-0.086 0.294,-0.029 0.294,0.029 0.28,0.086 0.258,0.137 0.229,0.188 0.187,0.228 0.138,0.258 0.085,0.28 0.029,0.294"
           inkscape:connector-curvature="0" />
        <path
           d="m 302.55381,103.61913 -0.029,0.294 -0.085,0.28 -0.138,0.259 -0.187,0.228 -0.229,0.187 -0.258,0.138 -0.28,0.085 -0.294,0.029 -0.294,-0.029 -0.28,-0.085 -0.258,-0.138 -0.229,-0.187 -0.187,-0.228 -0.138,-0.259 -0.085,-0.28 -0.029,-0.294 0.029,-0.294 0.085,-0.28 0.138,-0.258 0.187,-0.228 0.229,-0.188 0.258,-0.137 0.28,-0.086 0.294,-0.029 0.294,0.029 0.28,0.086 0.258,0.137 0.229,0.188 0.187,0.228 0.138,0.258 0.085,0.28 0.029,0.294"
           style="display:inline;fill:none;stroke:#000000;stroke-width:0.05;stroke-miterlimit:4;stroke-dasharray:none;stroke-opacity:1"
           id="path2399"
           inkscape:connector-curvature="0" />
        <path
           id="path2403"
           style="display:inline;fill:none;stroke:#000000;stroke-width:0.05;stroke-miterlimit:4;stroke-dasharray:none;stroke-opacity:1"
           d="m 295.43313,55.396435 -0.029,0.294 -0.085,0.28 -0.138,0.259 -0.187,0.228 -0.229,0.187 -0.258,0.138 -0.28,0.085 -0.294,0.029 -0.294,-0.029 -0.28,-0.085 -0.258,-0.138 -0.229,-0.187 -0.187,-0.228 -0.138,-0.259 -0.085,-0.28 -0.029,-0.294 0.029,-0.294 0.085,-0.28 0.138,-0.258 0.187,-0.228 0.229,-0.188 0.258,-0.137 0.28,-0.086 0.294,-0.029 0.294,0.029 0.28,0.086 0.258,0.137 0.229,0.188 0.187,0.228 0.138,0.258 0.085,0.28 0.029,0.294"
           inkscape:connector-curvature="0" />
        <path
           d="m 240.66921,65.513597 -0.029,0.294 -0.085,0.28 -0.138,0.259 -0.187,0.228 -0.229,0.187 -0.258,0.138 -0.28,0.085 -0.294,0.029 -0.294,-0.029 -0.28,-0.085 -0.258,-0.138 -0.229,-0.187 -0.187,-0.228 -0.138,-0.259 -0.085,-0.28 -0.029,-0.294 0.029,-0.294 0.085,-0.28 0.138,-0.258 0.187,-0.228 0.229,-0.188 0.258,-0.137 0.28,-0.086 0.294,-0.029 0.294,0.029 0.28,0.086 0.258,0.137 0.229,0.188 0.187,0.228 0.138,0.258 0.085,0.28 0.029,0.294"
           style="display:inline;fill:none;stroke:#000000;stroke-width:0.05;stroke-miterlimit:4;stroke-dasharray:none;stroke-opacity:1"
           id="path2407"
           inkscape:connector-curvature="0" />
        <path
           id="path2411"
           style="display:inline;fill:none;stroke:#000000;stroke-width:0.05;stroke-miterlimit:4;stroke-dasharray:none;stroke-opacity:1"
           d="m 178.75671,46.448664 -0.029,0.294 -0.085,0.28 -0.138,0.259 -0.187,0.228 -0.229,0.187 -0.258,0.138 -0.28,0.085 -0.294,0.029 -0.294,-0.029 -0.28,-0.085 -0.258,-0.138 -0.229,-0.187 -0.187,-0.228 -0.138,-0.259 -0.085,-0.28 -0.029,-0.294 0.029,-0.294 0.085,-0.28 0.138,-0.258 0.187,-0.228 0.229,-0.188 0.258,-0.137 0.28,-0.086 0.294,-0.029 0.294,0.029 0.28,0.086 0.258,0.137 0.229,0.188 0.187,0.228 0.138,0.258 0.085,0.28 0.029,0.294"
           inkscape:connector-curvature="0" />
      </g>
      <path
         sodipodi:nodetypes="ccccccccccccccccccccccccccccccccccccccccccccccccccccccccccccccccccccccccccccccccccccccccccccccccccccccc"
         id="path2421"
         style="display:inline;fill:none;stroke:#000000;stroke-width:0.05;stroke-miterlimit:4;stroke-dasharray:none"
         d="m 318.511,3.0896333 -83.771,0.007 -0.235,0.03167 -0.229,0.05338 -0.223,0.0744 -0.214,0.09472 -0.204,0.11433 -0.194,0.13324 -0.18,0.15146 -0.167,0.16897 L 214.425,26.7923 h -45.29 l -0.288,0.0533 -0.266,0.1033 -0.239,0.1483 -0.208,0.188 -0.17,0.2226 -0.129,0.2522 -0.081,0.2765 -0.028,0.2958 v 0.003 1.5508 h -0.004 l -0.001,16.1639 -7.514,0.0295 -0.956,0.002 -0.077,0.003 -0.185,0.0206 -0.172,0.0522 -0.158,0.0807 -0.14,0.1062 -0.119,0.1289 -0.096,0.1484 -0.069,0.165 -0.039,0.1785 v 16.976648 l 0.026,0.1857 0.058,0.1728 0.086,0.157 0.112,0.138 0.135,0.116 0.154,0.0911 0.17,0.063 0.184,0.0319 3.838,-0.008 v 18.3814 l 0.044,0.137 0.062,0.1278 0.078,0.1168 0.094,0.1044 0.107,0.0904 0.12,0.0749 0.13,0.0578 0.139,0.0391 8.751,0.0341 V 103.163 l -8.72539,-0.009 -0.16,0.048 -0.146,0.073 -0.131,0.094 -0.115,0.114 -0.094,0.131 -0.073,0.146 -0.05,0.159 -0.023,0.169 0.009,16.568 0.058,0.282 0.106,0.262 0.15,0.236 0.188,0.205 0.221,0.168 0.25,0.127 0.273,0.08 0.292,0.028 h 0.071 154.07339 l 0.291,-0.043 0.271,-0.094 0.245,-0.139 0.214,-0.181 0.178,-0.216 0.136,-0.247 0.091,-0.272 0.039,-0.292 V 29.632 l 0.003,-23.4368267 h -0.01 v -1.55236 l -0.008,-0.15858 -0.023,-0.1539 -0.038,-0.14845 -0.052,-0.14224 -0.142,-0.2628 -0.189,-0.22883 -0.229,-0.18873 -0.263,-0.14256 -0.142,-0.05205 -0.149,-0.03821 -0.154,-0.02362 -0.158,-0.00826 v -5.1e-4 h -0.003 l -0.055,-0.00444"
         inkscape:connector-curvature="0" />
    </g>
    <g
       id="g3012"
       style="stroke:#000000">
      <path
         sodipodi:nodetypes="cccccccccccccccccccccccccccccccccccccccccccccccccccccccccccccccccccccccccccccccccccccccccccccccccccccccccccc"
         d="m 100.39,3.0891133 -83.9347,0.006 -0.155,0.0116 -0.1503,0.02628 -0.2836,0.09367 -0.2561,0.1437 -0.2229,0.18794 -0.1837,0.22642 -0.1388,0.25912 -0.0881,0.28606 -0.0232,0.15133 -0.0083,0.1559 v 0.004 0.002 L 14.9618,26.7813 v 93.7847 l 0.0432,0.293 0.0946,0.271 0.1409,0.246 0.1818,0.214 0.2177,0.178 0.2483,0.136 0.2739,0.09 0.2941,0.037 h 144.51635 l 0.091,0.002 h 0.003 l 0.157,-0.008 0.154,-0.023 0.148,-0.038 0.141,-0.052 0.262,-0.142 0.229,-0.188 0.188,-0.229 0.143,-0.262 0.052,-0.141 0.039,-0.148 0.024,-0.153 0.009,-0.158 v -17.52135 l 8.74635,-0.001 0.149,-0.048 0.137,-0.069 0.124,-0.088 0.109,-0.106 0.091,-0.12 0.073,-0.135 0.053,-0.146 0.03,-0.156 V 85.2786 l -0.001,-0.0398 v -0.0021 l -0.019,-0.1964 -0.056,-0.183 -0.088,-0.1662 -0.117,-0.146 -0.141,-0.1222 -0.163,-0.0951 -0.18,-0.0644 -0.193,-0.0303 L 162.6,84.232 V 66.0647 l -0.021,-0.1763 -0.05,-0.1654 -0.075,-0.152 -0.099,-0.1358 -0.12,-0.1173 -0.138,-0.096 -0.154,-0.0721 -0.168,-0.0458 -3.938,-0.0351 V 45.889648 l 8.604,-0.0243 0.181,-0.0313 0.167,-0.0613 0.152,-0.0885 0.133,-0.1128 0.112,-0.1342 0.087,-0.1526 0.06,-0.1684 0.029,-0.1811 V 29.8835 l -0.005,-1.0583 v -0.4956 l -0.009,-0.1586 -0.023,-0.1538 -0.039,-0.1485 -0.052,-0.1422 -0.142,-0.2627 -0.189,-0.2287 -0.229,-0.1886 -0.262,-0.1424 -0.143,-0.052 -0.148,-0.0381 -0.154,-0.0235 -0.159,-0.0081 h -0.494 l -44.654,-10e-4 -18.7,-22.8870267 -0.16,-0.16116 -0.172,-0.14514 -0.185,-0.1285 -0.195,-0.11122 -0.204,-0.09333 -0.211,-0.07479 -0.219,-0.05564 -0.224,-0.03585 v 3.7e-4"
         style="display:inline;fill:none;stroke:#000000;stroke-width:0.05;stroke-miterlimit:4;stroke-dasharray:none"
         id="path2497"
         inkscape:connector-curvature="0" />
      <g
         id="g6660">
        <path
           d="m 149.79588,45.209256 -0.029,0.294 -0.085,0.28 -0.138,0.2582 -0.187,0.2284 -0.229,0.1873 -0.258,0.1379 -0.28,0.0851 -0.294,0.0291 -0.294,-0.0291 -0.28,-0.0851 -0.258,-0.1379 -0.229,-0.1873 -0.187,-0.2284 -0.138,-0.2582 -0.085,-0.28 -0.029,-0.294 0.029,-0.2941 0.085,-0.28 0.138,-0.2582 0.187,-0.2284 0.229,-0.1873 0.258,-0.1379 0.28,-0.0851 0.294,-0.029 0.294,0.029 0.28,0.0851 0.258,0.1379 0.229,0.1873 0.187,0.2284 0.138,0.2582 0.085,0.28 0.029,0.2941"
           style="display:inline;fill:none;stroke:#000000;stroke-width:0.05;stroke-miterlimit:4;stroke-dasharray:none;stroke-opacity:1"
           id="path2571"
           inkscape:connector-curvature="0" />
        <path
           d="m 37.919152,55.36032 -0.0291,0.294 -0.0851,0.28 -0.1378,0.2582 -0.1873,0.2285 -0.2285,0.1873 -0.2581,0.1378 -0.2801,0.0851 -0.294,0.0291 -0.294,-0.0291 -0.28,-0.0851 -0.2582,-0.1378 -0.2284,-0.1873 -0.1874,-0.2285 -0.1378,-0.2582 -0.0851,-0.28 -0.0291,-0.294 0.0291,-0.294 0.0851,-0.28 0.1378,-0.2582 0.1874,-0.2285 0.2284,-0.1873 0.2582,-0.1378 0.28,-0.0851 0.294,-0.0291 0.294,0.0291 0.2801,0.0851 0.2581,0.1378 0.2285,0.1873 0.1873,0.2285 0.1378,0.2582 0.0851,0.28 0.0291,0.294"
           style="display:inline;fill:none;stroke:#000000;stroke-width:0.05;stroke-miterlimit:4;stroke-dasharray:none;stroke-opacity:1"
           id="path2573"
           inkscape:connector-curvature="0" />
        <path
           d="m 36.6343,102.989 -0.0291,0.294 -0.0851,0.28 -0.1379,0.258 -0.1873,0.228 -0.2284,0.188 -0.2582,0.137 -0.28,0.086 -0.294,0.029 -0.294,-0.029 -0.2801,-0.086 -0.2581,-0.137 -0.2285,-0.188 -0.1873,-0.228 -0.1379,-0.258 -0.0851,-0.28 -0.029,-0.294 0.029,-0.294 0.0851,-0.28 0.1379,-0.259 0.1873,-0.228 0.2285,-0.187 0.2581,-0.138 0.2801,-0.085 0.294,-0.029 0.294,0.029 0.28,0.085 0.2582,0.138 0.2284,0.187 0.1873,0.228 0.1379,0.259 0.0851,0.28 0.0291,0.294"
           style="display:inline;fill:none;stroke:#000000;stroke-width:0.05;stroke-miterlimit:4;stroke-dasharray:none;stroke-opacity:1"
           id="path2575"
           inkscape:connector-curvature="0" />
        <path
           d="m 87.898842,65.535895 -0.029,0.294 -0.085,0.28 -0.138,0.2582 -0.187,0.2285 -0.227997,0.1873 -0.259,0.1378 -0.28,0.0851 -0.294,0.0291 -0.294,-0.0291 -0.28,-0.0851 -0.258,-0.1378 -0.228,-0.1873 -0.188,-0.2285 -0.137,-0.2582 -0.086,-0.28 -0.029,-0.294 0.029,-0.294 0.086,-0.28 0.137,-0.2582 0.188,-0.2285 0.228,-0.1873 0.258,-0.1378 0.28,-0.0851 0.294,-0.0291 0.294,0.0291 0.28,0.0851 0.259,0.1378 0.227997,0.1873 0.187,0.2285 0.138,0.2582 0.085,0.28 0.029,0.294"
           style="display:inline;fill:none;stroke:#000000;stroke-width:0.05;stroke-miterlimit:4;stroke-dasharray:none;stroke-opacity:1"
           id="path2577"
           inkscape:connector-curvature="0" />
        <path
           d="m 105.75798,104.25744 -0.029,0.294 -0.085,0.28 -0.138,0.258 -0.187,0.229 -0.229,0.187 -0.258,0.138 -0.28,0.085 -0.294,0.029 -0.29399,-0.029 -0.28,-0.085 -0.258,-0.138 -0.229,-0.187 -0.187,-0.229 -0.138,-0.258 -0.085,-0.28 -0.029,-0.294 0.029,-0.294 0.085,-0.28 0.138,-0.258 0.187,-0.229 0.229,-0.187 0.258,-0.138 0.28,-0.085 0.29399,-0.029 0.294,0.029 0.28,0.085 0.258,0.138 0.229,0.187 0.187,0.229 0.138,0.258 0.085,0.28 0.029,0.294"
           style="display:inline;fill:none;stroke:#000000;stroke-width:0.05;stroke-miterlimit:4;stroke-dasharray:none;stroke-opacity:1"
           id="path2579"
           inkscape:connector-curvature="0" />
        <path
           id="path2581"
           style="display:inline;fill:none;stroke:#000000;stroke-width:0.05;stroke-miterlimit:4;stroke-dasharray:none;stroke-opacity:1"
           d="m 96.13026,8.1231232 0.008,0.15337 0.023,0.1489397 0.087,0.28156 0.138,0.2548007 0.183,0.22199 0.222,0.18317 0.255,0.1382797 0.282,0.0874 0.149,0.0227 0.153,0.0078 0.153,-0.0078 0.149,-0.0227 0.282,-0.0874 0.255,-0.1382797 0.222,-0.18317 0.183,-0.22199 0.138,-0.2548007 0.088,-0.28156 0.022,-0.1489397 0.008,-0.15337 -0.029,-0.2939999 -0.085,-0.28002 -0.138,-0.25818 -0.187,-0.22846 -0.229,-0.18732 -0.258,-0.13784 -0.28,-0.08509 -0.294,-0.02909 -0.294,0.02909 -0.28,0.08509 -0.258,0.13784 -0.229,0.18732 -0.187,0.22846 -0.138,0.25818 -0.085,0.28002 -0.029,0.2939999"
           inkscape:connector-curvature="0" />
        <path
           id="path2583"
           style="display:inline;fill:none;stroke:#000000;stroke-width:0.05;stroke-miterlimit:4;stroke-dasharray:none;stroke-opacity:1"
           d="m 18.60711,8.1231232 0.008,0.15337 0.023,0.1489397 0.087,0.28156 0.139,0.2548007 0.183,0.22199 0.222,0.18317 0.255,0.1382797 0.281,0.0874 0.149,0.0227 0.153,0.0078 0.154,-0.0078 0.149,-0.0227 0.281,-0.0874 0.255,-0.1382797 0.222,-0.18317 0.183,-0.22199 0.139,-0.2548007 0.087,-0.28156 0.023,-0.1489397 0.007,-0.15337 -0.029,-0.2939999 -0.085,-0.28002 -0.138,-0.25818 -0.187,-0.22846 -0.228,-0.18732 -0.259,-0.13784 -0.28,-0.08509 -0.294,-0.02909 -0.294,0.02909 -0.28,0.08509 -0.258,0.13784 -0.228,0.18732 -0.188,0.22846 -0.137,0.25818 -0.085,0.28002 -0.03,0.2939999"
           inkscape:connector-curvature="0" />
        <path
           id="path2589"
           style="display:inline;fill:none;stroke:#000000;stroke-width:0.05;stroke-miterlimit:4;stroke-dasharray:none;stroke-opacity:1"
           d="m 153.26935,102.94473 -0.029,0.294 -0.085,0.28 -0.138,0.258 -0.187,0.229 -0.229,0.187 -0.258,0.138 -0.28,0.085 -0.294,0.029 -0.294,-0.029 -0.28,-0.085 -0.258,-0.138 -0.229,-0.187 -0.187,-0.229 -0.138,-0.258 -0.085,-0.28 -0.029,-0.294 0.029,-0.294 0.085,-0.28 0.138,-0.258 0.187,-0.229 0.229,-0.187 0.258,-0.138 0.28,-0.085 0.294,-0.029 0.294,0.029 0.28,0.085 0.258,0.138 0.229,0.187 0.187,0.229 0.138,0.258 0.085,0.28 0.029,0.294"
           inkscape:connector-curvature="0" />
      </g>
    </g>
  </g>
  <g
     inkscape:groupmode="layer"
     id="layer1"
     inkscape:label="TopPlate"
     style="display:inline;opacity:1"
     sodipodi:insensitive="true">
    <path
       id="path3359"
       style="display:inline;fill:none;stroke:#ff0000;stroke-width:0.05;stroke-miterlimit:4;stroke-dasharray:none;stroke-opacity:1"
       d="m 191.70429,102.97317 -0.029,0.294 -0.085,0.28 -0.138,0.259 -0.187,0.228 -0.229,0.187 -0.258,0.138 -0.28,0.085 -0.294,0.029 -0.294,-0.029 -0.28,-0.085 -0.258,-0.138 -0.229,-0.187 -0.187,-0.228 -0.138,-0.259 -0.085,-0.28 -0.029,-0.294 0.029,-0.294 0.085,-0.28 0.138,-0.258 0.187,-0.228 0.229,-0.188 0.258,-0.137 0.28,-0.086 0.294,-0.029 0.294,0.029 0.28,0.086 0.258,0.137 0.229,0.188 0.187,0.228 0.138,0.258 0.085,0.28 0.029,0.294"
       inkscape:connector-curvature="0" />
    <path
       id="path3367"
       style="display:inline;fill:none;stroke:#ff0000;stroke-width:0.05;stroke-miterlimit:4;stroke-dasharray:none;stroke-opacity:1"
       d="m 238.93134,8.1261232 -0.008,0.15337 -0.023,0.1489397 -0.087,0.28156 -0.138,0.2548007 -0.183,0.22199 -0.222,0.18317 -0.255,0.1382797 -0.282,0.0874 -0.149,0.0227 -0.153,0.0078 -0.153,-0.0078 -0.149,-0.0227 -0.282,-0.0874 -0.255,-0.1382797 -0.222,-0.18317 -0.183,-0.22199 -0.138,-0.2548007 -0.088,-0.28156 -0.022,-0.1489397 -0.008,-0.15337 0.029,-0.2939999 0.085,-0.28002 0.138,-0.25818 0.187,-0.22846 0.229,-0.18732 0.258,-0.13784 0.28,-0.08509 0.294,-0.02909 0.294,0.02909 0.28,0.08509 0.258,0.13784 0.229,0.18732 0.187,0.22846 0.138,0.25818 0.085,0.28002 0.029,0.2939999"
       inkscape:connector-curvature="0" />
    <path
       id="path3369"
       style="display:inline;fill:none;stroke:#ff0000;stroke-width:0.05;stroke-miterlimit:4;stroke-dasharray:none;stroke-opacity:1"
       d="m 316.45449,8.1261232 -0.008,0.15337 -0.023,0.1489397 -0.087,0.28156 -0.139,0.2548007 -0.183,0.22199 -0.222,0.18317 -0.255,0.1382797 -0.281,0.0874 -0.149,0.0227 -0.153,0.0078 -0.154,-0.0078 -0.149,-0.0227 -0.281,-0.0874 -0.255,-0.1382797 -0.222,-0.18317 -0.183,-0.22199 -0.139,-0.2548007 -0.087,-0.28156 -0.023,-0.1489397 -0.007,-0.15337 0.029,-0.2939999 0.085,-0.28002 0.138,-0.25818 0.187,-0.22846 0.228,-0.18732 0.259,-0.13784 0.28,-0.08509 0.294,-0.02909 0.294,0.02909 0.28,0.08509 0.258,0.13784 0.228,0.18732 0.188,0.22846 0.137,0.25818 0.085,0.28002 0.03,0.2939999"
       inkscape:connector-curvature="0" />
    <path
       d="m 244.2753,104.28546 -0.029,0.294 -0.085,0.28 -0.138,0.259 -0.187,0.228 -0.229,0.187 -0.258,0.138 -0.28,0.085 -0.294,0.029 -0.294,-0.029 -0.28,-0.085 -0.258,-0.138 -0.229,-0.187 -0.187,-0.228 -0.138,-0.259 -0.085,-0.28 -0.029,-0.294 0.029,-0.294 0.085,-0.28 0.138,-0.258 0.187,-0.228 0.229,-0.188 0.258,-0.137 0.28,-0.086 0.294,-0.029 0.294,0.029 0.28,0.086 0.258,0.137 0.229,0.188 0.187,0.228 0.138,0.258 0.085,0.28 0.029,0.294"
       style="display:inline;fill:none;stroke:#ff0000;stroke-width:0.05;stroke-miterlimit:4;stroke-dasharray:none;stroke-opacity:1"
       id="path2076"
       inkscape:connector-curvature="0" />
    <path
       id="path2080"
       style="display:inline;fill:none;stroke:#ff0000;stroke-width:0.05;stroke-miterlimit:4;stroke-dasharray:none;stroke-opacity:1"
       d="m 302.55381,103.61913 -0.029,0.294 -0.085,0.28 -0.138,0.259 -0.187,0.228 -0.229,0.187 -0.258,0.138 -0.28,0.085 -0.294,0.029 -0.294,-0.029 -0.28,-0.085 -0.258,-0.138 -0.229,-0.187 -0.187,-0.228 -0.138,-0.259 -0.085,-0.28 -0.029,-0.294 0.029,-0.294 0.085,-0.28 0.138,-0.258 0.187,-0.228 0.229,-0.188 0.258,-0.137 0.28,-0.086 0.294,-0.029 0.294,0.029 0.28,0.086 0.258,0.137 0.229,0.188 0.187,0.228 0.138,0.258 0.085,0.28 0.029,0.294"
       inkscape:connector-curvature="0" />
    <path
       d="m 295.43313,55.396435 -0.029,0.294 -0.085,0.28 -0.138,0.259 -0.187,0.228 -0.229,0.187 -0.258,0.138 -0.28,0.085 -0.294,0.029 -0.294,-0.029 -0.28,-0.085 -0.258,-0.138 -0.229,-0.187 -0.187,-0.228 -0.138,-0.259 -0.085,-0.28 -0.029,-0.294 0.029,-0.294 0.085,-0.28 0.138,-0.258 0.187,-0.228 0.229,-0.188 0.258,-0.137 0.28,-0.086 0.294,-0.029 0.294,0.029 0.28,0.086 0.258,0.137 0.229,0.188 0.187,0.228 0.138,0.258 0.085,0.28 0.029,0.294"
       style="display:inline;fill:none;stroke:#ff0000;stroke-width:0.05;stroke-miterlimit:4;stroke-dasharray:none;stroke-opacity:1"
       id="path2084"
       inkscape:connector-curvature="0" />
    <path
       id="path2088"
       style="display:inline;fill:none;stroke:#ff0000;stroke-width:0.05;stroke-miterlimit:4;stroke-dasharray:none;stroke-opacity:1"
       d="m 240.66921,65.513597 -0.029,0.294 -0.085,0.28 -0.138,0.259 -0.187,0.228 -0.229,0.187 -0.258,0.138 -0.28,0.085 -0.294,0.029 -0.294,-0.029 -0.28,-0.085 -0.258,-0.138 -0.229,-0.187 -0.187,-0.228 -0.138,-0.259 -0.085,-0.28 -0.029,-0.294 0.029,-0.294 0.085,-0.28 0.138,-0.258 0.187,-0.228 0.229,-0.188 0.258,-0.137 0.28,-0.086 0.294,-0.029 0.294,0.029 0.28,0.086 0.258,0.137 0.229,0.188 0.187,0.228 0.138,0.258 0.085,0.28 0.029,0.294"
       inkscape:connector-curvature="0" />
    <path
       d="m 178.75671,46.448664 -0.029,0.294 -0.085,0.28 -0.138,0.259 -0.187,0.228 -0.229,0.187 -0.258,0.138 -0.28,0.085 -0.294,0.029 -0.294,-0.029 -0.28,-0.085 -0.258,-0.138 -0.229,-0.187 -0.187,-0.228 -0.138,-0.259 -0.085,-0.28 -0.029,-0.294 0.029,-0.294 0.085,-0.28 0.138,-0.258 0.187,-0.228 0.229,-0.188 0.258,-0.137 0.28,-0.086 0.294,-0.029 0.294,0.029 0.28,0.086 0.258,0.137 0.229,0.188 0.187,0.228 0.138,0.258 0.085,0.28 0.029,0.294"
       style="display:inline;fill:none;stroke:#ff0000;stroke-width:0.05;stroke-miterlimit:4;stroke-dasharray:none;stroke-opacity:1"
       id="path2092"
       inkscape:connector-curvature="0" />
    <path
       sodipodi:nodetypes="ccccccccccccccccccccccccccccccccccccccccccccccccccccccccccccccccccccccccccccccccccccccccccccccccccccccc"
       id="path1594"
       style="display:inline;fill:none;stroke:#ff0000;stroke-width:0.05;stroke-miterlimit:4;stroke-dasharray:none"
       d="m 318.511,3.0896333 -83.771,0.007 -0.235,0.03167 -0.229,0.05338 -0.223,0.0744 -0.214,0.09472 -0.204,0.11433 -0.194,0.13324 -0.18,0.15146 -0.167,0.16897 L 214.425,26.7923 h -45.29 l -0.288,0.0533 -0.266,0.1033 -0.239,0.1483 -0.208,0.188 -0.17,0.2226 -0.129,0.2522 -0.081,0.2765 -0.028,0.2958 v 0.003 1.5508 h -0.004 l -0.001,16.1639 -7.514,0.0295 -0.956,0.002 -0.077,0.003 -0.185,0.0206 -0.172,0.0522 -0.158,0.0807 -0.14,0.1062 -0.119,0.1289 -0.096,0.1484 -0.069,0.165 -0.039,0.1785 v 16.976648 l 0.026,0.1857 0.058,0.1728 0.086,0.157 0.112,0.138 0.135,0.116 0.154,0.0911 0.17,0.063 0.184,0.0319 3.838,-0.008 v 18.3814 l 0.044,0.137 0.062,0.1278 0.078,0.1168 0.094,0.1044 0.107,0.0904 0.12,0.0749 0.13,0.0578 0.139,0.0391 8.751,0.0341 V 103.163 l -8.72539,-0.009 -0.16,0.048 -0.146,0.073 -0.131,0.094 -0.115,0.114 -0.094,0.131 -0.073,0.146 -0.05,0.159 -0.023,0.169 0.009,16.568 0.058,0.282 0.106,0.262 0.15,0.236 0.188,0.205 0.221,0.168 0.25,0.127 0.273,0.08 0.292,0.028 h 0.071 154.07339 l 0.291,-0.043 0.271,-0.094 0.245,-0.139 0.214,-0.181 0.178,-0.216 0.136,-0.247 0.091,-0.272 0.039,-0.292 V 29.632 l 0.003,-23.4368267 h -0.01 v -1.55236 l -0.008,-0.15858 -0.023,-0.1539 -0.038,-0.14845 -0.052,-0.14224 -0.142,-0.2628 -0.189,-0.22883 -0.229,-0.18873 -0.263,-0.14256 -0.142,-0.05205 -0.149,-0.03821 -0.154,-0.02362 -0.158,-0.00826 v -5.1e-4 h -0.003 l -0.055,-0.00444"
       inkscape:connector-curvature="0" />
    <g
       transform="translate(-15.875)"
       style="stroke:#ff0000"
       id="g2032">
      <polygon
         id="polygon8"
         style="fill:none;stroke:#ff0000;stroke-width:0.05;stroke-miterlimit:4;stroke-dasharray:none"
         points="321.05,93.626 321.05,96.726 321.85,96.726 321.85,97.726 335.85,97.726 335.85,96.726 336.651,96.726 336.651,93.626 335.85,93.626 335.85,87.825 336.651,87.825 336.651,84.726 335.85,84.726 335.85,83.726 321.85,83.726 321.85,84.726 321.05,84.726 321.05,87.825 321.85,87.825 321.85,93.626 "
         transform="translate(-2.3780188,21.790329)" />
      <polygon
         id="polygon28-3"
         style="fill:none;stroke:#ff0000;stroke-width:0.05;stroke-miterlimit:4;stroke-dasharray:none"
         points="327.457,69.376 327.457,66.146 325.732,66.146 325.732,65.225 322.432,65.225 322.432,66.146 320.707,66.146 320.707,69.376 319.182,69.376 319.182,68.775 319.982,68.775 319.982,65.676 319.182,65.676 319.182,64.676 305.182,64.676 305.182,65.676 304.382,65.676 304.382,68.775 305.182,68.775 305.182,69.376 303.657,69.376 303.657,66.146 301.932,66.146 301.932,65.225 298.632,65.225 298.632,66.146 296.907,66.146 296.907,69.376 296.082,69.376 296.082,72.176 296.907,72.176 296.907,78.446 298.632,78.446 298.632,79.426 301.932,79.426 301.932,78.446 303.657,78.446 303.657,73.976 305.182,73.976 305.182,74.576 304.382,74.576 304.382,77.676 305.182,77.676 305.182,78.676 319.182,78.676 319.182,77.676 319.982,77.676 319.982,74.576 319.182,74.576 319.182,73.976 320.707,73.976 320.707,78.446 322.432,78.446 322.432,79.426 325.732,79.426 325.732,78.446 327.457,78.446 327.457,72.176 328.282,72.176 328.282,69.376 "
         transform="translate(-2.3780188,21.790329)" />
      <polygon
         id="polygon32"
         style="fill:none;stroke:#ff0000;stroke-width:0.05;stroke-miterlimit:4;stroke-dasharray:none"
         points="268.663,74.576 268.663,77.676 269.463,77.676 269.463,78.676 283.463,78.676 283.463,77.676 284.263,77.676 284.263,74.576 283.463,74.576 283.463,68.775 284.263,68.775 284.263,65.676 283.463,65.676 283.463,64.676 269.463,64.676 269.463,65.676 268.663,65.676 268.663,68.775 269.463,68.775 269.463,74.576 "
         transform="translate(-2.3780188,21.790329)" />
      <polygon
         id="polygon34"
         style="fill:none;stroke:#ff0000;stroke-width:0.05;stroke-miterlimit:4;stroke-dasharray:none"
         points="249.613,74.576 249.613,77.676 250.413,77.676 250.413,78.676 264.413,78.676 264.413,77.676 265.213,77.676 265.213,74.576 264.413,74.576 264.413,68.775 265.213,68.775 265.213,65.676 264.413,65.676 264.413,64.676 250.413,64.676 250.413,65.676 249.613,65.676 249.613,68.775 250.413,68.775 250.413,74.576 "
         transform="translate(-2.3780188,21.790329)" />
      <polygon
         id="polygon36"
         style="fill:none;stroke:#ff0000;stroke-width:0.05;stroke-miterlimit:4;stroke-dasharray:none"
         points="230.563,74.576 230.563,77.676 231.363,77.676 231.363,78.676 245.363,78.676 245.363,77.676 246.163,77.676 246.163,74.576 245.363,74.576 245.363,68.775 246.163,68.775 246.163,65.676 245.363,65.676 245.363,64.676 231.363,64.676 231.363,65.676 230.563,65.676 230.563,68.775 231.363,68.775 231.363,74.576 "
         transform="translate(-2.3780188,21.790329)" />
      <polygon
         id="polygon38"
         style="fill:none;stroke:#ff0000;stroke-width:0.05;stroke-miterlimit:4;stroke-dasharray:none"
         points="211.513,74.576 211.513,77.676 212.313,77.676 212.313,78.676 226.313,78.676 226.313,77.676 227.113,77.676 227.113,74.576 226.313,74.576 226.313,68.775 227.113,68.775 227.113,65.676 226.313,65.676 226.313,64.676 212.313,64.676 212.313,65.676 211.513,65.676 211.513,68.775 212.313,68.775 212.313,74.576 "
         transform="translate(-2.3780188,21.790329)" />
      <polygon
         id="polygon40"
         style="fill:none;stroke:#ff0000;stroke-width:0.05;stroke-miterlimit:4;stroke-dasharray:none"
         points="192.463,74.576 192.463,77.676 193.263,77.676 193.263,78.676 207.263,78.676 207.263,77.676 208.063,77.676 208.063,74.576 207.263,74.576 207.263,68.775 208.063,68.775 208.063,65.676 207.263,65.676 207.263,64.676 193.263,64.676 193.263,65.676 192.463,65.676 192.463,68.775 193.263,68.775 193.263,74.576 "
         transform="translate(-2.3780188,21.790329)" />
      <polygon
         id="polygon54"
         style="fill:none;stroke:#ff0000;stroke-width:0.05;stroke-miterlimit:4;stroke-dasharray:none"
         points="332.219,50.326 332.219,47.096 330.494,47.096 330.494,46.176 327.194,46.176 327.194,47.096 325.469,47.096 325.469,50.326 323.944,50.326 323.944,49.726 324.744,49.726 324.744,46.626 323.944,46.626 323.944,45.626 309.944,45.626 309.944,46.626 309.144,46.626 309.144,49.726 309.944,49.726 309.944,50.326 308.419,50.326 308.419,47.096 306.694,47.096 306.694,46.176 303.394,46.176 303.394,47.096 301.669,47.096 301.669,50.326 300.844,50.326 300.844,53.126 301.669,53.126 301.669,59.395 303.394,59.395 303.394,60.376 306.694,60.376 306.694,59.395 308.419,59.395 308.419,54.926 309.944,54.926 309.944,55.526 309.144,55.526 309.144,58.626 309.944,58.626 309.944,59.626 323.944,59.626 323.944,58.626 324.744,58.626 324.744,55.526 323.944,55.526 323.944,54.926 325.469,54.926 325.469,59.395 327.194,59.395 327.194,60.376 330.494,60.376 330.494,59.395 332.219,59.395 332.219,53.126 333.044,53.126 333.044,50.326 "
         transform="translate(-2.3780188,21.790329)" />
      <polygon
         id="polygon56"
         style="fill:none;stroke:#ff0000;stroke-width:0.05;stroke-miterlimit:4;stroke-dasharray:none"
         points="278.188,55.526 278.188,58.626 278.988,58.626 278.988,59.626 292.988,59.626 292.988,58.626 293.788,58.626 293.788,55.526 292.988,55.526 292.988,49.726 293.788,49.726 293.788,46.626 292.988,46.626 292.988,45.626 278.988,45.626 278.988,46.626 278.188,46.626 278.188,49.726 278.988,49.726 278.988,55.526 "
         transform="translate(-2.3780188,21.790329)" />
      <polygon
         id="polygon58"
         style="fill:none;stroke:#ff0000;stroke-width:0.05;stroke-miterlimit:4;stroke-dasharray:none"
         points="259.138,55.526 259.138,58.626 259.938,58.626 259.938,59.626 273.938,59.626 273.938,58.626 274.738,58.626 274.738,55.526 273.938,55.526 273.938,49.726 274.738,49.726 274.738,46.626 273.938,46.626 273.938,45.626 259.938,45.626 259.938,46.626 259.138,46.626 259.138,49.726 259.938,49.726 259.938,55.526 "
         transform="translate(-2.3780188,21.790329)" />
      <polygon
         id="polygon60"
         style="fill:none;stroke:#ff0000;stroke-width:0.05;stroke-miterlimit:4;stroke-dasharray:none"
         points="240.088,55.526 240.088,58.626 240.888,58.626 240.888,59.626 254.888,59.626 254.888,58.626 255.688,58.626 255.688,55.526 254.888,55.526 254.888,49.726 255.688,49.726 255.688,46.626 254.888,46.626 254.888,45.626 240.888,45.626 240.888,46.626 240.088,46.626 240.088,49.726 240.888,49.726 240.888,55.526 "
         transform="translate(-2.3780188,21.790329)" />
      <polygon
         id="polygon62"
         style="fill:none;stroke:#ff0000;stroke-width:0.05;stroke-miterlimit:4;stroke-dasharray:none"
         points="221.038,55.526 221.038,58.626 221.838,58.626 221.838,59.626 235.838,59.626 235.838,58.626 236.638,58.626 236.638,55.526 235.838,55.526 235.838,49.726 236.638,49.726 236.638,46.626 235.838,46.626 235.838,45.626 221.838,45.626 221.838,46.626 221.038,46.626 221.038,49.726 221.838,49.726 221.838,55.526 "
         transform="translate(-2.3780188,21.790329)" />
      <polygon
         id="polygon64"
         style="fill:none;stroke:#ff0000;stroke-width:0.05;stroke-miterlimit:4;stroke-dasharray:none"
         points="201.988,55.526 201.988,58.626 202.788,58.626 202.788,59.626 216.788,59.626 216.788,58.626 217.588,58.626 217.588,55.526 216.788,55.526 216.788,49.726 217.588,49.726 217.588,46.626 216.788,46.626 216.788,45.626 202.788,45.626 202.788,46.626 201.988,46.626 201.988,49.726 202.788,49.726 202.788,55.526 "
         transform="translate(-2.3780188,21.790329)" />
      <polygon
         id="polygon66"
         style="fill:none;stroke:#ff0000;stroke-width:0.05;stroke-miterlimit:4;stroke-dasharray:none"
         points="182.938,55.526 182.938,58.626 183.738,58.626 183.738,59.626 197.738,59.626 197.738,58.626 198.538,58.626 198.538,55.526 197.738,55.526 197.738,49.726 198.538,49.726 198.538,46.626 197.738,46.626 197.738,45.626 183.738,45.626 183.738,46.626 182.938,46.626 182.938,49.726 183.738,49.726 183.738,55.526 "
         transform="translate(-2.3780188,21.790329)" />
      <polygon
         id="polygon82"
         style="fill:none;stroke:#ff0000;stroke-width:0.05;stroke-miterlimit:4;stroke-dasharray:none"
         points="316.288,36.476 316.288,39.576 317.088,39.576 317.088,40.576 331.088,40.576 331.088,39.576 331.888,39.576 331.888,36.476 331.088,36.476 331.088,30.676 331.888,30.676 331.888,27.576 331.088,27.576 331.088,26.576 317.088,26.576 317.088,27.576 316.288,27.576 316.288,30.676 317.088,30.676 317.088,36.476 "
         transform="translate(-2.3780188,21.790329)" />
      <polygon
         id="polygon84"
         style="fill:none;stroke:#ff0000;stroke-width:0.05;stroke-miterlimit:4;stroke-dasharray:none"
         points="292.476,36.476 292.476,39.576 293.276,39.576 293.276,40.576 307.276,40.576 307.276,39.576 308.076,39.576 308.076,36.476 307.276,36.476 307.276,30.676 308.076,30.676 308.076,27.576 307.276,27.576 307.276,26.576 293.276,26.576 293.276,27.576 292.476,27.576 292.476,30.676 293.276,30.676 293.276,36.476 "
         transform="translate(-2.3780188,21.790329)" />
      <polygon
         id="polygon86"
         style="fill:none;stroke:#ff0000;stroke-width:0.05;stroke-miterlimit:4;stroke-dasharray:none"
         points="273.426,36.476 273.426,39.576 274.226,39.576 274.226,40.576 288.226,40.576 288.226,39.576 289.026,39.576 289.026,36.476 288.226,36.476 288.226,30.676 289.026,30.676 289.026,27.576 288.226,27.576 288.226,26.576 274.226,26.576 274.226,27.576 273.426,27.576 273.426,30.676 274.226,30.676 274.226,36.476 "
         transform="translate(-2.3780188,21.790329)" />
      <polygon
         id="polygon88"
         style="fill:none;stroke:#ff0000;stroke-width:0.05;stroke-miterlimit:4;stroke-dasharray:none"
         points="254.376,36.476 254.376,39.576 255.176,39.576 255.176,40.576 269.176,40.576 269.176,39.576 269.976,39.576 269.976,36.476 269.176,36.476 269.176,30.676 269.976,30.676 269.976,27.576 269.176,27.576 269.176,26.576 255.176,26.576 255.176,27.576 254.376,27.576 254.376,30.676 255.176,30.676 255.176,36.476 "
         transform="translate(-2.3780188,21.790329)" />
      <polygon
         id="polygon90"
         style="fill:none;stroke:#ff0000;stroke-width:0.05;stroke-miterlimit:4;stroke-dasharray:none"
         points="235.326,36.476 235.326,39.576 236.126,39.576 236.126,40.576 250.126,40.576 250.126,39.576 250.926,39.576 250.926,36.476 250.126,36.476 250.126,30.676 250.926,30.676 250.926,27.576 250.126,27.576 250.126,26.576 236.126,26.576 236.126,27.576 235.326,27.576 235.326,30.676 236.126,30.676 236.126,36.476 "
         transform="translate(-2.3780188,21.790329)" />
      <polygon
         id="polygon92"
         style="fill:none;stroke:#ff0000;stroke-width:0.05;stroke-miterlimit:4;stroke-dasharray:none"
         points="216.276,36.476 216.276,39.576 217.076,39.576 217.076,40.576 231.076,40.576 231.076,39.576 231.876,39.576 231.876,36.476 231.076,36.476 231.076,30.676 231.876,30.676 231.876,27.576 231.076,27.576 231.076,26.576 217.076,26.576 217.076,27.576 216.276,27.576 216.276,30.676 217.076,30.676 217.076,36.476 "
         transform="translate(-2.3780188,21.790329)" />
      <polygon
         id="polygon94"
         style="fill:none;stroke:#ff0000;stroke-width:0.05;stroke-miterlimit:4;stroke-dasharray:none"
         points="197.226,36.476 197.226,39.576 198.026,39.576 198.026,40.576 212.026,40.576 212.026,39.576 212.826,39.576 212.826,36.476 212.026,36.476 212.026,30.676 212.826,30.676 212.826,27.576 212.026,27.576 212.026,26.576 198.026,26.576 198.026,27.576 197.226,27.576 197.226,30.676 198.026,30.676 198.026,36.476 "
         transform="translate(-2.3780188,21.790329)" />
      <polygon
         id="polygon96"
         style="fill:none;stroke:#ff0000;stroke-width:0.05;stroke-miterlimit:4;stroke-dasharray:none"
         points="178.175,36.476 178.175,39.576 178.976,39.576 178.976,40.576 192.976,40.576 192.976,39.576 193.776,39.576 193.776,36.476 192.976,36.476 192.976,30.676 193.776,30.676 193.776,27.576 192.976,27.576 192.976,26.576 178.976,26.576 178.976,27.576 178.175,27.576 178.175,30.676 178.976,30.676 178.976,36.476 "
         transform="translate(-2.3780188,21.790329)" />
      <polygon
         id="polygon112"
         style="fill:none;stroke:#ff0000;stroke-width:0.05;stroke-miterlimit:4;stroke-dasharray:none"
         points="334.601,12.226 334.601,8.996 332.876,8.996 332.876,8.075 329.576,8.075 329.576,8.996 327.851,8.996 327.851,12.226 326.326,12.226 326.326,11.626 327.126,11.626 327.126,8.526 326.326,8.526 326.326,7.526 312.326,7.526 312.326,8.526 311.526,8.526 311.526,11.626 312.326,11.626 312.326,12.226 310.801,12.226 310.801,8.996 309.076,8.996 309.076,8.075 305.776,8.075 305.776,8.996 304.051,8.996 304.051,12.226 303.226,12.226 303.226,15.026 304.051,15.026 304.051,21.296 305.776,21.296 305.776,22.276 309.076,22.276 309.076,21.296 310.801,21.296 310.801,16.826 312.326,16.826 312.326,17.426 311.526,17.426 311.526,20.526 312.326,20.526 312.326,21.526 326.326,21.526 326.326,20.526 327.126,20.526 327.126,17.426 326.326,17.426 326.326,16.826 327.851,16.826 327.851,21.296 329.576,21.296 329.576,22.276 332.876,22.276 332.876,21.296 334.601,21.296 334.601,15.026 335.426,15.026 335.426,12.226 "
         transform="translate(-2.3780188,21.790329)" />
      <polygon
         id="polygon114"
         style="fill:none;stroke:#ff0000;stroke-width:0.05;stroke-miterlimit:4;stroke-dasharray:none"
         points="282.951,17.426 282.951,20.526 283.751,20.526 283.751,21.526 297.751,21.526 297.751,20.526 298.551,20.526 298.551,17.426 297.751,17.426 297.751,11.626 298.551,11.626 298.551,8.526 297.751,8.526 297.751,7.526 283.751,7.526 283.751,8.526 282.951,8.526 282.951,11.626 283.751,11.626 283.751,17.426 "
         transform="translate(-2.3780188,21.790329)" />
      <polygon
         id="polygon116"
         style="fill:none;stroke:#ff0000;stroke-width:0.05;stroke-miterlimit:4;stroke-dasharray:none"
         points="263.901,17.426 263.901,20.526 264.701,20.526 264.701,21.526 278.701,21.526 278.701,20.526 279.501,20.526 279.501,17.426 278.701,17.426 278.701,11.626 279.501,11.626 279.501,8.526 278.701,8.526 278.701,7.526 264.701,7.526 264.701,8.526 263.901,8.526 263.901,11.626 264.701,11.626 264.701,17.426 "
         transform="translate(-2.3780188,21.790329)" />
      <polygon
         id="polygon118"
         style="fill:none;stroke:#ff0000;stroke-width:0.05;stroke-miterlimit:4;stroke-dasharray:none"
         points="244.851,17.426 244.851,20.526 245.651,20.526 245.651,21.526 259.65,21.526 259.65,20.526 260.451,20.526 260.451,17.426 259.65,17.426 259.65,11.626 260.451,11.626 260.451,8.526 259.65,8.526 259.65,7.526 245.651,7.526 245.651,8.526 244.851,8.526 244.851,11.626 245.651,11.626 245.651,17.426 "
         transform="translate(-2.3780188,21.790329)" />
      <polygon
         id="polygon120"
         style="fill:none;stroke:#ff0000;stroke-width:0.05;stroke-miterlimit:4;stroke-dasharray:none"
         points="225.801,17.426 225.801,20.526 226.601,20.526 226.601,21.526 240.601,21.526 240.601,20.526 241.401,20.526 241.401,17.426 240.601,17.426 240.601,11.626 241.401,11.626 241.401,8.526 240.601,8.526 240.601,7.526 226.601,7.526 226.601,8.526 225.801,8.526 225.801,11.626 226.601,11.626 226.601,17.426 "
         transform="translate(-2.3780188,21.790329)" />
      <polygon
         id="polygon122"
         style="fill:none;stroke:#ff0000;stroke-width:0.05;stroke-miterlimit:4;stroke-dasharray:none"
         points="206.751,17.426 206.751,20.526 207.551,20.526 207.551,21.526 221.551,21.526 221.551,20.526 222.351,20.526 222.351,17.426 221.551,17.426 221.551,11.626 222.351,11.626 222.351,8.526 221.551,8.526 221.551,7.526 207.551,7.526 207.551,8.526 206.751,8.526 206.751,11.626 207.551,11.626 207.551,17.426 "
         transform="translate(-2.3780188,21.790329)" />
      <polygon
         id="polygon124"
         style="fill:none;stroke:#ff0000;stroke-width:0.05;stroke-miterlimit:4;stroke-dasharray:none"
         points="187.701,17.426 187.701,20.526 188.501,20.526 188.501,21.526 202.501,21.526 202.501,20.526 203.301,20.526 203.301,17.426 202.501,17.426 202.501,11.626 203.301,11.626 203.301,8.526 202.501,8.526 202.501,7.526 188.501,7.526 188.501,8.526 187.701,8.526 187.701,11.626 188.501,11.626 188.501,17.426 "
         transform="translate(-2.3780188,21.790329)" />
      <polygon
         id="polygon4"
         style="fill:none;stroke:#ff0000;stroke-width:0.05;stroke-miterlimit:4;stroke-dasharray:none"
         points="208.788,97.495 210.513,97.495 210.513,98.476 213.813,98.476 213.813,97.495 215.538,97.495 215.538,91.226 216.363,91.226 216.363,88.426 215.538,88.426 215.538,85.196 213.813,85.196 213.813,84.275 210.513,84.275 210.513,85.196 208.788,85.196 208.788,88.426 207.263,88.426 207.263,87.825 208.063,87.825 208.063,84.726 207.263,84.726 207.263,83.726 193.263,83.726 193.263,84.726 192.463,84.726 192.463,87.825 193.263,87.825 193.263,88.426 191.738,88.426 191.738,85.196 190.013,85.196 190.013,84.275 186.713,84.275 186.713,85.196 184.988,85.196 184.988,88.426 184.163,88.426 184.163,91.226 184.988,91.226 184.988,97.495 186.713,97.495 186.713,98.476 190.013,98.476 190.013,97.495 191.738,97.495 191.738,93.025 193.263,93.025 193.263,93.626 192.463,93.626 192.463,96.726 193.263,96.726 193.263,97.726 207.263,97.726 207.263,96.726 208.063,96.726 208.063,93.626 207.263,93.626 207.263,93.025 208.788,93.025 "
         transform="matrix(1,0,0,-1,-2.3785611,203.23793)" />
      <polygon
         id="polygon10-9"
         style="fill:none;stroke:#ff0000;stroke-width:0.05;stroke-miterlimit:4;stroke-dasharray:none"
         points="302.001,84.726 302.001,87.825 302.801,87.825 302.801,93.626 302.001,93.626 302.001,96.726 302.801,96.726 302.801,97.726 316.801,97.726 316.801,96.726 317.601,96.726 317.601,93.626 316.801,93.626 316.801,87.825 317.601,87.825 317.601,84.726 316.801,84.726 316.801,83.726 302.801,83.726 302.801,84.726 "
         transform="translate(-2.3785611,21.790552)" />
      <polygon
         id="polygon12-2"
         style="fill:none;stroke:#ff0000;stroke-width:0.05;stroke-miterlimit:4;stroke-dasharray:none"
         points="282.951,84.726 282.951,87.825 283.751,87.825 283.751,93.626 282.951,93.626 282.951,96.726 283.751,96.726 283.751,97.726 297.751,97.726 297.751,96.726 298.551,96.726 298.551,93.626 297.751,93.626 297.751,87.825 298.551,87.825 298.551,84.726 297.751,84.726 297.751,83.726 283.751,83.726 283.751,84.726 "
         transform="translate(-2.3785611,21.790552)" />
      <polygon
         id="polygon14-2"
         style="fill:none;stroke:#ff0000;stroke-width:0.05;stroke-miterlimit:4;stroke-dasharray:none"
         points="263.901,84.726 263.901,87.825 264.701,87.825 264.701,93.626 263.901,93.626 263.901,96.726 264.701,96.726 264.701,97.726 278.701,97.726 278.701,96.726 279.501,96.726 279.501,93.626 278.701,93.626 278.701,87.825 279.501,87.825 279.501,84.726 278.701,84.726 278.701,83.726 264.701,83.726 264.701,84.726 "
         transform="translate(-2.3785611,21.790552)" />
      <polygon
         id="polygon16-4"
         style="fill:none;stroke:#ff0000;stroke-width:0.05;stroke-miterlimit:4;stroke-dasharray:none"
         points="242.469,84.726 242.469,87.825 243.269,87.825 243.269,93.626 242.469,93.626 242.469,96.726 243.269,96.726 243.269,97.726 257.268,97.726 257.268,96.726 258.068,96.726 258.068,93.626 257.268,93.626 257.268,87.825 258.068,87.825 258.068,84.726 257.268,84.726 257.268,83.726 243.269,83.726 243.269,84.726 "
         transform="translate(-2.3785611,21.790552)" />
      <polygon
         id="polygon18-7"
         style="fill:none;stroke:#ff0000;stroke-width:0.05;stroke-miterlimit:4;stroke-dasharray:none"
         points="221.038,84.726 221.038,87.825 221.838,87.825 221.838,93.626 221.038,93.626 221.038,96.726 221.838,96.726 221.838,97.726 235.838,97.726 235.838,96.726 236.638,96.726 236.638,93.626 235.838,93.626 235.838,87.825 236.638,87.825 236.638,84.726 235.838,84.726 235.838,83.726 221.838,83.726 221.838,84.726 "
         transform="translate(-2.3785611,21.790552)" />
    </g>
    <path
       sodipodi:nodetypes="cccccccccccccccccccccccccccccccccccccccccccccccccccccccccccccccccccccccccccccccccccccccccccccccccccccccccccc"
       d="m 100.39,3.0891133 -83.9347,0.006 -0.155,0.0116 -0.1503,0.02628 -0.2836,0.09367 -0.2561,0.1437 -0.2229,0.18794 -0.1837,0.22642 -0.1388,0.25912 -0.0881,0.28606 -0.0232,0.15133 -0.0083,0.1559 v 0.004 0.002 L 14.9618,26.7813 v 93.7847 l 0.0432,0.293 0.0946,0.271 0.1409,0.246 0.1818,0.214 0.2177,0.178 0.2483,0.136 0.2739,0.09 0.2941,0.037 h 144.51635 l 0.091,0.002 h 0.003 l 0.157,-0.008 0.154,-0.023 0.148,-0.038 0.141,-0.052 0.262,-0.142 0.229,-0.188 0.188,-0.229 0.143,-0.262 0.052,-0.141 0.039,-0.148 0.024,-0.153 0.009,-0.158 v -17.52135 l 8.74635,-0.001 0.149,-0.048 0.137,-0.069 0.124,-0.088 0.109,-0.106 0.091,-0.12 0.073,-0.135 0.053,-0.146 0.03,-0.156 V 85.2786 l -0.001,-0.0398 v -0.0021 l -0.019,-0.1964 -0.056,-0.183 -0.088,-0.1662 -0.117,-0.146 -0.141,-0.1222 -0.163,-0.0951 -0.18,-0.0644 -0.193,-0.0303 L 162.6,84.232 V 66.0647 l -0.021,-0.1763 -0.05,-0.1654 -0.075,-0.152 -0.099,-0.1358 -0.12,-0.1173 -0.138,-0.096 -0.154,-0.0721 -0.168,-0.0458 -3.938,-0.0351 V 45.889648 l 8.604,-0.0243 0.181,-0.0313 0.167,-0.0613 0.152,-0.0885 0.133,-0.1128 0.112,-0.1342 0.087,-0.1526 0.06,-0.1684 0.029,-0.1811 V 29.8835 l -0.005,-1.0583 v -0.4956 l -0.009,-0.1586 -0.023,-0.1538 -0.039,-0.1485 -0.052,-0.1422 -0.142,-0.2627 -0.189,-0.2287 -0.229,-0.1886 -0.262,-0.1424 -0.143,-0.052 -0.148,-0.0381 -0.154,-0.0235 -0.159,-0.0081 h -0.494 L 120.66001,26.7814 101.96,3.8943733 l -0.16,-0.16116 -0.172,-0.14514 -0.185,-0.1285 -0.195,-0.11122 -0.204,-0.09333 -0.211,-0.07479 -0.219,-0.05564 -0.224,-0.03585 v 3.7e-4"
       style="display:inline;fill:none;stroke:#ff0000;stroke-width:0.05;stroke-miterlimit:4;stroke-dasharray:none"
       id="path3520"
       inkscape:connector-curvature="0" />
    <g
       style="stroke:#ff0000"
       id="g1995">
      <polygon
         id="polygon18"
         style="fill:none;stroke:#ff0000;stroke-width:0.05;stroke-miterlimit:4;stroke-dasharray:none"
         points="112.013,87.825 112.813,87.825 112.813,84.726 112.013,84.726 112.013,83.726 98.013,83.726 98.013,84.726 97.213,84.726 97.213,87.825 98.013,87.825 98.013,93.626 97.213,93.626 97.213,96.726 98.013,96.726 98.013,97.726 112.013,97.726 112.013,96.726 112.813,96.726 112.813,93.626 112.013,93.626 "
         transform="translate(9.9815862,21.790329)" />
      <polygon
         id="polygon20"
         style="fill:none;stroke:#ff0000;stroke-width:0.05;stroke-miterlimit:4;stroke-dasharray:none"
         points="90.582,87.825 91.382,87.825 91.382,84.726 90.582,84.726 90.582,83.726 76.582,83.726 76.582,84.726 75.782,84.726 75.782,87.825 76.582,87.825 76.582,93.626 75.782,93.626 75.782,96.726 76.582,96.726 76.582,97.726 90.582,97.726 90.582,96.726 91.382,96.726 91.382,93.626 90.582,93.626 "
         transform="translate(9.9815862,21.790329)" />
      <polygon
         id="polygon22"
         style="fill:none;stroke:#ff0000;stroke-width:0.05;stroke-miterlimit:4;stroke-dasharray:none"
         points="66.769,87.825 67.569,87.825 67.569,84.726 66.769,84.726 66.769,83.726 52.769,83.726 52.769,84.726 51.969,84.726 51.969,87.825 52.769,87.825 52.769,93.626 51.969,93.626 51.969,96.726 52.769,96.726 52.769,97.726 66.769,97.726 66.769,96.726 67.569,96.726 67.569,93.626 66.769,93.626 "
         transform="translate(9.9815862,21.790329)" />
      <polygon
         id="polygon24"
         style="fill:none;stroke:#ff0000;stroke-width:0.05;stroke-miterlimit:4;stroke-dasharray:none"
         points="42.957,87.825 43.757,87.825 43.757,84.726 42.957,84.726 42.957,83.726 28.957,83.726 28.957,84.726 28.157,84.726 28.157,87.825 28.957,87.825 28.957,93.626 28.157,93.626 28.157,96.726 28.957,96.726 28.957,97.726 42.957,97.726 42.957,96.726 43.757,96.726 43.757,93.626 42.957,93.626 "
         transform="translate(9.9815862,21.790329)" />
      <polygon
         id="polygon26"
         style="fill:none;stroke:#ff0000;stroke-width:0.05;stroke-miterlimit:4;stroke-dasharray:none"
         points="21.526,87.825 22.326,87.825 22.326,84.726 21.526,84.726 21.526,83.726 7.526,83.726 7.526,84.726 6.726,84.726 6.726,87.825 7.526,87.825 7.526,93.626 6.726,93.626 6.726,96.726 7.526,96.726 7.526,97.726 21.526,97.726 21.526,96.726 22.326,96.726 22.326,93.626 21.526,93.626 "
         transform="translate(9.9815862,21.790329)" />
      <polygon
         id="polygon30"
         style="fill:none;stroke:#ff0000;stroke-width:0.05;stroke-miterlimit:4;stroke-dasharray:none"
         points="52.482,73.976 54.007,73.976 54.007,78.446 55.732,78.446 55.732,79.426 59.032,79.426 59.032,78.446 60.757,78.446 60.757,72.176 61.582,72.176 61.582,69.376 60.757,69.376 60.757,66.146 59.032,66.146 59.032,65.225 55.732,65.225 55.732,66.146 54.007,66.146 54.007,69.376 52.482,69.376 52.482,68.775 53.282,68.775 53.282,65.676 52.482,65.676 52.482,64.676 38.482,64.676 38.482,65.676 37.682,65.676 37.682,68.775 38.482,68.775 38.482,69.376 36.957,69.376 36.957,66.146 35.232,66.146 35.232,65.225 31.932,65.225 31.932,66.146 30.207,66.146 30.207,69.376 29.382,69.376 29.382,72.176 30.207,72.176 30.207,78.446 31.932,78.446 31.932,79.426 35.232,79.426 35.232,78.446 36.957,78.446 36.957,73.976 38.482,73.976 38.482,74.576 37.682,74.576 37.682,77.676 38.482,77.676 38.482,78.676 52.482,78.676 52.482,77.676 53.282,77.676 53.282,74.576 52.482,74.576 "
         transform="translate(9.9815862,21.790329)" />
      <polygon
         id="polygon42"
         style="fill:none;stroke:#ff0000;stroke-width:0.05;stroke-miterlimit:4;stroke-dasharray:none"
         points="159.638,68.775 160.438,68.775 160.438,65.676 159.638,65.676 159.638,64.676 145.638,64.676 145.638,65.676 144.838,65.676 144.838,68.775 145.638,68.775 145.638,74.576 144.838,74.576 144.838,77.676 145.638,77.676 145.638,78.676 159.638,78.676 159.638,77.676 160.438,77.676 160.438,74.576 159.638,74.576 "
         transform="translate(9.9815862,21.790329)" />
      <polygon
         id="polygon44"
         style="fill:none;stroke:#ff0000;stroke-width:0.05;stroke-miterlimit:4;stroke-dasharray:none"
         points="140.588,68.775 141.388,68.775 141.388,65.676 140.588,65.676 140.588,64.676 126.588,64.676 126.588,65.676 125.788,65.676 125.788,68.775 126.588,68.775 126.588,74.576 125.788,74.576 125.788,77.676 126.588,77.676 126.588,78.676 140.588,78.676 140.588,77.676 141.388,77.676 141.388,74.576 140.588,74.576 "
         transform="translate(9.9815862,21.790329)" />
      <polygon
         id="polygon46"
         style="fill:none;stroke:#ff0000;stroke-width:0.05;stroke-miterlimit:4;stroke-dasharray:none"
         points="121.538,68.775 122.338,68.775 122.338,65.676 121.538,65.676 121.538,64.676 107.538,64.676 107.538,65.676 106.738,65.676 106.738,68.775 107.538,68.775 107.538,74.576 106.738,74.576 106.738,77.676 107.538,77.676 107.538,78.676 121.538,78.676 121.538,77.676 122.338,77.676 122.338,74.576 121.538,74.576 "
         transform="translate(9.9815862,21.790329)" />
      <polygon
         id="polygon48"
         style="fill:none;stroke:#ff0000;stroke-width:0.05;stroke-miterlimit:4;stroke-dasharray:none"
         points="102.488,68.775 103.288,68.775 103.288,65.676 102.488,65.676 102.488,64.676 88.488,64.676 88.488,65.676 87.688,65.676 87.688,68.775 88.488,68.775 88.488,74.576 87.688,74.576 87.688,77.676 88.488,77.676 88.488,78.676 102.488,78.676 102.488,77.676 103.288,77.676 103.288,74.576 102.488,74.576 "
         transform="translate(9.9815862,21.790329)" />
      <polygon
         id="polygon50"
         style="fill:none;stroke:#ff0000;stroke-width:0.05;stroke-miterlimit:4;stroke-dasharray:none"
         points="83.438,68.775 84.238,68.775 84.238,65.676 83.438,65.676 83.438,64.676 69.438,64.676 69.438,65.676 68.638,65.676 68.638,68.775 69.438,68.775 69.438,74.576 68.638,74.576 68.638,77.676 69.438,77.676 69.438,78.676 83.438,78.676 83.438,77.676 84.238,77.676 84.238,74.576 83.438,74.576 "
         transform="translate(9.9815862,21.790329)" />
      <polygon
         id="polygon52"
         style="fill:none;stroke:#ff0000;stroke-width:0.05;stroke-miterlimit:4;stroke-dasharray:none"
         points="21.526,68.775 22.326,68.775 22.326,65.676 21.526,65.676 21.526,64.676 7.526,64.676 7.526,65.676 6.726,65.676 6.726,68.775 7.526,68.775 7.526,74.576 6.726,74.576 6.726,77.676 7.526,77.676 7.526,78.676 21.526,78.676 21.526,77.676 22.326,77.676 22.326,74.576 21.526,74.576 "
         transform="translate(9.9815862,21.790329)" />
      <polygon
         id="polygon68"
         style="fill:none;stroke:#ff0000;stroke-width:0.05;stroke-miterlimit:4;stroke-dasharray:none"
         points="150.113,49.726 150.913,49.726 150.913,46.626 150.113,46.626 150.113,45.626 136.113,45.626 136.113,46.626 135.313,46.626 135.313,49.726 136.113,49.726 136.113,55.526 135.313,55.526 135.313,58.626 136.113,58.626 136.113,59.626 150.113,59.626 150.113,58.626 150.913,58.626 150.913,55.526 150.113,55.526 "
         transform="translate(9.9815862,21.790329)" />
      <polygon
         id="polygon70"
         style="fill:none;stroke:#ff0000;stroke-width:0.05;stroke-miterlimit:4;stroke-dasharray:none"
         points="131.063,49.726 131.863,49.726 131.863,46.626 131.063,46.626 131.063,45.626 117.063,45.626 117.063,46.626 116.263,46.626 116.263,49.726 117.063,49.726 117.063,55.526 116.263,55.526 116.263,58.626 117.063,58.626 117.063,59.626 131.063,59.626 131.063,58.626 131.863,58.626 131.863,55.526 131.063,55.526 "
         transform="translate(9.9815862,21.790329)" />
      <polygon
         id="polygon72"
         style="fill:none;stroke:#ff0000;stroke-width:0.05;stroke-miterlimit:4;stroke-dasharray:none"
         points="112.013,49.726 112.813,49.726 112.813,46.626 112.013,46.626 112.013,45.626 98.013,45.626 98.013,46.626 97.213,46.626 97.213,49.726 98.013,49.726 98.013,55.526 97.213,55.526 97.213,58.626 98.013,58.626 98.013,59.626 112.013,59.626 112.013,58.626 112.813,58.626 112.813,55.526 112.013,55.526 "
         transform="translate(9.9815862,21.790329)" />
      <polygon
         id="polygon74"
         style="fill:none;stroke:#ff0000;stroke-width:0.05;stroke-miterlimit:4;stroke-dasharray:none"
         points="92.963,49.726 93.763,49.726 93.763,46.626 92.963,46.626 92.963,45.626 78.963,45.626 78.963,46.626 78.163,46.626 78.163,49.726 78.963,49.726 78.963,55.526 78.163,55.526 78.163,58.626 78.963,58.626 78.963,59.626 92.963,59.626 92.963,58.626 93.763,58.626 93.763,55.526 92.963,55.526 "
         transform="translate(9.9815862,21.790329)" />
      <polygon
         id="polygon76"
         style="fill:none;stroke:#ff0000;stroke-width:0.05;stroke-miterlimit:4;stroke-dasharray:none"
         points="73.913,49.726 74.713,49.726 74.713,46.626 73.913,46.626 73.913,45.626 59.913,45.626 59.913,46.626 59.113,46.626 59.113,49.726 59.913,49.726 59.913,55.526 59.113,55.526 59.113,58.626 59.913,58.626 59.913,59.626 73.913,59.626 73.913,58.626 74.713,58.626 74.713,55.526 73.913,55.526 "
         transform="translate(9.9815862,21.790329)" />
      <polygon
         id="polygon78"
         style="fill:none;stroke:#ff0000;stroke-width:0.05;stroke-miterlimit:4;stroke-dasharray:none"
         points="47.719,49.726 48.519,49.726 48.519,46.626 47.719,46.626 47.719,45.626 33.719,45.626 33.719,46.626 32.919,46.626 32.919,49.726 33.719,49.726 33.719,55.526 32.919,55.526 32.919,58.626 33.719,58.626 33.719,59.626 47.719,59.626 47.719,58.626 48.519,58.626 48.519,55.526 47.719,55.526 "
         transform="translate(9.9815862,21.790329)" />
      <polygon
         id="polygon80"
         style="fill:none;stroke:#ff0000;stroke-width:0.05;stroke-miterlimit:4;stroke-dasharray:none"
         points="21.526,49.726 22.326,49.726 22.326,46.626 21.526,46.626 21.526,45.626 7.526,45.626 7.526,46.626 6.726,46.626 6.726,49.726 7.526,49.726 7.526,55.526 6.726,55.526 6.726,58.626 7.526,58.626 7.526,59.626 21.526,59.626 21.526,58.626 22.326,58.626 22.326,55.526 21.526,55.526 "
         transform="translate(9.9815862,21.790329)" />
      <polygon
         id="polygon98"
         style="fill:none;stroke:#ff0000;stroke-width:0.05;stroke-miterlimit:4;stroke-dasharray:none"
         points="145.351,30.676 146.151,30.676 146.151,27.576 145.351,27.576 145.351,26.576 131.351,26.576 131.351,27.576 130.55,27.576 130.55,30.676 131.351,30.676 131.351,36.476 130.55,36.476 130.55,39.576 131.351,39.576 131.351,40.576 145.351,40.576 145.351,39.576 146.151,39.576 146.151,36.476 145.351,36.476 "
         transform="translate(9.9815862,21.790329)" />
      <polygon
         id="polygon100"
         style="fill:none;stroke:#ff0000;stroke-width:0.05;stroke-miterlimit:4;stroke-dasharray:none"
         points="126.301,30.676 127.101,30.676 127.101,27.576 126.301,27.576 126.301,26.576 112.301,26.576 112.301,27.576 111.501,27.576 111.501,30.676 112.301,30.676 112.301,36.476 111.501,36.476 111.501,39.576 112.301,39.576 112.301,40.576 126.301,40.576 126.301,39.576 127.101,39.576 127.101,36.476 126.301,36.476 "
         transform="translate(9.9815862,21.790329)" />
      <polygon
         id="polygon102"
         style="fill:none;stroke:#ff0000;stroke-width:0.05;stroke-miterlimit:4;stroke-dasharray:none"
         points="107.251,30.676 108.051,30.676 108.051,27.576 107.251,27.576 107.251,26.576 93.251,26.576 93.251,27.576 92.451,27.576 92.451,30.676 93.251,30.676 93.251,36.476 92.451,36.476 92.451,39.576 93.251,39.576 93.251,40.576 107.251,40.576 107.251,39.576 108.051,39.576 108.051,36.476 107.251,36.476 "
         transform="translate(9.9815862,21.790329)" />
      <polygon
         id="polygon104"
         style="fill:none;stroke:#ff0000;stroke-width:0.05;stroke-miterlimit:4;stroke-dasharray:none"
         points="88.201,30.676 89.001,30.676 89.001,27.576 88.201,27.576 88.201,26.576 74.201,26.576 74.201,27.576 73.401,27.576 73.401,30.676 74.201,30.676 74.201,36.476 73.401,36.476 73.401,39.576 74.201,39.576 74.201,40.576 88.201,40.576 88.201,39.576 89.001,39.576 89.001,36.476 88.201,36.476 "
         transform="translate(9.9815862,21.790329)" />
      <polygon
         id="polygon106"
         style="fill:none;stroke:#ff0000;stroke-width:0.05;stroke-miterlimit:4;stroke-dasharray:none"
         points="69.151,30.676 69.951,30.676 69.951,27.576 69.151,27.576 69.151,26.576 55.151,26.576 55.151,27.576 54.351,27.576 54.351,30.676 55.151,30.676 55.151,36.476 54.351,36.476 54.351,39.576 55.151,39.576 55.151,40.576 69.151,40.576 69.151,39.576 69.951,39.576 69.951,36.476 69.151,36.476 "
         transform="translate(9.9815862,21.790329)" />
      <polygon
         id="polygon108"
         style="fill:none;stroke:#ff0000;stroke-width:0.05;stroke-miterlimit:4;stroke-dasharray:none"
         points="45.338,30.676 46.138,30.676 46.138,27.576 45.338,27.576 45.338,26.576 31.338,26.576 31.338,27.576 30.538,27.576 30.538,30.676 31.338,30.676 31.338,36.476 30.538,36.476 30.538,39.576 31.338,39.576 31.338,40.576 45.338,40.576 45.338,39.576 46.138,39.576 46.138,36.476 45.338,36.476 "
         transform="translate(9.9815862,21.790329)" />
      <polygon
         id="polygon110"
         style="fill:none;stroke:#ff0000;stroke-width:0.05;stroke-miterlimit:4;stroke-dasharray:none"
         points="21.526,30.676 22.326,30.676 22.326,27.576 21.526,27.576 21.526,26.576 7.526,26.576 7.526,27.576 6.726,27.576 6.726,30.676 7.526,30.676 7.526,36.476 6.726,36.476 6.726,39.576 7.526,39.576 7.526,40.576 21.526,40.576 21.526,39.576 22.326,39.576 22.326,36.476 21.526,36.476 "
         transform="translate(9.9815862,21.790329)" />
      <polygon
         id="polygon126"
         style="fill:none;stroke:#ff0000;stroke-width:0.05;stroke-miterlimit:4;stroke-dasharray:none"
         points="155.676,8.526 154.876,8.526 154.876,7.526 140.876,7.526 140.876,8.526 140.076,8.526 140.076,11.626 140.876,11.626 140.876,17.426 140.076,17.426 140.076,20.526 140.876,20.526 140.876,21.526 154.876,21.526 154.876,20.526 155.676,20.526 155.676,17.426 154.876,17.426 154.876,11.626 155.676,11.626 "
         transform="translate(9.9815862,21.790329)" />
      <polygon
         id="polygon128"
         style="fill:none;stroke:#ff0000;stroke-width:0.05;stroke-miterlimit:4;stroke-dasharray:none"
         points="135.826,11.626 136.626,11.626 136.626,8.526 135.826,8.526 135.826,7.526 121.825,7.526 121.825,8.526 121.025,8.526 121.025,11.626 121.825,11.626 121.825,17.426 121.025,17.426 121.025,20.526 121.825,20.526 121.825,21.526 135.826,21.526 135.826,20.526 136.626,20.526 136.626,17.426 135.826,17.426 "
         transform="translate(9.9815862,21.790329)" />
      <polygon
         id="polygon130"
         style="fill:none;stroke:#ff0000;stroke-width:0.05;stroke-miterlimit:4;stroke-dasharray:none"
         points="116.775,11.626 117.575,11.626 117.575,8.526 116.775,8.526 116.775,7.526 102.775,7.526 102.775,8.526 101.976,8.526 101.976,11.626 102.775,11.626 102.775,17.426 101.976,17.426 101.976,20.526 102.775,20.526 102.775,21.526 116.775,21.526 116.775,20.526 117.575,20.526 117.575,17.426 116.775,17.426 "
         transform="translate(9.9815862,21.790329)" />
      <polygon
         id="polygon132"
         style="fill:none;stroke:#ff0000;stroke-width:0.05;stroke-miterlimit:4;stroke-dasharray:none"
         points="97.726,11.626 98.525,11.626 98.525,8.526 97.726,8.526 97.726,7.526 83.726,7.526 83.726,8.526 82.926,8.526 82.926,11.626 83.726,11.626 83.726,17.426 82.926,17.426 82.926,20.526 83.726,20.526 83.726,21.526 97.726,21.526 97.726,20.526 98.525,20.526 98.525,17.426 97.726,17.426 "
         transform="translate(9.9815862,21.790329)" />
      <polygon
         id="polygon134"
         style="fill:none;stroke:#ff0000;stroke-width:0.05;stroke-miterlimit:4;stroke-dasharray:none"
         points="78.676,11.626 79.476,11.626 79.476,8.526 78.676,8.526 78.676,7.526 64.676,7.526 64.676,8.526 63.876,8.526 63.876,11.626 64.676,11.626 64.676,17.426 63.876,17.426 63.876,20.526 64.676,20.526 64.676,21.526 78.676,21.526 78.676,20.526 79.476,20.526 79.476,17.426 78.676,17.426 "
         transform="translate(9.9815862,21.790329)" />
      <polygon
         id="polygon136"
         style="fill:none;stroke:#ff0000;stroke-width:0.05;stroke-miterlimit:4;stroke-dasharray:none"
         points="59.626,11.626 60.426,11.626 60.426,8.526 59.626,8.526 59.626,7.526 45.626,7.526 45.626,8.526 44.826,8.526 44.826,11.626 45.626,11.626 45.626,17.426 44.826,17.426 44.826,20.526 45.626,20.526 45.626,21.526 59.626,21.526 59.626,20.526 60.426,20.526 60.426,17.426 59.626,17.426 "
         transform="translate(9.9815862,21.790329)" />
      <polygon
         id="polygon138"
         style="fill:none;stroke:#ff0000;stroke-width:0.05;stroke-miterlimit:4;stroke-dasharray:none"
         points="40.576,11.626 41.376,11.626 41.376,8.526 40.576,8.526 40.576,7.526 26.576,7.526 26.576,8.526 25.776,8.526 25.776,11.626 26.576,11.626 26.576,17.426 25.776,17.426 25.776,20.526 26.576,20.526 26.576,21.526 40.576,21.526 40.576,20.526 41.376,20.526 41.376,17.426 40.576,17.426 "
         transform="translate(9.9815862,21.790329)" />
      <polygon
         id="polygon140"
         style="fill:none;stroke:#ff0000;stroke-width:0.05;stroke-miterlimit:4;stroke-dasharray:none"
         points="21.526,11.626 22.326,11.626 22.326,8.526 21.526,8.526 21.526,7.526 7.526,7.526 7.526,8.526 6.726,8.526 6.726,11.626 7.526,11.626 7.526,17.426 6.726,17.426 6.726,20.526 7.526,20.526 7.526,21.526 21.526,21.526 21.526,20.526 22.326,20.526 22.326,17.426 21.526,17.426 "
         transform="translate(9.9815862,21.790329)" />
      <polygon
         id="polygon6"
         style="fill:none;stroke:#ff0000;stroke-width:0.05;stroke-miterlimit:4;stroke-dasharray:none"
         points="125.788,93.626 125.788,96.726 126.588,96.726 126.588,97.726 140.588,97.726 140.588,96.726 141.388,96.726 141.388,93.626 140.588,93.626 140.588,93.025 142.113,93.025 142.113,97.495 143.838,97.495 143.838,98.476 147.138,98.476 147.138,97.495 148.863,97.495 148.863,91.226 149.688,91.226 149.688,88.426 148.863,88.426 148.863,85.196 147.138,85.196 147.138,84.275 143.838,84.275 143.838,85.196 142.113,85.196 142.113,88.426 140.588,88.426 140.588,87.825 141.388,87.825 141.388,84.726 140.588,84.726 140.588,83.726 126.588,83.726 126.588,84.726 125.788,84.726 125.788,87.825 126.588,87.825 126.588,88.426 125.063,88.426 125.063,85.196 123.338,85.196 123.338,84.275 120.038,84.275 120.038,85.196 118.313,85.196 118.313,88.426 117.488,88.426 117.488,91.226 118.313,91.226 118.313,97.495 120.038,97.495 120.038,98.476 123.338,98.476 123.338,97.495 125.063,97.495 125.063,93.025 126.588,93.025 126.588,93.626 "
         transform="matrix(1,0,0,-1,9.9846053,203.23916)" />
    </g>
    <path
       id="path3486"
       style="display:inline;fill:none;stroke:#ff0000;stroke-width:0.05;stroke-miterlimit:4;stroke-dasharray:none;stroke-opacity:1"
       d="m 149.79588,45.209256 -0.029,0.294 -0.085,0.28 -0.138,0.2582 -0.187,0.2284 -0.229,0.1873 -0.258,0.1379 -0.28,0.0851 -0.294,0.0291 -0.294,-0.0291 -0.28,-0.0851 -0.258,-0.1379 -0.229,-0.1873 -0.187,-0.2284 -0.138,-0.2582 -0.085,-0.28 -0.029,-0.294 0.029,-0.2941 0.085,-0.28 0.138,-0.2582 0.187,-0.2284 0.229,-0.1873 0.258,-0.1379 0.28,-0.0851 0.294,-0.029 0.294,0.029 0.28,0.0851 0.258,0.1379 0.229,0.1873 0.187,0.2284 0.138,0.2582 0.085,0.28 0.029,0.2941"
       inkscape:connector-curvature="0" />
    <path
       id="path3488"
       style="display:inline;fill:none;stroke:#ff0000;stroke-width:0.05;stroke-miterlimit:4;stroke-dasharray:none;stroke-opacity:1"
       d="m 37.919152,55.36032 -0.0291,0.294 -0.0851,0.28 -0.1378,0.2582 -0.1873,0.2285 -0.2285,0.1873 -0.2581,0.1378 -0.2801,0.0851 -0.294,0.0291 -0.294,-0.0291 -0.28,-0.0851 -0.2582,-0.1378 -0.2284,-0.1873 -0.1874,-0.2285 -0.1378,-0.2582 -0.0851,-0.28 -0.0291,-0.294 0.0291,-0.294 0.0851,-0.28 0.1378,-0.2582 0.1874,-0.2285 0.2284,-0.1873 0.2582,-0.1378 0.28,-0.0851 0.294,-0.0291 0.294,0.0291 0.2801,0.0851 0.2581,0.1378 0.2285,0.1873 0.1873,0.2285 0.1378,0.2582 0.0851,0.28 0.0291,0.294"
       inkscape:connector-curvature="0" />
    <path
       id="path3490"
       style="display:inline;fill:none;stroke:#ff0000;stroke-width:0.05;stroke-miterlimit:4;stroke-dasharray:none;stroke-opacity:1"
       d="m 36.6343,102.989 -0.0291,0.294 -0.0851,0.28 -0.1379,0.258 -0.1873,0.228 -0.2284,0.188 -0.2582,0.137 -0.28,0.086 -0.294,0.029 -0.294,-0.029 -0.2801,-0.086 -0.2581,-0.137 -0.2285,-0.188 -0.1873,-0.228 -0.1379,-0.258 -0.0851,-0.28 -0.029,-0.294 0.029,-0.294 0.0851,-0.28 0.1379,-0.259 0.1873,-0.228 0.2285,-0.187 0.2581,-0.138 0.2801,-0.085 0.294,-0.029 0.294,0.029 0.28,0.085 0.2582,0.138 0.2284,0.187 0.1873,0.228 0.1379,0.259 0.0851,0.28 0.0291,0.294"
       inkscape:connector-curvature="0" />
    <path
       id="path3492"
       style="display:inline;fill:none;stroke:#ff0000;stroke-width:0.05;stroke-miterlimit:4;stroke-dasharray:none;stroke-opacity:1"
       d="m 87.898842,65.535895 -0.029,0.294 -0.085,0.28 -0.138,0.2582 -0.187,0.2285 -0.227997,0.1873 -0.259,0.1378 -0.28,0.0851 -0.294,0.0291 -0.294,-0.0291 -0.28,-0.0851 -0.258,-0.1378 -0.228,-0.1873 -0.188,-0.2285 -0.137,-0.2582 -0.086,-0.28 -0.029,-0.294 0.029,-0.294 0.086,-0.28 0.137,-0.2582 0.188,-0.2285 0.228,-0.1873 0.258,-0.1378 0.28,-0.0851 0.294,-0.0291 0.294,0.0291 0.28,0.0851 0.259,0.1378 0.227997,0.1873 0.187,0.2285 0.138,0.2582 0.085,0.28 0.029,0.294"
       inkscape:connector-curvature="0" />
    <path
       id="path3494"
       style="display:inline;fill:none;stroke:#ff0000;stroke-width:0.05;stroke-miterlimit:4;stroke-dasharray:none;stroke-opacity:1"
       d="m 105.75798,104.25744 -0.029,0.294 -0.085,0.28 -0.138,0.258 -0.187,0.229 -0.229,0.187 -0.258,0.138 -0.28,0.085 -0.294,0.029 -0.29399,-0.029 -0.28,-0.085 -0.258,-0.138 -0.229,-0.187 -0.187,-0.229 -0.138,-0.258 -0.085,-0.28 -0.029,-0.294 0.029,-0.294 0.085,-0.28 0.138,-0.258 0.187,-0.229 0.229,-0.187 0.258,-0.138 0.28,-0.085 0.29399,-0.029 0.294,0.029 0.28,0.085 0.258,0.138 0.229,0.187 0.187,0.229 0.138,0.258 0.085,0.28 0.029,0.294"
       inkscape:connector-curvature="0" />
    <path
       d="m 96.13026,8.1231232 0.008,0.15337 0.023,0.1489397 0.087,0.28156 0.138,0.2548007 0.183,0.22199 0.222,0.18317 0.255,0.1382797 0.282,0.0874 0.149,0.0227 0.153,0.0078 0.153,-0.0078 0.149,-0.0227 0.282,-0.0874 0.255,-0.1382797 0.222,-0.18317 0.183,-0.22199 0.138,-0.2548007 0.088,-0.28156 0.022,-0.1489397 0.008,-0.15337 -0.029,-0.2939999 -0.085,-0.28002 -0.138,-0.25818 -0.187,-0.22846 -0.229,-0.18732 -0.258,-0.13784 -0.28,-0.08509 -0.294,-0.02909 -0.294,0.02909 -0.28,0.08509 -0.258,0.13784 -0.229,0.18732 -0.187,0.22846 -0.138,0.25818 -0.085,0.28002 -0.029,0.2939999"
       style="display:inline;fill:none;stroke:#ff0000;stroke-width:0.05;stroke-miterlimit:4;stroke-dasharray:none;stroke-opacity:1"
       id="path3496"
       inkscape:connector-curvature="0" />
    <path
       d="m 18.60711,8.1231232 0.008,0.15337 0.023,0.1489397 0.087,0.28156 0.139,0.2548007 0.183,0.22199 0.222,0.18317 0.255,0.1382797 0.281,0.0874 0.149,0.0227 0.153,0.0078 0.154,-0.0078 0.149,-0.0227 0.281,-0.0874 0.255,-0.1382797 0.222,-0.18317 0.183,-0.22199 0.139,-0.2548007 0.087,-0.28156 0.023,-0.1489397 0.007,-0.15337 -0.029,-0.2939999 -0.085,-0.28002 -0.138,-0.25818 -0.187,-0.22846 -0.228,-0.18732 -0.259,-0.13784 -0.28,-0.08509 -0.294,-0.02909 -0.294,0.02909 -0.28,0.08509 -0.258,0.13784 -0.228,0.18732 -0.188,0.22846 -0.137,0.25818 -0.085,0.28002 -0.03,0.2939999"
       style="display:inline;fill:none;stroke:#ff0000;stroke-width:0.05;stroke-miterlimit:4;stroke-dasharray:none;stroke-opacity:1"
       id="path3498"
       inkscape:connector-curvature="0" />
    <path
       d="m 153.26935,102.94473 -0.029,0.294 -0.085,0.28 -0.138,0.258 -0.187,0.229 -0.229,0.187 -0.258,0.138 -0.28,0.085 -0.294,0.029 -0.294,-0.029 -0.28,-0.085 -0.258,-0.138 -0.229,-0.187 -0.187,-0.229 -0.138,-0.258 -0.085,-0.28 -0.029,-0.294 0.029,-0.294 0.085,-0.28 0.138,-0.258 0.187,-0.229 0.229,-0.187 0.258,-0.138 0.28,-0.085 0.294,-0.029 0.294,0.029 0.28,0.085 0.258,0.138 0.229,0.187 0.187,0.229 0.138,0.258 0.085,0.28 0.029,0.294"
       style="display:inline;fill:none;stroke:#ff0000;stroke-width:0.05;stroke-miterlimit:4;stroke-dasharray:none;stroke-opacity:1"
       id="path2068"
       inkscape:connector-curvature="0" />
  </g>
  <g
     sodipodi:insensitive="true"
     style="display:inline;opacity:1"
     inkscape:label="SandwichCase"
     id="g1975"
     inkscape:groupmode="layer">
    <g
       style="fill:#666666;stroke:none"
       id="g3955">
      <path
         sodipodi:nodetypes="cccccccccccccccccccccccccccccccccccccccccccccccccccccccccccccccccccccccccccccccccccccccccccccccccccccccccccccccccccccccccccccccccccccccccccccccccccccccccccccccccccccccccccccccccccccccccccccccccccccccccccccc"
         id="path3341"
         style="display:inline;fill:#666666;stroke:none;stroke-width:0.188976;stroke-miterlimit:4;stroke-dasharray:none"
         d="m 1203.8203,11.677734 -316.61327,0.02539 -0.88867,0.121094 -0.86524,0.201172 -0.84374,0.28125 -0.8086,0.357421 -0.77148,0.431641 -0.73242,0.503906 -0.67969,0.572266 -0.63281,0.638672 -70.5586,86.451174 H 639.25 l -1.08789,0.20117 -1.00586,0.39063 -0.90234,0.56054 -0.78711,0.71094 -0.64258,0.8418 -0.48633,0.95312 -0.30664,1.04492 -0.10547,1.11719 v 0.0117 5.86133 h -0.0156 l -0.004,61.0918 -28.40039,0.11132 -3.61328,0.008 -0.29102,0.0117 -0.69922,0.0781 -0.64843,0.19726 -0.59766,0.30469 -0.5293,0.40235 -0.44922,0.48632 -0.36328,0.56055 -0.26172,0.62305 -0.14648,0.67578 v 64.16406 l 0.0977,0.70117 0.21875,0.65235 0.32617,0.59375 0.42383,0.52148 0.50976,0.43945 0.58203,0.34376 0.64258,0.23828 0.69531,0.12109 14.50586,-0.0312 v 69.47266 l 0.16602,0.51757 0.23437,0.48438 0.29493,0.44141 0.35546,0.39453 0.4043,0.34179 0.45313,0.28321 0.49218,0.21875 0.52539,0.14648 33.07422,0.12891 v 72.22851 l -32.97851,-0.0352 -0.60352,0.18164 -0.55273,0.27539 -0.49414,0.35547 -0.43555,0.43164 -0.35547,0.49414 -0.27539,0.55273 -0.18945,0.60156 -0.0859,0.63868 0.0332,62.61914 0.21875,1.06445 0.40039,0.99023 0.56836,0.89258 0.70899,0.77539 0.83593,0.63477 0.94532,0.48047 1.03125,0.30078 1.10351,0.10742 h 0.26953 582.32426 l 1.0996,-0.16406 1.0234,-0.35547 0.9277,-0.52539 0.8086,-0.68359 0.6719,-0.81641 0.5137,-0.93359 0.3437,-1.02735 0.1485,-1.10351 V 111.99414 l 0.012,-88.580078 h -0.039 v -5.867187 l -0.029,-0.597656 -0.088,-0.582031 -0.1425,-0.5625 -0.1973,-0.53711 -0.5371,-0.992187 -0.7129,-0.865235 -0.8672,-0.71289 -0.9922,-0.539063 -0.5371,-0.197265 -0.5644,-0.144532 -0.5821,-0.08984 -0.5957,-0.03125 v -0.002 h -0.012 z m -5.7305,6 0.209,0.01563 h 0.012 v 0.002 l 0.5957,0.03125 0.5821,0.08984 0.5644,0.144532 0.5371,0.197265 0.9922,0.539063 0.8672,0.71289 0.7129,0.865235 0.5371,0.992187 0.1973,0.53711 0.1426,0.5625 0.088,0.582031 0.029,0.597656 v 5.867187 h 0.039 l -0.012,82.58008 v 336.31055 l -0.1484,1.10351 -0.3438,1.0293 -0.5137,0.93359 -0.6718,0.81641 -0.8086,0.68359 -0.9278,0.52539 -1.0234,0.35547 -1.0996,0.16211 H 628.05273 627.7832 l -1.10351,-0.10547 -1.03125,-0.30273 -0.94532,-0.48047 -0.83593,-0.63477 -0.70899,-0.77539 -0.56836,-0.89062 -0.40039,-0.99023 -0.21875,-1.06641 -0.0332,-49.93555 0.0859,-0.63867 0.18945,-0.60156 0.27539,-0.55078 0.35547,-0.4961 0.43555,-0.43164 0.49414,-0.35351 0.55273,-0.27735 0.60352,-0.18164 32.97851,0.0352 v -83.55664 l -33.07422,-0.12891 -0.52539,-0.14648 -0.49218,-0.21875 -0.45313,-0.28321 -0.4043,-0.34179 -0.35546,-0.39453 -0.29493,-0.44141 -0.23437,-0.48438 -0.16602,-0.51757 V 239.25 l -14.50586,0.0312 -0.69531,-0.12109 -0.64258,-0.23828 -0.58203,-0.34376 -0.50976,-0.43945 -0.42383,-0.52148 -0.32617,-0.59375 -0.21875,-0.65235 -0.0977,-0.70117 v -52.16406 l 0.14648,-0.67578 0.26172,-0.62305 0.36328,-0.56055 0.44922,-0.48632 0.5293,-0.40235 0.59766,-0.30469 0.64843,-0.19726 0.69922,-0.0781 0.29102,-0.0117 3.61328,-0.008 28.40039,-0.11132 0.004,-59.28516 h 0.0156 v -5.86133 -0.0117 l 0.10547,-1.11719 0.30664,-1.04492 0.48633,-0.95312 0.64258,-0.8418 0.78711,-0.71094 0.90234,-0.56054 1.00586,-0.39063 1.08789,-0.20117 h 171.17578 l 70.5586,-88.257813 0.63281,-0.638672 0.67969,-0.572266 0.73242,-0.503906 0.77148,-0.431641 0.8086,-0.357421 0.84374,-0.28125 0.86524,-0.201172 0.88867,-0.121094 z"
         transform="scale(0.26458333)"
         inkscape:connector-curvature="0" />
      <path
         sodipodi:nodetypes="cccccccccccccccccccccccccccccccccccccccccccccccccccccccccccccccccccccccccccccccccccccccccccccccccccccccccccccccccccccccccccccccccccccccccccccccccccccccccccccccccccccccccccccccccccccccccccccccccccccccccccccccccccccccc"
         id="path3417"
         style="display:inline;fill:#666666;stroke:none;stroke-width:0.188976;stroke-miterlimit:4;stroke-dasharray:none"
         d="m 379.42773,11.673828 v 0.002 l -317.234371,0.02148 -0.585937,0.04492 -0.56836,0.09961 -1.072265,0.353515 L 59,12.738281 l -0.84375,0.710938 -0.693359,0.855469 -0.525391,0.978515 -0.332031,1.082031 -0.08789,0.572266 -0.03125,0.587891 v 0.01563 0.0078 l 0.0625,83.671869 v 354.46094 l 0.16211,1.10742 0.359374,1.02539 0.53125,0.92969 0.6875,0.80859 0.822266,0.67188 0.939453,0.51562 1.035157,0.33985 1.111328,0.13867 H 608.40039 l 0.34375,0.008 h 0.0117 l 0.59375,-0.0293 0.58203,-0.0879 0.55859,-0.14258 0.53321,-0.19727 0.99023,-0.53711 0.86524,-0.70898 0.71093,-0.86719 0.54102,-0.99023 0.19531,-0.53125 0.14844,-0.56055 0.0898,-0.57813 0.0352,-0.59765 v -66.22266 l 33.05664,-0.004 0.5625,-0.17969 0.51758,-0.26172 0.46875,-0.33203 0.41211,-0.40039 0.34375,-0.45508 0.27734,-0.50977 0.19922,-0.55078 0.11328,-0.58984 V 322.3125 l -0.004,-0.15039 v -0.008 l -0.0703,-0.74219 -0.21289,-0.69141 -0.33203,-0.6289 -0.44336,-0.55078 -0.53125,-0.4629 -0.61719,-0.35937 -0.67968,-0.24219 -0.73047,-0.11523 -32.37891,-0.004 v -68.66406 l -0.0781,-0.66602 -0.18946,-0.625 -0.2832,-0.57422 -0.375,-0.51367 -0.45312,-0.44336 -0.52149,-0.36328 -0.58203,-0.27148 -0.63477,-0.17383 -14.88476,-0.13281 v -72.48828 l 32.51953,-0.0918 0.68359,-0.11914 0.63086,-0.23047 0.57617,-0.33594 0.50196,-0.42578 0.42383,-0.50781 0.32812,-0.57617 0.22656,-0.63672 0.10938,-0.6836 v -56.88867 l -0.0176,-4 v -1.87304 l -0.0352,-0.59961 -0.0859,-0.58008 -0.14844,-0.5625 -0.19531,-0.53711 -0.53711,-0.99219 -0.71485,-0.86523 -0.86523,-0.71289 -0.99024,-0.53711 -0.54101,-0.19727 -0.55859,-0.14453 -0.58204,-0.0879 -0.60156,-0.0312 h -1.86719 l -168.77148,-0.004 -70.67578,-86.50195 -0.60547,-0.609375 -0.65039,-0.548828 -0.69922,-0.484375 -0.73633,-0.421875 -0.77148,-0.351563 -0.79688,-0.283203 -0.82812,-0.210937 z m -6,6 0.84571,0.134766 0.82812,0.210937 0.79688,0.283203 0.77148,0.351563 0.73633,0.421875 0.69922,0.484375 0.65039,0.548828 0.60547,0.609375 70.67578,86.50195 169.16016,0.004 h 1.86718 l 0.59961,0.0312 0.58203,0.0879 0.56055,0.14453 0.53906,0.19727 0.99024,0.53711 0.86718,0.71289 0.7129,0.86523 0.5371,0.99219 0.19727,0.53711 0.14649,0.5625 0.0879,0.58008 0.0332,0.59961 v 1.87304 l 0.0195,4 v 44.11328 l -0.10938,0.6836 -0.22851,0.63672 -0.32813,0.57617 -0.42382,0.50781 -0.50196,0.42578 -0.57422,0.33594 -0.63086,0.23047 -0.68554,0.11914 -32.64649,0.0918 v 85.26367 l 14.88282,0.13281 0.63476,0.17383 0.58203,0.27148 0.52149,0.36328 0.45312,0.44336 0.375,0.51367 0.28321,0.57422 0.18945,0.625 0.0801,0.66602 v 68.66406 l 32.50781,0.004 0.72852,0.11523 0.68164,0.24219 0.61523,0.35937 0.5332,0.4629 0.44141,0.55078 0.33398,0.6289 0.21094,0.69141 0.0723,0.74219 v 0.008 l 0.004,0.15039 v 51.32031 l -0.11328,0.58985 -0.20117,0.55273 -0.27539,0.50977 -0.34375,0.45312 -0.41211,0.40039 -0.46875,0.33399 -0.51758,0.25976 -0.56445,0.18164 -33.44336,0.004 v 66.48047 l -0.0352,0.59765 -0.0898,0.57813 -0.14844,0.56055 -0.19531,0.53125 -0.54102,0.99023 -0.71093,0.86719 -0.86524,0.70898 -0.99023,0.53711 -0.53321,0.19727 -0.55859,0.14258 -0.58203,0.0879 -0.59375,0.0293 h -0.0117 l -0.34375,-0.008 H 68.197266 l -1.111328,-0.13867 -1.035157,-0.33985 -0.939453,-0.51562 -0.822266,-0.67188 -0.6875,-0.80859 -0.53125,-0.92969 -0.359374,-1.02539 -0.16211,-1.10742 V 101.2207 l -0.0625,-77.671872 v -0.0078 -0.01563 L 62.517578,22.9375 62.605469,22.365234 62.9375,21.283203 63.462891,20.304688 64.15625,19.449219 65,18.738281 l 0.966797,-0.542969 1.072265,-0.353515 0.56836,-0.09961 0.585937,-0.04492 305.234371,-0.02148 z"
         transform="scale(0.26458333)"
         inkscape:connector-curvature="0" />
    </g>
  </g>
  <g
     inkscape:label="Components"
     id="layer3"
     inkscape:groupmode="layer"
     style="display:inline"
     sodipodi:insensitive="true">
    <path
       id="path6318"
       style="opacity:0.69495102;fill:#000000;fill-opacity:0.93809497;stroke:none;stroke-width:0.1"
       d="m 14.928309,23.841799 c 0,0.02291 0.01893,0.04134 0.04186,0.04134 h 2.426726 v 4.959387 c 0,0.05382 0.04333,0.09715 0.09715,0.09715 h 29.978014 c 0.05382,0 0.09715,-0.04333 0.09715,-0.09715 V 11.418782 c 0,-0.05382 -0.04333,-0.09715 -0.09715,-0.09715 H 17.494044 c -0.05382,0 -0.09715,0.04333 -0.09715,0.09715 v 4.959388 h -2.426725 c -0.02292,0 -0.04186,0.01841 -0.04186,0.04134 z m 2.66082,3.847308 a 1.0403794,1.0403792 0 0 1 0,-0.0016 1.0403794,1.0403792 0 0 1 1.040246,-1.040762 1.0403794,1.0403792 0 0 1 1.040247,1.040775 1.0403794,1.0403792 0 0 1 -1.040247,1.040246 1.0403794,1.0403792 0 0 1 -1.040246,-1.038696 z m 0,-15.063678 a 1.0403794,1.0403792 0 0 1 0,-0.0021 1.0403794,1.0403792 0 0 1 1.040246,-1.040247 1.0403794,1.0403792 0 0 1 1.040247,1.040247 1.0403794,1.0403792 0 0 1 -1.040247,1.040762 1.0403794,1.0403792 0 0 1 -1.040246,-1.038696 z m 2.517676,15.062646 a 1.0403794,1.0403792 0 0 1 0,-0.0021 1.0403794,1.0403792 0 0 1 1.040246,-1.040247 1.0403794,1.0403792 0 0 1 1.040763,1.040247 1.0403794,1.0403792 0 0 1 -1.040763,1.040246 1.0403794,1.0403792 0 0 1 -1.040246,-1.038177 z m 0,-15.064197 a 1.0403794,1.0403792 0 0 1 0,-0.0016 1.0403794,1.0403792 0 0 1 1.040246,-1.040247 1.0403794,1.0403792 0 0 1 1.040763,1.040247 1.0403794,1.0403792 0 0 1 -1.040763,1.040246 1.0403794,1.0403792 0 0 1 -1.040246,-1.038696 z m 2.520776,15.064197 a 1.0403794,1.0403792 0 0 1 0,-0.0021 1.0403794,1.0403792 0 0 1 1.040246,-1.040247 1.0403794,1.0403792 0 0 1 1.040247,1.040247 1.0403794,1.0403792 0 0 1 -1.040247,1.040246 1.0403794,1.0403792 0 0 1 -1.040246,-1.038177 z m 0,-15.064197 a 1.0403794,1.0403792 0 0 1 0,-0.0016 1.0403794,1.0403792 0 0 1 1.040246,-1.040247 1.0403794,1.0403792 0 0 1 1.040247,1.040247 1.0403794,1.0403792 0 0 1 -1.040247,1.040246 1.0403794,1.0403792 0 0 1 -1.040246,-1.038696 z m 2.520259,15.064197 a 1.0403794,1.0403792 0 0 1 0,-0.0021 1.0403794,1.0403792 0 0 1 1.040247,-1.040247 1.0403794,1.0403792 0 0 1 1.040246,1.040247 1.0403794,1.0403792 0 0 1 -1.040246,1.040246 1.0403794,1.0403792 0 0 1 -1.040247,-1.038177 z m 0,-15.064197 a 1.0403794,1.0403792 0 0 1 0,-0.0016 1.0403794,1.0403792 0 0 1 1.040247,-1.040247 1.0403794,1.0403792 0 0 1 1.040246,1.040247 1.0403794,1.0403792 0 0 1 -1.040246,1.040246 1.0403794,1.0403792 0 0 1 -1.040247,-1.038696 z m 2.52026,15.064197 a 1.0403794,1.0403792 0 0 1 0,-0.0021 1.0403794,1.0403792 0 0 1 1.040763,-1.040247 1.0403794,1.0403792 0 0 1 1.040247,1.040247 1.0403794,1.0403792 0 0 1 -1.040247,1.040246 1.0403794,1.0403792 0 0 1 -1.040763,-1.038177 z m 0,-15.064197 a 1.0403794,1.0403792 0 0 1 0,-0.0016 1.0403794,1.0403792 0 0 1 1.040763,-1.040247 1.0403794,1.0403792 0 0 1 1.040247,1.040247 1.0403794,1.0403792 0 0 1 -1.040247,1.040246 1.0403794,1.0403792 0 0 1 -1.040763,-1.038696 z m 2.520776,15.064197 a 1.0403794,1.0403792 0 0 1 0,-0.0021 1.0403794,1.0403792 0 0 1 1.040247,-1.040247 1.0403794,1.0403792 0 0 1 1.040247,1.040247 1.0403794,1.0403792 0 0 1 -1.040247,1.040246 1.0403794,1.0403792 0 0 1 -1.040247,-1.038177 z m 0,-15.064197 a 1.0403794,1.0403792 0 0 1 0,-0.0016 1.0403794,1.0403792 0 0 1 1.040247,-1.040247 1.0403794,1.0403792 0 0 1 1.040247,1.040247 1.0403794,1.0403792 0 0 1 -1.040247,1.040246 1.0403794,1.0403792 0 0 1 -1.040247,-1.038696 z m 2.52026,15.064197 a 1.0403794,1.0403792 0 0 1 0,-0.0021 1.0403794,1.0403792 0 0 1 1.040247,-1.040247 1.0403794,1.0403792 0 0 1 1.040763,1.040247 1.0403794,1.0403792 0 0 1 -1.040763,1.040246 1.0403794,1.0403792 0 0 1 -1.040247,-1.038177 z m 0,-15.064197 a 1.0403794,1.0403792 0 0 1 0,-0.0016 1.0403794,1.0403792 0 0 1 1.040247,-1.040247 1.0403794,1.0403792 0 0 1 1.040763,1.040247 1.0403794,1.0403792 0 0 1 -1.040763,1.040246 1.0403794,1.0403792 0 0 1 -1.040247,-1.038696 z m 2.520776,15.064197 a 1.0403794,1.0403792 0 0 1 0,-0.0021 1.0403794,1.0403792 0 0 1 1.040247,-1.040247 1.0403794,1.0403792 0 0 1 1.040247,1.040247 1.0403794,1.0403792 0 0 1 -1.040247,1.040246 1.0403794,1.0403792 0 0 1 -1.040247,-1.038177 z m 0,-15.064197 a 1.0403794,1.0403792 0 0 1 0,-0.0016 1.0403794,1.0403792 0 0 1 1.040247,-1.040247 1.0403794,1.0403792 0 0 1 1.040247,1.040247 1.0403794,1.0403792 0 0 1 -1.040247,1.040246 1.0403794,1.0403792 0 0 1 -1.040247,-1.038696 z m 2.520261,15.064197 a 1.0403794,1.0403792 0 0 1 0,-0.0021 1.0403794,1.0403792 0 0 1 1.040246,-1.040247 1.0403794,1.0403792 0 0 1 1.040246,1.040247 1.0403794,1.0403792 0 0 1 -1.040246,1.040246 1.0403794,1.0403792 0 0 1 -1.040246,-1.038177 z m 0,-15.064197 a 1.0403794,1.0403792 0 0 1 0,-0.0016 1.0403794,1.0403792 0 0 1 1.040246,-1.040247 1.0403794,1.0403792 0 0 1 1.040246,1.040247 1.0403794,1.0403792 0 0 1 -1.040246,1.040246 1.0403794,1.0403792 0 0 1 -1.040246,-1.038696 z m 2.520259,15.064197 a 1.0403794,1.0403792 0 0 1 0,-0.0021 1.0403794,1.0403792 0 0 1 1.040762,-1.040247 1.0403794,1.0403792 0 0 1 1.040247,1.040247 1.0403794,1.0403792 0 0 1 -1.040247,1.040246 1.0403794,1.0403792 0 0 1 -1.040762,-1.038177 z m 0,-15.064197 a 1.0403794,1.0403792 0 0 1 0,-0.0016 1.0403794,1.0403792 0 0 1 1.040762,-1.040247 1.0403794,1.0403792 0 0 1 1.040247,1.040247 1.0403794,1.0403792 0 0 1 -1.040247,1.040246 1.0403794,1.0403792 0 0 1 -1.040762,-1.038696 z m 2.520775,15.064197 a 1.0403794,1.0403792 0 0 1 0,-0.0021 1.0403794,1.0403792 0 0 1 1.040247,-1.040247 1.0403794,1.0403792 0 0 1 1.040246,1.040247 1.0403794,1.0403792 0 0 1 -1.040246,1.040246 1.0403794,1.0403792 0 0 1 -1.040247,-1.038177 z m 0,-15.064197 a 1.0403794,1.0403792 0 0 1 0,-0.0016 1.0403794,1.0403792 0 0 1 1.040247,-1.040247 1.0403794,1.0403792 0 0 1 1.040246,1.040247 1.0403794,1.0403792 0 0 1 -1.040246,1.040246 1.0403794,1.0403792 0 0 1 -1.040247,-1.038696 z m 2.52026,15.064197 a 1.0403794,1.0403792 0 0 1 0,-0.0021 1.0403794,1.0403792 0 0 1 1.040246,-1.040247 1.0403794,1.0403792 0 0 1 1.040765,1.040247 1.0403794,1.0403792 0 0 1 -1.040765,1.040246 1.0403794,1.0403792 0 0 1 -1.040246,-1.038177 z m 0,-15.064197 a 1.0403794,1.0403792 0 0 1 0,-0.0016 1.0403794,1.0403792 0 0 1 1.040246,-1.040247 1.0403794,1.0403792 0 0 1 1.040765,1.040247 1.0403794,1.0403792 0 0 1 -1.040765,1.040246 1.0403794,1.0403792 0 0 1 -1.040246,-1.038696 z"
       inkscape:connector-curvature="0" />
    <path
       d="m 320.09013,23.841799 c 0,0.02291 -0.0189,0.04134 -0.0419,0.04134 h -2.42673 v 4.959387 c 0,0.05382 -0.0433,0.09715 -0.0971,0.09715 h -29.97803 c -0.0538,0 -0.0971,-0.04333 -0.0971,-0.09715 V 11.418782 c 0,-0.05382 0.0433,-0.09715 0.0971,-0.09715 h 29.97803 c 0.0538,0 0.0971,0.04333 0.0971,0.09715 v 4.959388 h 2.42673 c 0.0229,0 0.0419,0.01841 0.0419,0.04134 z m -2.66082,3.847308 a 1.0403794,1.0403792 0 0 0 0,-0.0016 1.0403794,1.0403792 0 0 0 -1.04025,-1.040762 1.0403794,1.0403792 0 0 0 -1.04025,1.040775 1.0403794,1.0403792 0 0 0 1.04025,1.040246 1.0403794,1.0403792 0 0 0 1.04025,-1.038696 z m 0,-15.063678 a 1.0403794,1.0403792 0 0 0 0,-0.0021 1.0403794,1.0403792 0 0 0 -1.04025,-1.040247 1.0403794,1.0403792 0 0 0 -1.04025,1.040247 1.0403794,1.0403792 0 0 0 1.04025,1.040762 1.0403794,1.0403792 0 0 0 1.04025,-1.038696 z m -2.51768,15.062646 a 1.0403794,1.0403792 0 0 0 0,-0.0021 1.0403794,1.0403792 0 0 0 -1.04025,-1.040247 1.0403794,1.0403792 0 0 0 -1.04076,1.040247 1.0403794,1.0403792 0 0 0 1.04076,1.040246 1.0403794,1.0403792 0 0 0 1.04025,-1.038177 z m 0,-15.064197 a 1.0403794,1.0403792 0 0 0 0,-0.0016 1.0403794,1.0403792 0 0 0 -1.04025,-1.040247 1.0403794,1.0403792 0 0 0 -1.04076,1.040247 1.0403794,1.0403792 0 0 0 1.04076,1.040246 1.0403794,1.0403792 0 0 0 1.04025,-1.038696 z m -2.52078,15.064197 a 1.0403794,1.0403792 0 0 0 0,-0.0021 1.0403794,1.0403792 0 0 0 -1.04024,-1.040247 1.0403794,1.0403792 0 0 0 -1.04025,1.040247 1.0403794,1.0403792 0 0 0 1.04025,1.040246 1.0403794,1.0403792 0 0 0 1.04024,-1.038177 z m 0,-15.064197 a 1.0403794,1.0403792 0 0 0 0,-0.0016 1.0403794,1.0403792 0 0 0 -1.04024,-1.040247 1.0403794,1.0403792 0 0 0 -1.04025,1.040247 1.0403794,1.0403792 0 0 0 1.04025,1.040246 1.0403794,1.0403792 0 0 0 1.04024,-1.038696 z m -2.52026,15.064197 a 1.0403794,1.0403792 0 0 0 0,-0.0021 1.0403794,1.0403792 0 0 0 -1.04025,-1.040247 1.0403794,1.0403792 0 0 0 -1.04024,1.040247 1.0403794,1.0403792 0 0 0 1.04024,1.040246 1.0403794,1.0403792 0 0 0 1.04025,-1.038177 z m 0,-15.064197 a 1.0403794,1.0403792 0 0 0 0,-0.0016 1.0403794,1.0403792 0 0 0 -1.04025,-1.040247 1.0403794,1.0403792 0 0 0 -1.04024,1.040247 1.0403794,1.0403792 0 0 0 1.04024,1.040246 1.0403794,1.0403792 0 0 0 1.04025,-1.038696 z m -2.52026,15.064197 a 1.0403794,1.0403792 0 0 0 0,-0.0021 1.0403794,1.0403792 0 0 0 -1.04076,-1.040247 1.0403794,1.0403792 0 0 0 -1.04025,1.040247 1.0403794,1.0403792 0 0 0 1.04025,1.040246 1.0403794,1.0403792 0 0 0 1.04076,-1.038177 z m 0,-15.064197 a 1.0403794,1.0403792 0 0 0 0,-0.0016 1.0403794,1.0403792 0 0 0 -1.04076,-1.040247 1.0403794,1.0403792 0 0 0 -1.04025,1.040247 1.0403794,1.0403792 0 0 0 1.04025,1.040246 1.0403794,1.0403792 0 0 0 1.04076,-1.038696 z m -2.52078,15.064197 a 1.0403794,1.0403792 0 0 0 0,-0.0021 1.0403794,1.0403792 0 0 0 -1.04024,-1.040247 1.0403794,1.0403792 0 0 0 -1.04025,1.040247 1.0403794,1.0403792 0 0 0 1.04025,1.040246 1.0403794,1.0403792 0 0 0 1.04024,-1.038177 z m 0,-15.064197 a 1.0403794,1.0403792 0 0 0 0,-0.0016 1.0403794,1.0403792 0 0 0 -1.04024,-1.040247 1.0403794,1.0403792 0 0 0 -1.04025,1.040247 1.0403794,1.0403792 0 0 0 1.04025,1.040246 1.0403794,1.0403792 0 0 0 1.04024,-1.038696 z m -2.52026,15.064197 a 1.0403794,1.0403792 0 0 0 0,-0.0021 1.0403794,1.0403792 0 0 0 -1.04024,-1.040247 1.0403794,1.0403792 0 0 0 -1.04077,1.040247 1.0403794,1.0403792 0 0 0 1.04077,1.040246 1.0403794,1.0403792 0 0 0 1.04024,-1.038177 z m 0,-15.064197 a 1.0403794,1.0403792 0 0 0 0,-0.0016 1.0403794,1.0403792 0 0 0 -1.04024,-1.040247 1.0403794,1.0403792 0 0 0 -1.04077,1.040247 1.0403794,1.0403792 0 0 0 1.04077,1.040246 1.0403794,1.0403792 0 0 0 1.04024,-1.038696 z m -2.52078,15.064197 a 1.0403794,1.0403792 0 0 0 0,-0.0021 1.0403794,1.0403792 0 0 0 -1.04024,-1.040247 1.0403794,1.0403792 0 0 0 -1.04025,1.040247 1.0403794,1.0403792 0 0 0 1.04025,1.040246 1.0403794,1.0403792 0 0 0 1.04024,-1.038177 z m 0,-15.064197 a 1.0403794,1.0403792 0 0 0 0,-0.0016 1.0403794,1.0403792 0 0 0 -1.04024,-1.040247 1.0403794,1.0403792 0 0 0 -1.04025,1.040247 1.0403794,1.0403792 0 0 0 1.04025,1.040246 1.0403794,1.0403792 0 0 0 1.04024,-1.038696 z m -2.52026,15.064197 a 1.0403794,1.0403792 0 0 0 0,-0.0021 1.0403794,1.0403792 0 0 0 -1.04024,-1.040247 1.0403794,1.0403792 0 0 0 -1.04025,1.040247 1.0403794,1.0403792 0 0 0 1.04025,1.040246 1.0403794,1.0403792 0 0 0 1.04024,-1.038177 z m 0,-15.064197 a 1.0403794,1.0403792 0 0 0 0,-0.0016 1.0403794,1.0403792 0 0 0 -1.04024,-1.040247 1.0403794,1.0403792 0 0 0 -1.04025,1.040247 1.0403794,1.0403792 0 0 0 1.04025,1.040246 1.0403794,1.0403792 0 0 0 1.04024,-1.038696 z m -2.52026,15.064197 a 1.0403794,1.0403792 0 0 0 0,-0.0021 1.0403794,1.0403792 0 0 0 -1.04076,-1.040247 1.0403794,1.0403792 0 0 0 -1.04025,1.040247 1.0403794,1.0403792 0 0 0 1.04025,1.040246 1.0403794,1.0403792 0 0 0 1.04076,-1.038177 z m 0,-15.064197 a 1.0403794,1.0403792 0 0 0 0,-0.0016 1.0403794,1.0403792 0 0 0 -1.04076,-1.040247 1.0403794,1.0403792 0 0 0 -1.04025,1.040247 1.0403794,1.0403792 0 0 0 1.04025,1.040246 1.0403794,1.0403792 0 0 0 1.04076,-1.038696 z m -2.52077,15.064197 a 1.0403794,1.0403792 0 0 0 0,-0.0021 1.0403794,1.0403792 0 0 0 -1.04025,-1.040247 1.0403794,1.0403792 0 0 0 -1.04025,1.040247 1.0403794,1.0403792 0 0 0 1.04025,1.040246 1.0403794,1.0403792 0 0 0 1.04025,-1.038177 z m 0,-15.064197 a 1.0403794,1.0403792 0 0 0 0,-0.0016 1.0403794,1.0403792 0 0 0 -1.04025,-1.040247 1.0403794,1.0403792 0 0 0 -1.04025,1.040247 1.0403794,1.0403792 0 0 0 1.04025,1.040246 1.0403794,1.0403792 0 0 0 1.04025,-1.038696 z m -2.52026,15.064197 a 1.0403794,1.0403792 0 0 0 0,-0.0021 1.0403794,1.0403792 0 0 0 -1.04025,-1.040247 1.0403794,1.0403792 0 0 0 -1.04077,1.040247 1.0403794,1.0403792 0 0 0 1.04077,1.040246 1.0403794,1.0403792 0 0 0 1.04025,-1.038177 z m 0,-15.064197 a 1.0403794,1.0403792 0 0 0 0,-0.0016 1.0403794,1.0403792 0 0 0 -1.04025,-1.040247 1.0403794,1.0403792 0 0 0 -1.04077,1.040247 1.0403794,1.0403792 0 0 0 1.04077,1.040246 1.0403794,1.0403792 0 0 0 1.04025,-1.038696 z"
       style="opacity:0.69495102;fill:#000000;fill-opacity:0.93809497;stroke:none;stroke-width:0.1"
       id="path6508"
       inkscape:connector-curvature="0" />
  </g>
</svg>
