<?xml version="1.0" encoding="UTF-8" standalone="no"?>
<svg
   xmlns:dc="http://purl.org/dc/elements/1.1/"
   xmlns:cc="http://creativecommons.org/ns#"
   xmlns:rdf="http://www.w3.org/1999/02/22-rdf-syntax-ns#"
   xmlns:svg="http://www.w3.org/2000/svg"
   xmlns="http://www.w3.org/2000/svg"
   xmlns:sodipodi="http://sodipodi.sourceforge.net/DTD/sodipodi-0.dtd"
   xmlns:inkscape="http://www.inkscape.org/namespaces/inkscape"
   sodipodi:docname="unk-plate-layout.svg"
   inkscape:version="1.0beta2 (2b71d25, 2019-12-03)"
   id="svg5110"
   version="1.1"
   viewBox="0 0 594 841"
   height="841mm"
   width="594mm">
  <defs
     id="defs5104" />
  <sodipodi:namedview
     inkscape:window-maximized="1"
     inkscape:window-y="23"
     inkscape:window-x="0"
     inkscape:window-height="1010"
     inkscape:window-width="1920"
     showgrid="false"
     inkscape:document-rotation="0"
     inkscape:current-layer="layer1"
     inkscape:document-units="mm"
     inkscape:cy="516.77605"
     inkscape:cx="886.02924"
     inkscape:zoom="0.64737385"
     inkscape:pageshadow="2"
     inkscape:pageopacity="0.0"
     borderopacity="1.0"
     bordercolor="#666666"
     pagecolor="#ffffff"
     id="base"
     showguides="true"
     inkscape:guide-bbox="true" />
  <metadata
     id="metadata5107">
    <rdf:RDF>
      <cc:Work
         rdf:about="">
        <dc:format>image/svg+xml</dc:format>
        <dc:type
           rdf:resource="http://purl.org/dc/dcmitype/StillImage" />
        <dc:title />
      </cc:Work>
    </rdf:RDF>
  </metadata>
  <g
     id="layer1"
     inkscape:groupmode="layer"
     inkscape:label="Layer 1">
    <text
       xml:space="preserve"
       style="font-style:normal;font-weight:normal;font-size:10.5833px;line-height:1.25;font-family:sans-serif;fill:#000000;fill-opacity:1;stroke:none;stroke-width:0.264583"
       x="-38.89999"
       y="337.94553"
       id="text1889"
       inkscape:export-xdpi="96"
       inkscape:export-ydpi="96" />
    <text
       xml:space="preserve"
       style="font-size:7.05556px;line-height:1.25;font-family:sans-serif;stroke-width:0.264583"
       x="109.40665"
       y="178.09621"
       id="text1893"
       inkscape:export-xdpi="96"
       inkscape:export-ydpi="96" />
    <text
       xml:space="preserve"
       style="font-size:4.23333px;line-height:1.25;font-family:sans-serif;stroke-width:0.264583"
       x="17.701845"
       y="135.50819"
       id="text1897"
       inkscape:export-xdpi="96"
       inkscape:export-ydpi="96"><tspan
         sodipodi:role="line"
         id="tspan1895"
         x="17.701845"
         y="135.50819"
         style="stroke-width:0.264583">Top plate left:</tspan><tspan
         sodipodi:role="line"
         x="17.701845"
         y="140.79985"
         style="stroke-width:0.264583"
         id="tspan1899">Width: 157.165mm</tspan><tspan
         sodipodi:role="line"
         x="17.701845"
         y="146.09152"
         style="stroke-width:0.264583"
         id="tspan4339">Height: 117.025mm</tspan><tspan
         sodipodi:role="line"
         x="17.701845"
         y="151.38318"
         style="stroke-width:0.264583"
         id="tspan4341">Surface Area: 7724.532mm2</tspan><tspan
         sodipodi:role="line"
         x="17.701845"
         y="156.67485"
         style="stroke-width:0.264583"
         id="tspan4343">Cut Path Length: 2608.832mm</tspan><tspan
         sodipodi:role="line"
         x="17.701845"
         y="161.96651"
         id="tspan1905" /></text>
    <text
       id="text1897-5"
       y="135.97484"
       x="187.91245"
       style="font-size:4.23333px;line-height:1.25;font-family:sans-serif;stroke-width:0.264583"
       xml:space="preserve"
       inkscape:export-xdpi="96"
       inkscape:export-ydpi="96"><tspan
         id="tspan1903-2"
         style="stroke-width:0.264583"
         y="135.97484"
         x="187.91245"
         sodipodi:role="line">Top plate right:</tspan><tspan
         id="tspan1905-8"
         style="stroke-width:0.264583"
         y="141.26649"
         x="187.91245"
         sodipodi:role="line">Width: 161.927mm</tspan><tspan
         style="stroke-width:0.264583"
         y="146.55817"
         x="187.91245"
         sodipodi:role="line"
         id="tspan4345">Height: 117.025mm</tspan><tspan
         style="stroke-width:0.264583"
         y="151.84982"
         x="187.91245"
         sodipodi:role="line"
         id="tspan4347">Surface Area: 7985.594mm2</tspan><tspan
         style="stroke-width:0.264583"
         y="157.14149"
         x="187.91245"
         sodipodi:role="line"
         id="tspan4349">Cut Path Length: 2690.358mm</tspan></text>
    <g
       id="g1878">
      <path
         inkscape:connector-curvature="0"
         d="m 165.18752,120.18616 h 0.825 v -2.8 h -0.825 v -3.23 h -6.75 v 3.23 h -1.525 v -4.7 h -14.001 v 4.7 h -1.524 v -3.23 h -6.75 v 3.23 h -0.825 v 2.8 h 0.825 v 6.269 h 1.725 v 1.201 h 3.3 v -1.201 h 1.725 v -4.47 h 1.524 v 4.701 h 14.001 v -4.701 h 1.525 v 4.47 h 1.725 v 1.201 h 3.3 v -1.201 h 1.725 z"
         style="fill:none;stroke:#0000ff;stroke-width:0.05mm"
         id="polygon1909" />
      <path
         inkscape:connector-curvature="0"
         d="m 111.96855,112.68616 v 14 h 14 v -14 z"
         style="fill:none;stroke:#0000ff;stroke-width:0.05mm"
         id="polygon1911" />
      <path
         inkscape:connector-curvature="0"
         d="m 88.140252,126.68616 h 13.999998 v -14 H 88.140252 Z"
         style="fill:none;stroke:#0000ff;stroke-width:0.05mm"
         id="polygon1913" />
      <path
         inkscape:connector-curvature="0"
         d="m 78.327252,126.68616 v -14 h -14 v 14 z"
         style="fill:none;stroke:#0000ff;stroke-width:0.05mm"
         id="polygon1915" />
      <path
         inkscape:connector-curvature="0"
         d="m 54.515252,112.68616 h -14 v 14 h 14 z"
         style="fill:none;stroke:#0000ff;stroke-width:0.05mm"
         id="polygon1917" />
      <path
         inkscape:connector-curvature="0"
         d="m 19.084252,112.68616 v 14 h 14 v -14 z"
         style="fill:none;stroke:#0000ff;stroke-width:0.05mm"
         id="polygon1919" />
      <path
         inkscape:connector-curvature="0"
         d="m 65.565252,98.33616 h -1.525 v -4.7 h -14 v 4.7 h -1.525 v -3.23 h -6.75 v 3.23 h -0.825 v 2.8 h 0.825 v 6.27 h 1.725 v 1.2 h 3.3 v -1.2 h 1.725 v -4.47 h 1.525 v 4.7 h 14 v -4.7 h 1.525 v 4.47 h 1.725 v 1.2 h 3.3 v -1.2 h 1.725 v -6.27 h 0.825 v -2.8 h -0.825 v -3.23 h -6.75 z"
         style="fill:none;stroke:#0000ff;stroke-width:0.05mm"
         id="polygon1921" />
      <path
         inkscape:connector-curvature="0"
         d="m 171.19625,107.63616 v -14 h -14 v 14 z"
         style="fill:none;stroke:#0000ff;stroke-width:0.05mm"
         id="polygon1923" />
      <path
         inkscape:connector-curvature="0"
         d="m 152.14625,93.63616 h -14 v 14 h 14 z"
         style="fill:none;stroke:#0000ff;stroke-width:0.05mm"
         id="polygon1925" />
      <path
         inkscape:connector-curvature="0"
         d="m 119.09625,93.63616 v 14 h 14 v -14 z"
         style="fill:none;stroke:#0000ff;stroke-width:0.05mm"
         id="polygon1927" />
      <path
         inkscape:connector-curvature="0"
         d="m 100.04625,107.63616 h 14 v -14 h -14 z"
         style="fill:none;stroke:#0000ff;stroke-width:0.05mm"
         id="polygon1929" />
      <path
         inkscape:connector-curvature="0"
         d="m 94.996252,107.63616 v -14 h -14 v 14 z"
         style="fill:none;stroke:#0000ff;stroke-width:0.05mm"
         id="polygon1931" />
      <path
         inkscape:connector-curvature="0"
         d="m 33.084252,93.63616 h -14 v 14 h 14 z"
         style="fill:none;stroke:#0000ff;stroke-width:0.05mm"
         id="polygon1933" />
      <path
         inkscape:connector-curvature="0"
         d="m 147.67125,74.58616 v 14 h 14 v -14 z"
         style="fill:none;stroke:#0000ff;stroke-width:0.05mm"
         id="polygon1935" />
      <path
         inkscape:connector-curvature="0"
         d="m 128.62125,88.58616 h 14 v -14 h -14 z"
         style="fill:none;stroke:#0000ff;stroke-width:0.05mm"
         id="polygon1937" />
      <path
         inkscape:connector-curvature="0"
         d="m 123.57125,88.58616 v -14 h -14 v 14 z"
         style="fill:none;stroke:#0000ff;stroke-width:0.05mm"
         id="polygon1939" />
      <path
         inkscape:connector-curvature="0"
         d="M 104.52125,74.58616 H 90.521252 v 14 h 13.999998 z"
         style="fill:none;stroke:#0000ff;stroke-width:0.05mm"
         id="polygon1941" />
      <path
         inkscape:connector-curvature="0"
         d="m 71.471252,74.58616 v 14 h 14 v -14 z"
         style="fill:none;stroke:#0000ff;stroke-width:0.05mm"
         id="polygon1943" />
      <path
         inkscape:connector-curvature="0"
         d="m 45.277252,88.58616 h 14 v -14 h -14 z"
         style="fill:none;stroke:#0000ff;stroke-width:0.05mm"
         id="polygon1945" />
      <path
         inkscape:connector-curvature="0"
         d="m 33.084252,88.58616 v -14 h -14 v 14 z"
         style="fill:none;stroke:#0000ff;stroke-width:0.05mm"
         id="polygon1947" />
      <path
         inkscape:connector-curvature="0"
         d="m 156.90925,55.53616 h -14 v 14 h 14 z"
         style="fill:none;stroke:#0000ff;stroke-width:0.05mm"
         id="polygon1949" />
      <path
         inkscape:connector-curvature="0"
         d="m 123.85925,55.53616 v 14 h 14 v -14 z"
         style="fill:none;stroke:#0000ff;stroke-width:0.05mm"
         id="polygon1951" />
      <path
         inkscape:connector-curvature="0"
         d="m 104.80925,69.53616 h 14 v -14 h -14 z"
         style="fill:none;stroke:#0000ff;stroke-width:0.05mm"
         id="polygon1953" />
      <path
         inkscape:connector-curvature="0"
         d="m 99.759252,69.53616 v -14 h -14 v 14 z"
         style="fill:none;stroke:#0000ff;stroke-width:0.05mm"
         id="polygon1955" />
      <path
         inkscape:connector-curvature="0"
         d="m 80.709252,55.53616 h -14 v 14 h 14 z"
         style="fill:none;stroke:#0000ff;stroke-width:0.05mm"
         id="polygon1957" />
      <path
         inkscape:connector-curvature="0"
         d="m 42.896252,55.53616 v 14 h 14 v -14 z"
         style="fill:none;stroke:#0000ff;stroke-width:0.05mm"
         id="polygon1959" />
      <path
         inkscape:connector-curvature="0"
         d="m 19.084252,69.53616 h 14 v -14 h -14 z"
         style="fill:none;stroke:#0000ff;stroke-width:0.05mm"
         id="polygon1961" />
      <path
         inkscape:connector-curvature="0"
         d="m 166.43425,50.48616 v -14 h -14 v 14 z"
         style="fill:none;stroke:#0000ff;stroke-width:0.05mm"
         id="polygon1963" />
      <path
         inkscape:connector-curvature="0"
         d="m 147.38425,36.48616 h -14.001 v 14 h 14.001 z"
         style="fill:none;stroke:#0000ff;stroke-width:0.05mm"
         id="polygon1965" />
      <path
         inkscape:connector-curvature="0"
         d="m 114.33325,36.48616 v 14 h 14 v -14 z"
         style="fill:none;stroke:#0000ff;stroke-width:0.05mm"
         id="polygon1967" />
      <path
         inkscape:connector-curvature="0"
         d="m 95.284252,50.48616 h 13.999998 v -14 H 95.284252 Z"
         style="fill:none;stroke:#0000ff;stroke-width:0.05mm"
         id="polygon1969" />
      <path
         inkscape:connector-curvature="0"
         d="m 90.234252,50.48616 v -14 h -14 v 14 z"
         style="fill:none;stroke:#0000ff;stroke-width:0.05mm"
         id="polygon1971" />
      <path
         inkscape:connector-curvature="0"
         d="m 71.184252,36.48616 h -14 v 14 h 14 z"
         style="fill:none;stroke:#0000ff;stroke-width:0.05mm"
         id="polygon1973" />
      <path
         inkscape:connector-curvature="0"
         d="m 38.134252,36.48616 v 14 h 14 v -14 z"
         style="fill:none;stroke:#0000ff;stroke-width:0.05mm"
         id="polygon1975" />
      <path
         inkscape:connector-curvature="0"
         d="m 19.084252,50.48616 h 14 v -14 h -14 z"
         style="fill:none;stroke:#0000ff;stroke-width:0.05mm"
         id="polygon1977" />
    </g>
    <path
       id="path3520"
       style="fill:none;stroke:#0000ff;stroke-width:0.189;stroke-miterlimit:4;stroke-dasharray:none"
       d="m 101.98706,12.38529 -83.934415,0.0062 c -0.83781,0.0215 -1.506609,0.699675 -1.509986,1.542025 -5e-6,0.0014 0,0.0027 0,0.0041 -1e-6,6.88e-4 0,0.0013 0,0.0021 l 0.01654,20.021516 V 127.7462 c 0.04209,0.80272 0.687614,1.43872 1.494482,1.46503 H 167.3195 l 0.0904,0.002 h 0.003 c 0.85343,0 1.54038,-0.69027 1.54667,-1.54254 v -17.65215 l 3.99717,-0.001 c 0.40942,-0.0973 0.71741,-0.4409 0.76533,-0.86765 V 92.458436 l -5.2e-4,-0.0398 v -0.002 c 0,-0.5383 -0.4269,-0.97133 -0.95704,-1.00356 l -8.56744,-0.001 V 73.244624 c -0.0155,-0.482296 -0.36321,-0.876292 -0.82424,-0.960665 l -3.93826,-0.03514 V 52.938885 l 8.60413,-0.02429 c 0.49592,-0.04092 0.88522,-0.432784 0.92087,-0.930177 V 37.06337 l -0.005,-1.058334 -5.2e-4,-0.495577 c -0.002,-0.85675 -0.69134,-1.546191 -1.54822,-1.547191 h -0.49403 c -9.56935,-0.0021 -34.13253,-0.001 -47.82912,-0.001 L 103.5575,13.190926 a 2.5,2.5 0 0 0 -1.57044,-0.805636 z" />
    <g
       id="g5247"
       transform="translate(0,-296.33346)">
      <path
         d="m 164.87788,407.15067 a 1.5,1.5 0 0 1 -1.5,1.5 1.5,1.5 0 0 1 -1.5,-1.5 1.5,1.5 0 0 1 1.5,-1.5 1.5,1.5 0 0 1 1.5,1.5"
         style="opacity:0.437299;fill:#000000;stroke:none;stroke-width:0.398241;stroke-opacity:1"
         id="circle4128" />
      <path
         d="m 151.47021,348.87643 a 1.5,1.5 0 0 1 -1.5,1.5 1.5,1.5 0 0 1 -1.5,-1.5 1.5,1.5 0 0 1 1.5,-1.5 1.5,1.5 0 0 1 1.5,1.5"
         style="opacity:0.437299;fill:#000000;stroke:none;stroke-width:0.398241;stroke-opacity:1"
         id="circle4130" />
      <path
         d="m 39.388149,359.19418 a 1.5,1.5 0 0 1 -1.5,1.5 1.5,1.5 0 0 1 -1.5,-1.5 1.5,1.5 0 0 1 1.5,-1.5 1.5,1.5 0 0 1 1.5,1.5"
         style="opacity:0.437299;fill:#000000;stroke:none;stroke-width:0.398241;stroke-opacity:1"
         id="circle4132" />
      <path
         d="m 38.231575,406.50162 a 1.5,1.5 0 0 1 -1.5,1.5 1.5,1.5 0 0 1 -1.5,-1.5 1.5,1.5 0 0 1 1.5,-1.5 1.5,1.5 0 0 1 1.5,1.5"
         style="opacity:0.437299;fill:#000000;stroke:none;stroke-width:0.398241;stroke-opacity:1"
         id="circle4134" />
      <path
         d="m 108.5707,369.25409 a 1.5,1.5 0 0 1 -1.5,1.5 1.5,1.5 0 0 1 -1.5,-1.5 1.5,1.5 0 0 1 1.5,-1.5 1.5,1.5 0 0 1 1.5,1.5"
         style="opacity:0.437299;fill:#000000;stroke:none;stroke-width:0.398241;stroke-opacity:1"
         id="circle4132-9" />
      <path
         d="m 107.28894,407.97586 a 1.5,1.5 0 0 1 -1.5,1.5 1.5,1.5 0 0 1 -1.5,-1.5 1.5,1.5 0 0 1 1.5,-1.5 1.5,1.5 0 0 1 1.5,1.5"
         style="opacity:0.437299;fill:#000000;stroke:none;stroke-width:0.398241;stroke-opacity:1"
         id="circle1454" />
      <path
         d="m 21.453453,312.16827 a 1.5,1.5 0 0 1 -1.5,1.5 1.5,1.5 0 0 1 -1.5,-1.5 1.5,1.5 0 0 1 1.5,-1.5 1.5,1.5 0 0 1 1.5,1.5"
         style="opacity:0.437299;fill:#000000;stroke:none;stroke-width:0.398241;stroke-opacity:1"
         id="circle4958" />
      <path
         d="m 102.01906,312.16827 a 1.5,1.5 0 0 1 -1.5,1.5 1.5,1.5 0 0 1 -1.500002,-1.5 1.5,1.5 0 0 1 1.500002,-1.5 1.5,1.5 0 0 1 1.5,1.5"
         style="opacity:0.437299;fill:#000000;stroke:none;stroke-width:0.398241;stroke-opacity:1"
         id="circle4960" />
      <path
         d="m 77.545105,319.04745 a 1.5,1.5 0 0 1 -1.5,1.5 1.5,1.5 0 0 1 -1.5,-1.5 1.5,1.5 0 0 1 1.5,-1.5 1.5,1.5 0 0 1 1.5,1.5"
         style="opacity:0.437299;fill:#000000;stroke:none;stroke-width:0.398241;stroke-opacity:1"
         id="circle4968" />
      <path
         d="m 61.670128,319.04745 a 1.5,1.5 0 0 1 -1.5,1.5 1.5,1.5 0 0 1 -1.5,-1.5 1.5,1.5 0 0 1 1.5,-1.5 1.5,1.5 0 0 1 1.5,1.5"
         style="opacity:0.437299;fill:#000000;stroke:none;stroke-width:0.398241;stroke-opacity:1"
         id="circle4979" />
      <path
         d="m 45.795124,319.04745 a 1.5,1.5 0 0 1 -1.5,1.5 1.5,1.5 0 0 1 -1.5,-1.5 1.5,1.5 0 0 1 1.5,-1.5 1.5,1.5 0 0 1 1.5,1.5"
         style="opacity:0.437299;fill:#000000;stroke:none;stroke-width:0.398241;stroke-opacity:1"
         id="circle4981" />
    </g>
    <path
       id="polygon2709"
       style="fill:none;stroke:#ff0000;stroke-width:0.0499999mm"
       d="m 335.9831,12.385807 -83.77059,0.0067 a 2.5,2.5 0 0 0 -1.64589,0.822172 L 235.07195,33.97155 h -48.46474 c -0.79115,0.07077 -1.40757,0.730128 -1.40921,1.53996 v 0.0031 1.550808 h -0.004 l -5.1e-4,16.163872 -7.51427,0.02946 -0.95602,0.0015 -0.0765,0.0026 c -0.50668,0.01032 -0.91567,0.388906 -0.97823,0.880567 v 16.846 c 0.0241,0.509516 0.41975,0.9145 0.92449,0.955498 l 3.83801,-0.0083 v 18.381311 c 0.0925,0.37662 0.39198,0.67012 0.77411,0.74827 l 8.75088,0.0341 v 19.240674 l -3.98011,-0.009 c -0.43894,0.0946 -0.76682,0.47211 -0.79117,0.9338 l 0.009,16.56798 c 0.0858,0.77585 0.73872,1.38761 1.53789,1.38854 l 0.0703,-5.2e-4 h 149.32835 c 0.79968,-0.0412 1.43373,-0.68189 1.46556,-1.48414 V 36.810155 l 0.003,-21.320145 h -0.01 v -1.55236 c 0,-0.856881 -0.69094,-1.546484 -1.54771,-1.548226 v -5.17e-4 h -0.003 z" />
    <g
       id="g1953">
      <g
         id="g1915">
        <path
           d="m 214.50565,126.46572 v 1.201 h 3.3 v -1.201 h 1.725 v -6.269 h 0.825 v -2.79999 h -0.825 v -3.23001 h -6.75 v 3.23001 h -1.525 v -4.70001 h -14 v 4.70001 h -1.525 v -3.23001 h -6.75 v 3.23001 h -0.825 v 2.79999 h 0.825 v 6.269 h 1.725 v 1.201 h 3.3 v -1.201 h 1.725 v -4.47 h 1.525 v 4.701 h 14 v -4.701 h 1.525 v 4.47 z"
           style="fill:none;stroke:#ff0000;stroke-width:0.05mm"
           id="polygon2711"
           inkscape:connector-curvature="0"
           sodipodi:nodetypes="ccccccccccccccccccccccccccccccccccccc"
           inkscape:export-xdpi="96"
           inkscape:export-ydpi="96" />
        <path
           d="m 335.06917,126.69672 v -14 h -14 v 14 z"
           style="fill:none;stroke:#ff0000;stroke-width:0.05mm"
           id="polygon2713"
           inkscape:connector-curvature="0"
           sodipodi:nodetypes="ccccc"
           inkscape:export-xdpi="96"
           inkscape:export-ydpi="96" />
        <path
           d="m 313.66201,126.69672 v -14 h -14 v 14 z"
           style="fill:none;stroke:#ff0000;stroke-width:0.05mm"
           id="polygon2715"
           inkscape:connector-curvature="0"
           sodipodi:nodetypes="ccccc"
           inkscape:export-xdpi="96"
           inkscape:export-ydpi="96" />
        <path
           d="m 289.82464,126.69672 v -14 h -14 v 14 z"
           style="fill:none;stroke:#ff0000;stroke-width:0.05mm"
           id="polygon2717"
           inkscape:connector-curvature="0"
           sodipodi:nodetypes="ccccc"
           inkscape:export-xdpi="96"
           inkscape:export-ydpi="96" />
        <path
           d="m 266.01264,126.69672 v -14 h -14 v 14 z"
           style="fill:none;stroke:#ff0000;stroke-width:0.05mm"
           id="polygon2719"
           inkscape:connector-curvature="0"
           sodipodi:nodetypes="ccccc"
           inkscape:export-xdpi="96"
           inkscape:export-ydpi="96" />
        <path
           d="m 242.19964,126.69672 v -14 h -14 v 14 z"
           style="fill:none;stroke:#ff0000;stroke-width:0.05mm"
           id="polygon2721"
           inkscape:connector-curvature="0"
           sodipodi:nodetypes="ccccc"
           inkscape:export-xdpi="96"
           inkscape:export-ydpi="96" />
        <path
           d="m 335.06817,107.64673 v -14 h -14 v 14 z"
           style="fill:none;stroke:#ff0000;stroke-width:0.05mm"
           id="polygon2723"
           inkscape:connector-curvature="0"
           sodipodi:nodetypes="ccccc"
           inkscape:export-xdpi="96"
           inkscape:export-ydpi="96" />
        <path
           d="m 308.87517,107.64673 v -14 h -14 v 14 z"
           style="fill:none;stroke:#ff0000;stroke-width:0.05mm"
           id="polygon2725"
           inkscape:connector-curvature="0"
           sodipodi:nodetypes="ccccc"
           inkscape:export-xdpi="96"
           inkscape:export-ydpi="96" />
        <path
           d="m 282.68117,107.64673 v -14 h -14 v 14 z"
           style="fill:none;stroke:#ff0000;stroke-width:0.05mm"
           id="polygon2727"
           inkscape:connector-curvature="0"
           sodipodi:nodetypes="ccccc"
           inkscape:export-xdpi="96"
           inkscape:export-ydpi="96" />
        <path
           d="m 263.63117,107.64673 v -14 h -14 v 14 z"
           style="fill:none;stroke:#ff0000;stroke-width:0.05mm"
           id="polygon2729"
           inkscape:connector-curvature="0"
           sodipodi:nodetypes="ccccc"
           inkscape:export-xdpi="96"
           inkscape:export-ydpi="96" />
        <path
           d="m 244.58117,107.64673 v -14 h -14 v 14 z"
           style="fill:none;stroke:#ff0000;stroke-width:0.05mm"
           id="polygon2731"
           inkscape:connector-curvature="0"
           sodipodi:nodetypes="ccccc"
           inkscape:export-xdpi="96"
           inkscape:export-ydpi="96" />
        <path
           d="m 225.53117,107.64673 v -14 h -14 v 14 z"
           style="fill:none;stroke:#ff0000;stroke-width:0.05mm"
           id="polygon2733"
           inkscape:connector-curvature="0"
           sodipodi:nodetypes="ccccc"
           inkscape:export-xdpi="96"
           inkscape:export-ydpi="96" />
        <path
           d="m 206.48117,107.64673 v -14 h -14 v 14 z"
           style="fill:none;stroke:#ff0000;stroke-width:0.05mm"
           id="polygon2735"
           inkscape:connector-curvature="0"
           sodipodi:nodetypes="ccccc"
           inkscape:export-xdpi="96"
           inkscape:export-ydpi="96" />
        <path
           d="m 326.41217,88.36573 v 1.201 h 3.3 v -1.201 h 1.725 v -6.26901 h 0.825 v -2.8 h -0.825 v -3.23 h -6.75 v 3.23 h -1.525 v -4.7 h -14 v 4.7 h -1.525 v -3.23 h -6.751 v 3.23 h -0.824 v 2.8 h 0.824 v 6.26901 h 1.726 v 1.201 h 3.3 v -1.201 h 1.725 v -4.46901 h 1.525 v 4.70001 h 14 v -4.70001 h 1.525 v 4.46901 z"
           style="fill:none;stroke:#ff0000;stroke-width:0.05mm"
           id="polygon2737"
           inkscape:connector-curvature="0"
           sodipodi:nodetypes="ccccccccccccccccccccccccccccccccccccc"
           inkscape:export-xdpi="96"
           inkscape:export-ydpi="96" />
        <path
           d="M 292.20617,88.59673 V 74.59672 h -14 v 14.00001 z"
           style="fill:none;stroke:#ff0000;stroke-width:0.05mm"
           id="polygon2739"
           inkscape:connector-curvature="0"
           sodipodi:nodetypes="ccccc"
           inkscape:export-xdpi="96"
           inkscape:export-ydpi="96" />
        <path
           d="M 273.15617,88.59673 V 74.59672 h -14 v 14.00001 z"
           style="fill:none;stroke:#ff0000;stroke-width:0.05mm"
           id="polygon2741"
           inkscape:connector-curvature="0"
           sodipodi:nodetypes="ccccc"
           inkscape:export-xdpi="96"
           inkscape:export-ydpi="96" />
        <path
           d="M 254.10617,88.59673 V 74.59672 h -14 v 14.00001 z"
           style="fill:none;stroke:#ff0000;stroke-width:0.05mm"
           id="polygon2743"
           inkscape:connector-curvature="0"
           sodipodi:nodetypes="ccccc"
           inkscape:export-xdpi="96"
           inkscape:export-ydpi="96" />
        <path
           d="M 235.05617,88.59673 V 74.59672 h -14 v 14.00001 z"
           style="fill:none;stroke:#ff0000;stroke-width:0.05mm"
           id="polygon2745"
           inkscape:connector-curvature="0"
           sodipodi:nodetypes="ccccc"
           inkscape:export-xdpi="96"
           inkscape:export-ydpi="96" />
        <path
           d="M 216.00617,88.59673 V 74.59672 h -14 v 14.00001 z"
           style="fill:none;stroke:#ff0000;stroke-width:0.05mm"
           id="polygon2747"
           inkscape:connector-curvature="0"
           sodipodi:nodetypes="ccccc"
           inkscape:export-xdpi="96"
           inkscape:export-ydpi="96" />
        <path
           d="M 196.95617,88.59673 V 74.59672 h -14 v 14.00001 z"
           style="fill:none;stroke:#ff0000;stroke-width:0.05mm"
           id="polygon2749"
           inkscape:connector-curvature="0"
           sodipodi:nodetypes="ccccc"
           inkscape:export-xdpi="96"
           inkscape:export-ydpi="96" />
        <path
           d="M 330.30617,69.54672 V 55.54671 h -14 v 14.00001 z"
           style="fill:none;stroke:#ff0000;stroke-width:0.05mm"
           id="polygon2751"
           inkscape:connector-curvature="0"
           sodipodi:nodetypes="ccccc"
           inkscape:export-xdpi="96"
           inkscape:export-ydpi="96" />
        <path
           d="M 306.49417,69.54672 V 55.54671 h -14.001 v 14.00001 z"
           style="fill:none;stroke:#ff0000;stroke-width:0.05mm"
           id="polygon2753"
           inkscape:connector-curvature="0"
           sodipodi:nodetypes="ccccc"
           inkscape:export-xdpi="96"
           inkscape:export-ydpi="96" />
        <path
           d="M 287.44317,69.54672 V 55.54671 h -14 v 14.00001 z"
           style="fill:none;stroke:#ff0000;stroke-width:0.05mm"
           id="polygon2755"
           inkscape:connector-curvature="0"
           sodipodi:nodetypes="ccccc"
           inkscape:export-xdpi="96"
           inkscape:export-ydpi="96" />
        <path
           d="M 268.39417,69.54672 V 55.54671 h -14 v 14.00001 z"
           style="fill:none;stroke:#ff0000;stroke-width:0.05mm"
           id="polygon2757"
           inkscape:connector-curvature="0"
           sodipodi:nodetypes="ccccc"
           inkscape:export-xdpi="96"
           inkscape:export-ydpi="96" />
        <path
           d="M 249.34417,69.54672 V 55.54671 h -14 v 14.00001 z"
           style="fill:none;stroke:#ff0000;stroke-width:0.05mm"
           id="polygon2759"
           inkscape:connector-curvature="0"
           sodipodi:nodetypes="ccccc"
           inkscape:export-xdpi="96"
           inkscape:export-ydpi="96" />
        <path
           d="M 230.29417,69.54672 V 55.54671 h -14 v 14.00001 z"
           style="fill:none;stroke:#ff0000;stroke-width:0.05mm"
           id="polygon2761"
           inkscape:connector-curvature="0"
           sodipodi:nodetypes="ccccc"
           inkscape:export-xdpi="96"
           inkscape:export-ydpi="96" />
        <path
           d="M 211.24417,69.54672 V 55.54671 h -14 v 14.00001 z"
           style="fill:none;stroke:#ff0000;stroke-width:0.05mm"
           id="polygon2763"
           inkscape:connector-curvature="0"
           sodipodi:nodetypes="ccccc"
           inkscape:export-xdpi="96"
           inkscape:export-ydpi="96" />
        <path
           d="M 192.19417,69.54672 V 55.54671 h -14 v 14.00001 z"
           style="fill:none;stroke:#ff0000;stroke-width:0.05mm"
           id="polygon2765"
           inkscape:connector-curvature="0"
           sodipodi:nodetypes="ccccc"
           inkscape:export-xdpi="96"
           inkscape:export-ydpi="96" />
        <path
           d="m 328.79417,50.2667 v 1.2 h 3.3 v -1.2 h 1.725 v -6.27 h 0.825 v -2.8 h -0.825 v -3.23 h -6.75 v 3.23 h -1.525 v -4.70001 h -14 v 4.70001 h -1.525 v -3.23 h -6.75 v 3.23 h -0.825 v 2.8 h 0.825 v 6.27 h 1.725 v 1.2 h 3.3 v -1.2 h 1.725 v -4.47 h 1.525 v 4.7 h 14 v -4.7 h 1.525 v 4.47 z"
           style="fill:none;stroke:#ff0000;stroke-width:0.05mm"
           id="polygon2767"
           inkscape:connector-curvature="0"
           sodipodi:nodetypes="ccccccccccccccccccccccccccccccccccccc"
           inkscape:export-xdpi="96"
           inkscape:export-ydpi="96" />
        <path
           d="M 296.96917,50.4967 V 36.49669 h -14 V 50.4967 Z"
           style="fill:none;stroke:#ff0000;stroke-width:0.05mm"
           id="polygon2769"
           inkscape:connector-curvature="0"
           sodipodi:nodetypes="ccccc"
           inkscape:export-xdpi="96"
           inkscape:export-ydpi="96" />
        <path
           d="M 277.91917,50.4967 V 36.49669 h -14 V 50.4967 Z"
           style="fill:none;stroke:#ff0000;stroke-width:0.05mm"
           id="polygon2771"
           inkscape:connector-curvature="0"
           sodipodi:nodetypes="ccccc"
           inkscape:export-xdpi="96"
           inkscape:export-ydpi="96" />
        <path
           d="M 258.86917,50.4967 V 36.49669 h -14 V 50.4967 Z"
           style="fill:none;stroke:#ff0000;stroke-width:0.05mm"
           id="polygon2773"
           inkscape:connector-curvature="0"
           sodipodi:nodetypes="ccccc"
           inkscape:export-xdpi="96"
           inkscape:export-ydpi="96" />
        <path
           d="M 239.81917,50.4967 V 36.49669 h -14 V 50.4967 Z"
           style="fill:none;stroke:#ff0000;stroke-width:0.05mm"
           id="polygon2775"
           inkscape:connector-curvature="0"
           sodipodi:nodetypes="ccccc"
           inkscape:export-xdpi="96"
           inkscape:export-ydpi="96" />
        <path
           d="M 220.76917,50.4967 V 36.49669 h -14 V 50.4967 Z"
           style="fill:none;stroke:#ff0000;stroke-width:0.05mm"
           id="polygon2777"
           inkscape:connector-curvature="0"
           sodipodi:nodetypes="ccccc"
           inkscape:export-xdpi="96"
           inkscape:export-ydpi="96" />
        <path
           d="M 201.71917,50.4967 V 36.49669 h -14 V 50.4967 Z"
           style="fill:none;stroke:#ff0000;stroke-width:0.05mm"
           id="polygon2779"
           inkscape:connector-curvature="0"
           sodipodi:nodetypes="ccccc"
           inkscape:export-xdpi="96"
           inkscape:export-ydpi="96" />
      </g>
    </g>
    <g
       id="g5260"
       transform="translate(15.875,-296.33346)">
      <circle
         inkscape:export-ydpi="96"
         inkscape:export-xdpi="96"
         r="1.5"
         style="opacity:0.437299;fill:#000000;stroke:none;stroke-width:0.398241;stroke-opacity:1"
         id="path4094-9"
         cx="302.68573"
         cy="406.50861" />
      <circle
         inkscape:export-ydpi="96"
         inkscape:export-xdpi="96"
         r="1.5"
         style="opacity:0.437299;fill:#000000;stroke:none;stroke-width:0.398241;stroke-opacity:1"
         id="path4094-2"
         cx="178.88589"
         cy="350.28186" />
      <circle
         inkscape:export-ydpi="96"
         inkscape:export-xdpi="96"
         r="1.5"
         cy="407.14148"
         cx="179.19427"
         id="circle4126"
         style="opacity:0.437299;fill:#000000;stroke:none;stroke-width:0.398241;stroke-opacity:1" />
      <circle
         inkscape:export-ydpi="96"
         inkscape:export-xdpi="96"
         r="1.5"
         style="opacity:0.437299;fill:#000000;stroke:none;stroke-width:0.398241;stroke-opacity:1"
         id="circle4132-9-4"
         cx="240.7562"
         cy="369.26343" />
      <circle
         inkscape:export-ydpi="96"
         inkscape:export-xdpi="96"
         r="1.5"
         transform="scale(-1,1)"
         cy="359.19418"
         cx="-295.43292"
         id="circle1125"
         style="opacity:0.437299;fill:#000000;stroke:none;stroke-width:0.398241;stroke-opacity:1" />
      <circle
         inkscape:export-ydpi="96"
         inkscape:export-xdpi="96"
         r="1.5"
         style="opacity:0.437299;fill:#000000;stroke:none;stroke-width:0.398241;stroke-opacity:1"
         id="circle1456"
         cx="236.08931"
         cy="407.98822" />
      <circle
         inkscape:export-ydpi="96"
         inkscape:export-xdpi="96"
         r="1.5"
         cy="312.16827"
         cx="237.97021"
         id="circle4964"
         style="opacity:0.437299;fill:#000000;stroke:none;stroke-width:0.398241;stroke-opacity:1" />
      <circle
         style="opacity:0.437299;fill:#000000;stroke:none;stroke-width:0.398241;stroke-opacity:1"
         id="circle4966"
         cx="318.13885"
         cy="312.16827"
         r="1.5"
         inkscape:export-xdpi="96"
         inkscape:export-ydpi="96" />
      <circle
         inkscape:export-ydpi="96"
         inkscape:export-xdpi="96"
         r="1.5"
         cy="319.04745"
         cx="293.92953"
         id="circle4985"
         style="opacity:0.437299;fill:#000000;stroke:none;stroke-width:0.398241;stroke-opacity:1" />
      <circle
         style="opacity:0.437299;fill:#000000;stroke:none;stroke-width:0.398241;stroke-opacity:1"
         id="circle4987"
         cx="278.05457"
         cy="319.04745"
         r="1.5"
         inkscape:export-xdpi="96"
         inkscape:export-ydpi="96" />
      <circle
         inkscape:export-ydpi="96"
         inkscape:export-xdpi="96"
         r="1.5"
         cy="319.04745"
         cx="262.1796"
         id="circle4989"
         style="opacity:0.437299;fill:#000000;stroke:none;stroke-width:0.398241;stroke-opacity:1" />
    </g>
    <text
       inkscape:export-ydpi="96"
       inkscape:export-xdpi="96"
       id="text5028"
       y="304.84161"
       x="17.701845"
       style="font-size:4.23333px;line-height:1.25;font-family:sans-serif;stroke-width:0.264583"
       xml:space="preserve"><tspan
         style="stroke-width:0.264583"
         y="304.84161"
         x="17.701845"
         id="tspan5016"
         sodipodi:role="line">Bottom plate left:</tspan><tspan
         id="tspan5018"
         style="stroke-width:0.264583"
         y="310.13327"
         x="17.701845"
         sodipodi:role="line">Width: 157.165mm</tspan><tspan
         id="tspan5020"
         style="stroke-width:0.264583"
         y="315.42493"
         x="17.701845"
         sodipodi:role="line">Height: 117.025mm</tspan><tspan
         id="tspan5024"
         y="320.71661"
         x="17.701845"
         sodipodi:role="line" /><tspan
         id="tspan5026"
         y="326.00827"
         x="17.701845"
         sodipodi:role="line" /></text>
    <text
       inkscape:export-ydpi="96"
       inkscape:export-xdpi="96"
       xml:space="preserve"
       style="font-size:4.23333px;line-height:1.25;font-family:sans-serif;stroke-width:0.264583"
       x="187.91245"
       y="305.30823"
       id="text5122"><tspan
         sodipodi:role="line"
         x="187.91245"
         y="305.30823"
         style="stroke-width:0.264583"
         id="tspan5112">Bottom plate right:</tspan><tspan
         sodipodi:role="line"
         x="187.91245"
         y="310.59988"
         style="stroke-width:0.264583"
         id="tspan5114">Width: 161.927mm</tspan><tspan
         id="tspan5120"
         sodipodi:role="line"
         x="187.91245"
         y="315.89154"
         style="stroke-width:0.264583">Height: 117.025mm</tspan></text>
    <g
       id="g5448"
       transform="translate(0,-296.33346)">
      <circle
         cy="576.48407"
         cx="163.37788"
         id="circle5340"
         style="opacity:0.437299;fill:#000000;stroke:none;stroke-width:0.398241;stroke-opacity:1"
         r="1.5"
         inkscape:export-xdpi="96"
         inkscape:export-ydpi="96" />
      <circle
         style="opacity:0.437299;fill:#000000;stroke:none;stroke-width:0.398241;stroke-opacity:1"
         id="circle5342"
         cx="149.97021"
         cy="518.20984"
         r="1.5"
         inkscape:export-xdpi="96"
         inkscape:export-ydpi="96" />
      <circle
         cy="528.52759"
         cx="37.888149"
         id="circle5344"
         style="opacity:0.437299;fill:#000000;stroke:none;stroke-width:0.398241;stroke-opacity:1"
         r="1.5"
         inkscape:export-xdpi="96"
         inkscape:export-ydpi="96" />
      <circle
         style="opacity:0.437299;fill:#000000;stroke:none;stroke-width:0.398241;stroke-opacity:1"
         id="circle5346"
         cx="36.731575"
         cy="575.83502"
         r="1.5"
         inkscape:export-xdpi="96"
         inkscape:export-ydpi="96" />
      <circle
         style="opacity:0.437299;fill:#000000;stroke:none;stroke-width:0.398241;stroke-opacity:1"
         id="circle5348"
         cx="107.0707"
         cy="538.58746"
         r="1.5"
         inkscape:export-xdpi="96"
         inkscape:export-ydpi="96" />
      <circle
         style="opacity:0.437299;fill:#000000;stroke:none;stroke-width:0.398241;stroke-opacity:1"
         id="circle5350"
         cx="105.78894"
         cy="577.30927"
         r="1.5"
         inkscape:export-xdpi="96"
         inkscape:export-ydpi="96" />
      <circle
         inkscape:export-ydpi="96"
         inkscape:export-xdpi="96"
         r="1.5"
         cy="481.50165"
         cx="19.953453"
         id="circle5352"
         style="opacity:0.437299;fill:#000000;stroke:none;stroke-width:0.398241;stroke-opacity:1" />
      <circle
         style="opacity:0.437299;fill:#000000;stroke:none;stroke-width:0.398241;stroke-opacity:1"
         id="circle5354"
         cx="100.51906"
         cy="481.50165"
         r="1.5"
         inkscape:export-xdpi="96"
         inkscape:export-ydpi="96" />
      <circle
         style="opacity:0.437299;fill:#000000;stroke:none;stroke-width:0.398241;stroke-opacity:1"
         id="circle5418"
         cx="54.349293"
         cy="589.98114"
         r="1.5"
         inkscape:export-xdpi="96"
         inkscape:export-ydpi="96" />
      <circle
         inkscape:export-ydpi="96"
         inkscape:export-xdpi="96"
         r="1.5"
         cy="589.98114"
         cx="134.91484"
         id="circle5420"
         style="opacity:0.437299;fill:#000000;stroke:none;stroke-width:0.398241;stroke-opacity:1" />
    </g>
    <g
       id="g5436"
       transform="translate(0,-296.33346)">
      <circle
         cy="575.84198"
         cx="318.56073"
         id="circle5364"
         style="opacity:0.437299;fill:#000000;stroke:none;stroke-width:0.398241;stroke-opacity:1"
         r="1.5"
         inkscape:export-xdpi="96"
         inkscape:export-ydpi="96" />
      <circle
         cy="519.61523"
         cx="194.76089"
         id="circle5366"
         style="opacity:0.437299;fill:#000000;stroke:none;stroke-width:0.398241;stroke-opacity:1"
         r="1.5"
         inkscape:export-xdpi="96"
         inkscape:export-ydpi="96" />
      <circle
         style="opacity:0.437299;fill:#000000;stroke:none;stroke-width:0.398241;stroke-opacity:1"
         id="circle5368"
         cx="195.06927"
         cy="576.47485"
         r="1.5"
         inkscape:export-xdpi="96"
         inkscape:export-ydpi="96" />
      <circle
         cy="538.5968"
         cx="256.6312"
         id="circle5370"
         style="opacity:0.437299;fill:#000000;stroke:none;stroke-width:0.398241;stroke-opacity:1"
         r="1.5"
         inkscape:export-xdpi="96"
         inkscape:export-ydpi="96" />
      <circle
         style="opacity:0.437299;fill:#000000;stroke:none;stroke-width:0.398241;stroke-opacity:1"
         id="circle5372"
         cx="-311.30792"
         cy="528.52759"
         transform="scale(-1,1)"
         r="1.5"
         inkscape:export-xdpi="96"
         inkscape:export-ydpi="96" />
      <circle
         cy="577.32159"
         cx="251.96431"
         id="circle5374"
         style="opacity:0.437299;fill:#000000;stroke:none;stroke-width:0.398241;stroke-opacity:1"
         r="1.5"
         inkscape:export-xdpi="96"
         inkscape:export-ydpi="96" />
      <circle
         style="opacity:0.437299;fill:#000000;stroke:none;stroke-width:0.398241;stroke-opacity:1"
         id="circle5376"
         cx="253.84521"
         cy="481.50165"
         r="1.5"
         inkscape:export-xdpi="96"
         inkscape:export-ydpi="96" />
      <circle
         inkscape:export-ydpi="96"
         inkscape:export-xdpi="96"
         r="1.5"
         cy="481.50165"
         cx="334.01385"
         id="circle5378"
         style="opacity:0.437299;fill:#000000;stroke:none;stroke-width:0.398241;stroke-opacity:1" />
      <circle
         inkscape:export-ydpi="96"
         inkscape:export-xdpi="96"
         r="1.5"
         cy="589.98114"
         cx="216.80354"
         id="circle5422"
         style="opacity:0.437299;fill:#000000;stroke:none;stroke-width:0.398241;stroke-opacity:1" />
      <circle
         style="opacity:0.437299;fill:#000000;stroke:none;stroke-width:0.398241;stroke-opacity:1"
         id="circle5424"
         cx="297.36902"
         cy="589.98114"
         r="1.5"
         inkscape:export-xdpi="96"
         inkscape:export-ydpi="96" />
    </g>
    <path
       d="m 101.99179,181.71788 -83.934381,0.006 c -0.83781,0.0215 -1.506609,0.69967 -1.509986,1.54202 -5e-6,0.001 0,0.003 0,0.004 -10e-7,6.9e-4 0,0.001 0,0.002 l 0.01654,20.02153 v 93.78503 c 0.04209,0.80272 0.687614,1.43872 1.494482,1.46503 H 167.32423 l 0.0904,0.002 h 0.003 c 0.85343,0 1.54038,-0.69027 1.54667,-1.54254 V 279.3509 l 3.99717,-0.001 c 0.40942,-0.0973 0.71741,-0.4409 0.76533,-0.86765 v -16.69152 l -5.3e-4,-0.0398 v -0.002 c 0,-0.5383 -0.4269,-0.97133 -0.95704,-1.00356 l -8.56744,-10e-4 v -18.16712 c -0.0155,-0.4823 -0.36321,-0.87629 -0.82424,-0.96067 l -3.93824,-0.0351 V 222.2715 l 8.60412,-0.0243 c 0.49593,-0.0409 0.88523,-0.43278 0.92088,-0.93018 v -14.92104 l -0.005,-1.05834 -5.3e-4,-0.49558 c -0.002,-0.85675 -0.69134,-1.54619 -1.54822,-1.54719 h -0.49403 c -9.56935,-0.002 -34.13253,-0.001 -47.82912,-0.001 l -15.52518,-20.77036 a 2.5,2.5 0 0 0 -1.57044,-0.80563 z"
       style="fill:none;stroke:#0000ff;stroke-width:0.189;stroke-miterlimit:4;stroke-dasharray:none"
       id="path3520-9" />
    <path
       d="m 335.98782,181.7184 -83.77058,0.007 a 2.5,2.5 0 0 0 -1.6459,0.82217 l -15.49466,20.75688 h -48.46474 c -0.79115,0.0708 -1.40757,0.73013 -1.40921,1.53996 v 0.003 1.55081 h -0.004 l -5.3e-4,16.16388 -7.51427,0.0295 -0.95602,0.002 -0.0765,0.003 c -0.50668,0.0103 -0.91567,0.38891 -0.97823,0.88057 v 16.84601 c 0.0241,0.50952 0.41975,0.9145 0.92449,0.9555 l 3.83801,-0.008 V 259.652 c 0.0925,0.37662 0.39198,0.67012 0.77411,0.74827 l 8.75088,0.0341 v 19.24069 l -3.98011,-0.009 c -0.43894,0.0946 -0.76682,0.47211 -0.79117,0.9338 l 0.009,16.56799 c 0.0858,0.77585 0.73872,1.38761 1.53789,1.38854 l 0.0703,-5.3e-4 h 149.32835 c 0.79967,-0.0412 1.43372,-0.68189 1.46555,-1.48414 v -90.92876 l 0.003,-21.32016 h -0.01 v -1.55236 c 0,-0.85688 -0.69094,-1.54649 -1.54771,-1.54823 v -5.1e-4 h -0.003 z"
       style="fill:none;stroke:#ff0000;stroke-width:0.0499999mm"
       id="polygon2709-7" />
  </g>
</svg>
