<?xml version="1.0" encoding="UTF-8" standalone="no"?>
<svg
   width="594mm"
   height="841mm"
   viewBox="0 0 594 841"
   version="1.1"
   id="svg5110"
   inkscape:version="1.2.2 (b0a84865, 2022-12-01)"
   sodipodi:docname="unk-plate-layout.rev1.1-print-ready.svg"
   xmlns:inkscape="http://www.inkscape.org/namespaces/inkscape"
   xmlns:sodipodi="http://sodipodi.sourceforge.net/DTD/sodipodi-0.dtd"
   xmlns="http://www.w3.org/2000/svg"
   xmlns:svg="http://www.w3.org/2000/svg"
   xmlns:rdf="http://www.w3.org/1999/02/22-rdf-syntax-ns#"
   xmlns:cc="http://creativecommons.org/ns#"
   xmlns:dc="http://purl.org/dc/elements/1.1/">
  <defs
     id="defs5104" />
  <sodipodi:namedview
     inkscape:guide-bbox="true"
     showguides="true"
     id="base"
     pagecolor="#ffffff"
     bordercolor="#666666"
     borderopacity="1.0"
     inkscape:pageopacity="0.0"
     inkscape:pageshadow="2"
     inkscape:zoom="0.77108413"
     inkscape:cx="693.17987"
     inkscape:cy="304.76571"
     inkscape:document-units="mm"
     inkscape:current-layer="layer1"
     inkscape:document-rotation="0"
     showgrid="false"
     inkscape:window-width="1680"
     inkscape:window-height="946"
     inkscape:window-x="0"
     inkscape:window-y="25"
     inkscape:window-maximized="0"
     inkscape:showpageshadow="2"
     inkscape:pagecheckerboard="0"
     inkscape:deskcolor="#d1d1d1">
    <sodipodi:guide
       position="90.831135,495.3726"
       orientation="0,-1"
       id="guide1018"
       inkscape:locked="false" />
    <sodipodi:guide
       position="293.81527,843.77182"
       orientation="1,0"
       id="guide1031"
       inkscape:locked="false" />
    <sodipodi:guide
       position="16.417834,733.5378"
       orientation="1,0"
       id="guide1033"
       inkscape:locked="false" />
  </sodipodi:namedview>
  <metadata
     id="metadata5107">
    <rdf:RDF>
      <cc:Work
         rdf:about="">
        <dc:format>image/svg+xml</dc:format>
        <dc:type
           rdf:resource="http://purl.org/dc/dcmitype/StillImage" />
      </cc:Work>
    </rdf:RDF>
  </metadata>
  <g
     inkscape:label="Layer 1"
     inkscape:groupmode="layer"
     id="layer1">
    <text
       inkscape:export-ydpi="96"
       inkscape:export-xdpi="96"
       id="text1889"
       y="337.94553"
       x="-38.89999"
       style="font-style:normal;font-weight:normal;font-size:10.5833px;line-height:1.25;font-family:sans-serif;fill:#000000;fill-opacity:1;stroke:none;stroke-width:0.264583"
       xml:space="preserve" />
    <text
       inkscape:export-ydpi="96"
       inkscape:export-xdpi="96"
       id="text1893"
       y="178.09621"
       x="109.40665"
       style="font-size:7.05556px;line-height:1.25;font-family:sans-serif;stroke-width:0.264583"
       xml:space="preserve" />
    <text
       inkscape:export-ydpi="96"
       inkscape:export-xdpi="96"
       id="text1897"
       y="140.79987"
       x="17.701845"
       style="font-size:4.23333px;line-height:1.25;font-family:sans-serif;stroke-width:0.264583"
       xml:space="preserve"><tspan
         style="stroke-width:0.264583"
         y="140.79987"
         x="17.701845"
         id="tspan1895"
         sodipodi:role="line">Top plate left:</tspan><tspan
         id="tspan1899"
         style="stroke-width:0.264583"
         y="146.09152"
         x="17.701845"
         sodipodi:role="line">Width: 157.165mm</tspan><tspan
         id="tspan4339"
         style="stroke-width:0.264583"
         y="151.38319"
         x="17.701845"
         sodipodi:role="line">Height: 117.025mm</tspan><tspan
         id="tspan4341"
         style="stroke-width:0.264583"
         y="156.67485"
         x="17.701845"
         sodipodi:role="line">Surface Area: 7724.532mm2</tspan><tspan
         id="tspan4343"
         style="stroke-width:0.264583"
         y="161.96651"
         x="17.701845"
         sodipodi:role="line">Cut Path Length: 2608.832mm</tspan><tspan
         id="tspan1905"
         y="167.25818"
         x="17.701845"
         sodipodi:role="line" /></text>
    <text
       inkscape:export-ydpi="96"
       inkscape:export-xdpi="96"
       xml:space="preserve"
       style="font-size:4.23333px;line-height:1.25;font-family:sans-serif;stroke-width:0.264583"
       x="187.91245"
       y="141.26651"
       id="text1897-5"><tspan
         sodipodi:role="line"
         x="187.91245"
         y="141.26651"
         style="stroke-width:0.264583"
         id="tspan1903-2">Top plate right:</tspan><tspan
         sodipodi:role="line"
         x="187.91245"
         y="146.55817"
         style="stroke-width:0.264583"
         id="tspan1905-8">Width: 161.927mm</tspan><tspan
         id="tspan4345"
         sodipodi:role="line"
         x="187.91245"
         y="151.84984"
         style="stroke-width:0.264583">Height: 117.025mm</tspan><tspan
         id="tspan4347"
         sodipodi:role="line"
         x="187.91245"
         y="157.14149"
         style="stroke-width:0.264583">Surface Area: 7985.594mm2</tspan><tspan
         id="tspan4349"
         sodipodi:role="line"
         x="187.91245"
         y="162.43315"
         style="stroke-width:0.264583">Cut Path Length: 2690.358mm</tspan></text>
    <path
       id="path640"
       style="fill:none;stroke:#0000ff;stroke-width:0.0485mm"
       d="m 101.98706,16.089307 -83.934415,0.006 c -0.837809,0.0215 -1.506608,0.69967 -1.509985,1.54202 -5e-6,0.001 0,0.003 0,0.004 v 0.002 l 0.01654,20.021508 v 93.784925 c 0.04209,0.80272 0.687615,1.43872 1.494482,1.46503 H 167.3195 l 0.0904,0.002 h 0.003 c 0.85343,0 1.54038,-0.69027 1.54667,-1.54254 V 113.7221 l 3.99717,-5.2e-4 c 0.40942,-0.0973 0.71741,-0.4409 0.76533,-0.86765 V 96.162463 l -5.1e-4,-0.0398 v -0.002 c 0,-0.5383 -0.42691,-0.97133 -0.95705,-1.00356 l -8.56744,-0.001 V 76.948744 c -0.0155,-0.4823 -0.36321,-0.87629 -0.82424,-0.96066 l -3.93826,-0.0351 V 56.643053 l 8.60413,-0.0243 c 0.49592,-0.0409 0.88522,-0.43279 0.92087,-0.930177 V 40.767532 l -0.005,-1.058337 -5.2e-4,-0.49557 c -0.002,-0.85675 -0.69135,-1.5462 -1.54823,-1.5472 h -0.49402 c -9.56934,-0.002 -34.13255,-10e-4 -47.82913,-10e-4 L 103.5575,16.894937 a 2.5,2.5 0 0 0 -1.57044,-0.80563 z m -82.033756,1.94975 a 1.5,1.5 0 0 1 1.500167,1.499647 1.5,1.5 0 0 1 -1.500167,1.50017 1.5,1.5 0 0 1 -1.49965,-1.50017 1.5,1.5 0 0 1 1.49965,-1.499647 z m 80.565626,0 a 1.5,1.5 0 0 1 1.50017,1.499647 1.5,1.5 0 0 1 -1.50017,1.50017 1.5,1.5 0 0 1 -1.499651,-1.50017 1.5,1.5 0 0 1 1.499651,-1.499647 z m -56.223959,6.879164 a 1.5,1.5 0 0 1 1.500167,1.49965 1.5,1.5 0 0 1 -1.500167,1.50016 1.5,1.5 0 0 1 -1.49965,-1.50016 1.5,1.5 0 0 1 1.49965,-1.49965 z m 15.875,0 a 1.5,1.5 0 0 1 1.500167,1.49965 1.5,1.5 0 0 1 -1.500167,1.50016 1.5,1.5 0 0 1 -1.49965,-1.50016 1.5,1.5 0 0 1 1.49965,-1.49965 z m 15.875,0 a 1.5,1.5 0 0 1 1.500167,1.49965 1.5,1.5 0 0 1 -1.500167,1.50016 1.5,1.5 0 0 1 -1.49965,-1.50016 1.5,1.5 0 0 1 1.49965,-1.49965 z M 19.29443,40.400462 H 32.874479 V 53.980506 H 19.29443 Z m 19.05,0 H 51.924479 V 53.980506 H 38.34443 Z m 19.05,0 H 70.974479 V 53.980506 H 57.39443 Z m 19.05,0 H 90.024479 V 53.980506 H 76.44443 Z m 19.05,0 h 13.58005 V 53.980506 H 95.49443 Z m 19.04897,0 h 13.58005 V 53.980506 H 114.5434 Z m 19.05,0 h 13.58108 V 53.980506 H 133.5934 Z m 19.05103,0 h 13.58005 v 13.580044 h -13.58005 z m -2.67426,14.346414 a 1.5,1.5 0 0 1 1.50017,1.500157 1.5,1.5 0 0 1 -1.50017,1.50017 1.5,1.5 0 0 1 -1.50016,-1.50017 1.5,1.5 0 0 1 1.50016,-1.500157 z M 19.29443,59.450453 H 32.874479 V 73.030494 H 19.29443 Z m 23.811983,0 H 56.686462 V 73.030494 H 43.106413 Z m 23.813017,0 H 80.499479 V 73.030494 H 66.91943 Z m 19.05,0 H 99.549479 V 73.030494 H 85.96943 Z m 19.05,0 h 13.58005 v 13.580041 h -13.58005 z m 19.05,0 h 13.58005 v 13.580041 h -13.58005 z m 19.05,0 h 13.58005 V 73.030494 H 143.11943 Z M 37.888127,65.06458 a 1.5,1.5 0 0 1 1.500166,1.50017 1.5,1.5 0 0 1 -1.500166,1.500167 1.5,1.5 0 0 1 -1.500167,-1.500167 1.5,1.5 0 0 1 1.500167,-1.50017 z m 69.182343,10.060364 a 1.5,1.5 0 0 1 1.50016,1.49965 1.5,1.5 0 0 1 -1.50016,1.500167 1.5,1.5 0 0 1 -1.49965,-1.500167 1.5,1.5 0 0 1 1.49965,-1.49965 z M 19.29443,78.500441 H 32.874479 V 92.080485 H 19.29443 Z m 26.192716,0 h 13.58005 v 13.580044 h -13.58005 z m 26.194267,0 H 85.261462 V 92.080485 H 71.681413 Z m 19.05,0 H 104.31146 V 92.080485 H 90.731413 Z m 19.049997,0 h 13.58005 v 13.580044 h -13.58005 z m 19.05,0 h 13.58005 v 13.580044 h -13.58005 z m 19.05,0 h 13.58005 V 92.080485 H 147.88141 Z M 50.259465,97.543723 h 13.576432 v 4.488087 h 1.842265 v -3.123837 h 6.538619 v 3.123837 h 0.824755 v 2.80034 h -0.824755 v 6.16397 h -1.619023 v 1.19992 h -3.300057 v -1.19992 h -1.619539 v -4.36408 h -1.842265 v 4.4881 H 50.259465 v -4.4881 h -1.842782 v 4.36408 H 46.79766 v 1.19992 h -3.300057 v -1.19992 h -1.619022 v -6.16397 h -0.825273 v -2.80034 h 0.825273 v -3.123837 h 6.538102 v 3.123837 h 1.842782 z m -30.965035,0.007 H 32.874479 V 111.13076 H 19.29443 Z m 61.911983,0 H 94.786462 V 111.13076 H 81.206413 Z m 19.049997,0 h 13.58005 v 13.580037 h -13.58005 z m 19.05,0 h 13.58005 v 13.580037 h -13.58005 z m 19.05,0 h 13.58005 v 13.580037 h -13.58005 z m 19.05,0 h 13.58005 V 111.13076 H 157.40641 Z M 36.731608,112.37226 a 1.5,1.5 0 0 1 1.500167,1.50017 1.5,1.5 0 0 1 -1.500167,1.49965 1.5,1.5 0 0 1 -1.500167,-1.49965 1.5,1.5 0 0 1 1.500167,-1.50017 z m 126.646012,0.64906 a 1.5,1.5 0 0 1 1.50017,1.50016 1.5,1.5 0 0 1 -1.50017,1.49965 1.5,1.5 0 0 1 -1.49965,-1.49965 1.5,1.5 0 0 1 1.49965,-1.50016 z m -57.58873,0.82527 a 1.5,1.5 0 0 1 1.50017,1.49965 1.5,1.5 0 0 1 -1.50017,1.50016 1.5,1.5 0 0 1 -1.50017,-1.50016 1.5,1.5 0 0 1 1.50017,-1.49965 z m 34.94412,2.75177 h 13.57695 v 4.4881 h 1.84227 v -3.12436 h 6.53861 v 3.12436 h 0.82476 v 2.79982 h -0.82476 v 6.16449 h -1.61953 v 1.19992 h -3.30006 v -1.19992 h -1.61902 v -4.36408 h -1.84227 v 4.4881 h -13.57695 v -4.4881 h -1.84226 v 4.36408 h -1.61903 v 1.19992 h -3.30005 v -1.19992 h -1.61954 v -6.16449 h -0.82476 v -2.79982 h 0.82476 v -3.12436 h 6.53862 v 3.12436 h 1.84226 z m -121.43858,0.002 h 13.580049 v 13.58005 H 19.29443 Z m 21.430733,0 h 13.580049 v 13.58005 H 40.725163 Z m 23.811983,0 h 13.58005 v 13.58005 h -13.58005 z m 23.813017,0 h 13.580047 v 13.58005 H 88.350163 Z m 21.431247,0 h 13.58005 v 13.58005 h -13.58005 z" />
    <path
       id="path732"
       style="fill:none;stroke:#ff0000;stroke-width:0.0499999mm"
       d="m 335.98311,16.089817 -83.7706,0.007 c -0.63319,0.0549 -1.22171,0.34886 -1.64589,0.82217 l -15.49466,20.756858 h -48.46475 c -0.79114,0.0708 -1.40757,0.73013 -1.40921,1.53996 v 0.003 1.550807 h -0.004 l -5.1e-4,16.163861 -7.51427,0.0295 -0.95602,0.001 -0.0765,0.003 c -0.50668,0.0103 -0.91567,0.38891 -0.97823,0.88057 v 16.845991 c 0.0241,0.50951 0.41975,0.9145 0.92449,0.9555 l 3.83801,-0.008 v 18.381288 c 0.0925,0.37662 0.39198,0.67013 0.77411,0.748281 l 8.75089,0.0341 v 19.240667 l -3.98012,-0.009 c -0.43894,0.0946 -0.76682,0.4721 -0.79117,0.93379 l 0.009,16.56798 c 0.0858,0.77585 0.73873,1.38762 1.53789,1.38855 l 0.0703,-5.2e-4 h 149.32836 c 0.79968,-0.0412 1.43371,-0.6819 1.46554,-1.48415 V 40.514282 l 0.003,-21.320138 h -0.0103 v -1.552357 c 0,-0.85688 -0.69094,-1.54648 -1.54771,-1.54822 v -5.2e-4 h -0.003 z m -82.13814,1.94924 c 0.82856,-9e-5 1.50026,0.67161 1.50017,1.500167 -1.9e-4,0.82836 -0.67181,1.49974 -1.50017,1.49965 -0.82815,-1.9e-4 -1.49946,-0.6715 -1.49965,-1.49965 -9e-5,-0.828357 0.67129,-1.499977 1.49965,-1.500167 z m 80.16875,0 c 0.82856,-9e-5 1.50026,0.67161 1.50017,1.500167 -1.9e-4,0.82836 -0.67181,1.49974 -1.50017,1.49965 -0.82815,-1.9e-4 -1.49946,-0.6715 -1.49965,-1.49965 -9e-5,-0.828357 0.67129,-1.499977 1.49965,-1.500167 z M 187.9291,40.410802 h 13.58005 V 53.990846 H 187.9291 Z m 19.05,0 h 13.58005 V 53.990846 H 206.9791 Z m 19.05,0 h 13.58005 V 53.990846 H 226.0291 Z m 19.05,0 h 13.58005 V 53.990846 H 245.0791 Z m 19.05,0 h 13.58005 V 53.990846 H 264.1291 Z m 19.05,0 h 13.58005 V 53.990846 H 283.1791 Z m 28.57655,0.002 h 13.57695 v 4.48862 h 1.84226 v -3.12436 h 6.53862 v 3.12436 h 0.82476 v 2.799817 h -0.82476 v 6.164487 h -1.61954 v 1.19992 h -3.29954 v -1.19992 h -1.61954 v -4.364597 h -1.84226 v 4.488617 h -13.57695 v -4.488617 h -1.84227 v 4.364597 h -1.61902 v 1.19992 h -3.30006 v -1.19992 h -1.61954 v -6.164487 h -0.82475 v -2.799817 h 0.82475 v -3.12436 h 6.53862 v 3.12436 h 1.84227 z M 194.76072,56.152913 c 0.82856,-9e-5 1.50026,0.67161 1.50017,1.50017 -1.9e-4,0.82836 -0.67181,1.49974 -1.50017,1.49965 -0.82815,-1.9e-4 -1.49946,-0.6715 -1.49965,-1.49965 -9e-5,-0.82836 0.67129,-1.49998 1.49965,-1.50017 z m -16.35662,3.30833 h 13.58005 V 73.041284 H 178.4041 Z m 19.05,0 h 13.58005 V 73.041284 H 197.4541 Z m 19.05,0 h 13.58005 V 73.041284 H 216.5041 Z m 19.05,0 h 13.58005 V 73.041284 H 235.5541 Z m 19.05,0 h 13.58005 V 73.041284 H 254.6041 Z m 19.04896,0 h 13.58005 v 13.580041 h -13.58005 z m 19.05,0 h 13.58109 v 13.580041 h -13.58109 z m 23.81302,0 h 13.58005 v 13.580041 h -13.58005 z m -5.20795,5.604307 c 0.82815,1.9e-4 1.49946,0.6715 1.49965,1.49965 9e-5,0.828357 -0.67129,1.499977 -1.49965,1.500167 -0.82856,9e-5 -1.50026,-0.67161 -1.50017,-1.500167 1.9e-4,-0.82836 0.67181,-1.49974 1.50017,-1.49965 z m -54.67677,10.069144 c 0.82815,1.9e-4 1.49946,0.6715 1.49965,1.49965 9e-5,0.828357 -0.67129,1.499977 -1.49965,1.500167 -0.82856,9e-5 -1.50025,-0.67161 -1.50016,-1.500167 1.9e-4,-0.82835 0.67181,-1.49974 1.50016,-1.49965 z m -73.46528,3.376537 h 13.58005 v 13.580044 h -13.58005 z m 19.05,0 h 13.58005 v 13.580044 h -13.58005 z m 19.05,0 h 13.58005 v 13.580044 h -13.58005 z m 19.05,0 h 13.58005 v 13.580044 h -13.58005 z m 19.05,0 h 13.58005 v 13.580044 h -13.58005 z m 19.05,0 h 13.58005 v 13.580044 h -13.58005 z m 30.89941,0.006 h 13.57643 v 4.488617 h 1.84278 v -3.124357 h 6.5381 v 3.124357 h 0.82528 v 2.79983 h -0.82528 v 6.163957 h -1.61902 v 1.200437 h -3.30006 v -1.200437 h -1.61902 v -4.364067 h -1.84278 v 4.488607 h -13.57643 v -4.488607 h -1.84278 v 4.364067 h -1.61903 v 1.200437 h -3.30005 v -1.200437 h -1.61903 v -6.163957 h -0.82527 v -2.79983 h 0.82527 v -3.124357 h 6.53811 v 3.124357 h 1.84278 z M 192.69108,97.561023 h 13.58005 v 13.580037 h -13.58005 z m 19.05,0 h 13.58005 v 13.580037 h -13.58005 z m 19.05,0 h 13.58005 v 13.580037 h -13.58005 z m 19.05,0 h 13.58005 v 13.580037 h -13.58005 z m 19.05,0 h 13.58005 v 13.580037 h -13.58005 z m 26.19427,0 h 13.58005 v 13.580037 h -13.58005 z m 26.19271,0 h 13.58005 v 13.580037 h -13.58005 z m -2.71714,14.818717 c 0.82815,1.9e-4 1.49946,0.6715 1.49965,1.49965 9e-5,0.82836 -0.67129,1.49998 -1.49965,1.50017 -0.82856,9e-5 -1.50026,-0.67161 -1.50017,-1.50017 1.9e-4,-0.82836 0.67181,-1.49974 1.50017,-1.49965 z m -123.49169,0.63252 c 0.82856,-9e-5 1.50026,0.67161 1.50017,1.50017 9e-5,0.82856 -0.67161,1.50026 -1.50017,1.50017 -0.82856,9e-5 -1.50026,-0.67161 -1.50017,-1.50017 -9e-5,-0.82856 0.67161,-1.50026 1.50017,-1.50017 z m 56.89524,0.84698 c 0.82815,1.9e-4 1.49946,0.6715 1.49965,1.49965 9e-5,0.82836 -0.67129,1.49998 -1.49965,1.50017 -0.82856,9e-5 -1.50026,-0.67161 -1.50017,-1.50017 1.9e-4,-0.82836 0.67181,-1.49974 1.50017,-1.49965 z m -18.79214,2.75177 h 13.58005 v 13.58005 h -13.58005 z m 23.81302,0 h 13.58005 v 13.58005 h -13.58005 z m 23.81198,0 h 13.58005 v 13.58005 h -13.58005 z m 21.43177,0 h 13.58005 v 13.58005 H 302.2291 Z m 19.05,0 h 13.58005 v 13.58005 H 321.2791 Z m -121.44117,0.0222 h 13.57643 v 4.4881 h 1.84279 v -3.12384 h 6.5381 v 3.12384 h 0.82527 v 2.79983 h -0.82527 v 6.16448 h -1.61903 v 1.19993 h -3.30005 v -1.19993 h -1.61902 v -4.36407 h -1.84279 v 4.48809 h -13.57643 v -4.48809 h -1.84278 v 4.36407 h -1.61902 v 1.19993 h -3.30006 v -1.19993 h -1.61902 v -6.16448 h -0.82528 v -2.79983 h 0.82528 v -3.12384 h 6.5381 v 3.12384 h 1.84278 z"
       sodipodi:nodetypes="cccccscccccccccccccccccccccccccsccccccccccccccccccccccccccccccccccccccccccccccccccccccccccccccccccccccccccccccccccccccccccccccccccccccccccccccccccccccccccccccccccccccccccccccccccccccccccccccccccccccccccccccccccccccccccccccccccccccccccccccccccccccccccccccccccccccccccccccssssscccccssssscccccccccccccccccccccccccccccccccccccccccccccccccccccccccccccc" />
    <text
       id="text1016"
       y="27.265173"
       x="276.25821"
       style="font-size:2.65194px;line-height:1.25;font-family:sans-serif;stroke-width:0.165747"
       xml:space="preserve"
       inkscape:export-xdpi="96"
       inkscape:export-ydpi="96"><tspan
         style="font-style:normal;font-variant:normal;font-weight:normal;font-stretch:normal;font-family:Monaco;-inkscape-font-specification:Monaco;stroke-width:0.165747"
         y="27.265173"
         x="276.25821"
         sodipodi:role="line"
         id="tspan1014">github.com/herpiko/unk</tspan></text>
  </g>
</svg>
